# MagicaVoxel @ Ephtracy

# group
o 

# material
mtllib Village-70.mtl
usemtl palette

# normals
vn -1 0 0
vn 1 0 0
vn 0 0 1
vn 0 0 -1
vn 0 -1 0
vn 0 1 0

# texcoords
vt 0.0175781 0.5
vt 0.0605469 0.5

# verts
v -0.7 -2.1 0.8
v -0.7 -2.1 -0.8
v -0.7 -1.9 0.8
v -0.7 -1.9 -0.8
v -0.6 1.9 0.7
v -0.6 1.9 -0.7
v -0.6 2.1 0.7
v -0.6 2.1 -0.7
v -0.5 -1.9 0.6
v -0.5 -1.9 -0.6
v -0.5 -0.2 0.6
v -0.5 -0.2 0.4
v -0.5 0.6 0.4
v -0.5 0.6 0.1
v -0.5 0.8 0.2
v -0.5 0.8 0.1
v -0.5 0.9 0.5
v -0.5 0.9 0.2
v -0.5 1 0.6
v -0.5 1 0.5
v -0.5 1.9 0.6
v -0.5 1.9 -0.6
v -0.4 -0.2 0.5
v -0.4 -0.2 0.4
v -0.4 0.6 0.4
v -0.4 0.6 0.1
v -0.4 0.8 0.2
v -0.4 0.8 0.1
v -0.4 0.9 0.5
v -0.4 0.9 0.2
v -0.3 0 0.6
v -0.3 0 0.5
v -0.3 0.9 0.5
v -0.3 1 0.6
v -0.3 1 0.5
v -0.2 -0.4 0.6
v -0.2 -0.4 0.5
v -0.2 0 0.6
v -0.2 0 0.5
v -0.3 -0.4 0.6
v -0.3 -0.4 0.5
v -0.3 -0.2 0.6
v -0.3 -0.2 0.5
v 0.7 -1.9 0.6
v 0.7 -1.9 -0.6
v 0.7 1.9 0.6
v 0.7 1.9 -0.6
v 0.8 1.9 0.7
v 0.8 1.9 -0.7
v 0.8 2.1 0.7
v 0.8 2.1 -0.7
v 0.9 -2.1 0.8
v 0.9 -2.1 -0.8
v 0.9 -1.9 0.8
v 0.9 -1.9 -0.8
v -0.7 -2.1 0.8
v -0.7 -1.9 0.8
v 0.9 -2.1 0.8
v 0.9 -1.9 0.8
v -0.6 1.9 0.7
v -0.6 2.1 0.7
v 0.8 1.9 0.7
v 0.8 2.1 0.7
v -0.5 -1.9 0.6
v -0.5 -0.2 0.6
v -0.5 1 0.6
v -0.5 1.9 0.6
v -0.3 -0.4 0.6
v -0.3 -0.2 0.6
v -0.3 0 0.6
v -0.3 1 0.6
v -0.2 -0.4 0.6
v -0.2 0 0.6
v 0.7 -1.9 0.6
v 0.7 1.9 0.6
v -0.5 0.9 0.5
v -0.5 1 0.5
v -0.4 -0.2 0.5
v -0.4 0.9 0.5
v -0.3 -0.4 0.5
v -0.3 -0.2 0.5
v -0.3 0 0.5
v -0.3 0.9 0.5
v -0.3 1 0.5
v -0.2 -0.4 0.5
v -0.2 0 0.5
v -0.5 -0.2 0.4
v -0.5 0.6 0.4
v -0.4 -0.2 0.4
v -0.4 0.6 0.4
v -0.5 0.8 0.2
v -0.5 0.9 0.2
v -0.4 0.8 0.2
v -0.4 0.9 0.2
v -0.5 0.6 0.1
v -0.5 0.8 0.1
v -0.4 0.6 0.1
v -0.4 0.8 0.1
v -0.5 -1.9 -0.6
v -0.5 1.9 -0.6
v 0.7 -1.9 -0.6
v 0.7 1.9 -0.6
v -0.6 1.9 -0.7
v -0.6 2.1 -0.7
v 0.8 1.9 -0.7
v 0.8 2.1 -0.7
v -0.7 -2.1 -0.8
v -0.7 -1.9 -0.8
v 0.9 -2.1 -0.8
v 0.9 -1.9 -0.8
v -0.7 -2.1 0.8
v 0.9 -2.1 0.8
v -0.7 -2.1 -0.8
v 0.9 -2.1 -0.8
v -0.3 0 0.6
v -0.2 0 0.6
v -0.3 0 0.5
v -0.2 0 0.5
v -0.5 0.8 0.2
v -0.4 0.8 0.2
v -0.5 0.8 0.1
v -0.4 0.8 0.1
v -0.5 0.9 0.5
v -0.4 0.9 0.5
v -0.5 0.9 0.2
v -0.4 0.9 0.2
v -0.5 1 0.6
v -0.3 1 0.6
v -0.5 1 0.5
v -0.3 1 0.5
v -0.6 1.9 0.7
v 0.8 1.9 0.7
v -0.5 1.9 0.6
v 0.7 1.9 0.6
v -0.5 1.9 -0.6
v 0.7 1.9 -0.6
v -0.6 1.9 -0.7
v 0.8 1.9 -0.7
v -0.7 -1.9 0.8
v 0.9 -1.9 0.8
v -0.5 -1.9 0.6
v 0.7 -1.9 0.6
v -0.5 -1.9 -0.6
v 0.7 -1.9 -0.6
v -0.7 -1.9 -0.8
v 0.9 -1.9 -0.8
v -0.3 -0.4 0.6
v -0.2 -0.4 0.6
v -0.3 -0.4 0.5
v -0.2 -0.4 0.5
v -0.5 -0.2 0.6
v -0.3 -0.2 0.6
v -0.4 -0.2 0.5
v -0.3 -0.2 0.5
v -0.5 -0.2 0.4
v -0.4 -0.2 0.4
v -0.5 0.6 0.4
v -0.4 0.6 0.4
v -0.5 0.6 0.1
v -0.4 0.6 0.1
v -0.6 2.1 0.7
v 0.8 2.1 0.7
v -0.6 2.1 -0.7
v 0.8 2.1 -0.7

# faces
f 3/2/1 2/2/1 1/2/1
f 4/2/1 2/2/1 3/2/1
f 7/2/1 6/2/1 5/2/1
f 8/2/1 6/2/1 7/2/1
f 11/2/1 10/2/1 9/2/1
f 12/2/1 10/2/1 11/2/1
f 13/2/1 10/2/1 12/2/1
f 14/2/1 10/2/1 13/2/1
f 16/2/1 10/2/1 14/2/1
f 18/2/1 16/2/1 15/2/1
f 20/2/1 18/2/1 17/2/1
f 21/2/1 20/2/1 19/2/1
f 22/2/1 10/2/1 16/2/1
f 22/2/1 20/2/1 21/2/1
f 22/2/1 16/2/1 18/2/1
f 22/2/1 18/2/1 20/2/1
f 25/1/1 24/1/1 23/1/1
f 27/1/1 26/1/1 25/1/1
f 28/1/1 26/1/1 27/1/1
f 29/1/1 25/1/1 23/1/1
f 29/1/1 27/1/1 25/1/1
f 30/1/1 27/1/1 29/1/1
f 33/2/1 32/2/1 31/2/1
f 34/2/1 33/2/1 31/2/1
f 35/2/1 33/2/1 34/2/1
f 38/2/1 37/2/1 36/2/1
f 39/2/1 37/2/1 38/2/1
f 40/2/2 41/2/2 42/2/2
f 42/2/2 41/2/2 43/2/2
f 44/2/2 45/2/2 46/2/2
f 46/2/2 45/2/2 47/2/2
f 48/2/2 49/2/2 50/2/2
f 50/2/2 49/2/2 51/2/2
f 52/2/2 53/2/2 54/2/2
f 54/2/2 53/2/2 55/2/2
f 58/2/3 57/2/3 56/2/3
f 59/2/3 57/2/3 58/2/3
f 62/2/3 61/2/3 60/2/3
f 63/2/3 61/2/3 62/2/3
f 68/2/3 65/2/3 64/2/3
f 69/2/3 65/2/3 68/2/3
f 71/2/3 67/2/3 66/2/3
f 72/2/3 68/2/3 64/2/3
f 73/2/3 71/2/3 70/2/3
f 74/2/3 72/2/3 64/2/3
f 74/2/3 73/2/3 72/2/3
f 75/2/3 71/2/3 73/2/3
f 75/2/3 73/2/3 74/2/3
f 75/2/3 67/2/3 71/2/3
f 79/2/3 77/2/3 76/2/3
f 81/1/3 79/1/3 78/1/3
f 82/1/3 79/1/3 81/1/3
f 83/2/3 77/2/3 79/2/3
f 83/1/3 79/1/3 82/1/3
f 84/2/3 77/2/3 83/2/3
f 85/1/3 82/1/3 81/1/3
f 85/1/3 81/1/3 80/1/3
f 86/1/3 82/1/3 85/1/3
f 89/2/3 88/2/3 87/2/3
f 90/2/3 88/2/3 89/2/3
f 93/2/3 92/2/3 91/2/3
f 94/2/3 92/2/3 93/2/3
f 97/2/3 96/2/3 95/2/3
f 98/2/3 96/2/3 97/2/3
f 99/2/4 100/2/4 101/2/4
f 101/2/4 100/2/4 102/2/4
f 103/2/4 104/2/4 105/2/4
f 105/2/4 104/2/4 106/2/4
f 107/2/4 108/2/4 109/2/4
f 109/2/4 108/2/4 110/2/4
f 113/2/5 112/2/5 111/2/5
f 114/2/5 112/2/5 113/2/5
f 117/2/5 116/2/5 115/2/5
f 118/2/5 116/2/5 117/2/5
f 121/2/5 120/2/5 119/2/5
f 122/2/5 120/2/5 121/2/5
f 125/2/5 124/2/5 123/2/5
f 126/2/5 124/2/5 125/2/5
f 129/2/5 128/2/5 127/2/5
f 130/2/5 128/2/5 129/2/5
f 133/2/5 132/2/5 131/2/5
f 134/2/5 132/2/5 133/2/5
f 135/2/5 133/2/5 131/2/5
f 136/2/5 132/2/5 134/2/5
f 137/2/5 135/2/5 131/2/5
f 137/2/5 136/2/5 135/2/5
f 138/2/5 132/2/5 136/2/5
f 138/2/5 136/2/5 137/2/5
f 139/2/6 140/2/6 141/2/6
f 141/2/6 140/2/6 142/2/6
f 139/2/6 141/2/6 143/2/6
f 142/2/6 140/2/6 144/2/6
f 139/2/6 143/2/6 145/2/6
f 143/2/6 144/2/6 145/2/6
f 144/2/6 140/2/6 146/2/6
f 145/2/6 144/2/6 146/2/6
f 147/2/6 148/2/6 149/2/6
f 149/2/6 148/2/6 150/2/6
f 151/2/6 152/2/6 153/2/6
f 153/2/6 152/2/6 154/2/6
f 151/2/6 153/2/6 155/2/6
f 155/2/6 153/2/6 156/2/6
f 157/2/6 158/2/6 159/2/6
f 159/2/6 158/2/6 160/2/6
f 161/2/6 162/2/6 163/2/6
f 163/2/6 162/2/6 164/2/6
