# MagicaVoxel @ Ephtracy

# group
o 

# material
mtllib Village-14.mtl
usemtl palette

# normals
vn -1 0 0
vn 1 0 0
vn 0 0 1
vn 0 0 -1
vn 0 -1 0
vn 0 1 0

# texcoords
vt 0.00195313 0.5
vt 0.0175781 0.5
vt 0.0605469 0.5

# verts
v -1.1 -2.5 3
v -1.1 -2.5 -3
v -1.1 2.5 3
v -1.1 2.5 -3
v -0.3 1 2.4
v -0.3 1 2.3
v -0.3 1 -2.3
v -0.3 1 -2.4
v -0.3 1.7 2.3
v -0.3 1.7 2.2
v -0.3 1.7 2.1
v -0.3 1.7 0.8
v -0.3 1.7 0.7
v -0.3 1.7 -0.7
v -0.3 1.7 -0.8
v -0.3 1.7 -2.1
v -0.3 1.7 -2.2
v -0.3 1.7 -2.3
v -0.3 1.8 2.4
v -0.3 1.8 -2.4
v -0.5 -2.5 3
v -0.5 -2.5 -3
v -0.5 -1.5 2.3
v -0.5 -1.5 2
v -0.5 -1.5 0.9
v -0.5 -1.5 0.6
v -0.5 -1.5 -0.6
v -0.5 -1.5 -0.9
v -0.5 -1.5 -2
v -0.5 -1.5 -2.3
v -0.5 -1.2 2.3
v -0.5 -1.2 2
v -0.5 -1.2 0.9
v -0.5 -1.2 0.6
v -0.5 -1.2 -0.6
v -0.5 -1.2 -0.9
v -0.5 -1.2 -2
v -0.5 -1.2 -2.3
v -0.5 0.2 2.3
v -0.5 0.2 2
v -0.5 0.2 0.9
v -0.5 0.2 0.6
v -0.5 0.2 -0.6
v -0.5 0.2 -0.9
v -0.5 0.2 -2
v -0.5 0.2 -2.3
v -0.5 0.5 2.3
v -0.5 0.5 2
v -0.5 0.5 0.9
v -0.5 0.5 0.6
v -0.5 0.5 -0.6
v -0.5 0.5 -0.9
v -0.5 0.5 -2
v -0.5 0.5 -2.3
v -0.5 1.5 2.3
v -0.5 1.5 2
v -0.5 1.5 0.9
v -0.5 1.5 0.6
v -0.5 1.5 -0.6
v -0.5 1.5 -0.9
v -0.5 1.5 -2
v -0.5 1.5 -2.3
v -0.5 1.8 2.3
v -0.5 1.8 2
v -0.5 1.8 0.9
v -0.5 1.8 0.6
v -0.5 1.8 -0.6
v -0.5 1.8 -0.9
v -0.5 1.8 -2
v -0.5 1.8 -2.3
v -0.5 2.5 3
v -0.5 2.5 -3
v -0.4 -1.5 2.3
v -0.4 -1.5 2
v -0.4 -1.5 0.9
v -0.4 -1.5 0.6
v -0.4 -1.5 -0.6
v -0.4 -1.5 -0.9
v -0.4 -1.5 -2
v -0.4 -1.5 -2.3
v -0.4 -1.4 2.2
v -0.4 -1.4 2.1
v -0.4 -1.4 0.8
v -0.4 -1.4 0.7
v -0.4 -1.4 -0.7
v -0.4 -1.4 -0.8
v -0.4 -1.4 -2.1
v -0.4 -1.4 -2.2
v -0.4 -1.3 2.2
v -0.4 -1.3 2.1
v -0.4 -1.3 0.8
v -0.4 -1.3 0.7
v -0.4 -1.3 -0.7
v -0.4 -1.3 -0.8
v -0.4 -1.3 -2.1
v -0.4 -1.3 -2.2
v -0.4 -1.2 2.3
v -0.4 -1.2 2
v -0.4 -1.2 0.9
v -0.4 -1.2 0.6
v -0.4 -1.2 -0.6
v -0.4 -1.2 -0.9
v -0.4 -1.2 -2
v -0.4 -1.2 -2.3
v -0.4 0.2 2.3
v -0.4 0.2 2
v -0.4 0.2 0.9
v -0.4 0.2 0.6
v -0.4 0.2 -0.6
v -0.4 0.2 -0.9
v -0.4 0.2 -2
v -0.4 0.2 -2.3
v -0.4 0.3 2.2
v -0.4 0.3 2.1
v -0.4 0.3 0.8
v -0.4 0.3 0.7
v -0.4 0.3 -0.7
v -0.4 0.3 -0.8
v -0.4 0.3 -2.1
v -0.4 0.3 -2.2
v -0.4 0.4 2.2
v -0.4 0.4 2.1
v -0.4 0.4 0.8
v -0.4 0.4 0.7
v -0.4 0.4 -0.7
v -0.4 0.4 -0.8
v -0.4 0.4 -2.1
v -0.4 0.4 -2.2
v -0.4 0.5 2.3
v -0.4 0.5 2
v -0.4 0.5 0.9
v -0.4 0.5 0.6
v -0.4 0.5 -0.6
v -0.4 0.5 -0.9
v -0.4 0.5 -2
v -0.4 0.5 -2.3
v -0.4 1.5 2.3
v -0.4 1.5 2
v -0.4 1.5 0.9
v -0.4 1.5 0.6
v -0.4 1.5 -0.6
v -0.4 1.5 -0.9
v -0.4 1.5 -2
v -0.4 1.5 -2.3
v -0.4 1.6 2.2
v -0.4 1.6 2.1
v -0.4 1.6 0.8
v -0.4 1.6 0.7
v -0.4 1.6 -0.7
v -0.4 1.6 -0.8
v -0.4 1.6 -2.1
v -0.4 1.6 -2.2
v -0.4 1.7 2.2
v -0.4 1.7 2.1
v -0.4 1.7 0.8
v -0.4 1.7 0.7
v -0.4 1.7 -0.7
v -0.4 1.7 -0.8
v -0.4 1.7 -2.1
v -0.4 1.7 -2.2
v -0.4 1.8 2.3
v -0.4 1.8 2
v -0.4 1.8 0.9
v -0.4 1.8 0.6
v -0.4 1.8 -0.6
v -0.4 1.8 -0.9
v -0.4 1.8 -2
v -0.4 1.8 -2.3
v 1.3 -1.4 2.2
v 1.3 -1.4 2.1
v 1.3 -1.4 0.8
v 1.3 -1.4 0.7
v 1.3 -1.4 -0.7
v 1.3 -1.4 -0.8
v 1.3 -1.4 -2.1
v 1.3 -1.4 -2.2
v 1.3 -1.3 2.2
v 1.3 -1.3 2.1
v 1.3 -1.3 0.8
v 1.3 -1.3 0.7
v 1.3 -1.3 -0.7
v 1.3 -1.3 -0.8
v 1.3 -1.3 -2.1
v 1.3 -1.3 -2.2
v 1.3 0.3 2.2
v 1.3 0.3 2.1
v 1.3 0.3 0.8
v 1.3 0.3 0.7
v 1.3 0.3 -0.7
v 1.3 0.3 -0.8
v 1.3 0.3 -2.1
v 1.3 0.3 -2.2
v 1.3 0.4 2.2
v 1.3 0.4 2.1
v 1.3 0.4 0.8
v 1.3 0.4 0.7
v 1.3 0.4 -0.7
v 1.3 0.4 -0.8
v 1.3 0.4 -2.1
v 1.3 0.4 -2.2
v 1.3 1.6 2.2
v 1.3 1.6 2.1
v 1.3 1.6 0.8
v 1.3 1.6 0.7
v 1.3 1.6 -0.7
v 1.3 1.6 -0.8
v 1.3 1.6 -2.1
v 1.3 1.6 -2.2
v 1.3 1.7 2.2
v 1.3 1.7 2.1
v 1.3 1.7 0.8
v 1.3 1.7 0.7
v 1.3 1.7 -0.7
v 1.3 1.7 -0.8
v 1.3 1.7 -2.1
v 1.3 1.7 -2.2
v 1.4 1 2.4
v 1.4 1 2.3
v 1.4 1 -2.3
v 1.4 1 -2.4
v 1.4 1.7 2.3
v 1.4 1.7 -2.3
v 1.4 1.8 2.4
v 1.4 1.8 -2.4
v -1.1 -2.5 3
v -1.1 2.5 3
v -0.5 -2.5 3
v -0.5 2.5 3
v -0.3 1 2.4
v -0.3 1.8 2.4
v 1.4 1 2.4
v 1.4 1.8 2.4
v -0.5 -1.5 2.3
v -0.5 -1.2 2.3
v -0.5 0.2 2.3
v -0.5 0.5 2.3
v -0.5 1.5 2.3
v -0.5 1.8 2.3
v -0.4 -1.5 2.3
v -0.4 -1.2 2.3
v -0.4 0.2 2.3
v -0.4 0.5 2.3
v -0.4 1.5 2.3
v -0.4 1.8 2.3
v -0.4 -1.4 2.2
v -0.4 -1.3 2.2
v -0.4 0.3 2.2
v -0.4 0.4 2.2
v -0.4 1.6 2.2
v -0.4 1.7 2.2
v -0.3 1.7 2.2
v 1.3 -1.4 2.2
v 1.3 -1.3 2.2
v 1.3 0.3 2.2
v 1.3 0.4 2.2
v 1.3 1.6 2.2
v 1.3 1.7 2.2
v -0.5 -1.5 0.9
v -0.5 -1.2 0.9
v -0.5 0.2 0.9
v -0.5 0.5 0.9
v -0.5 1.5 0.9
v -0.5 1.8 0.9
v -0.4 -1.5 0.9
v -0.4 -1.2 0.9
v -0.4 0.2 0.9
v -0.4 0.5 0.9
v -0.4 1.5 0.9
v -0.4 1.8 0.9
v -0.4 -1.4 0.8
v -0.4 -1.3 0.8
v -0.4 0.3 0.8
v -0.4 0.4 0.8
v -0.4 1.6 0.8
v -0.4 1.7 0.8
v -0.3 1.7 0.8
v 1.3 -1.4 0.8
v 1.3 -1.3 0.8
v 1.3 0.3 0.8
v 1.3 0.4 0.8
v 1.3 1.6 0.8
v 1.3 1.7 0.8
v -0.5 -1.5 -0.6
v -0.5 -1.2 -0.6
v -0.5 0.2 -0.6
v -0.5 0.5 -0.6
v -0.5 1.5 -0.6
v -0.5 1.8 -0.6
v -0.4 -1.5 -0.6
v -0.4 -1.2 -0.6
v -0.4 0.2 -0.6
v -0.4 0.5 -0.6
v -0.4 1.5 -0.6
v -0.4 1.8 -0.6
v -0.4 -1.4 -0.7
v -0.4 -1.3 -0.7
v -0.4 0.3 -0.7
v -0.4 0.4 -0.7
v -0.4 1.6 -0.7
v -0.4 1.7 -0.7
v -0.3 1.7 -0.7
v 1.3 -1.4 -0.7
v 1.3 -1.3 -0.7
v 1.3 0.3 -0.7
v 1.3 0.4 -0.7
v 1.3 1.6 -0.7
v 1.3 1.7 -0.7
v -0.5 -1.5 -2
v -0.5 -1.2 -2
v -0.5 0.2 -2
v -0.5 0.5 -2
v -0.5 1.5 -2
v -0.5 1.8 -2
v -0.4 -1.5 -2
v -0.4 -1.2 -2
v -0.4 0.2 -2
v -0.4 0.5 -2
v -0.4 1.5 -2
v -0.4 1.8 -2
v -0.4 -1.4 -2.1
v -0.4 -1.3 -2.1
v -0.4 0.3 -2.1
v -0.4 0.4 -2.1
v -0.4 1.6 -2.1
v -0.4 1.7 -2.1
v -0.3 1.7 -2.1
v 1.3 -1.4 -2.1
v 1.3 -1.3 -2.1
v 1.3 0.3 -2.1
v 1.3 0.4 -2.1
v 1.3 1.6 -2.1
v 1.3 1.7 -2.1
v -0.3 1 -2.3
v -0.3 1.7 -2.3
v 1.4 1 -2.3
v 1.4 1.7 -2.3
v -0.3 1 2.3
v -0.3 1.7 2.3
v 1.4 1 2.3
v 1.4 1.7 2.3
v -0.4 -1.4 2.1
v -0.4 -1.3 2.1
v -0.4 0.3 2.1
v -0.4 0.4 2.1
v -0.4 1.6 2.1
v -0.4 1.7 2.1
v -0.3 1.7 2.1
v 1.3 -1.4 2.1
v 1.3 -1.3 2.1
v 1.3 0.3 2.1
v 1.3 0.4 2.1
v 1.3 1.6 2.1
v 1.3 1.7 2.1
v -0.5 -1.5 2
v -0.5 -1.2 2
v -0.5 0.2 2
v -0.5 0.5 2
v -0.5 1.5 2
v -0.5 1.8 2
v -0.4 -1.5 2
v -0.4 -1.2 2
v -0.4 0.2 2
v -0.4 0.5 2
v -0.4 1.5 2
v -0.4 1.8 2
v -0.4 -1.4 0.7
v -0.4 -1.3 0.7
v -0.4 0.3 0.7
v -0.4 0.4 0.7
v -0.4 1.6 0.7
v -0.4 1.7 0.7
v -0.3 1.7 0.7
v 1.3 -1.4 0.7
v 1.3 -1.3 0.7
v 1.3 0.3 0.7
v 1.3 0.4 0.7
v 1.3 1.6 0.7
v 1.3 1.7 0.7
v -0.5 -1.5 0.6
v -0.5 -1.2 0.6
v -0.5 0.2 0.6
v -0.5 0.5 0.6
v -0.5 1.5 0.6
v -0.5 1.8 0.6
v -0.4 -1.5 0.6
v -0.4 -1.2 0.6
v -0.4 0.2 0.6
v -0.4 0.5 0.6
v -0.4 1.5 0.6
v -0.4 1.8 0.6
v -0.4 -1.4 -0.8
v -0.4 -1.3 -0.8
v -0.4 0.3 -0.8
v -0.4 0.4 -0.8
v -0.4 1.6 -0.8
v -0.4 1.7 -0.8
v -0.3 1.7 -0.8
v 1.3 -1.4 -0.8
v 1.3 -1.3 -0.8
v 1.3 0.3 -0.8
v 1.3 0.4 -0.8
v 1.3 1.6 -0.8
v 1.3 1.7 -0.8
v -0.5 -1.5 -0.9
v -0.5 -1.2 -0.9
v -0.5 0.2 -0.9
v -0.5 0.5 -0.9
v -0.5 1.5 -0.9
v -0.5 1.8 -0.9
v -0.4 -1.5 -0.9
v -0.4 -1.2 -0.9
v -0.4 0.2 -0.9
v -0.4 0.5 -0.9
v -0.4 1.5 -0.9
v -0.4 1.8 -0.9
v -0.4 -1.4 -2.2
v -0.4 -1.3 -2.2
v -0.4 0.3 -2.2
v -0.4 0.4 -2.2
v -0.4 1.6 -2.2
v -0.4 1.7 -2.2
v -0.3 1.7 -2.2
v 1.3 -1.4 -2.2
v 1.3 -1.3 -2.2
v 1.3 0.3 -2.2
v 1.3 0.4 -2.2
v 1.3 1.6 -2.2
v 1.3 1.7 -2.2
v -0.5 -1.5 -2.3
v -0.5 -1.2 -2.3
v -0.5 0.2 -2.3
v -0.5 0.5 -2.3
v -0.5 1.5 -2.3
v -0.5 1.8 -2.3
v -0.4 -1.5 -2.3
v -0.4 -1.2 -2.3
v -0.4 0.2 -2.3
v -0.4 0.5 -2.3
v -0.4 1.5 -2.3
v -0.4 1.8 -2.3
v -0.3 1 -2.4
v -0.3 1.8 -2.4
v 1.4 1 -2.4
v 1.4 1.8 -2.4
v -1.1 -2.5 -3
v -1.1 2.5 -3
v -0.5 -2.5 -3
v -0.5 2.5 -3
v -1.1 -2.5 3
v -0.5 -2.5 3
v -1.1 -2.5 -3
v -0.5 -2.5 -3
v -0.5 -1.5 2.3
v -0.4 -1.5 2.3
v -0.5 -1.5 2
v -0.4 -1.5 2
v -0.5 -1.5 0.9
v -0.4 -1.5 0.9
v -0.5 -1.5 0.6
v -0.4 -1.5 0.6
v -0.5 -1.5 -0.6
v -0.4 -1.5 -0.6
v -0.5 -1.5 -0.9
v -0.4 -1.5 -0.9
v -0.5 -1.5 -2
v -0.4 -1.5 -2
v -0.5 -1.5 -2.3
v -0.4 -1.5 -2.3
v -0.4 -1.4 2.2
v 1.3 -1.4 2.2
v -0.4 -1.4 2.1
v 1.3 -1.4 2.1
v -0.4 -1.4 0.8
v 1.3 -1.4 0.8
v -0.4 -1.4 0.7
v 1.3 -1.4 0.7
v -0.4 -1.4 -0.7
v 1.3 -1.4 -0.7
v -0.4 -1.4 -0.8
v 1.3 -1.4 -0.8
v -0.4 -1.4 -2.1
v 1.3 -1.4 -2.1
v -0.4 -1.4 -2.2
v 1.3 -1.4 -2.2
v -0.5 0.2 2.3
v -0.4 0.2 2.3
v -0.5 0.2 2
v -0.4 0.2 2
v -0.5 0.2 0.9
v -0.4 0.2 0.9
v -0.5 0.2 0.6
v -0.4 0.2 0.6
v -0.5 0.2 -0.6
v -0.4 0.2 -0.6
v -0.5 0.2 -0.9
v -0.4 0.2 -0.9
v -0.5 0.2 -2
v -0.4 0.2 -2
v -0.5 0.2 -2.3
v -0.4 0.2 -2.3
v -0.4 0.3 2.2
v 1.3 0.3 2.2
v -0.4 0.3 2.1
v 1.3 0.3 2.1
v -0.4 0.3 0.8
v 1.3 0.3 0.8
v -0.4 0.3 0.7
v 1.3 0.3 0.7
v -0.4 0.3 -0.7
v 1.3 0.3 -0.7
v -0.4 0.3 -0.8
v 1.3 0.3 -0.8
v -0.4 0.3 -2.1
v 1.3 0.3 -2.1
v -0.4 0.3 -2.2
v 1.3 0.3 -2.2
v -0.3 1 2.4
v 1.4 1 2.4
v -0.3 1 2.3
v 1.4 1 2.3
v -0.3 1 -2.3
v 1.4 1 -2.3
v -0.3 1 -2.4
v 1.4 1 -2.4
v -0.5 1.5 2.3
v -0.4 1.5 2.3
v -0.5 1.5 2
v -0.4 1.5 2
v -0.5 1.5 0.9
v -0.4 1.5 0.9
v -0.5 1.5 0.6
v -0.4 1.5 0.6
v -0.5 1.5 -0.6
v -0.4 1.5 -0.6
v -0.5 1.5 -0.9
v -0.4 1.5 -0.9
v -0.5 1.5 -2
v -0.4 1.5 -2
v -0.5 1.5 -2.3
v -0.4 1.5 -2.3
v -0.4 1.6 2.2
v 1.3 1.6 2.2
v -0.4 1.6 2.1
v 1.3 1.6 2.1
v -0.4 1.6 0.8
v 1.3 1.6 0.8
v -0.4 1.6 0.7
v 1.3 1.6 0.7
v -0.4 1.6 -0.7
v 1.3 1.6 -0.7
v -0.4 1.6 -0.8
v 1.3 1.6 -0.8
v -0.4 1.6 -2.1
v 1.3 1.6 -2.1
v -0.4 1.6 -2.2
v 1.3 1.6 -2.2
v -0.3 1.7 2.3
v 1.4 1.7 2.3
v -0.3 1.7 2.2
v 1.3 1.7 2.2
v -0.3 1.7 2.1
v 1.3 1.7 2.1
v -0.3 1.7 0.8
v 1.3 1.7 0.8
v -0.3 1.7 0.7
v 1.3 1.7 0.7
v -0.3 1.7 -0.7
v 1.3 1.7 -0.7
v -0.3 1.7 -0.8
v 1.3 1.7 -0.8
v -0.3 1.7 -2.1
v 1.3 1.7 -2.1
v -0.3 1.7 -2.2
v 1.3 1.7 -2.2
v -0.3 1.7 -2.3
v 1.4 1.7 -2.3
v -0.4 -1.3 2.2
v 1.3 -1.3 2.2
v -0.4 -1.3 2.1
v 1.3 -1.3 2.1
v -0.4 -1.3 0.8
v 1.3 -1.3 0.8
v -0.4 -1.3 0.7
v 1.3 -1.3 0.7
v -0.4 -1.3 -0.7
v 1.3 -1.3 -0.7
v -0.4 -1.3 -0.8
v 1.3 -1.3 -0.8
v -0.4 -1.3 -2.1
v 1.3 -1.3 -2.1
v -0.4 -1.3 -2.2
v 1.3 -1.3 -2.2
v -0.5 -1.2 2.3
v -0.4 -1.2 2.3
v -0.5 -1.2 2
v -0.4 -1.2 2
v -0.5 -1.2 0.9
v -0.4 -1.2 0.9
v -0.5 -1.2 0.6
v -0.4 -1.2 0.6
v -0.5 -1.2 -0.6
v -0.4 -1.2 -0.6
v -0.5 -1.2 -0.9
v -0.4 -1.2 -0.9
v -0.5 -1.2 -2
v -0.4 -1.2 -2
v -0.5 -1.2 -2.3
v -0.4 -1.2 -2.3
v -0.4 0.4 2.2
v 1.3 0.4 2.2
v -0.4 0.4 2.1
v 1.3 0.4 2.1
v -0.4 0.4 0.8
v 1.3 0.4 0.8
v -0.4 0.4 0.7
v 1.3 0.4 0.7
v -0.4 0.4 -0.7
v 1.3 0.4 -0.7
v -0.4 0.4 -0.8
v 1.3 0.4 -0.8
v -0.4 0.4 -2.1
v 1.3 0.4 -2.1
v -0.4 0.4 -2.2
v 1.3 0.4 -2.2
v -0.5 0.5 2.3
v -0.4 0.5 2.3
v -0.5 0.5 2
v -0.4 0.5 2
v -0.5 0.5 0.9
v -0.4 0.5 0.9
v -0.5 0.5 0.6
v -0.4 0.5 0.6
v -0.5 0.5 -0.6
v -0.4 0.5 -0.6
v -0.5 0.5 -0.9
v -0.4 0.5 -0.9
v -0.5 0.5 -2
v -0.4 0.5 -2
v -0.5 0.5 -2.3
v -0.4 0.5 -2.3
v -0.4 1.7 2.2
v -0.3 1.7 2.2
v -0.4 1.7 2.1
v -0.3 1.7 2.1
v -0.4 1.7 0.8
v -0.3 1.7 0.8
v -0.4 1.7 0.7
v -0.3 1.7 0.7
v -0.4 1.7 -0.7
v -0.3 1.7 -0.7
v -0.4 1.7 -0.8
v -0.3 1.7 -0.8
v -0.4 1.7 -2.1
v -0.3 1.7 -2.1
v -0.4 1.7 -2.2
v -0.3 1.7 -2.2
v -0.3 1.8 2.4
v 1.4 1.8 2.4
v -0.5 1.8 2.3
v -0.4 1.8 2.3
v -0.5 1.8 2
v -0.4 1.8 2
v -0.5 1.8 0.9
v -0.4 1.8 0.9
v -0.5 1.8 0.6
v -0.4 1.8 0.6
v -0.5 1.8 -0.6
v -0.4 1.8 -0.6
v -0.5 1.8 -0.9
v -0.4 1.8 -0.9
v -0.5 1.8 -2
v -0.4 1.8 -2
v -0.5 1.8 -2.3
v -0.4 1.8 -2.3
v -0.3 1.8 -2.4
v 1.4 1.8 -2.4
v -1.1 2.5 3
v -0.5 2.5 3
v -1.1 2.5 -3
v -0.5 2.5 -3

# faces
f 3/3/1 2/3/1 1/3/1
f 4/3/1 2/3/1 3/3/1
f 9/1/1 6/1/1 5/1/1
f 18/1/1 8/1/1 7/1/1
f 19/1/1 17/1/1 16/1/1
f 19/1/1 18/1/1 17/1/1
f 19/1/1 9/1/1 5/1/1
f 19/1/1 10/1/1 9/1/1
f 19/1/1 16/1/1 15/1/1
f 19/1/1 15/1/1 14/1/1
f 19/1/1 14/1/1 13/1/1
f 19/1/1 13/1/1 12/1/1
f 19/1/1 12/1/1 11/1/1
f 19/1/1 11/1/1 10/1/1
f 20/1/1 8/1/1 18/1/1
f 20/1/1 18/1/1 19/1/1
f 21/3/2 22/3/2 23/3/2
f 23/3/2 22/3/2 24/3/2
f 24/3/2 22/3/2 25/3/2
f 25/3/2 22/3/2 26/3/2
f 26/3/2 22/3/2 27/3/2
f 27/3/2 22/3/2 28/3/2
f 28/3/2 22/3/2 29/3/2
f 29/3/2 22/3/2 30/3/2
f 21/3/2 23/3/2 31/3/2
f 24/3/2 25/3/2 32/3/2
f 32/3/2 25/3/2 33/3/2
f 26/3/2 27/3/2 34/3/2
f 34/3/2 27/3/2 35/3/2
f 28/3/2 29/3/2 36/3/2
f 36/3/2 29/3/2 37/3/2
f 30/3/2 22/3/2 38/3/2
f 36/3/2 37/3/2 39/3/2
f 37/3/2 38/3/2 39/3/2
f 34/3/2 35/3/2 39/3/2
f 21/3/2 31/3/2 39/3/2
f 35/3/2 36/3/2 39/3/2
f 32/3/2 33/3/2 39/3/2
f 33/3/2 34/3/2 39/3/2
f 31/3/2 32/3/2 39/3/2
f 39/3/2 38/3/2 40/3/2
f 40/3/2 38/3/2 41/3/2
f 41/3/2 38/3/2 42/3/2
f 42/3/2 38/3/2 43/3/2
f 43/3/2 38/3/2 44/3/2
f 44/3/2 38/3/2 45/3/2
f 38/3/2 22/3/2 46/3/2
f 45/3/2 38/3/2 46/3/2
f 21/3/2 39/3/2 47/3/2
f 40/3/2 41/3/2 48/3/2
f 48/3/2 41/3/2 49/3/2
f 42/3/2 43/3/2 50/3/2
f 50/3/2 43/3/2 51/3/2
f 44/3/2 45/3/2 52/3/2
f 52/3/2 45/3/2 53/3/2
f 46/3/2 22/3/2 54/3/2
f 50/3/2 51/3/2 55/3/2
f 53/3/2 54/3/2 55/3/2
f 52/3/2 53/3/2 55/3/2
f 48/3/2 49/3/2 55/3/2
f 51/3/2 52/3/2 55/3/2
f 21/3/2 47/3/2 55/3/2
f 49/3/2 50/3/2 55/3/2
f 47/3/2 48/3/2 55/3/2
f 55/3/2 54/3/2 56/3/2
f 56/3/2 54/3/2 57/3/2
f 57/3/2 54/3/2 58/3/2
f 58/3/2 54/3/2 59/3/2
f 59/3/2 54/3/2 60/3/2
f 60/3/2 54/3/2 61/3/2
f 54/3/2 22/3/2 62/3/2
f 61/3/2 54/3/2 62/3/2
f 21/3/2 55/3/2 63/3/2
f 56/3/2 57/3/2 64/3/2
f 64/3/2 57/3/2 65/3/2
f 58/3/2 59/3/2 66/3/2
f 66/3/2 59/3/2 67/3/2
f 60/3/2 61/3/2 68/3/2
f 68/3/2 61/3/2 69/3/2
f 62/3/2 22/3/2 70/3/2
f 66/3/2 67/3/2 71/3/2
f 69/3/2 70/3/2 71/3/2
f 68/3/2 69/3/2 71/3/2
f 64/3/2 65/3/2 71/3/2
f 67/3/2 68/3/2 71/3/2
f 21/3/2 63/3/2 71/3/2
f 65/3/2 66/3/2 71/3/2
f 63/3/2 64/3/2 71/3/2
f 70/3/2 22/3/2 72/3/2
f 71/3/2 70/3/2 72/3/2
f 73/2/2 74/2/2 81/2/2
f 81/2/2 74/2/2 82/2/2
f 75/2/2 76/2/2 83/2/2
f 83/2/2 76/2/2 84/2/2
f 77/2/2 78/2/2 85/2/2
f 85/2/2 78/2/2 86/2/2
f 79/2/2 80/2/2 87/2/2
f 87/2/2 80/2/2 88/2/2
f 73/2/2 81/2/2 89/2/2
f 82/2/2 74/2/2 90/2/2
f 75/2/2 83/2/2 91/2/2
f 84/2/2 76/2/2 92/2/2
f 77/2/2 85/2/2 93/2/2
f 86/2/2 78/2/2 94/2/2
f 79/2/2 87/2/2 95/2/2
f 88/2/2 80/2/2 96/2/2
f 73/2/2 89/2/2 97/2/2
f 89/2/2 90/2/2 97/2/2
f 90/2/2 74/2/2 98/2/2
f 97/2/2 90/2/2 98/2/2
f 75/2/2 91/2/2 99/2/2
f 91/2/2 92/2/2 99/2/2
f 92/2/2 76/2/2 100/2/2
f 99/2/2 92/2/2 100/2/2
f 77/2/2 93/2/2 101/2/2
f 93/2/2 94/2/2 101/2/2
f 94/2/2 78/2/2 102/2/2
f 101/2/2 94/2/2 102/2/2
f 95/2/2 96/2/2 103/2/2
f 79/2/2 95/2/2 103/2/2
f 96/2/2 80/2/2 104/2/2
f 103/2/2 96/2/2 104/2/2
f 105/2/2 106/2/2 113/2/2
f 113/2/2 106/2/2 114/2/2
f 107/2/2 108/2/2 115/2/2
f 115/2/2 108/2/2 116/2/2
f 109/2/2 110/2/2 117/2/2
f 117/2/2 110/2/2 118/2/2
f 111/2/2 112/2/2 119/2/2
f 119/2/2 112/2/2 120/2/2
f 105/2/2 113/2/2 121/2/2
f 114/2/2 106/2/2 122/2/2
f 107/2/2 115/2/2 123/2/2
f 116/2/2 108/2/2 124/2/2
f 109/2/2 117/2/2 125/2/2
f 118/2/2 110/2/2 126/2/2
f 111/2/2 119/2/2 127/2/2
f 120/2/2 112/2/2 128/2/2
f 105/2/2 121/2/2 129/2/2
f 121/2/2 122/2/2 129/2/2
f 122/2/2 106/2/2 130/2/2
f 129/2/2 122/2/2 130/2/2
f 107/2/2 123/2/2 131/2/2
f 123/2/2 124/2/2 131/2/2
f 124/2/2 108/2/2 132/2/2
f 131/2/2 124/2/2 132/2/2
f 109/2/2 125/2/2 133/2/2
f 125/2/2 126/2/2 133/2/2
f 126/2/2 110/2/2 134/2/2
f 133/2/2 126/2/2 134/2/2
f 127/2/2 128/2/2 135/2/2
f 111/2/2 127/2/2 135/2/2
f 128/2/2 112/2/2 136/2/2
f 135/2/2 128/2/2 136/2/2
f 137/2/2 138/2/2 145/2/2
f 145/2/2 138/2/2 146/2/2
f 139/2/2 140/2/2 147/2/2
f 147/2/2 140/2/2 148/2/2
f 141/2/2 142/2/2 149/2/2
f 149/2/2 142/2/2 150/2/2
f 143/2/2 144/2/2 151/2/2
f 151/2/2 144/2/2 152/2/2
f 137/2/2 145/2/2 153/2/2
f 146/2/2 138/2/2 154/2/2
f 139/2/2 147/2/2 155/2/2
f 148/2/2 140/2/2 156/2/2
f 141/2/2 149/2/2 157/2/2
f 150/2/2 142/2/2 158/2/2
f 143/2/2 151/2/2 159/2/2
f 152/2/2 144/2/2 160/2/2
f 137/2/2 153/2/2 161/2/2
f 153/2/2 154/2/2 161/2/2
f 154/2/2 138/2/2 162/2/2
f 161/2/2 154/2/2 162/2/2
f 139/2/2 155/2/2 163/2/2
f 155/2/2 156/2/2 163/2/2
f 156/2/2 140/2/2 164/2/2
f 163/2/2 156/2/2 164/2/2
f 141/2/2 157/2/2 165/2/2
f 157/2/2 158/2/2 165/2/2
f 158/2/2 142/2/2 166/2/2
f 165/2/2 158/2/2 166/2/2
f 159/2/2 160/2/2 167/2/2
f 143/2/2 159/2/2 167/2/2
f 160/2/2 144/2/2 168/2/2
f 167/2/2 160/2/2 168/2/2
f 169/2/2 170/2/2 177/2/2
f 177/2/2 170/2/2 178/2/2
f 171/2/2 172/2/2 179/2/2
f 179/2/2 172/2/2 180/2/2
f 173/2/2 174/2/2 181/2/2
f 181/2/2 174/2/2 182/2/2
f 175/2/2 176/2/2 183/2/2
f 183/2/2 176/2/2 184/2/2
f 185/2/2 186/2/2 193/2/2
f 193/2/2 186/2/2 194/2/2
f 187/2/2 188/2/2 195/2/2
f 195/2/2 188/2/2 196/2/2
f 189/2/2 190/2/2 197/2/2
f 197/2/2 190/2/2 198/2/2
f 191/2/2 192/2/2 199/2/2
f 199/2/2 192/2/2 200/2/2
f 201/2/2 202/2/2 209/2/2
f 209/2/2 202/2/2 210/2/2
f 203/2/2 204/2/2 211/2/2
f 211/2/2 204/2/2 212/2/2
f 205/2/2 206/2/2 213/2/2
f 213/2/2 206/2/2 214/2/2
f 207/2/2 208/2/2 215/2/2
f 215/2/2 208/2/2 216/2/2
f 217/1/2 218/1/2 221/1/2
f 219/1/2 220/1/2 222/1/2
f 217/1/2 221/1/2 223/1/2
f 221/1/2 222/1/2 223/1/2
f 222/1/2 220/1/2 224/1/2
f 223/1/2 222/1/2 224/1/2
f 227/3/3 226/3/3 225/3/3
f 228/3/3 226/3/3 227/3/3
f 231/1/3 230/1/3 229/1/3
f 232/1/3 230/1/3 231/1/3
f 239/2/3 234/2/3 233/2/3
f 240/2/3 234/2/3 239/2/3
f 241/2/3 236/2/3 235/2/3
f 242/2/3 236/2/3 241/2/3
f 243/2/3 238/2/3 237/2/3
f 244/2/3 238/2/3 243/2/3
f 251/2/3 250/2/3 249/2/3
f 252/2/3 246/2/3 245/2/3
f 253/2/3 246/2/3 252/2/3
f 254/2/3 248/2/3 247/2/3
f 255/2/3 248/2/3 254/2/3
f 256/2/3 251/2/3 249/2/3
f 257/2/3 251/2/3 256/2/3
f 264/2/3 259/2/3 258/2/3
f 265/2/3 259/2/3 264/2/3
f 266/2/3 261/2/3 260/2/3
f 267/2/3 261/2/3 266/2/3
f 268/2/3 263/2/3 262/2/3
f 269/2/3 263/2/3 268/2/3
f 276/2/3 275/2/3 274/2/3
f 277/2/3 271/2/3 270/2/3
f 278/2/3 271/2/3 277/2/3
f 279/2/3 273/2/3 272/2/3
f 280/2/3 273/2/3 279/2/3
f 281/2/3 276/2/3 274/2/3
f 282/2/3 276/2/3 281/2/3
f 289/2/3 284/2/3 283/2/3
f 290/2/3 284/2/3 289/2/3
f 291/2/3 286/2/3 285/2/3
f 292/2/3 286/2/3 291/2/3
f 293/2/3 288/2/3 287/2/3
f 294/2/3 288/2/3 293/2/3
f 301/2/3 300/2/3 299/2/3
f 302/2/3 296/2/3 295/2/3
f 303/2/3 296/2/3 302/2/3
f 304/2/3 298/2/3 297/2/3
f 305/2/3 298/2/3 304/2/3
f 306/2/3 301/2/3 299/2/3
f 307/2/3 301/2/3 306/2/3
f 314/2/3 309/2/3 308/2/3
f 315/2/3 309/2/3 314/2/3
f 316/2/3 311/2/3 310/2/3
f 317/2/3 311/2/3 316/2/3
f 318/2/3 313/2/3 312/2/3
f 319/2/3 313/2/3 318/2/3
f 326/2/3 325/2/3 324/2/3
f 327/2/3 321/2/3 320/2/3
f 328/2/3 321/2/3 327/2/3
f 329/2/3 323/2/3 322/2/3
f 330/2/3 323/2/3 329/2/3
f 331/2/3 326/2/3 324/2/3
f 332/2/3 326/2/3 331/2/3
f 335/1/3 334/1/3 333/1/3
f 336/1/3 334/1/3 335/1/3
f 337/1/4 338/1/4 339/1/4
f 339/1/4 338/1/4 340/1/4
f 345/2/4 346/2/4 347/2/4
f 341/2/4 342/2/4 348/2/4
f 348/2/4 342/2/4 349/2/4
f 343/2/4 344/2/4 350/2/4
f 350/2/4 344/2/4 351/2/4
f 345/2/4 347/2/4 352/2/4
f 352/2/4 347/2/4 353/2/4
f 354/2/4 355/2/4 360/2/4
f 360/2/4 355/2/4 361/2/4
f 356/2/4 357/2/4 362/2/4
f 362/2/4 357/2/4 363/2/4
f 358/2/4 359/2/4 364/2/4
f 364/2/4 359/2/4 365/2/4
f 370/2/4 371/2/4 372/2/4
f 366/2/4 367/2/4 373/2/4
f 373/2/4 367/2/4 374/2/4
f 368/2/4 369/2/4 375/2/4
f 375/2/4 369/2/4 376/2/4
f 370/2/4 372/2/4 377/2/4
f 377/2/4 372/2/4 378/2/4
f 379/2/4 380/2/4 385/2/4
f 385/2/4 380/2/4 386/2/4
f 381/2/4 382/2/4 387/2/4
f 387/2/4 382/2/4 388/2/4
f 383/2/4 384/2/4 389/2/4
f 389/2/4 384/2/4 390/2/4
f 395/2/4 396/2/4 397/2/4
f 391/2/4 392/2/4 398/2/4
f 398/2/4 392/2/4 399/2/4
f 393/2/4 394/2/4 400/2/4
f 400/2/4 394/2/4 401/2/4
f 395/2/4 397/2/4 402/2/4
f 402/2/4 397/2/4 403/2/4
f 404/2/4 405/2/4 410/2/4
f 410/2/4 405/2/4 411/2/4
f 406/2/4 407/2/4 412/2/4
f 412/2/4 407/2/4 413/2/4
f 408/2/4 409/2/4 414/2/4
f 414/2/4 409/2/4 415/2/4
f 420/2/4 421/2/4 422/2/4
f 416/2/4 417/2/4 423/2/4
f 423/2/4 417/2/4 424/2/4
f 418/2/4 419/2/4 425/2/4
f 425/2/4 419/2/4 426/2/4
f 420/2/4 422/2/4 427/2/4
f 427/2/4 422/2/4 428/2/4
f 429/2/4 430/2/4 435/2/4
f 435/2/4 430/2/4 436/2/4
f 431/2/4 432/2/4 437/2/4
f 437/2/4 432/2/4 438/2/4
f 433/2/4 434/2/4 439/2/4
f 439/2/4 434/2/4 440/2/4
f 441/1/4 442/1/4 443/1/4
f 443/1/4 442/1/4 444/1/4
f 445/3/4 446/3/4 447/3/4
f 447/3/4 446/3/4 448/3/4
f 451/3/5 450/3/5 449/3/5
f 452/3/5 450/3/5 451/3/5
f 455/2/5 454/2/5 453/2/5
f 456/2/5 454/2/5 455/2/5
f 459/2/5 458/2/5 457/2/5
f 460/2/5 458/2/5 459/2/5
f 463/2/5 462/2/5 461/2/5
f 464/2/5 462/2/5 463/2/5
f 467/2/5 466/2/5 465/2/5
f 468/2/5 466/2/5 467/2/5
f 471/2/5 470/2/5 469/2/5
f 472/2/5 470/2/5 471/2/5
f 475/2/5 474/2/5 473/2/5
f 476/2/5 474/2/5 475/2/5
f 479/2/5 478/2/5 477/2/5
f 480/2/5 478/2/5 479/2/5
f 483/2/5 482/2/5 481/2/5
f 484/2/5 482/2/5 483/2/5
f 487/2/5 486/2/5 485/2/5
f 488/2/5 486/2/5 487/2/5
f 491/2/5 490/2/5 489/2/5
f 492/2/5 490/2/5 491/2/5
f 495/2/5 494/2/5 493/2/5
f 496/2/5 494/2/5 495/2/5
f 499/2/5 498/2/5 497/2/5
f 500/2/5 498/2/5 499/2/5
f 503/2/5 502/2/5 501/2/5
f 504/2/5 502/2/5 503/2/5
f 507/2/5 506/2/5 505/2/5
f 508/2/5 506/2/5 507/2/5
f 511/2/5 510/2/5 509/2/5
f 512/2/5 510/2/5 511/2/5
f 515/2/5 514/2/5 513/2/5
f 516/2/5 514/2/5 515/2/5
f 519/1/5 518/1/5 517/1/5
f 520/1/5 518/1/5 519/1/5
f 523/1/5 522/1/5 521/1/5
f 524/1/5 522/1/5 523/1/5
f 527/2/5 526/2/5 525/2/5
f 528/2/5 526/2/5 527/2/5
f 531/2/5 530/2/5 529/2/5
f 532/2/5 530/2/5 531/2/5
f 535/2/5 534/2/5 533/2/5
f 536/2/5 534/2/5 535/2/5
f 539/2/5 538/2/5 537/2/5
f 540/2/5 538/2/5 539/2/5
f 543/2/5 542/2/5 541/2/5
f 544/2/5 542/2/5 543/2/5
f 547/2/5 546/2/5 545/2/5
f 548/2/5 546/2/5 547/2/5
f 551/2/5 550/2/5 549/2/5
f 552/2/5 550/2/5 551/2/5
f 555/2/5 554/2/5 553/2/5
f 556/2/5 554/2/5 555/2/5
f 559/1/5 558/1/5 557/1/5
f 560/1/5 558/1/5 559/1/5
f 562/1/5 558/1/5 560/1/5
f 563/1/5 562/1/5 561/1/5
f 564/1/5 558/1/5 562/1/5
f 564/1/5 562/1/5 563/1/5
f 566/1/5 558/1/5 564/1/5
f 567/1/5 566/1/5 565/1/5
f 568/1/5 558/1/5 566/1/5
f 568/1/5 566/1/5 567/1/5
f 570/1/5 558/1/5 568/1/5
f 571/1/5 570/1/5 569/1/5
f 572/1/5 558/1/5 570/1/5
f 572/1/5 570/1/5 571/1/5
f 574/1/5 558/1/5 572/1/5
f 575/1/5 574/1/5 573/1/5
f 576/1/5 558/1/5 574/1/5
f 576/1/5 574/1/5 575/1/5
f 577/2/6 578/2/6 579/2/6
f 579/2/6 578/2/6 580/2/6
f 581/2/6 582/2/6 583/2/6
f 583/2/6 582/2/6 584/2/6
f 585/2/6 586/2/6 587/2/6
f 587/2/6 586/2/6 588/2/6
f 589/2/6 590/2/6 591/2/6
f 591/2/6 590/2/6 592/2/6
f 593/2/6 594/2/6 595/2/6
f 595/2/6 594/2/6 596/2/6
f 597/2/6 598/2/6 599/2/6
f 599/2/6 598/2/6 600/2/6
f 601/2/6 602/2/6 603/2/6
f 603/2/6 602/2/6 604/2/6
f 605/2/6 606/2/6 607/2/6
f 607/2/6 606/2/6 608/2/6
f 609/2/6 610/2/6 611/2/6
f 611/2/6 610/2/6 612/2/6
f 613/2/6 614/2/6 615/2/6
f 615/2/6 614/2/6 616/2/6
f 617/2/6 618/2/6 619/2/6
f 619/2/6 618/2/6 620/2/6
f 621/2/6 622/2/6 623/2/6
f 623/2/6 622/2/6 624/2/6
f 625/2/6 626/2/6 627/2/6
f 627/2/6 626/2/6 628/2/6
f 629/2/6 630/2/6 631/2/6
f 631/2/6 630/2/6 632/2/6
f 633/2/6 634/2/6 635/2/6
f 635/2/6 634/2/6 636/2/6
f 637/2/6 638/2/6 639/2/6
f 639/2/6 638/2/6 640/2/6
f 641/2/6 642/2/6 643/2/6
f 643/2/6 642/2/6 644/2/6
f 645/2/6 646/2/6 647/2/6
f 647/2/6 646/2/6 648/2/6
f 649/2/6 650/2/6 651/2/6
f 651/2/6 650/2/6 652/2/6
f 653/2/6 654/2/6 655/2/6
f 655/2/6 654/2/6 656/2/6
f 659/2/6 660/2/6 661/2/6
f 661/2/6 660/2/6 662/2/6
f 663/2/6 664/2/6 665/2/6
f 665/2/6 664/2/6 666/2/6
f 667/2/6 668/2/6 669/2/6
f 669/2/6 668/2/6 670/2/6
f 671/2/6 672/2/6 673/2/6
f 673/2/6 672/2/6 674/2/6
f 657/1/6 658/1/6 675/1/6
f 675/1/6 658/1/6 676/1/6
f 677/3/6 678/3/6 679/3/6
f 679/3/6 678/3/6 680/3/6
