# MagicaVoxel @ Ephtracy

# group
o Entorno-39-Suministros 4

# material
mtllib Village-45-Entorno-39-Suministros 4.mtl
usemtl palette

# normals
vn -1 0 0
vn 1 0 0
vn 0 0 1
vn 0 0 -1
vn 0 -1 0
vn 0 1 0

# texcoords
vt 0.00195313 0.5
vt 0.00585938 0.5
vt 0.0214844 0.5
vt 0.0253906 0.5

# verts
v -0.4 -0.3 0.3
v -0.4 -0.3 0.2
v -0.4 -0.3 -0.3
v -0.4 -0.3 -0.4
v -0.4 -0.2 0.2
v -0.4 -0.2 -0.3
v -0.4 -0.1 0.2
v -0.4 -0.1 -0.3
v -0.4 0 0.2
v -0.4 0 -0.3
v -0.4 0.1 0.2
v -0.4 0.1 -0.3
v -0.4 0.2 0.2
v -0.4 0.2 -0.3
v -0.4 0.3 0.3
v -0.4 0.3 -0.4
v -0.3 -0.1 0.2
v -0.3 -0.1 -0.3
v -0.3 0 0.2
v -0.3 0 -0.3
v -0.3 0.1 0.2
v -0.3 0.1 -0.3
v -0.3 0.2 0.2
v -0.3 0.2 -0.3
v -0.2 0.2 -0.1
v -0.2 0.2 -0.2
v -0.2 0.3 -0.1
v -0.2 0.3 -0.2
v 0 0.2 -0.1
v 0 0.2 -0.2
v 0 0.3 -0.1
v 0 0.3 -0.2
v 0.2 0.2 0.1
v 0.2 0.2 0
v 0.2 0.3 0.1
v 0.2 0.3 0
v 0.3 0.2 -0.1
v 0.3 0.2 -0.2
v 0.3 0.3 -0.1
v 0.3 0.3 -0.2
v 0.5 -0.3 0.3
v 0.5 -0.3 0.2
v 0.5 -0.3 -0.3
v 0.5 -0.3 -0.4
v 0.5 -0.2 0.3
v 0.5 -0.2 0.2
v 0.5 -0.2 -0.3
v 0.5 -0.2 -0.4
v 0.5 -0.1 0.3
v 0.5 -0.1 0.2
v 0.5 -0.1 -0.3
v 0.5 -0.1 -0.4
v 0.5 0 0.3
v 0.5 0 0.2
v 0.5 0 -0.3
v 0.5 0 -0.4
v 0.5 0.1 0.3
v 0.5 0.1 0.2
v 0.5 0.1 -0.3
v 0.5 0.1 -0.4
v 0.5 0.2 0.3
v 0.5 0.2 0.2
v 0.5 0.2 -0.3
v 0.5 0.2 -0.4
v 0.5 0.3 0.2
v 0.5 0.3 -0.3
v -0.3 -0.3 0.3
v -0.3 -0.3 0.2
v -0.3 -0.3 -0.3
v -0.3 -0.3 -0.4
v -0.3 -0.2 0.3
v -0.3 -0.2 0.2
v -0.3 -0.2 -0.3
v -0.3 -0.2 -0.4
v -0.3 -0.1 0.3
v -0.3 -0.1 0.2
v -0.3 -0.1 -0.3
v -0.3 -0.1 -0.4
v -0.3 0 0.3
v -0.3 0 0.2
v -0.3 0 -0.3
v -0.3 0 -0.4
v -0.3 0.1 0.3
v -0.3 0.1 0.2
v -0.3 0.1 -0.3
v -0.3 0.1 -0.4
v -0.3 0.2 0.3
v -0.3 0.2 0.2
v -0.3 0.2 -0.3
v -0.3 0.2 -0.4
v -0.3 0.3 0.2
v -0.3 0.3 -0.3
v -0.1 0.2 -0.1
v -0.1 0.2 -0.2
v -0.1 0.3 -0.1
v -0.1 0.3 -0.2
v 0.1 0.2 -0.1
v 0.1 0.2 -0.2
v 0.1 0.3 -0.1
v 0.1 0.3 -0.2
v 0.3 0.2 0.1
v 0.3 0.2 0
v 0.3 0.3 0.1
v 0.3 0.3 0
v 0.4 0.2 -0.1
v 0.4 0.2 -0.2
v 0.4 0.3 -0.1
v 0.4 0.3 -0.2
v 0.5 -0.1 0.2
v 0.5 -0.1 -0.3
v 0.5 0 0.2
v 0.5 0 -0.3
v 0.5 0.1 0.2
v 0.5 0.1 -0.3
v 0.5 0.2 0.2
v 0.5 0.2 -0.3
v 0.6 -0.3 0.3
v 0.6 -0.3 0.2
v 0.6 -0.3 -0.3
v 0.6 -0.3 -0.4
v 0.6 -0.2 0.2
v 0.6 -0.2 -0.3
v 0.6 -0.1 0.2
v 0.6 -0.1 -0.3
v 0.6 0 0.2
v 0.6 0 -0.3
v 0.6 0.1 0.2
v 0.6 0.1 -0.3
v 0.6 0.2 0.2
v 0.6 0.2 -0.3
v 0.6 0.3 0.3
v 0.6 0.3 -0.4
v -0.4 -0.3 0.3
v -0.4 0.3 0.3
v -0.3 -0.3 0.3
v -0.3 -0.2 0.3
v -0.3 -0.1 0.3
v -0.3 0 0.3
v -0.3 0.1 0.3
v -0.3 0.2 0.3
v 0.5 -0.3 0.3
v 0.5 -0.2 0.3
v 0.5 -0.1 0.3
v 0.5 0 0.3
v 0.5 0.1 0.3
v 0.5 0.2 0.3
v 0.6 -0.3 0.3
v 0.6 0.3 0.3
v -0.3 -0.1 0.2
v -0.3 0 0.2
v -0.3 0.1 0.2
v -0.3 0.2 0.2
v 0.5 -0.1 0.2
v 0.5 0 0.2
v 0.5 0.1 0.2
v 0.5 0.2 0.2
v 0.2 0.2 0.1
v 0.2 0.3 0.1
v 0.3 0.2 0.1
v 0.3 0.3 0.1
v -0.2 0.2 -0.1
v -0.2 0.3 -0.1
v -0.1 0.2 -0.1
v -0.1 0.3 -0.1
v 0 0.2 -0.1
v 0 0.3 -0.1
v 0.1 0.2 -0.1
v 0.1 0.3 -0.1
v 0.3 0.2 -0.1
v 0.3 0.3 -0.1
v 0.4 0.2 -0.1
v 0.4 0.3 -0.1
v -0.4 -0.3 -0.3
v -0.4 -0.2 -0.3
v -0.4 -0.1 -0.3
v -0.4 0 -0.3
v -0.4 0.1 -0.3
v -0.4 0.2 -0.3
v -0.3 -0.3 -0.3
v -0.3 -0.2 -0.3
v -0.3 -0.1 -0.3
v -0.3 0 -0.3
v -0.3 0.1 -0.3
v -0.3 0.2 -0.3
v -0.3 0.3 -0.3
v 0.5 -0.3 -0.3
v 0.5 -0.2 -0.3
v 0.5 -0.1 -0.3
v 0.5 0 -0.3
v 0.5 0.1 -0.3
v 0.5 0.2 -0.3
v 0.5 0.3 -0.3
v 0.6 -0.3 -0.3
v 0.6 -0.2 -0.3
v 0.6 -0.1 -0.3
v 0.6 0 -0.3
v 0.6 0.1 -0.3
v 0.6 0.2 -0.3
v -0.4 -0.3 0.2
v -0.4 -0.2 0.2
v -0.4 -0.1 0.2
v -0.4 0 0.2
v -0.4 0.1 0.2
v -0.4 0.2 0.2
v -0.3 -0.3 0.2
v -0.3 -0.2 0.2
v -0.3 -0.1 0.2
v -0.3 0 0.2
v -0.3 0.1 0.2
v -0.3 0.2 0.2
v -0.3 0.3 0.2
v 0.5 -0.3 0.2
v 0.5 -0.2 0.2
v 0.5 -0.1 0.2
v 0.5 0 0.2
v 0.5 0.1 0.2
v 0.5 0.2 0.2
v 0.5 0.3 0.2
v 0.6 -0.3 0.2
v 0.6 -0.2 0.2
v 0.6 -0.1 0.2
v 0.6 0 0.2
v 0.6 0.1 0.2
v 0.6 0.2 0.2
v 0.2 0.2 0
v 0.2 0.3 0
v 0.3 0.2 0
v 0.3 0.3 0
v -0.2 0.2 -0.2
v -0.2 0.3 -0.2
v -0.1 0.2 -0.2
v -0.1 0.3 -0.2
v 0 0.2 -0.2
v 0 0.3 -0.2
v 0.1 0.2 -0.2
v 0.1 0.3 -0.2
v 0.3 0.2 -0.2
v 0.3 0.3 -0.2
v 0.4 0.2 -0.2
v 0.4 0.3 -0.2
v -0.3 -0.1 -0.3
v -0.3 0 -0.3
v -0.3 0.1 -0.3
v -0.3 0.2 -0.3
v 0.5 -0.1 -0.3
v 0.5 0 -0.3
v 0.5 0.1 -0.3
v 0.5 0.2 -0.3
v -0.4 -0.3 -0.4
v -0.4 0.3 -0.4
v -0.3 -0.3 -0.4
v -0.3 -0.2 -0.4
v -0.3 -0.1 -0.4
v -0.3 0 -0.4
v -0.3 0.1 -0.4
v -0.3 0.2 -0.4
v 0.5 -0.3 -0.4
v 0.5 -0.2 -0.4
v 0.5 -0.1 -0.4
v 0.5 0 -0.4
v 0.5 0.1 -0.4
v 0.5 0.2 -0.4
v 0.6 -0.3 -0.4
v 0.6 0.3 -0.4
v -0.4 -0.3 0.3
v -0.3 -0.3 0.3
v 0.5 -0.3 0.3
v 0.6 -0.3 0.3
v -0.4 -0.3 0.2
v -0.3 -0.3 0.2
v 0.5 -0.3 0.2
v 0.6 -0.3 0.2
v -0.4 -0.3 -0.3
v -0.3 -0.3 -0.3
v 0.5 -0.3 -0.3
v 0.6 -0.3 -0.3
v -0.4 -0.3 -0.4
v -0.3 -0.3 -0.4
v 0.5 -0.3 -0.4
v 0.6 -0.3 -0.4
v -0.3 -0.2 0.3
v 0.5 -0.2 0.3
v -0.4 -0.2 0.2
v -0.3 -0.2 0.2
v 0.5 -0.2 0.2
v 0.6 -0.2 0.2
v -0.4 -0.2 -0.3
v -0.3 -0.2 -0.3
v 0.5 -0.2 -0.3
v 0.6 -0.2 -0.3
v -0.3 -0.2 -0.4
v 0.5 -0.2 -0.4
v -0.3 0 0.3
v 0.5 0 0.3
v -0.4 0 0.2
v -0.3 0 0.2
v 0.5 0 0.2
v 0.6 0 0.2
v -0.4 0 -0.3
v -0.3 0 -0.3
v 0.5 0 -0.3
v 0.6 0 -0.3
v -0.3 0 -0.4
v 0.5 0 -0.4
v -0.3 0.2 0.3
v 0.5 0.2 0.3
v -0.4 0.2 0.2
v -0.3 0.2 0.2
v 0.5 0.2 0.2
v 0.6 0.2 0.2
v -0.4 0.2 -0.3
v -0.3 0.2 -0.3
v 0.5 0.2 -0.3
v 0.6 0.2 -0.3
v -0.3 0.2 -0.4
v 0.5 0.2 -0.4
v -0.3 -0.1 0.3
v 0.5 -0.1 0.3
v -0.4 -0.1 0.2
v -0.3 -0.1 0.2
v 0.5 -0.1 0.2
v 0.6 -0.1 0.2
v -0.4 -0.1 -0.3
v -0.3 -0.1 -0.3
v 0.5 -0.1 -0.3
v 0.6 -0.1 -0.3
v -0.3 -0.1 -0.4
v 0.5 -0.1 -0.4
v -0.3 0.1 0.3
v 0.5 0.1 0.3
v -0.4 0.1 0.2
v -0.3 0.1 0.2
v 0.5 0.1 0.2
v 0.6 0.1 0.2
v -0.4 0.1 -0.3
v -0.3 0.1 -0.3
v 0.5 0.1 -0.3
v 0.6 0.1 -0.3
v -0.3 0.1 -0.4
v 0.5 0.1 -0.4
v -0.3 0.2 0.2
v 0.5 0.2 0.2
v 0.2 0.2 0.1
v 0.3 0.2 0.1
v 0.2 0.2 0
v 0.3 0.2 0
v -0.2 0.2 -0.1
v -0.1 0.2 -0.1
v 0 0.2 -0.1
v 0.1 0.2 -0.1
v 0.3 0.2 -0.1
v 0.4 0.2 -0.1
v -0.2 0.2 -0.2
v -0.1 0.2 -0.2
v 0 0.2 -0.2
v 0.1 0.2 -0.2
v 0.3 0.2 -0.2
v 0.4 0.2 -0.2
v -0.3 0.2 -0.3
v 0.5 0.2 -0.3
v -0.4 0.3 0.3
v 0.6 0.3 0.3
v -0.3 0.3 0.2
v 0.5 0.3 0.2
v 0.2 0.3 0.1
v 0.3 0.3 0.1
v 0.2 0.3 0
v 0.3 0.3 0
v -0.2 0.3 -0.1
v -0.1 0.3 -0.1
v 0 0.3 -0.1
v 0.1 0.3 -0.1
v 0.3 0.3 -0.1
v 0.4 0.3 -0.1
v -0.2 0.3 -0.2
v -0.1 0.3 -0.2
v 0 0.3 -0.2
v 0.1 0.3 -0.2
v 0.3 0.3 -0.2
v 0.4 0.3 -0.2
v -0.3 0.3 -0.3
v 0.5 0.3 -0.3
v -0.4 0.3 -0.4
v 0.6 0.3 -0.4

# faces
f 5/3/1 2/3/1 1/3/1
f 6/3/1 4/3/1 3/3/1
f 7/3/1 5/3/1 1/3/1
f 7/3/1 6/3/1 5/3/1
f 8/3/1 4/3/1 6/3/1
f 8/3/1 6/3/1 7/3/1
f 9/3/1 7/3/1 1/3/1
f 10/3/1 4/3/1 8/3/1
f 11/3/1 9/3/1 1/3/1
f 11/3/1 10/3/1 9/3/1
f 12/3/1 4/3/1 10/3/1
f 12/3/1 10/3/1 11/3/1
f 13/3/1 11/3/1 1/3/1
f 14/3/1 4/3/1 12/3/1
f 15/3/1 13/3/1 1/3/1
f 15/3/1 14/3/1 13/3/1
f 16/3/1 4/3/1 14/3/1
f 16/3/1 14/3/1 15/3/1
f 19/1/1 18/1/1 17/1/1
f 20/1/1 18/1/1 19/1/1
f 23/1/1 22/1/1 21/1/1
f 24/1/1 22/1/1 23/1/1
f 27/2/1 26/2/1 25/2/1
f 28/2/1 26/2/1 27/2/1
f 31/2/1 30/2/1 29/2/1
f 32/2/1 30/2/1 31/2/1
f 35/2/1 34/2/1 33/2/1
f 36/2/1 34/2/1 35/2/1
f 39/2/1 38/2/1 37/2/1
f 40/2/1 38/2/1 39/2/1
f 45/3/1 42/3/1 41/3/1
f 46/3/1 42/3/1 45/3/1
f 47/3/1 44/3/1 43/3/1
f 48/3/1 44/3/1 47/3/1
f 53/3/1 50/3/1 49/3/1
f 54/3/1 50/3/1 53/3/1
f 55/3/1 52/3/1 51/3/1
f 56/3/1 52/3/1 55/3/1
f 61/3/1 58/3/1 57/3/1
f 62/3/1 58/3/1 61/3/1
f 63/3/1 60/3/1 59/3/1
f 64/3/1 60/3/1 63/3/1
f 65/3/1 63/3/1 62/3/1
f 66/3/1 63/3/1 65/3/1
f 67/3/2 68/3/2 71/3/2
f 71/3/2 68/3/2 72/3/2
f 69/3/2 70/3/2 73/3/2
f 73/3/2 70/3/2 74/3/2
f 75/3/2 76/3/2 79/3/2
f 79/3/2 76/3/2 80/3/2
f 77/3/2 78/3/2 81/3/2
f 81/3/2 78/3/2 82/3/2
f 83/3/2 84/3/2 87/3/2
f 87/3/2 84/3/2 88/3/2
f 85/3/2 86/3/2 89/3/2
f 89/3/2 86/3/2 90/3/2
f 88/3/2 89/3/2 91/3/2
f 91/3/2 89/3/2 92/3/2
f 93/2/2 94/2/2 95/2/2
f 95/2/2 94/2/2 96/2/2
f 97/2/2 98/2/2 99/2/2
f 99/2/2 98/2/2 100/2/2
f 101/2/2 102/2/2 103/2/2
f 103/2/2 102/2/2 104/2/2
f 105/2/2 106/2/2 107/2/2
f 107/2/2 106/2/2 108/2/2
f 109/1/2 110/1/2 111/1/2
f 111/1/2 110/1/2 112/1/2
f 113/1/2 114/1/2 115/1/2
f 115/1/2 114/1/2 116/1/2
f 117/3/2 118/3/2 121/3/2
f 119/3/2 120/3/2 122/3/2
f 117/3/2 121/3/2 123/3/2
f 121/3/2 122/3/2 123/3/2
f 122/3/2 120/3/2 124/3/2
f 123/3/2 122/3/2 124/3/2
f 117/3/2 123/3/2 125/3/2
f 124/3/2 120/3/2 126/3/2
f 117/3/2 125/3/2 127/3/2
f 125/3/2 126/3/2 127/3/2
f 126/3/2 120/3/2 128/3/2
f 127/3/2 126/3/2 128/3/2
f 117/3/2 127/3/2 129/3/2
f 128/3/2 120/3/2 130/3/2
f 117/3/2 129/3/2 131/3/2
f 129/3/2 130/3/2 131/3/2
f 130/3/2 120/3/2 132/3/2
f 131/3/2 130/3/2 132/3/2
f 135/3/3 134/3/3 133/3/3
f 136/3/3 134/3/3 135/3/3
f 137/3/3 134/3/3 136/3/3
f 138/3/3 134/3/3 137/3/3
f 139/3/3 134/3/3 138/3/3
f 140/3/3 134/3/3 139/3/3
f 142/3/3 137/3/3 136/3/3
f 143/3/3 137/3/3 142/3/3
f 144/3/3 139/3/3 138/3/3
f 145/3/3 139/3/3 144/3/3
f 146/3/3 134/3/3 140/3/3
f 147/3/3 145/3/3 144/3/3
f 147/3/3 146/3/3 145/3/3
f 147/3/3 143/3/3 142/3/3
f 147/3/3 142/3/3 141/3/3
f 147/3/3 144/3/3 143/3/3
f 148/3/3 134/3/3 146/3/3
f 148/3/3 146/3/3 147/3/3
f 153/1/3 150/1/3 149/1/3
f 154/1/3 150/1/3 153/1/3
f 155/1/3 152/1/3 151/1/3
f 156/1/3 152/1/3 155/1/3
f 159/2/3 158/2/3 157/2/3
f 160/2/3 158/2/3 159/2/3
f 163/2/3 162/2/3 161/2/3
f 164/2/3 162/2/3 163/2/3
f 167/2/3 166/2/3 165/2/3
f 168/2/3 166/2/3 167/2/3
f 171/2/3 170/2/3 169/2/3
f 172/2/3 170/2/3 171/2/3
f 179/3/3 174/3/3 173/3/3
f 180/3/3 174/3/3 179/3/3
f 181/3/3 176/3/3 175/3/3
f 182/3/3 176/3/3 181/3/3
f 183/3/3 178/3/3 177/3/3
f 184/3/3 178/3/3 183/3/3
f 191/3/3 185/3/3 184/3/3
f 192/3/3 185/3/3 191/3/3
f 193/3/3 187/3/3 186/3/3
f 194/3/3 187/3/3 193/3/3
f 195/3/3 189/3/3 188/3/3
f 196/3/3 189/3/3 195/3/3
f 197/3/3 191/3/3 190/3/3
f 198/3/3 191/3/3 197/3/3
f 199/3/4 200/3/4 205/3/4
f 205/3/4 200/3/4 206/3/4
f 201/3/4 202/3/4 207/3/4
f 207/3/4 202/3/4 208/3/4
f 203/3/4 204/3/4 209/3/4
f 209/3/4 204/3/4 210/3/4
f 210/3/4 211/3/4 217/3/4
f 217/3/4 211/3/4 218/3/4
f 212/3/4 213/3/4 219/3/4
f 219/3/4 213/3/4 220/3/4
f 214/3/4 215/3/4 221/3/4
f 221/3/4 215/3/4 222/3/4
f 216/3/4 217/3/4 223/3/4
f 223/3/4 217/3/4 224/3/4
f 225/2/4 226/2/4 227/2/4
f 227/2/4 226/2/4 228/2/4
f 229/2/4 230/2/4 231/2/4
f 231/2/4 230/2/4 232/2/4
f 233/2/4 234/2/4 235/2/4
f 235/2/4 234/2/4 236/2/4
f 237/2/4 238/2/4 239/2/4
f 239/2/4 238/2/4 240/2/4
f 241/1/4 242/1/4 245/1/4
f 245/1/4 242/1/4 246/1/4
f 243/1/4 244/1/4 247/1/4
f 247/1/4 244/1/4 248/1/4
f 249/3/4 250/3/4 251/3/4
f 251/3/4 250/3/4 252/3/4
f 252/3/4 250/3/4 253/3/4
f 253/3/4 250/3/4 254/3/4
f 254/3/4 250/3/4 255/3/4
f 255/3/4 250/3/4 256/3/4
f 252/3/4 253/3/4 258/3/4
f 258/3/4 253/3/4 259/3/4
f 254/3/4 255/3/4 260/3/4
f 260/3/4 255/3/4 261/3/4
f 256/3/4 250/3/4 262/3/4
f 260/3/4 261/3/4 263/3/4
f 261/3/4 262/3/4 263/3/4
f 258/3/4 259/3/4 263/3/4
f 257/3/4 258/3/4 263/3/4
f 259/3/4 260/3/4 263/3/4
f 262/3/4 250/3/4 264/3/4
f 263/3/4 262/3/4 264/3/4
f 269/3/5 266/3/5 265/3/5
f 270/3/5 266/3/5 269/3/5
f 271/3/5 268/3/5 267/3/5
f 272/3/5 268/3/5 271/3/5
f 277/3/5 274/3/5 273/3/5
f 278/3/5 274/3/5 277/3/5
f 279/3/5 276/3/5 275/3/5
f 280/3/5 276/3/5 279/3/5
f 284/3/5 282/3/5 281/3/5
f 285/3/5 282/3/5 284/3/5
f 287/3/5 284/3/5 283/3/5
f 287/3/5 286/3/5 285/3/5
f 287/3/5 285/3/5 284/3/5
f 288/3/5 286/3/5 287/3/5
f 289/3/5 286/3/5 288/3/5
f 290/3/5 286/3/5 289/3/5
f 291/3/5 289/3/5 288/3/5
f 292/3/5 289/3/5 291/3/5
f 296/3/5 294/3/5 293/3/5
f 297/3/5 294/3/5 296/3/5
f 299/3/5 296/3/5 295/3/5
f 300/3/5 296/3/5 299/3/5
f 301/3/5 298/3/5 297/3/5
f 302/3/5 298/3/5 301/3/5
f 303/3/5 301/3/5 300/3/5
f 304/3/5 301/3/5 303/3/5
f 308/3/5 306/3/5 305/3/5
f 309/3/5 306/3/5 308/3/5
f 311/3/5 308/3/5 307/3/5
f 312/3/5 308/3/5 311/3/5
f 313/3/5 310/3/5 309/3/5
f 314/3/5 310/3/5 313/3/5
f 315/3/5 313/3/5 312/3/5
f 316/3/5 313/3/5 315/3/5
f 317/3/6 318/3/6 320/3/6
f 320/3/6 318/3/6 321/3/6
f 319/3/6 320/3/6 323/3/6
f 323/3/6 320/3/6 324/3/6
f 321/3/6 322/3/6 325/3/6
f 325/3/6 322/3/6 326/3/6
f 324/3/6 325/3/6 327/3/6
f 327/3/6 325/3/6 328/3/6
f 329/3/6 330/3/6 332/3/6
f 332/3/6 330/3/6 333/3/6
f 331/3/6 332/3/6 335/3/6
f 335/3/6 332/3/6 336/3/6
f 333/3/6 334/3/6 337/3/6
f 337/3/6 334/3/6 338/3/6
f 336/3/6 337/3/6 339/3/6
f 339/3/6 337/3/6 340/3/6
f 341/1/6 342/1/6 343/1/6
f 343/1/6 342/1/6 344/1/6
f 341/1/6 343/1/6 345/1/6
f 344/1/6 342/1/6 346/1/6
f 341/1/6 345/1/6 347/1/6
f 345/1/6 346/1/6 347/1/6
f 347/1/6 346/1/6 348/1/6
f 348/1/6 346/1/6 349/1/6
f 349/1/6 346/1/6 350/1/6
f 346/1/6 342/1/6 351/1/6
f 350/1/6 346/1/6 351/1/6
f 351/1/6 342/1/6 352/1/6
f 341/1/6 347/1/6 353/1/6
f 348/1/6 349/1/6 354/1/6
f 354/1/6 349/1/6 355/1/6
f 350/1/6 351/1/6 356/1/6
f 356/1/6 351/1/6 357/1/6
f 352/1/6 342/1/6 358/1/6
f 356/1/6 357/1/6 359/1/6
f 357/1/6 358/1/6 359/1/6
f 354/1/6 355/1/6 359/1/6
f 341/1/6 353/1/6 359/1/6
f 355/1/6 356/1/6 359/1/6
f 353/1/6 354/1/6 359/1/6
f 358/1/6 342/1/6 360/1/6
f 359/1/6 358/1/6 360/1/6
f 361/3/6 362/3/6 363/3/6
f 363/3/6 362/3/6 364/3/6
f 365/2/6 366/2/6 367/2/6
f 367/2/6 366/2/6 368/2/6
f 369/2/6 370/2/6 375/2/6
f 375/2/6 370/2/6 376/2/6
f 371/2/6 372/2/6 377/2/6
f 377/2/6 372/2/6 378/2/6
f 373/2/6 374/2/6 379/2/6
f 379/2/6 374/2/6 380/2/6
f 361/3/6 363/3/6 381/3/6
f 364/3/6 362/3/6 382/3/6
f 361/3/6 381/3/6 383/3/6
f 381/3/6 382/3/6 383/3/6
f 382/3/6 362/3/6 384/3/6
f 383/3/6 382/3/6 384/3/6
