# MagicaVoxel @ Ephtracy

# group
o 

# material
mtllib Village-26.mtl
usemtl palette

# normals
vn -1 0 0
vn 1 0 0
vn 0 0 1
vn 0 0 -1
vn 0 -1 0
vn 0 1 0

# texcoords
vt 0.0175781 0.5
vt 0.0605469 0.5
vt 0.158203 0.5

# verts
v -1.1 -2.5 3
v -1.1 -2.5 -3
v -1.1 2.5 3
v -1.1 2.5 -3
v -0.3 1 2.4
v -0.3 1 2.3
v -0.3 1 -2.3
v -0.3 1 -2.4
v -0.3 1.7 2.3
v -0.3 1.7 2.2
v -0.3 1.7 2.1
v -0.3 1.7 0.8
v -0.3 1.7 0.7
v -0.3 1.7 -0.7
v -0.3 1.7 -0.8
v -0.3 1.7 -2.1
v -0.3 1.7 -2.2
v -0.3 1.7 -2.3
v -0.3 1.8 2.4
v -0.3 1.8 -2.4
v -0.5 -2.5 3
v -0.5 -2.5 -3
v -0.5 -1.5 2.3
v -0.5 -1.5 2
v -0.5 -1.5 0.9
v -0.5 -1.5 0.6
v -0.5 -1.5 -0.6
v -0.5 -1.5 -0.9
v -0.5 -1.5 -2
v -0.5 -1.5 -2.3
v -0.5 -1.2 2.3
v -0.5 -1.2 2
v -0.5 -1.2 0.9
v -0.5 -1.2 0.6
v -0.5 -1.2 -0.6
v -0.5 -1.2 -0.9
v -0.5 -1.2 -2
v -0.5 -1.2 -2.3
v -0.5 0.2 2.3
v -0.5 0.2 2
v -0.5 0.2 0.9
v -0.5 0.2 0.6
v -0.5 0.2 -0.6
v -0.5 0.2 -0.9
v -0.5 0.2 -2
v -0.5 0.2 -2.3
v -0.5 0.5 2.3
v -0.5 0.5 2
v -0.5 0.5 0.9
v -0.5 0.5 0.6
v -0.5 0.5 -0.6
v -0.5 0.5 -0.9
v -0.5 0.5 -2
v -0.5 0.5 -2.3
v -0.5 1.5 2.3
v -0.5 1.5 2
v -0.5 1.5 0.9
v -0.5 1.5 0.6
v -0.5 1.5 -0.6
v -0.5 1.5 -0.9
v -0.5 1.5 -2
v -0.5 1.5 -2.3
v -0.5 1.8 2.3
v -0.5 1.8 2
v -0.5 1.8 0.9
v -0.5 1.8 0.6
v -0.5 1.8 -0.6
v -0.5 1.8 -0.9
v -0.5 1.8 -2
v -0.5 1.8 -2.3
v -0.5 2.5 3
v -0.5 2.5 -3
v -0.4 -1.5 2.3
v -0.4 -1.5 2
v -0.4 -1.5 0.9
v -0.4 -1.5 0.6
v -0.4 -1.5 -0.6
v -0.4 -1.5 -0.9
v -0.4 -1.5 -2
v -0.4 -1.5 -2.3
v -0.4 -1.4 2.2
v -0.4 -1.4 2.1
v -0.4 -1.4 0.8
v -0.4 -1.4 0.7
v -0.4 -1.4 -0.7
v -0.4 -1.4 -0.8
v -0.4 -1.4 -2.1
v -0.4 -1.4 -2.2
v -0.4 -1.3 2.2
v -0.4 -1.3 2.1
v -0.4 -1.3 0.8
v -0.4 -1.3 0.7
v -0.4 -1.3 -0.7
v -0.4 -1.3 -0.8
v -0.4 -1.3 -2.1
v -0.4 -1.3 -2.2
v -0.4 -1.2 2.3
v -0.4 -1.2 2
v -0.4 -1.2 0.9
v -0.4 -1.2 0.6
v -0.4 -1.2 -0.6
v -0.4 -1.2 -0.9
v -0.4 -1.2 -2
v -0.4 -1.2 -2.3
v -0.4 0.2 2.3
v -0.4 0.2 2
v -0.4 0.2 0.9
v -0.4 0.2 0.6
v -0.4 0.2 -0.6
v -0.4 0.2 -0.9
v -0.4 0.2 -2
v -0.4 0.2 -2.3
v -0.4 0.3 2.2
v -0.4 0.3 2.1
v -0.4 0.3 0.8
v -0.4 0.3 0.7
v -0.4 0.3 -0.7
v -0.4 0.3 -0.8
v -0.4 0.3 -2.1
v -0.4 0.3 -2.2
v -0.4 0.4 2.2
v -0.4 0.4 2.1
v -0.4 0.4 0.8
v -0.4 0.4 0.7
v -0.4 0.4 -0.7
v -0.4 0.4 -0.8
v -0.4 0.4 -2.1
v -0.4 0.4 -2.2
v -0.4 0.5 2.3
v -0.4 0.5 2
v -0.4 0.5 0.9
v -0.4 0.5 0.6
v -0.4 0.5 -0.6
v -0.4 0.5 -0.9
v -0.4 0.5 -2
v -0.4 0.5 -2.3
v -0.4 1.5 2.3
v -0.4 1.5 2
v -0.4 1.5 0.9
v -0.4 1.5 0.6
v -0.4 1.5 -0.6
v -0.4 1.5 -0.9
v -0.4 1.5 -2
v -0.4 1.5 -2.3
v -0.4 1.6 2.2
v -0.4 1.6 2.1
v -0.4 1.6 0.8
v -0.4 1.6 0.7
v -0.4 1.6 -0.7
v -0.4 1.6 -0.8
v -0.4 1.6 -2.1
v -0.4 1.6 -2.2
v -0.4 1.7 2.2
v -0.4 1.7 2.1
v -0.4 1.7 0.8
v -0.4 1.7 0.7
v -0.4 1.7 -0.7
v -0.4 1.7 -0.8
v -0.4 1.7 -2.1
v -0.4 1.7 -2.2
v -0.4 1.8 2.3
v -0.4 1.8 2
v -0.4 1.8 0.9
v -0.4 1.8 0.6
v -0.4 1.8 -0.6
v -0.4 1.8 -0.9
v -0.4 1.8 -2
v -0.4 1.8 -2.3
v 1.3 -1.4 2.2
v 1.3 -1.4 2.1
v 1.3 -1.4 0.8
v 1.3 -1.4 0.7
v 1.3 -1.4 -0.7
v 1.3 -1.4 -0.8
v 1.3 -1.4 -2.1
v 1.3 -1.4 -2.2
v 1.3 -1.3 2.2
v 1.3 -1.3 2.1
v 1.3 -1.3 0.8
v 1.3 -1.3 0.7
v 1.3 -1.3 -0.7
v 1.3 -1.3 -0.8
v 1.3 -1.3 -2.1
v 1.3 -1.3 -2.2
v 1.3 0.3 2.2
v 1.3 0.3 2.1
v 1.3 0.3 0.8
v 1.3 0.3 0.7
v 1.3 0.3 -0.7
v 1.3 0.3 -0.8
v 1.3 0.3 -2.1
v 1.3 0.3 -2.2
v 1.3 0.4 2.2
v 1.3 0.4 2.1
v 1.3 0.4 0.8
v 1.3 0.4 0.7
v 1.3 0.4 -0.7
v 1.3 0.4 -0.8
v 1.3 0.4 -2.1
v 1.3 0.4 -2.2
v 1.3 1.6 2.2
v 1.3 1.6 2.1
v 1.3 1.6 0.8
v 1.3 1.6 0.7
v 1.3 1.6 -0.7
v 1.3 1.6 -0.8
v 1.3 1.6 -2.1
v 1.3 1.6 -2.2
v 1.3 1.7 2.2
v 1.3 1.7 2.1
v 1.3 1.7 0.8
v 1.3 1.7 0.7
v 1.3 1.7 -0.7
v 1.3 1.7 -0.8
v 1.3 1.7 -2.1
v 1.3 1.7 -2.2
v 1.4 1 2.4
v 1.4 1 2.3
v 1.4 1 -2.3
v 1.4 1 -2.4
v 1.4 1.7 2.3
v 1.4 1.7 -2.3
v 1.4 1.8 2.4
v 1.4 1.8 -2.4
v -1.1 -2.5 3
v -1.1 2.5 3
v -0.5 -2.5 3
v -0.5 2.5 3
v -0.3 1 2.4
v -0.3 1.8 2.4
v 1.4 1 2.4
v 1.4 1.8 2.4
v -0.5 -1.5 2.3
v -0.5 -1.2 2.3
v -0.5 0.2 2.3
v -0.5 0.5 2.3
v -0.5 1.5 2.3
v -0.5 1.8 2.3
v -0.4 -1.5 2.3
v -0.4 -1.2 2.3
v -0.4 0.2 2.3
v -0.4 0.5 2.3
v -0.4 1.5 2.3
v -0.4 1.8 2.3
v -0.4 -1.4 2.2
v -0.4 -1.3 2.2
v -0.4 0.3 2.2
v -0.4 0.4 2.2
v -0.4 1.6 2.2
v -0.4 1.7 2.2
v -0.3 1.7 2.2
v 1.3 -1.4 2.2
v 1.3 -1.3 2.2
v 1.3 0.3 2.2
v 1.3 0.4 2.2
v 1.3 1.6 2.2
v 1.3 1.7 2.2
v -0.5 -1.5 0.9
v -0.5 -1.2 0.9
v -0.5 0.2 0.9
v -0.5 0.5 0.9
v -0.5 1.5 0.9
v -0.5 1.8 0.9
v -0.4 -1.5 0.9
v -0.4 -1.2 0.9
v -0.4 0.2 0.9
v -0.4 0.5 0.9
v -0.4 1.5 0.9
v -0.4 1.8 0.9
v -0.4 -1.4 0.8
v -0.4 -1.3 0.8
v -0.4 0.3 0.8
v -0.4 0.4 0.8
v -0.4 1.6 0.8
v -0.4 1.7 0.8
v -0.3 1.7 0.8
v 1.3 -1.4 0.8
v 1.3 -1.3 0.8
v 1.3 0.3 0.8
v 1.3 0.4 0.8
v 1.3 1.6 0.8
v 1.3 1.7 0.8
v -0.5 -1.5 -0.6
v -0.5 -1.2 -0.6
v -0.5 0.2 -0.6
v -0.5 0.5 -0.6
v -0.5 1.5 -0.6
v -0.5 1.8 -0.6
v -0.4 -1.5 -0.6
v -0.4 -1.2 -0.6
v -0.4 0.2 -0.6
v -0.4 0.5 -0.6
v -0.4 1.5 -0.6
v -0.4 1.8 -0.6
v -0.4 -1.4 -0.7
v -0.4 -1.3 -0.7
v -0.4 0.3 -0.7
v -0.4 0.4 -0.7
v -0.4 1.6 -0.7
v -0.4 1.7 -0.7
v -0.3 1.7 -0.7
v 1.3 -1.4 -0.7
v 1.3 -1.3 -0.7
v 1.3 0.3 -0.7
v 1.3 0.4 -0.7
v 1.3 1.6 -0.7
v 1.3 1.7 -0.7
v -0.5 -1.5 -2
v -0.5 -1.2 -2
v -0.5 0.2 -2
v -0.5 0.5 -2
v -0.5 1.5 -2
v -0.5 1.8 -2
v -0.4 -1.5 -2
v -0.4 -1.2 -2
v -0.4 0.2 -2
v -0.4 0.5 -2
v -0.4 1.5 -2
v -0.4 1.8 -2
v -0.4 -1.4 -2.1
v -0.4 -1.3 -2.1
v -0.4 0.3 -2.1
v -0.4 0.4 -2.1
v -0.4 1.6 -2.1
v -0.4 1.7 -2.1
v -0.3 1.7 -2.1
v 1.3 -1.4 -2.1
v 1.3 -1.3 -2.1
v 1.3 0.3 -2.1
v 1.3 0.4 -2.1
v 1.3 1.6 -2.1
v 1.3 1.7 -2.1
v -0.3 1 -2.3
v -0.3 1.7 -2.3
v 1.4 1 -2.3
v 1.4 1.7 -2.3
v -0.3 1 2.3
v -0.3 1.7 2.3
v 1.4 1 2.3
v 1.4 1.7 2.3
v -0.4 -1.4 2.1
v -0.4 -1.3 2.1
v -0.4 0.3 2.1
v -0.4 0.4 2.1
v -0.4 1.6 2.1
v -0.4 1.7 2.1
v -0.3 1.7 2.1
v 1.3 -1.4 2.1
v 1.3 -1.3 2.1
v 1.3 0.3 2.1
v 1.3 0.4 2.1
v 1.3 1.6 2.1
v 1.3 1.7 2.1
v -0.5 -1.5 2
v -0.5 -1.2 2
v -0.5 0.2 2
v -0.5 0.5 2
v -0.5 1.5 2
v -0.5 1.8 2
v -0.4 -1.5 2
v -0.4 -1.2 2
v -0.4 0.2 2
v -0.4 0.5 2
v -0.4 1.5 2
v -0.4 1.8 2
v -0.4 -1.4 0.7
v -0.4 -1.3 0.7
v -0.4 0.3 0.7
v -0.4 0.4 0.7
v -0.4 1.6 0.7
v -0.4 1.7 0.7
v -0.3 1.7 0.7
v 1.3 -1.4 0.7
v 1.3 -1.3 0.7
v 1.3 0.3 0.7
v 1.3 0.4 0.7
v 1.3 1.6 0.7
v 1.3 1.7 0.7
v -0.5 -1.5 0.6
v -0.5 -1.2 0.6
v -0.5 0.2 0.6
v -0.5 0.5 0.6
v -0.5 1.5 0.6
v -0.5 1.8 0.6
v -0.4 -1.5 0.6
v -0.4 -1.2 0.6
v -0.4 0.2 0.6
v -0.4 0.5 0.6
v -0.4 1.5 0.6
v -0.4 1.8 0.6
v -0.4 -1.4 -0.8
v -0.4 -1.3 -0.8
v -0.4 0.3 -0.8
v -0.4 0.4 -0.8
v -0.4 1.6 -0.8
v -0.4 1.7 -0.8
v -0.3 1.7 -0.8
v 1.3 -1.4 -0.8
v 1.3 -1.3 -0.8
v 1.3 0.3 -0.8
v 1.3 0.4 -0.8
v 1.3 1.6 -0.8
v 1.3 1.7 -0.8
v -0.5 -1.5 -0.9
v -0.5 -1.2 -0.9
v -0.5 0.2 -0.9
v -0.5 0.5 -0.9
v -0.5 1.5 -0.9
v -0.5 1.8 -0.9
v -0.4 -1.5 -0.9
v -0.4 -1.2 -0.9
v -0.4 0.2 -0.9
v -0.4 0.5 -0.9
v -0.4 1.5 -0.9
v -0.4 1.8 -0.9
v -0.4 -1.4 -2.2
v -0.4 -1.3 -2.2
v -0.4 0.3 -2.2
v -0.4 0.4 -2.2
v -0.4 1.6 -2.2
v -0.4 1.7 -2.2
v -0.3 1.7 -2.2
v 1.3 -1.4 -2.2
v 1.3 -1.3 -2.2
v 1.3 0.3 -2.2
v 1.3 0.4 -2.2
v 1.3 1.6 -2.2
v 1.3 1.7 -2.2
v -0.5 -1.5 -2.3
v -0.5 -1.2 -2.3
v -0.5 0.2 -2.3
v -0.5 0.5 -2.3
v -0.5 1.5 -2.3
v -0.5 1.8 -2.3
v -0.4 -1.5 -2.3
v -0.4 -1.2 -2.3
v -0.4 0.2 -2.3
v -0.4 0.5 -2.3
v -0.4 1.5 -2.3
v -0.4 1.8 -2.3
v -0.3 1 -2.4
v -0.3 1.8 -2.4
v 1.4 1 -2.4
v 1.4 1.8 -2.4
v -1.1 -2.5 -3
v -1.1 2.5 -3
v -0.5 -2.5 -3
v -0.5 2.5 -3
v -1.1 -2.5 3
v -0.5 -2.5 3
v -1.1 -2.5 -3
v -0.5 -2.5 -3
v -0.5 -1.5 2.3
v -0.4 -1.5 2.3
v -0.5 -1.5 2
v -0.4 -1.5 2
v -0.5 -1.5 0.9
v -0.4 -1.5 0.9
v -0.5 -1.5 0.6
v -0.4 -1.5 0.6
v -0.5 -1.5 -0.6
v -0.4 -1.5 -0.6
v -0.5 -1.5 -0.9
v -0.4 -1.5 -0.9
v -0.5 -1.5 -2
v -0.4 -1.5 -2
v -0.5 -1.5 -2.3
v -0.4 -1.5 -2.3
v -0.4 -1.4 2.2
v 1.3 -1.4 2.2
v -0.4 -1.4 2.1
v 1.3 -1.4 2.1
v -0.4 -1.4 0.8
v 1.3 -1.4 0.8
v -0.4 -1.4 0.7
v 1.3 -1.4 0.7
v -0.4 -1.4 -0.7
v 1.3 -1.4 -0.7
v -0.4 -1.4 -0.8
v 1.3 -1.4 -0.8
v -0.4 -1.4 -2.1
v 1.3 -1.4 -2.1
v -0.4 -1.4 -2.2
v 1.3 -1.4 -2.2
v -0.5 0.2 2.3
v -0.4 0.2 2.3
v -0.5 0.2 2
v -0.4 0.2 2
v -0.5 0.2 0.9
v -0.4 0.2 0.9
v -0.5 0.2 0.6
v -0.4 0.2 0.6
v -0.5 0.2 -0.6
v -0.4 0.2 -0.6
v -0.5 0.2 -0.9
v -0.4 0.2 -0.9
v -0.5 0.2 -2
v -0.4 0.2 -2
v -0.5 0.2 -2.3
v -0.4 0.2 -2.3
v -0.4 0.3 2.2
v 1.3 0.3 2.2
v -0.4 0.3 2.1
v 1.3 0.3 2.1
v -0.4 0.3 0.8
v 1.3 0.3 0.8
v -0.4 0.3 0.7
v 1.3 0.3 0.7
v -0.4 0.3 -0.7
v 1.3 0.3 -0.7
v -0.4 0.3 -0.8
v 1.3 0.3 -0.8
v -0.4 0.3 -2.1
v 1.3 0.3 -2.1
v -0.4 0.3 -2.2
v 1.3 0.3 -2.2
v -0.3 1 2.4
v 1.4 1 2.4
v -0.3 1 2.3
v 1.4 1 2.3
v -0.3 1 -2.3
v 1.4 1 -2.3
v -0.3 1 -2.4
v 1.4 1 -2.4
v -0.5 1.5 2.3
v -0.4 1.5 2.3
v -0.5 1.5 2
v -0.4 1.5 2
v -0.5 1.5 0.9
v -0.4 1.5 0.9
v -0.5 1.5 0.6
v -0.4 1.5 0.6
v -0.5 1.5 -0.6
v -0.4 1.5 -0.6
v -0.5 1.5 -0.9
v -0.4 1.5 -0.9
v -0.5 1.5 -2
v -0.4 1.5 -2
v -0.5 1.5 -2.3
v -0.4 1.5 -2.3
v -0.4 1.6 2.2
v 1.3 1.6 2.2
v -0.4 1.6 2.1
v 1.3 1.6 2.1
v -0.4 1.6 0.8
v 1.3 1.6 0.8
v -0.4 1.6 0.7
v 1.3 1.6 0.7
v -0.4 1.6 -0.7
v 1.3 1.6 -0.7
v -0.4 1.6 -0.8
v 1.3 1.6 -0.8
v -0.4 1.6 -2.1
v 1.3 1.6 -2.1
v -0.4 1.6 -2.2
v 1.3 1.6 -2.2
v -0.3 1.7 2.3
v 1.4 1.7 2.3
v -0.3 1.7 2.2
v 1.3 1.7 2.2
v -0.3 1.7 2.1
v 1.3 1.7 2.1
v -0.3 1.7 0.8
v 1.3 1.7 0.8
v -0.3 1.7 0.7
v 1.3 1.7 0.7
v -0.3 1.7 -0.7
v 1.3 1.7 -0.7
v -0.3 1.7 -0.8
v 1.3 1.7 -0.8
v -0.3 1.7 -2.1
v 1.3 1.7 -2.1
v -0.3 1.7 -2.2
v 1.3 1.7 -2.2
v -0.3 1.7 -2.3
v 1.4 1.7 -2.3
v -0.4 -1.3 2.2
v 1.3 -1.3 2.2
v -0.4 -1.3 2.1
v 1.3 -1.3 2.1
v -0.4 -1.3 0.8
v 1.3 -1.3 0.8
v -0.4 -1.3 0.7
v 1.3 -1.3 0.7
v -0.4 -1.3 -0.7
v 1.3 -1.3 -0.7
v -0.4 -1.3 -0.8
v 1.3 -1.3 -0.8
v -0.4 -1.3 -2.1
v 1.3 -1.3 -2.1
v -0.4 -1.3 -2.2
v 1.3 -1.3 -2.2
v -0.5 -1.2 2.3
v -0.4 -1.2 2.3
v -0.5 -1.2 2
v -0.4 -1.2 2
v -0.5 -1.2 0.9
v -0.4 -1.2 0.9
v -0.5 -1.2 0.6
v -0.4 -1.2 0.6
v -0.5 -1.2 -0.6
v -0.4 -1.2 -0.6
v -0.5 -1.2 -0.9
v -0.4 -1.2 -0.9
v -0.5 -1.2 -2
v -0.4 -1.2 -2
v -0.5 -1.2 -2.3
v -0.4 -1.2 -2.3
v -0.4 0.4 2.2
v 1.3 0.4 2.2
v -0.4 0.4 2.1
v 1.3 0.4 2.1
v -0.4 0.4 0.8
v 1.3 0.4 0.8
v -0.4 0.4 0.7
v 1.3 0.4 0.7
v -0.4 0.4 -0.7
v 1.3 0.4 -0.7
v -0.4 0.4 -0.8
v 1.3 0.4 -0.8
v -0.4 0.4 -2.1
v 1.3 0.4 -2.1
v -0.4 0.4 -2.2
v 1.3 0.4 -2.2
v -0.5 0.5 2.3
v -0.4 0.5 2.3
v -0.5 0.5 2
v -0.4 0.5 2
v -0.5 0.5 0.9
v -0.4 0.5 0.9
v -0.5 0.5 0.6
v -0.4 0.5 0.6
v -0.5 0.5 -0.6
v -0.4 0.5 -0.6
v -0.5 0.5 -0.9
v -0.4 0.5 -0.9
v -0.5 0.5 -2
v -0.4 0.5 -2
v -0.5 0.5 -2.3
v -0.4 0.5 -2.3
v -0.4 1.7 2.2
v -0.3 1.7 2.2
v -0.4 1.7 2.1
v -0.3 1.7 2.1
v -0.4 1.7 0.8
v -0.3 1.7 0.8
v -0.4 1.7 0.7
v -0.3 1.7 0.7
v -0.4 1.7 -0.7
v -0.3 1.7 -0.7
v -0.4 1.7 -0.8
v -0.3 1.7 -0.8
v -0.4 1.7 -2.1
v -0.3 1.7 -2.1
v -0.4 1.7 -2.2
v -0.3 1.7 -2.2
v -0.3 1.8 2.4
v 1.4 1.8 2.4
v -0.5 1.8 2.3
v -0.4 1.8 2.3
v -0.5 1.8 2
v -0.4 1.8 2
v -0.5 1.8 0.9
v -0.4 1.8 0.9
v -0.5 1.8 0.6
v -0.4 1.8 0.6
v -0.5 1.8 -0.6
v -0.4 1.8 -0.6
v -0.5 1.8 -0.9
v -0.4 1.8 -0.9
v -0.5 1.8 -2
v -0.4 1.8 -2
v -0.5 1.8 -2.3
v -0.4 1.8 -2.3
v -0.3 1.8 -2.4
v 1.4 1.8 -2.4
v -1.1 2.5 3
v -0.5 2.5 3
v -1.1 2.5 -3
v -0.5 2.5 -3

# faces
f 3/2/1 2/2/1 1/2/1
f 4/2/1 2/2/1 3/2/1
f 9/3/1 6/3/1 5/3/1
f 18/3/1 8/3/1 7/3/1
f 19/3/1 17/3/1 16/3/1
f 19/3/1 18/3/1 17/3/1
f 19/3/1 9/3/1 5/3/1
f 19/3/1 10/3/1 9/3/1
f 19/3/1 16/3/1 15/3/1
f 19/3/1 15/3/1 14/3/1
f 19/3/1 14/3/1 13/3/1
f 19/3/1 13/3/1 12/3/1
f 19/3/1 12/3/1 11/3/1
f 19/3/1 11/3/1 10/3/1
f 20/3/1 8/3/1 18/3/1
f 20/3/1 18/3/1 19/3/1
f 21/2/2 22/2/2 23/2/2
f 23/2/2 22/2/2 24/2/2
f 24/2/2 22/2/2 25/2/2
f 25/2/2 22/2/2 26/2/2
f 26/2/2 22/2/2 27/2/2
f 27/2/2 22/2/2 28/2/2
f 28/2/2 22/2/2 29/2/2
f 29/2/2 22/2/2 30/2/2
f 21/2/2 23/2/2 31/2/2
f 24/2/2 25/2/2 32/2/2
f 32/2/2 25/2/2 33/2/2
f 26/2/2 27/2/2 34/2/2
f 34/2/2 27/2/2 35/2/2
f 28/2/2 29/2/2 36/2/2
f 36/2/2 29/2/2 37/2/2
f 30/2/2 22/2/2 38/2/2
f 36/2/2 37/2/2 39/2/2
f 37/2/2 38/2/2 39/2/2
f 34/2/2 35/2/2 39/2/2
f 21/2/2 31/2/2 39/2/2
f 35/2/2 36/2/2 39/2/2
f 32/2/2 33/2/2 39/2/2
f 33/2/2 34/2/2 39/2/2
f 31/2/2 32/2/2 39/2/2
f 39/2/2 38/2/2 40/2/2
f 40/2/2 38/2/2 41/2/2
f 41/2/2 38/2/2 42/2/2
f 42/2/2 38/2/2 43/2/2
f 43/2/2 38/2/2 44/2/2
f 44/2/2 38/2/2 45/2/2
f 38/2/2 22/2/2 46/2/2
f 45/2/2 38/2/2 46/2/2
f 21/2/2 39/2/2 47/2/2
f 40/2/2 41/2/2 48/2/2
f 48/2/2 41/2/2 49/2/2
f 42/2/2 43/2/2 50/2/2
f 50/2/2 43/2/2 51/2/2
f 44/2/2 45/2/2 52/2/2
f 52/2/2 45/2/2 53/2/2
f 46/2/2 22/2/2 54/2/2
f 50/2/2 51/2/2 55/2/2
f 53/2/2 54/2/2 55/2/2
f 52/2/2 53/2/2 55/2/2
f 48/2/2 49/2/2 55/2/2
f 51/2/2 52/2/2 55/2/2
f 21/2/2 47/2/2 55/2/2
f 49/2/2 50/2/2 55/2/2
f 47/2/2 48/2/2 55/2/2
f 55/2/2 54/2/2 56/2/2
f 56/2/2 54/2/2 57/2/2
f 57/2/2 54/2/2 58/2/2
f 58/2/2 54/2/2 59/2/2
f 59/2/2 54/2/2 60/2/2
f 60/2/2 54/2/2 61/2/2
f 54/2/2 22/2/2 62/2/2
f 61/2/2 54/2/2 62/2/2
f 21/2/2 55/2/2 63/2/2
f 56/2/2 57/2/2 64/2/2
f 64/2/2 57/2/2 65/2/2
f 58/2/2 59/2/2 66/2/2
f 66/2/2 59/2/2 67/2/2
f 60/2/2 61/2/2 68/2/2
f 68/2/2 61/2/2 69/2/2
f 62/2/2 22/2/2 70/2/2
f 66/2/2 67/2/2 71/2/2
f 69/2/2 70/2/2 71/2/2
f 68/2/2 69/2/2 71/2/2
f 64/2/2 65/2/2 71/2/2
f 67/2/2 68/2/2 71/2/2
f 21/2/2 63/2/2 71/2/2
f 65/2/2 66/2/2 71/2/2
f 63/2/2 64/2/2 71/2/2
f 70/2/2 22/2/2 72/2/2
f 71/2/2 70/2/2 72/2/2
f 73/1/2 74/1/2 81/1/2
f 81/1/2 74/1/2 82/1/2
f 75/1/2 76/1/2 83/1/2
f 83/1/2 76/1/2 84/1/2
f 77/1/2 78/1/2 85/1/2
f 85/1/2 78/1/2 86/1/2
f 79/1/2 80/1/2 87/1/2
f 87/1/2 80/1/2 88/1/2
f 73/1/2 81/1/2 89/1/2
f 82/1/2 74/1/2 90/1/2
f 75/1/2 83/1/2 91/1/2
f 84/1/2 76/1/2 92/1/2
f 77/1/2 85/1/2 93/1/2
f 86/1/2 78/1/2 94/1/2
f 79/1/2 87/1/2 95/1/2
f 88/1/2 80/1/2 96/1/2
f 73/1/2 89/1/2 97/1/2
f 89/1/2 90/1/2 97/1/2
f 90/1/2 74/1/2 98/1/2
f 97/1/2 90/1/2 98/1/2
f 75/1/2 91/1/2 99/1/2
f 91/1/2 92/1/2 99/1/2
f 92/1/2 76/1/2 100/1/2
f 99/1/2 92/1/2 100/1/2
f 77/1/2 93/1/2 101/1/2
f 93/1/2 94/1/2 101/1/2
f 94/1/2 78/1/2 102/1/2
f 101/1/2 94/1/2 102/1/2
f 95/1/2 96/1/2 103/1/2
f 79/1/2 95/1/2 103/1/2
f 96/1/2 80/1/2 104/1/2
f 103/1/2 96/1/2 104/1/2
f 105/1/2 106/1/2 113/1/2
f 113/1/2 106/1/2 114/1/2
f 107/1/2 108/1/2 115/1/2
f 115/1/2 108/1/2 116/1/2
f 109/1/2 110/1/2 117/1/2
f 117/1/2 110/1/2 118/1/2
f 111/1/2 112/1/2 119/1/2
f 119/1/2 112/1/2 120/1/2
f 105/1/2 113/1/2 121/1/2
f 114/1/2 106/1/2 122/1/2
f 107/1/2 115/1/2 123/1/2
f 116/1/2 108/1/2 124/1/2
f 109/1/2 117/1/2 125/1/2
f 118/1/2 110/1/2 126/1/2
f 111/1/2 119/1/2 127/1/2
f 120/1/2 112/1/2 128/1/2
f 105/1/2 121/1/2 129/1/2
f 121/1/2 122/1/2 129/1/2
f 122/1/2 106/1/2 130/1/2
f 129/1/2 122/1/2 130/1/2
f 107/1/2 123/1/2 131/1/2
f 123/1/2 124/1/2 131/1/2
f 124/1/2 108/1/2 132/1/2
f 131/1/2 124/1/2 132/1/2
f 109/1/2 125/1/2 133/1/2
f 125/1/2 126/1/2 133/1/2
f 126/1/2 110/1/2 134/1/2
f 133/1/2 126/1/2 134/1/2
f 127/1/2 128/1/2 135/1/2
f 111/1/2 127/1/2 135/1/2
f 128/1/2 112/1/2 136/1/2
f 135/1/2 128/1/2 136/1/2
f 137/1/2 138/1/2 145/1/2
f 145/1/2 138/1/2 146/1/2
f 139/1/2 140/1/2 147/1/2
f 147/1/2 140/1/2 148/1/2
f 141/1/2 142/1/2 149/1/2
f 149/1/2 142/1/2 150/1/2
f 143/1/2 144/1/2 151/1/2
f 151/1/2 144/1/2 152/1/2
f 137/1/2 145/1/2 153/1/2
f 146/1/2 138/1/2 154/1/2
f 139/1/2 147/1/2 155/1/2
f 148/1/2 140/1/2 156/1/2
f 141/1/2 149/1/2 157/1/2
f 150/1/2 142/1/2 158/1/2
f 143/1/2 151/1/2 159/1/2
f 152/1/2 144/1/2 160/1/2
f 137/1/2 153/1/2 161/1/2
f 153/1/2 154/1/2 161/1/2
f 154/1/2 138/1/2 162/1/2
f 161/1/2 154/1/2 162/1/2
f 139/1/2 155/1/2 163/1/2
f 155/1/2 156/1/2 163/1/2
f 156/1/2 140/1/2 164/1/2
f 163/1/2 156/1/2 164/1/2
f 141/1/2 157/1/2 165/1/2
f 157/1/2 158/1/2 165/1/2
f 158/1/2 142/1/2 166/1/2
f 165/1/2 158/1/2 166/1/2
f 159/1/2 160/1/2 167/1/2
f 143/1/2 159/1/2 167/1/2
f 160/1/2 144/1/2 168/1/2
f 167/1/2 160/1/2 168/1/2
f 169/1/2 170/1/2 177/1/2
f 177/1/2 170/1/2 178/1/2
f 171/1/2 172/1/2 179/1/2
f 179/1/2 172/1/2 180/1/2
f 173/1/2 174/1/2 181/1/2
f 181/1/2 174/1/2 182/1/2
f 175/1/2 176/1/2 183/1/2
f 183/1/2 176/1/2 184/1/2
f 185/1/2 186/1/2 193/1/2
f 193/1/2 186/1/2 194/1/2
f 187/1/2 188/1/2 195/1/2
f 195/1/2 188/1/2 196/1/2
f 189/1/2 190/1/2 197/1/2
f 197/1/2 190/1/2 198/1/2
f 191/1/2 192/1/2 199/1/2
f 199/1/2 192/1/2 200/1/2
f 201/1/2 202/1/2 209/1/2
f 209/1/2 202/1/2 210/1/2
f 203/1/2 204/1/2 211/1/2
f 211/1/2 204/1/2 212/1/2
f 205/1/2 206/1/2 213/1/2
f 213/1/2 206/1/2 214/1/2
f 207/1/2 208/1/2 215/1/2
f 215/1/2 208/1/2 216/1/2
f 217/3/2 218/3/2 221/3/2
f 219/3/2 220/3/2 222/3/2
f 217/3/2 221/3/2 223/3/2
f 221/3/2 222/3/2 223/3/2
f 222/3/2 220/3/2 224/3/2
f 223/3/2 222/3/2 224/3/2
f 227/2/3 226/2/3 225/2/3
f 228/2/3 226/2/3 227/2/3
f 231/3/3 230/3/3 229/3/3
f 232/3/3 230/3/3 231/3/3
f 239/1/3 234/1/3 233/1/3
f 240/1/3 234/1/3 239/1/3
f 241/1/3 236/1/3 235/1/3
f 242/1/3 236/1/3 241/1/3
f 243/1/3 238/1/3 237/1/3
f 244/1/3 238/1/3 243/1/3
f 251/1/3 250/1/3 249/1/3
f 252/1/3 246/1/3 245/1/3
f 253/1/3 246/1/3 252/1/3
f 254/1/3 248/1/3 247/1/3
f 255/1/3 248/1/3 254/1/3
f 256/1/3 251/1/3 249/1/3
f 257/1/3 251/1/3 256/1/3
f 264/1/3 259/1/3 258/1/3
f 265/1/3 259/1/3 264/1/3
f 266/1/3 261/1/3 260/1/3
f 267/1/3 261/1/3 266/1/3
f 268/1/3 263/1/3 262/1/3
f 269/1/3 263/1/3 268/1/3
f 276/1/3 275/1/3 274/1/3
f 277/1/3 271/1/3 270/1/3
f 278/1/3 271/1/3 277/1/3
f 279/1/3 273/1/3 272/1/3
f 280/1/3 273/1/3 279/1/3
f 281/1/3 276/1/3 274/1/3
f 282/1/3 276/1/3 281/1/3
f 289/1/3 284/1/3 283/1/3
f 290/1/3 284/1/3 289/1/3
f 291/1/3 286/1/3 285/1/3
f 292/1/3 286/1/3 291/1/3
f 293/1/3 288/1/3 287/1/3
f 294/1/3 288/1/3 293/1/3
f 301/1/3 300/1/3 299/1/3
f 302/1/3 296/1/3 295/1/3
f 303/1/3 296/1/3 302/1/3
f 304/1/3 298/1/3 297/1/3
f 305/1/3 298/1/3 304/1/3
f 306/1/3 301/1/3 299/1/3
f 307/1/3 301/1/3 306/1/3
f 314/1/3 309/1/3 308/1/3
f 315/1/3 309/1/3 314/1/3
f 316/1/3 311/1/3 310/1/3
f 317/1/3 311/1/3 316/1/3
f 318/1/3 313/1/3 312/1/3
f 319/1/3 313/1/3 318/1/3
f 326/1/3 325/1/3 324/1/3
f 327/1/3 321/1/3 320/1/3
f 328/1/3 321/1/3 327/1/3
f 329/1/3 323/1/3 322/1/3
f 330/1/3 323/1/3 329/1/3
f 331/1/3 326/1/3 324/1/3
f 332/1/3 326/1/3 331/1/3
f 335/3/3 334/3/3 333/3/3
f 336/3/3 334/3/3 335/3/3
f 337/3/4 338/3/4 339/3/4
f 339/3/4 338/3/4 340/3/4
f 345/1/4 346/1/4 347/1/4
f 341/1/4 342/1/4 348/1/4
f 348/1/4 342/1/4 349/1/4
f 343/1/4 344/1/4 350/1/4
f 350/1/4 344/1/4 351/1/4
f 345/1/4 347/1/4 352/1/4
f 352/1/4 347/1/4 353/1/4
f 354/1/4 355/1/4 360/1/4
f 360/1/4 355/1/4 361/1/4
f 356/1/4 357/1/4 362/1/4
f 362/1/4 357/1/4 363/1/4
f 358/1/4 359/1/4 364/1/4
f 364/1/4 359/1/4 365/1/4
f 370/1/4 371/1/4 372/1/4
f 366/1/4 367/1/4 373/1/4
f 373/1/4 367/1/4 374/1/4
f 368/1/4 369/1/4 375/1/4
f 375/1/4 369/1/4 376/1/4
f 370/1/4 372/1/4 377/1/4
f 377/1/4 372/1/4 378/1/4
f 379/1/4 380/1/4 385/1/4
f 385/1/4 380/1/4 386/1/4
f 381/1/4 382/1/4 387/1/4
f 387/1/4 382/1/4 388/1/4
f 383/1/4 384/1/4 389/1/4
f 389/1/4 384/1/4 390/1/4
f 395/1/4 396/1/4 397/1/4
f 391/1/4 392/1/4 398/1/4
f 398/1/4 392/1/4 399/1/4
f 393/1/4 394/1/4 400/1/4
f 400/1/4 394/1/4 401/1/4
f 395/1/4 397/1/4 402/1/4
f 402/1/4 397/1/4 403/1/4
f 404/1/4 405/1/4 410/1/4
f 410/1/4 405/1/4 411/1/4
f 406/1/4 407/1/4 412/1/4
f 412/1/4 407/1/4 413/1/4
f 408/1/4 409/1/4 414/1/4
f 414/1/4 409/1/4 415/1/4
f 420/1/4 421/1/4 422/1/4
f 416/1/4 417/1/4 423/1/4
f 423/1/4 417/1/4 424/1/4
f 418/1/4 419/1/4 425/1/4
f 425/1/4 419/1/4 426/1/4
f 420/1/4 422/1/4 427/1/4
f 427/1/4 422/1/4 428/1/4
f 429/1/4 430/1/4 435/1/4
f 435/1/4 430/1/4 436/1/4
f 431/1/4 432/1/4 437/1/4
f 437/1/4 432/1/4 438/1/4
f 433/1/4 434/1/4 439/1/4
f 439/1/4 434/1/4 440/1/4
f 441/3/4 442/3/4 443/3/4
f 443/3/4 442/3/4 444/3/4
f 445/2/4 446/2/4 447/2/4
f 447/2/4 446/2/4 448/2/4
f 451/2/5 450/2/5 449/2/5
f 452/2/5 450/2/5 451/2/5
f 455/1/5 454/1/5 453/1/5
f 456/1/5 454/1/5 455/1/5
f 459/1/5 458/1/5 457/1/5
f 460/1/5 458/1/5 459/1/5
f 463/1/5 462/1/5 461/1/5
f 464/1/5 462/1/5 463/1/5
f 467/1/5 466/1/5 465/1/5
f 468/1/5 466/1/5 467/1/5
f 471/1/5 470/1/5 469/1/5
f 472/1/5 470/1/5 471/1/5
f 475/1/5 474/1/5 473/1/5
f 476/1/5 474/1/5 475/1/5
f 479/1/5 478/1/5 477/1/5
f 480/1/5 478/1/5 479/1/5
f 483/1/5 482/1/5 481/1/5
f 484/1/5 482/1/5 483/1/5
f 487/1/5 486/1/5 485/1/5
f 488/1/5 486/1/5 487/1/5
f 491/1/5 490/1/5 489/1/5
f 492/1/5 490/1/5 491/1/5
f 495/1/5 494/1/5 493/1/5
f 496/1/5 494/1/5 495/1/5
f 499/1/5 498/1/5 497/1/5
f 500/1/5 498/1/5 499/1/5
f 503/1/5 502/1/5 501/1/5
f 504/1/5 502/1/5 503/1/5
f 507/1/5 506/1/5 505/1/5
f 508/1/5 506/1/5 507/1/5
f 511/1/5 510/1/5 509/1/5
f 512/1/5 510/1/5 511/1/5
f 515/1/5 514/1/5 513/1/5
f 516/1/5 514/1/5 515/1/5
f 519/3/5 518/3/5 517/3/5
f 520/3/5 518/3/5 519/3/5
f 523/3/5 522/3/5 521/3/5
f 524/3/5 522/3/5 523/3/5
f 527/1/5 526/1/5 525/1/5
f 528/1/5 526/1/5 527/1/5
f 531/1/5 530/1/5 529/1/5
f 532/1/5 530/1/5 531/1/5
f 535/1/5 534/1/5 533/1/5
f 536/1/5 534/1/5 535/1/5
f 539/1/5 538/1/5 537/1/5
f 540/1/5 538/1/5 539/1/5
f 543/1/5 542/1/5 541/1/5
f 544/1/5 542/1/5 543/1/5
f 547/1/5 546/1/5 545/1/5
f 548/1/5 546/1/5 547/1/5
f 551/1/5 550/1/5 549/1/5
f 552/1/5 550/1/5 551/1/5
f 555/1/5 554/1/5 553/1/5
f 556/1/5 554/1/5 555/1/5
f 559/3/5 558/3/5 557/3/5
f 560/3/5 558/3/5 559/3/5
f 562/3/5 558/3/5 560/3/5
f 563/3/5 562/3/5 561/3/5
f 564/3/5 558/3/5 562/3/5
f 564/3/5 562/3/5 563/3/5
f 566/3/5 558/3/5 564/3/5
f 567/3/5 566/3/5 565/3/5
f 568/3/5 558/3/5 566/3/5
f 568/3/5 566/3/5 567/3/5
f 570/3/5 558/3/5 568/3/5
f 571/3/5 570/3/5 569/3/5
f 572/3/5 558/3/5 570/3/5
f 572/3/5 570/3/5 571/3/5
f 574/3/5 558/3/5 572/3/5
f 575/3/5 574/3/5 573/3/5
f 576/3/5 558/3/5 574/3/5
f 576/3/5 574/3/5 575/3/5
f 577/1/6 578/1/6 579/1/6
f 579/1/6 578/1/6 580/1/6
f 581/1/6 582/1/6 583/1/6
f 583/1/6 582/1/6 584/1/6
f 585/1/6 586/1/6 587/1/6
f 587/1/6 586/1/6 588/1/6
f 589/1/6 590/1/6 591/1/6
f 591/1/6 590/1/6 592/1/6
f 593/1/6 594/1/6 595/1/6
f 595/1/6 594/1/6 596/1/6
f 597/1/6 598/1/6 599/1/6
f 599/1/6 598/1/6 600/1/6
f 601/1/6 602/1/6 603/1/6
f 603/1/6 602/1/6 604/1/6
f 605/1/6 606/1/6 607/1/6
f 607/1/6 606/1/6 608/1/6
f 609/1/6 610/1/6 611/1/6
f 611/1/6 610/1/6 612/1/6
f 613/1/6 614/1/6 615/1/6
f 615/1/6 614/1/6 616/1/6
f 617/1/6 618/1/6 619/1/6
f 619/1/6 618/1/6 620/1/6
f 621/1/6 622/1/6 623/1/6
f 623/1/6 622/1/6 624/1/6
f 625/1/6 626/1/6 627/1/6
f 627/1/6 626/1/6 628/1/6
f 629/1/6 630/1/6 631/1/6
f 631/1/6 630/1/6 632/1/6
f 633/1/6 634/1/6 635/1/6
f 635/1/6 634/1/6 636/1/6
f 637/1/6 638/1/6 639/1/6
f 639/1/6 638/1/6 640/1/6
f 641/1/6 642/1/6 643/1/6
f 643/1/6 642/1/6 644/1/6
f 645/1/6 646/1/6 647/1/6
f 647/1/6 646/1/6 648/1/6
f 649/1/6 650/1/6 651/1/6
f 651/1/6 650/1/6 652/1/6
f 653/1/6 654/1/6 655/1/6
f 655/1/6 654/1/6 656/1/6
f 659/1/6 660/1/6 661/1/6
f 661/1/6 660/1/6 662/1/6
f 663/1/6 664/1/6 665/1/6
f 665/1/6 664/1/6 666/1/6
f 667/1/6 668/1/6 669/1/6
f 669/1/6 668/1/6 670/1/6
f 671/1/6 672/1/6 673/1/6
f 673/1/6 672/1/6 674/1/6
f 657/3/6 658/3/6 675/3/6
f 675/3/6 658/3/6 676/3/6
f 677/2/6 678/2/6 679/2/6
f 679/2/6 678/2/6 680/2/6
