# MagicaVoxel @ Ephtracy

# group
o 

# material
mtllib Village-58.mtl
usemtl palette

# normals
vn -1 0 0
vn 1 0 0
vn 0 0 1
vn 0 0 -1
vn 0 -1 0
vn 0 1 0

# texcoords
vt 0.0175781 0.5
vt 0.0605469 0.5

# verts
v -0.5 -2.5 3
v -0.5 -2.5 2.1
v -0.5 2.5 3
v -0.5 2.5 2.1
v -0.2 -2.5 2.1
v -0.2 -2.5 -3
v -0.2 -1.9 -2
v -0.2 -1.9 -2.5
v -0.2 -1.8 -1.9
v -0.2 -1.8 -2
v -0.2 -1.7 -1.8
v -0.2 -1.7 -1.9
v -0.2 -1.7 -2.4
v -0.2 -1.7 -2.5
v -0.2 -1.6 -1.6
v -0.2 -1.6 -1.8
v -0.2 -1.5 -1.5
v -0.2 -1.5 -1.6
v -0.2 -1.5 -2.3
v -0.2 -1.5 -2.4
v -0.2 -1.4 -1.4
v -0.2 -1.4 -1.5
v -0.2 -1.2 -1.3
v -0.2 -1.2 -1.4
v -0.2 -1.2 -2.2
v -0.2 -1.2 -2.3
v -0.2 -1.1 -2.2
v -0.2 -1.1 -2.3
v -0.2 -1 -2.2
v -0.2 -1 -2.3
v -0.2 -0.9 -1.3
v -0.2 -0.9 -1.4
v -0.2 -0.8 -2.1
v -0.2 -0.8 -2.2
v -0.2 -0.7 -2
v -0.2 -0.7 -2.1
v -0.2 -0.6 -1.4
v -0.2 -0.6 -1.5
v -0.2 -0.6 -1.9
v -0.2 -0.6 -2
v -0.2 -0.5 -1.5
v -0.2 -0.5 -1.9
v -0.2 2.5 2.1
v -0.2 2.5 -3
v -0.1 -1.9 -2
v -0.1 -1.9 -2.5
v -0.1 -1.8 -1.9
v -0.1 -1.8 -2
v -0.1 -1.7 -1.8
v -0.1 -1.7 -1.9
v -0.1 -1.7 -2.4
v -0.1 -1.7 -2.5
v -0.1 -1.6 -1.6
v -0.1 -1.6 -1.8
v -0.1 -1.5 -1.5
v -0.1 -1.5 -1.6
v -0.1 -1.5 -2.3
v -0.1 -1.5 -2.4
v -0.1 -1.4 -1.4
v -0.1 -1.4 -1.5
v -0.1 -1.2 -1.3
v -0.1 -1.2 -1.4
v -0.1 -1.2 -2.2
v -0.1 -1.2 -2.3
v -0.1 -1.1 -2.2
v -0.1 -1.1 -2.3
v -0.1 -1 -2.2
v -0.1 -1 -2.3
v -0.1 -0.9 -1.3
v -0.1 -0.9 -1.4
v -0.1 -0.8 -2.1
v -0.1 -0.8 -2.2
v -0.1 -0.7 -2
v -0.1 -0.7 -2.1
v -0.1 -0.6 -1.4
v -0.1 -0.6 -1.5
v -0.1 -0.6 -1.9
v -0.1 -0.6 -2
v -0.1 -0.5 -1.5
v -0.1 -0.5 -1.9
v 0.4 -2.5 2.1
v 0.4 -2.5 -3
v 0.4 2.5 2.1
v 0.4 2.5 -3
v 0.7 -2.5 3
v 0.7 -2.5 2.1
v 0.7 2.5 3
v 0.7 2.5 2.1
v -0.5 -2.5 3
v -0.5 2.5 3
v 0.7 -2.5 3
v 0.7 2.5 3
v -0.2 -0.6 -1.9
v -0.2 -0.5 -1.9
v -0.1 -0.6 -1.9
v -0.1 -0.5 -1.9
v -0.2 -0.7 -2
v -0.2 -0.6 -2
v -0.1 -0.7 -2
v -0.1 -0.6 -2
v -0.2 -0.8 -2.1
v -0.2 -0.7 -2.1
v -0.1 -0.8 -2.1
v -0.1 -0.7 -2.1
v -0.2 -1.2 -2.2
v -0.2 -1.1 -2.2
v -0.2 -1 -2.2
v -0.2 -0.8 -2.2
v -0.1 -1.2 -2.2
v -0.1 -1.1 -2.2
v -0.1 -1 -2.2
v -0.1 -0.8 -2.2
v -0.2 -1.5 -2.3
v -0.2 -1.2 -2.3
v -0.2 -1.1 -2.3
v -0.2 -1 -2.3
v -0.1 -1.5 -2.3
v -0.1 -1.2 -2.3
v -0.1 -1.1 -2.3
v -0.1 -1 -2.3
v -0.2 -1.7 -2.4
v -0.2 -1.5 -2.4
v -0.1 -1.7 -2.4
v -0.1 -1.5 -2.4
v -0.2 -1.9 -2.5
v -0.2 -1.7 -2.5
v -0.1 -1.9 -2.5
v -0.1 -1.7 -2.5
v -0.5 -2.5 2.1
v -0.5 2.5 2.1
v -0.2 -2.5 2.1
v -0.2 2.5 2.1
v 0.4 -2.5 2.1
v 0.4 2.5 2.1
v 0.7 -2.5 2.1
v 0.7 2.5 2.1
v -0.2 -1.2 -1.3
v -0.2 -0.9 -1.3
v -0.1 -1.2 -1.3
v -0.1 -0.9 -1.3
v -0.2 -1.4 -1.4
v -0.2 -1.2 -1.4
v -0.2 -0.9 -1.4
v -0.2 -0.6 -1.4
v -0.1 -1.4 -1.4
v -0.1 -1.2 -1.4
v -0.1 -0.9 -1.4
v -0.1 -0.6 -1.4
v -0.2 -1.5 -1.5
v -0.2 -1.4 -1.5
v -0.2 -0.6 -1.5
v -0.2 -0.5 -1.5
v -0.1 -1.5 -1.5
v -0.1 -1.4 -1.5
v -0.1 -0.6 -1.5
v -0.1 -0.5 -1.5
v -0.2 -1.6 -1.6
v -0.2 -1.5 -1.6
v -0.1 -1.6 -1.6
v -0.1 -1.5 -1.6
v -0.2 -1.7 -1.8
v -0.2 -1.6 -1.8
v -0.1 -1.7 -1.8
v -0.1 -1.6 -1.8
v -0.2 -1.8 -1.9
v -0.2 -1.7 -1.9
v -0.1 -1.8 -1.9
v -0.1 -1.7 -1.9
v -0.2 -1.9 -2
v -0.2 -1.8 -2
v -0.1 -1.9 -2
v -0.1 -1.8 -2
v -0.2 -2.5 -3
v -0.2 2.5 -3
v 0.4 -2.5 -3
v 0.4 2.5 -3
v -0.5 -2.5 3
v 0.7 -2.5 3
v -0.5 -2.5 2.1
v -0.2 -2.5 2.1
v 0.4 -2.5 2.1
v 0.7 -2.5 2.1
v -0.2 -2.5 -3
v 0.4 -2.5 -3
v -0.2 -1.7 -2.4
v -0.1 -1.7 -2.4
v -0.2 -1.7 -2.5
v -0.1 -1.7 -2.5
v -0.2 -1.5 -2.3
v -0.1 -1.5 -2.3
v -0.2 -1.5 -2.4
v -0.1 -1.5 -2.4
v -0.2 -1.2 -2.2
v -0.1 -1.2 -2.2
v -0.2 -1.2 -2.3
v -0.1 -1.2 -2.3
v -0.2 -1 -2.2
v -0.1 -1 -2.2
v -0.2 -1 -2.3
v -0.1 -1 -2.3
v -0.2 -0.9 -1.3
v -0.1 -0.9 -1.3
v -0.2 -0.9 -1.4
v -0.1 -0.9 -1.4
v -0.2 -0.8 -2.1
v -0.1 -0.8 -2.1
v -0.2 -0.8 -2.2
v -0.1 -0.8 -2.2
v -0.2 -0.7 -2
v -0.1 -0.7 -2
v -0.2 -0.7 -2.1
v -0.1 -0.7 -2.1
v -0.2 -0.6 -1.4
v -0.1 -0.6 -1.4
v -0.2 -0.6 -1.5
v -0.1 -0.6 -1.5
v -0.2 -0.6 -1.9
v -0.1 -0.6 -1.9
v -0.2 -0.6 -2
v -0.1 -0.6 -2
v -0.2 -0.5 -1.5
v -0.1 -0.5 -1.5
v -0.2 -0.5 -1.9
v -0.1 -0.5 -1.9
v -0.2 -1.9 -2
v -0.1 -1.9 -2
v -0.2 -1.9 -2.5
v -0.1 -1.9 -2.5
v -0.2 -1.8 -1.9
v -0.1 -1.8 -1.9
v -0.2 -1.8 -2
v -0.1 -1.8 -2
v -0.2 -1.7 -1.8
v -0.1 -1.7 -1.8
v -0.2 -1.7 -1.9
v -0.1 -1.7 -1.9
v -0.2 -1.6 -1.6
v -0.1 -1.6 -1.6
v -0.2 -1.6 -1.8
v -0.1 -1.6 -1.8
v -0.2 -1.5 -1.5
v -0.1 -1.5 -1.5
v -0.2 -1.5 -1.6
v -0.1 -1.5 -1.6
v -0.2 -1.4 -1.4
v -0.1 -1.4 -1.4
v -0.2 -1.4 -1.5
v -0.1 -1.4 -1.5
v -0.2 -1.2 -1.3
v -0.1 -1.2 -1.3
v -0.2 -1.2 -1.4
v -0.1 -1.2 -1.4
v -0.2 -1.1 -2.2
v -0.1 -1.1 -2.2
v -0.2 -1.1 -2.3
v -0.1 -1.1 -2.3
v -0.5 2.5 3
v 0.7 2.5 3
v -0.5 2.5 2.1
v -0.2 2.5 2.1
v 0.4 2.5 2.1
v 0.7 2.5 2.1
v -0.2 2.5 -3
v 0.4 2.5 -3

# faces
f 3/2/1 2/2/1 1/2/1
f 4/2/1 2/2/1 3/2/1
f 7/2/1 6/2/1 5/2/1
f 8/2/1 6/2/1 7/2/1
f 9/2/1 7/2/1 5/2/1
f 10/2/1 7/2/1 9/2/1
f 11/2/1 9/2/1 5/2/1
f 12/2/1 9/2/1 11/2/1
f 14/2/1 6/2/1 8/2/1
f 15/2/1 11/2/1 5/2/1
f 16/2/1 11/2/1 15/2/1
f 17/2/1 15/2/1 5/2/1
f 18/2/1 15/2/1 17/2/1
f 20/2/1 14/2/1 13/2/1
f 21/2/1 17/2/1 5/2/1
f 22/2/1 17/2/1 21/2/1
f 23/2/1 21/2/1 5/2/1
f 24/2/1 21/2/1 23/2/1
f 26/2/1 20/2/1 19/2/1
f 27/2/1 26/2/1 25/2/1
f 28/2/1 20/2/1 26/2/1
f 28/2/1 26/2/1 27/2/1
f 30/2/1 20/2/1 28/2/1
f 31/2/1 23/2/1 5/2/1
f 34/2/1 30/2/1 29/2/1
f 36/2/1 34/2/1 33/2/1
f 37/2/1 32/2/1 31/2/1
f 40/2/1 36/2/1 35/2/1
f 41/2/1 38/2/1 37/2/1
f 42/2/1 40/2/1 39/2/1
f 43/2/1 41/2/1 37/2/1
f 43/2/1 42/2/1 41/2/1
f 43/2/1 31/2/1 5/2/1
f 43/2/1 37/2/1 31/2/1
f 44/2/1 40/2/1 42/2/1
f 44/2/1 42/2/1 43/2/1
f 44/2/1 6/2/1 14/2/1
f 44/2/1 14/2/1 20/2/1
f 44/2/1 36/2/1 40/2/1
f 44/2/1 34/2/1 36/2/1
f 44/2/1 20/2/1 30/2/1
f 44/2/1 30/2/1 34/2/1
f 48/1/1 46/1/1 45/1/1
f 50/1/1 48/1/1 47/1/1
f 51/1/1 46/1/1 48/1/1
f 51/1/1 48/1/1 50/1/1
f 52/1/1 46/1/1 51/1/1
f 54/1/1 50/1/1 49/1/1
f 54/1/1 51/1/1 50/1/1
f 56/1/1 54/1/1 53/1/1
f 57/1/1 51/1/1 54/1/1
f 57/1/1 54/1/1 56/1/1
f 58/1/1 51/1/1 57/1/1
f 60/1/1 56/1/1 55/1/1
f 60/1/1 57/1/1 56/1/1
f 62/1/1 60/1/1 59/1/1
f 63/1/1 57/1/1 60/1/1
f 63/1/1 60/1/1 62/1/1
f 64/1/1 57/1/1 63/1/1
f 65/1/1 62/1/1 61/1/1
f 65/1/1 63/1/1 62/1/1
f 67/1/1 65/1/1 61/1/1
f 67/1/1 66/1/1 65/1/1
f 68/1/1 66/1/1 67/1/1
f 69/1/1 67/1/1 61/1/1
f 70/1/1 67/1/1 69/1/1
f 71/1/1 67/1/1 70/1/1
f 72/1/1 67/1/1 71/1/1
f 73/1/1 71/1/1 70/1/1
f 74/1/1 71/1/1 73/1/1
f 75/1/1 73/1/1 70/1/1
f 76/1/1 73/1/1 75/1/1
f 77/1/1 73/1/1 76/1/1
f 78/1/1 73/1/1 77/1/1
f 79/1/1 77/1/1 76/1/1
f 80/1/1 77/1/1 79/1/1
f 81/2/2 82/2/2 83/2/2
f 83/2/2 82/2/2 84/2/2
f 85/2/2 86/2/2 87/2/2
f 87/2/2 86/2/2 88/2/2
f 91/2/3 90/2/3 89/2/3
f 92/2/3 90/2/3 91/2/3
f 95/2/3 94/2/3 93/2/3
f 96/2/3 94/2/3 95/2/3
f 99/2/3 98/2/3 97/2/3
f 100/2/3 98/2/3 99/2/3
f 103/2/3 102/2/3 101/2/3
f 104/2/3 102/2/3 103/2/3
f 109/2/3 106/2/3 105/2/3
f 110/2/3 106/2/3 109/2/3
f 111/2/3 108/2/3 107/2/3
f 112/2/3 108/2/3 111/2/3
f 117/2/3 114/2/3 113/2/3
f 118/2/3 114/2/3 117/2/3
f 119/2/3 116/2/3 115/2/3
f 120/2/3 116/2/3 119/2/3
f 123/2/3 122/2/3 121/2/3
f 124/2/3 122/2/3 123/2/3
f 127/2/3 126/2/3 125/2/3
f 128/2/3 126/2/3 127/2/3
f 129/2/4 130/2/4 131/2/4
f 131/2/4 130/2/4 132/2/4
f 133/2/4 134/2/4 135/2/4
f 135/2/4 134/2/4 136/2/4
f 137/2/4 138/2/4 139/2/4
f 139/2/4 138/2/4 140/2/4
f 141/2/4 142/2/4 145/2/4
f 145/2/4 142/2/4 146/2/4
f 143/2/4 144/2/4 147/2/4
f 147/2/4 144/2/4 148/2/4
f 149/2/4 150/2/4 153/2/4
f 153/2/4 150/2/4 154/2/4
f 151/2/4 152/2/4 155/2/4
f 155/2/4 152/2/4 156/2/4
f 157/2/4 158/2/4 159/2/4
f 159/2/4 158/2/4 160/2/4
f 161/2/4 162/2/4 163/2/4
f 163/2/4 162/2/4 164/2/4
f 165/2/4 166/2/4 167/2/4
f 167/2/4 166/2/4 168/2/4
f 169/2/4 170/2/4 171/2/4
f 171/2/4 170/2/4 172/2/4
f 173/2/4 174/2/4 175/2/4
f 175/2/4 174/2/4 176/2/4
f 179/2/5 178/2/5 177/2/5
f 180/2/5 178/2/5 179/2/5
f 181/2/5 178/2/5 180/2/5
f 182/2/5 178/2/5 181/2/5
f 183/2/5 181/2/5 180/2/5
f 184/2/5 181/2/5 183/2/5
f 187/2/5 186/2/5 185/2/5
f 188/2/5 186/2/5 187/2/5
f 191/2/5 190/2/5 189/2/5
f 192/2/5 190/2/5 191/2/5
f 195/2/5 194/2/5 193/2/5
f 196/2/5 194/2/5 195/2/5
f 199/2/5 198/2/5 197/2/5
f 200/2/5 198/2/5 199/2/5
f 203/2/5 202/2/5 201/2/5
f 204/2/5 202/2/5 203/2/5
f 207/2/5 206/2/5 205/2/5
f 208/2/5 206/2/5 207/2/5
f 211/2/5 210/2/5 209/2/5
f 212/2/5 210/2/5 211/2/5
f 215/2/5 214/2/5 213/2/5
f 216/2/5 214/2/5 215/2/5
f 219/2/5 218/2/5 217/2/5
f 220/2/5 218/2/5 219/2/5
f 223/2/5 222/2/5 221/2/5
f 224/2/5 222/2/5 223/2/5
f 225/2/6 226/2/6 227/2/6
f 227/2/6 226/2/6 228/2/6
f 229/2/6 230/2/6 231/2/6
f 231/2/6 230/2/6 232/2/6
f 233/2/6 234/2/6 235/2/6
f 235/2/6 234/2/6 236/2/6
f 237/2/6 238/2/6 239/2/6
f 239/2/6 238/2/6 240/2/6
f 241/2/6 242/2/6 243/2/6
f 243/2/6 242/2/6 244/2/6
f 245/2/6 246/2/6 247/2/6
f 247/2/6 246/2/6 248/2/6
f 249/2/6 250/2/6 251/2/6
f 251/2/6 250/2/6 252/2/6
f 253/2/6 254/2/6 255/2/6
f 255/2/6 254/2/6 256/2/6
f 257/2/6 258/2/6 259/2/6
f 259/2/6 258/2/6 260/2/6
f 260/2/6 258/2/6 261/2/6
f 261/2/6 258/2/6 262/2/6
f 260/2/6 261/2/6 263/2/6
f 263/2/6 261/2/6 264/2/6
