# MagicaVoxel @ Ephtracy

# group
o 

# material
mtllib Village-65.mtl
usemtl palette

# normals
vn -1 0 0
vn 1 0 0
vn 0 0 1
vn 0 0 -1
vn 0 -1 0
vn 0 1 0

# texcoords
vt 0.0214844 0.5
vt 0.0644531 0.5
vt 0.0683594 0.5

# verts
v -0.4 -0.2 0.5
v -0.4 -0.2 -0.5
v -0.4 0 0.5
v -0.4 0 -0.5
v -0.3 0 0.4
v -0.3 0 -0.4
v -0.3 0.1 0.4
v -0.3 0.1 -0.4
v 0.1 0.1 0.3
v 0.1 0.1 0.2
v 0.1 0.2 0.3
v 0.1 0.2 0.2
v 0.3 0.1 -0.2
v 0.3 0.1 -0.3
v 0.3 0.2 -0.2
v 0.3 0.2 -0.3
v 0.2 0.1 0.3
v 0.2 0.1 0.2
v 0.2 0.2 0.3
v 0.2 0.2 0.2
v 0.4 0.1 -0.2
v 0.4 0.1 -0.3
v 0.4 0.2 -0.2
v 0.4 0.2 -0.3
v 0.5 0 0.4
v 0.5 0 -0.4
v 0.5 0.1 0.4
v 0.5 0.1 -0.4
v 0.6 -0.2 0.5
v 0.6 -0.2 -0.5
v 0.6 0 0.5
v 0.6 0 -0.5
v -0.4 -0.2 0.5
v -0.4 0 0.5
v 0.6 -0.2 0.5
v 0.6 0 0.5
v -0.3 0 0.4
v -0.3 0.1 0.4
v 0.5 0 0.4
v 0.5 0.1 0.4
v 0.1 0.1 0.3
v 0.1 0.2 0.3
v 0.2 0.1 0.3
v 0.2 0.2 0.3
v 0.3 0.1 -0.2
v 0.3 0.2 -0.2
v 0.4 0.1 -0.2
v 0.4 0.2 -0.2
v 0.1 0.1 0.2
v 0.1 0.2 0.2
v 0.2 0.1 0.2
v 0.2 0.2 0.2
v 0.3 0.1 -0.3
v 0.3 0.2 -0.3
v 0.4 0.1 -0.3
v 0.4 0.2 -0.3
v -0.3 0 -0.4
v -0.3 0.1 -0.4
v 0.5 0 -0.4
v 0.5 0.1 -0.4
v -0.4 -0.2 -0.5
v -0.4 0 -0.5
v 0.6 -0.2 -0.5
v 0.6 0 -0.5
v -0.4 -0.2 0.5
v 0.6 -0.2 0.5
v -0.4 -0.2 -0.5
v 0.6 -0.2 -0.5
v -0.4 0 0.5
v 0.6 0 0.5
v -0.3 0 0.4
v 0.5 0 0.4
v -0.3 0 -0.4
v 0.5 0 -0.4
v -0.4 0 -0.5
v 0.6 0 -0.5
v -0.3 0.1 0.4
v 0.5 0.1 0.4
v 0.1 0.1 0.3
v 0.2 0.1 0.3
v 0.1 0.1 0.2
v 0.2 0.1 0.2
v 0.3 0.1 -0.2
v 0.4 0.1 -0.2
v 0.3 0.1 -0.3
v 0.4 0.1 -0.3
v -0.3 0.1 -0.4
v 0.5 0.1 -0.4
v 0.1 0.2 0.3
v 0.2 0.2 0.3
v 0.1 0.2 0.2
v 0.2 0.2 0.2
v 0.3 0.2 -0.2
v 0.4 0.2 -0.2
v 0.3 0.2 -0.3
v 0.4 0.2 -0.3

# faces
f 3/1/1 2/1/1 1/1/1
f 4/1/1 2/1/1 3/1/1
f 7/2/1 6/2/1 5/2/1
f 8/2/1 6/2/1 7/2/1
f 11/3/1 10/3/1 9/3/1
f 12/3/1 10/3/1 11/3/1
f 15/3/1 14/3/1 13/3/1
f 16/3/1 14/3/1 15/3/1
f 17/3/2 18/3/2 19/3/2
f 19/3/2 18/3/2 20/3/2
f 21/3/2 22/3/2 23/3/2
f 23/3/2 22/3/2 24/3/2
f 25/2/2 26/2/2 27/2/2
f 27/2/2 26/2/2 28/2/2
f 29/1/2 30/1/2 31/1/2
f 31/1/2 30/1/2 32/1/2
f 35/1/3 34/1/3 33/1/3
f 36/1/3 34/1/3 35/1/3
f 39/2/3 38/2/3 37/2/3
f 40/2/3 38/2/3 39/2/3
f 43/3/3 42/3/3 41/3/3
f 44/3/3 42/3/3 43/3/3
f 47/3/3 46/3/3 45/3/3
f 48/3/3 46/3/3 47/3/3
f 49/3/4 50/3/4 51/3/4
f 51/3/4 50/3/4 52/3/4
f 53/3/4 54/3/4 55/3/4
f 55/3/4 54/3/4 56/3/4
f 57/2/4 58/2/4 59/2/4
f 59/2/4 58/2/4 60/2/4
f 61/1/4 62/1/4 63/1/4
f 63/1/4 62/1/4 64/1/4
f 67/1/5 66/1/5 65/1/5
f 68/1/5 66/1/5 67/1/5
f 69/1/6 70/1/6 71/1/6
f 71/1/6 70/1/6 72/1/6
f 69/1/6 71/1/6 73/1/6
f 72/1/6 70/1/6 74/1/6
f 69/1/6 73/1/6 75/1/6
f 73/1/6 74/1/6 75/1/6
f 74/1/6 70/1/6 76/1/6
f 75/1/6 74/1/6 76/1/6
f 77/2/6 78/2/6 79/2/6
f 79/2/6 78/2/6 80/2/6
f 77/2/6 79/2/6 81/2/6
f 80/2/6 78/2/6 82/2/6
f 82/2/6 78/2/6 83/2/6
f 81/2/6 82/2/6 83/2/6
f 83/2/6 78/2/6 84/2/6
f 81/2/6 83/2/6 85/2/6
f 84/2/6 78/2/6 86/2/6
f 77/2/6 81/2/6 87/2/6
f 85/2/6 86/2/6 87/2/6
f 81/2/6 85/2/6 87/2/6
f 86/2/6 78/2/6 88/2/6
f 87/2/6 86/2/6 88/2/6
f 89/3/6 90/3/6 91/3/6
f 91/3/6 90/3/6 92/3/6
f 93/3/6 94/3/6 95/3/6
f 95/3/6 94/3/6 96/3/6
