# MagicaVoxel @ Ephtracy

# group
o 

# material
mtllib Village-71.mtl
usemtl palette

# normals
vn -1 0 0
vn 1 0 0
vn 0 0 1
vn 0 0 -1
vn 0 -1 0
vn 0 1 0

# texcoords
vt 0.0175781 0.5
vt 0.0605469 0.5

# verts
v -0.9 -4 1
v -0.9 -4 -1
v -0.9 -3.8 1
v -0.9 -3.8 -1
v -0.9 3.8 1
v -0.9 3.8 -1
v -0.9 4 1
v -0.9 4 -1
v -0.7 -3.8 0.8
v -0.7 -3.8 -0.8
v -0.7 3.8 0.8
v -0.7 3.8 -0.8
v 0.4 1.7 0.8
v 0.4 1.7 0.7
v 0.4 2.1 0.8
v 0.4 2.1 0.7
v 0.5 1.4 0.8
v 0.5 1.4 0.7
v 0.5 1.5 0.8
v 0.5 1.5 0.7
v 0.5 1.6 0.8
v 0.5 1.6 0.7
v 0.5 1.7 0.8
v 0.5 1.7 0.7
v 0.5 2.1 0.8
v 0.5 2.1 0.7
v 0.5 2.2 0.8
v 0.5 2.2 0.7
v 0.6 1.3 0.8
v 0.6 1.3 0.7
v 0.6 1.4 0.8
v 0.6 1.4 0.7
v 0.6 1.5 0.8
v 0.6 1.5 0.7
v 0.6 1.6 0.8
v 0.6 1.6 0.7
v 0.7 2.2 0.8
v 0.7 2.2 0.7
v 0.7 2.3 0.8
v 0.7 2.3 0.7
v 0.8 1.1 0.6
v 0.8 1.1 0.2
v 0.8 1.2 0.7
v 0.8 1.2 0.6
v 0.8 1.3 0.7
v 0.8 1.5 0.3
v 0.8 1.5 0.2
v 0.8 1.6 0.5
v 0.8 1.6 0.3
v 0.8 1.8 0.6
v 0.8 1.8 0.5
v 0.8 2.1 0.7
v 0.8 2.1 0.6
v 0.9 -3.8 0.8
v 0.9 -3.8 -0.8
v 0.9 1.1 0.6
v 0.9 1.1 0.2
v 0.9 1.2 0.7
v 0.9 1.2 0.6
v 0.9 1.3 0.8
v 0.9 1.3 0.7
v 0.9 1.5 0.3
v 0.9 1.5 0.2
v 0.9 1.6 0.5
v 0.9 1.6 0.3
v 0.9 1.8 0.6
v 0.9 1.8 0.5
v 0.9 2.1 0.7
v 0.9 2.1 0.6
v 0.9 2.3 0.8
v 0.9 2.3 0.7
v 0.9 2.3 0.6
v 0.9 3.8 0.8
v 0.9 3.8 -0.8
v 1.1 -4 1
v 1.1 -4 -1
v 1.1 -3.8 1
v 1.1 -3.8 -1
v 1.1 3.8 1
v 1.1 3.8 -1
v 1.1 4 1
v 1.1 4 -1
v -0.9 -4 1
v -0.9 -3.8 1
v -0.9 3.8 1
v -0.9 4 1
v 1.1 -4 1
v 1.1 -3.8 1
v 1.1 3.8 1
v 1.1 4 1
v -0.7 -3.8 0.8
v -0.7 3.8 0.8
v 0.4 1.7 0.8
v 0.4 2.1 0.8
v 0.5 1.4 0.8
v 0.5 1.5 0.8
v 0.5 1.6 0.8
v 0.5 1.7 0.8
v 0.5 2.1 0.8
v 0.5 2.2 0.8
v 0.6 1.3 0.8
v 0.6 1.4 0.8
v 0.6 1.5 0.8
v 0.6 1.6 0.8
v 0.7 2.2 0.8
v 0.7 2.3 0.8
v 0.9 -3.8 0.8
v 0.9 1.3 0.8
v 0.9 2.3 0.8
v 0.9 3.8 0.8
v 0.4 1.7 0.7
v 0.4 2.1 0.7
v 0.5 1.4 0.7
v 0.5 1.5 0.7
v 0.5 1.6 0.7
v 0.5 1.7 0.7
v 0.5 2.1 0.7
v 0.5 2.2 0.7
v 0.6 1.3 0.7
v 0.6 1.4 0.7
v 0.6 1.5 0.7
v 0.6 1.6 0.7
v 0.7 2.2 0.7
v 0.7 2.3 0.7
v 0.8 1.3 0.7
v 0.8 2.1 0.7
v 0.9 2.1 0.7
v 0.9 2.3 0.7
v 0.8 1.8 0.6
v 0.8 2.1 0.6
v 0.9 1.8 0.6
v 0.9 2.1 0.6
v 0.8 1.6 0.5
v 0.8 1.8 0.5
v 0.9 1.6 0.5
v 0.9 1.8 0.5
v 0.8 1.5 0.3
v 0.8 1.6 0.3
v 0.9 1.5 0.3
v 0.9 1.6 0.3
v 0.8 1.1 0.2
v 0.8 1.5 0.2
v 0.9 1.1 0.2
v 0.9 1.5 0.2
v 0.8 1.2 0.7
v 0.8 1.3 0.7
v 0.9 1.2 0.7
v 0.9 1.3 0.7
v 0.8 1.1 0.6
v 0.8 1.2 0.6
v 0.9 1.1 0.6
v 0.9 1.2 0.6
v -0.7 -3.8 -0.8
v -0.7 3.8 -0.8
v 0.9 -3.8 -0.8
v 0.9 3.8 -0.8
v -0.9 -4 -1
v -0.9 -3.8 -1
v -0.9 3.8 -1
v -0.9 4 -1
v 1.1 -4 -1
v 1.1 -3.8 -1
v 1.1 3.8 -1
v 1.1 4 -1
v -0.9 -4 1
v 1.1 -4 1
v -0.9 -4 -1
v 1.1 -4 -1
v 0.5 1.5 0.8
v 0.6 1.5 0.8
v 0.5 1.5 0.7
v 0.6 1.5 0.7
v 0.8 1.5 0.3
v 0.9 1.5 0.3
v 0.8 1.5 0.2
v 0.9 1.5 0.2
v 0.8 1.6 0.5
v 0.9 1.6 0.5
v 0.8 1.6 0.3
v 0.9 1.6 0.3
v 0.8 1.8 0.6
v 0.9 1.8 0.6
v 0.8 1.8 0.5
v 0.9 1.8 0.5
v 0.4 2.1 0.8
v 0.5 2.1 0.8
v 0.4 2.1 0.7
v 0.5 2.1 0.7
v 0.8 2.1 0.7
v 0.9 2.1 0.7
v 0.8 2.1 0.6
v 0.9 2.1 0.6
v 0.5 2.2 0.8
v 0.7 2.2 0.8
v 0.5 2.2 0.7
v 0.7 2.2 0.7
v 0.7 2.3 0.8
v 0.9 2.3 0.8
v 0.7 2.3 0.7
v 0.9 2.3 0.7
v -0.9 3.8 1
v 1.1 3.8 1
v -0.7 3.8 0.8
v 0.9 3.8 0.8
v -0.7 3.8 -0.8
v 0.9 3.8 -0.8
v -0.9 3.8 -1
v 1.1 3.8 -1
v -0.9 -3.8 1
v 1.1 -3.8 1
v -0.7 -3.8 0.8
v 0.9 -3.8 0.8
v -0.7 -3.8 -0.8
v 0.9 -3.8 -0.8
v -0.9 -3.8 -1
v 1.1 -3.8 -1
v 0.8 1.1 0.6
v 0.9 1.1 0.6
v 0.8 1.1 0.2
v 0.9 1.1 0.2
v 0.8 1.2 0.7
v 0.9 1.2 0.7
v 0.8 1.2 0.6
v 0.9 1.2 0.6
v 0.6 1.3 0.8
v 0.9 1.3 0.8
v 0.6 1.3 0.7
v 0.8 1.3 0.7
v 0.9 1.3 0.7
v 0.5 1.4 0.8
v 0.6 1.4 0.8
v 0.5 1.4 0.7
v 0.6 1.4 0.7
v 0.5 1.6 0.8
v 0.6 1.6 0.8
v 0.5 1.6 0.7
v 0.6 1.6 0.7
v 0.4 1.7 0.8
v 0.5 1.7 0.8
v 0.4 1.7 0.7
v 0.5 1.7 0.7
v -0.9 4 1
v 1.1 4 1
v -0.9 4 -1
v 1.1 4 -1

# faces
f 3/2/1 2/2/1 1/2/1
f 4/2/1 2/2/1 3/2/1
f 7/2/1 6/2/1 5/2/1
f 8/2/1 6/2/1 7/2/1
f 11/2/1 10/2/1 9/2/1
f 12/2/1 10/2/1 11/2/1
f 13/2/2 14/2/2 15/2/2
f 15/2/2 14/2/2 16/2/2
f 17/2/2 18/2/2 19/2/2
f 19/2/2 18/2/2 20/2/2
f 21/2/2 22/2/2 23/2/2
f 23/2/2 22/2/2 24/2/2
f 25/2/2 26/2/2 27/2/2
f 27/2/2 26/2/2 28/2/2
f 29/2/2 30/2/2 31/2/2
f 31/2/2 30/2/2 32/2/2
f 33/2/2 34/2/2 35/2/2
f 35/2/2 34/2/2 36/2/2
f 37/2/2 38/2/2 39/2/2
f 39/2/2 38/2/2 40/2/2
f 41/1/2 42/1/2 44/1/2
f 43/1/2 44/1/2 45/1/2
f 44/1/2 42/1/2 46/1/2
f 45/1/2 44/1/2 46/1/2
f 46/1/2 42/1/2 47/1/2
f 45/1/2 46/1/2 48/1/2
f 48/1/2 46/1/2 49/1/2
f 45/1/2 48/1/2 50/1/2
f 50/1/2 48/1/2 51/1/2
f 45/1/2 50/1/2 52/1/2
f 52/1/2 50/1/2 53/1/2
f 54/2/2 55/2/2 56/2/2
f 56/2/2 55/2/2 57/2/2
f 54/2/2 56/2/2 58/2/2
f 58/2/2 56/2/2 59/2/2
f 54/2/2 58/2/2 60/2/2
f 60/2/2 58/2/2 61/2/2
f 57/2/2 55/2/2 63/2/2
f 62/2/2 63/2/2 65/2/2
f 64/2/2 65/2/2 67/2/2
f 66/2/2 67/2/2 69/2/2
f 68/1/2 69/1/2 71/1/2
f 69/2/2 67/2/2 72/2/2
f 71/1/2 69/1/2 72/1/2
f 70/2/2 71/2/2 73/2/2
f 71/2/2 72/2/2 73/2/2
f 63/2/2 55/2/2 74/2/2
f 73/2/2 72/2/2 74/2/2
f 65/2/2 63/2/2 74/2/2
f 67/2/2 65/2/2 74/2/2
f 72/2/2 67/2/2 74/2/2
f 75/2/2 76/2/2 77/2/2
f 77/2/2 76/2/2 78/2/2
f 79/2/2 80/2/2 81/2/2
f 81/2/2 80/2/2 82/2/2
f 87/2/3 84/2/3 83/2/3
f 88/2/3 84/2/3 87/2/3
f 89/2/3 86/2/3 85/2/3
f 90/2/3 86/2/3 89/2/3
f 93/2/3 92/2/3 91/2/3
f 94/2/3 92/2/3 93/2/3
f 95/2/3 93/2/3 91/2/3
f 96/2/3 93/2/3 95/2/3
f 97/2/3 93/2/3 96/2/3
f 98/2/3 93/2/3 97/2/3
f 99/2/3 92/2/3 94/2/3
f 100/2/3 92/2/3 99/2/3
f 101/2/3 95/2/3 91/2/3
f 102/2/3 95/2/3 101/2/3
f 103/2/3 97/2/3 96/2/3
f 104/2/3 97/2/3 103/2/3
f 105/2/3 92/2/3 100/2/3
f 106/2/3 92/2/3 105/2/3
f 107/2/3 101/2/3 91/2/3
f 108/2/3 101/2/3 107/2/3
f 109/2/3 92/2/3 106/2/3
f 110/2/3 92/2/3 109/2/3
f 116/1/3 112/1/3 111/1/3
f 117/1/3 112/1/3 116/1/3
f 120/1/3 114/1/3 113/1/3
f 121/1/3 114/1/3 120/1/3
f 122/1/3 118/1/3 117/1/3
f 122/1/3 116/1/3 115/1/3
f 122/1/3 117/1/3 116/1/3
f 123/1/3 121/1/3 120/1/3
f 123/1/3 122/1/3 121/1/3
f 123/1/3 118/1/3 122/1/3
f 123/1/3 120/1/3 119/1/3
f 125/1/3 123/1/3 119/1/3
f 125/1/3 124/1/3 123/1/3
f 126/1/3 124/1/3 125/1/3
f 127/1/3 124/1/3 126/1/3
f 128/1/3 124/1/3 127/1/3
f 131/2/3 130/2/3 129/2/3
f 132/2/3 130/2/3 131/2/3
f 135/2/3 134/2/3 133/2/3
f 136/2/3 134/2/3 135/2/3
f 139/2/3 138/2/3 137/2/3
f 140/2/3 138/2/3 139/2/3
f 143/2/3 142/2/3 141/2/3
f 144/2/3 142/2/3 143/2/3
f 145/2/4 146/2/4 147/2/4
f 147/2/4 146/2/4 148/2/4
f 149/2/4 150/2/4 151/2/4
f 151/2/4 150/2/4 152/2/4
f 153/2/4 154/2/4 155/2/4
f 155/2/4 154/2/4 156/2/4
f 157/2/4 158/2/4 161/2/4
f 161/2/4 158/2/4 162/2/4
f 159/2/4 160/2/4 163/2/4
f 163/2/4 160/2/4 164/2/4
f 167/2/5 166/2/5 165/2/5
f 168/2/5 166/2/5 167/2/5
f 171/2/5 170/2/5 169/2/5
f 172/2/5 170/2/5 171/2/5
f 175/2/5 174/2/5 173/2/5
f 176/2/5 174/2/5 175/2/5
f 179/2/5 178/2/5 177/2/5
f 180/2/5 178/2/5 179/2/5
f 183/2/5 182/2/5 181/2/5
f 184/2/5 182/2/5 183/2/5
f 187/2/5 186/2/5 185/2/5
f 188/2/5 186/2/5 187/2/5
f 191/1/5 190/1/5 189/1/5
f 192/1/5 190/1/5 191/1/5
f 195/2/5 194/2/5 193/2/5
f 196/2/5 194/2/5 195/2/5
f 199/2/5 198/2/5 197/2/5
f 200/2/5 198/2/5 199/2/5
f 203/2/5 202/2/5 201/2/5
f 204/2/5 202/2/5 203/2/5
f 205/2/5 203/2/5 201/2/5
f 206/2/5 202/2/5 204/2/5
f 207/2/5 205/2/5 201/2/5
f 207/2/5 206/2/5 205/2/5
f 208/2/5 202/2/5 206/2/5
f 208/2/5 206/2/5 207/2/5
f 209/2/6 210/2/6 211/2/6
f 211/2/6 210/2/6 212/2/6
f 209/2/6 211/2/6 213/2/6
f 212/2/6 210/2/6 214/2/6
f 209/2/6 213/2/6 215/2/6
f 213/2/6 214/2/6 215/2/6
f 214/2/6 210/2/6 216/2/6
f 215/2/6 214/2/6 216/2/6
f 217/2/6 218/2/6 219/2/6
f 219/2/6 218/2/6 220/2/6
f 221/2/6 222/2/6 223/2/6
f 223/2/6 222/2/6 224/2/6
f 225/2/6 226/2/6 227/2/6
f 227/2/6 226/2/6 228/2/6
f 228/2/6 226/2/6 229/2/6
f 230/2/6 231/2/6 232/2/6
f 232/2/6 231/2/6 233/2/6
f 234/2/6 235/2/6 236/2/6
f 236/2/6 235/2/6 237/2/6
f 238/2/6 239/2/6 240/2/6
f 240/2/6 239/2/6 241/2/6
f 242/2/6 243/2/6 244/2/6
f 244/2/6 243/2/6 245/2/6
