# MagicaVoxel @ Ephtracy

# group
o 

# material
mtllib Village-52.mtl
usemtl palette

# normals
vn -1 0 0
vn 1 0 0
vn 0 0 1
vn 0 0 -1
vn 0 -1 0
vn 0 1 0

# texcoords
vt 0.00976563 0.5
vt 0.0214844 0.5
vt 0.0292969 0.5

# verts
v -0.6 0.7 0.7
v -0.6 0.7 -0.7
v -0.6 0.9 0.7
v -0.6 0.9 -0.7
v -0.4 -1.2 0.5
v -0.4 -1.2 -0.5
v -0.4 0.7 0.5
v -0.4 0.7 -0.5
v -0.4 0.9 0.5
v -0.4 0.9 -0.5
v -0.4 1.1 0.5
v -0.4 1.1 -0.5
v -0.2 1.1 -0.2
v -0.2 1.1 -0.3
v -0.2 1.2 -0.2
v -0.2 1.2 -0.3
v -0.1 1.1 0.3
v -0.1 1.1 0.2
v -0.1 1.2 0.3
v -0.1 1.2 0.2
v 0.2 1.1 -0.1
v 0.2 1.1 -0.2
v 0.2 1.2 -0.1
v 0.2 1.2 -0.2
v -0.1 1.1 -0.2
v -0.1 1.1 -0.3
v -0.1 1.2 -0.2
v -0.1 1.2 -0.3
v -5.96046e-008 1.1 0.3
v -5.96046e-008 1.1 0.2
v -5.96046e-008 1.2 0.3
v -5.96046e-008 1.2 0.2
v 0.3 1.1 -0.1
v 0.3 1.1 -0.2
v 0.3 1.2 -0.1
v 0.3 1.2 -0.2
v 0.6 -1.2 0.5
v 0.6 -1.2 -0.5
v 0.6 0.7 0.5
v 0.6 0.7 -0.5
v 0.6 0.9 0.5
v 0.6 0.9 -0.5
v 0.6 1.1 0.5
v 0.6 1.1 -0.5
v 0.8 0.7 0.7
v 0.8 0.7 -0.7
v 0.8 0.9 0.7
v 0.8 0.9 -0.7
v -0.6 0.7 0.7
v -0.6 0.9 0.7
v 0.8 0.7 0.7
v 0.8 0.9 0.7
v -0.4 -1.2 0.5
v -0.4 0.7 0.5
v -0.4 0.9 0.5
v -0.4 1.1 0.5
v 0.6 -1.2 0.5
v 0.6 0.7 0.5
v 0.6 0.9 0.5
v 0.6 1.1 0.5
v -0.1 1.1 0.3
v -0.1 1.2 0.3
v -5.96046e-008 1.1 0.3
v -5.96046e-008 1.2 0.3
v 0.2 1.1 -0.1
v 0.2 1.2 -0.1
v 0.3 1.1 -0.1
v 0.3 1.2 -0.1
v -0.2 1.1 -0.2
v -0.2 1.2 -0.2
v -0.1 1.1 -0.2
v -0.1 1.2 -0.2
v -0.1 1.1 0.2
v -0.1 1.2 0.2
v -5.96046e-008 1.1 0.2
v -5.96046e-008 1.2 0.2
v 0.2 1.1 -0.2
v 0.2 1.2 -0.2
v 0.3 1.1 -0.2
v 0.3 1.2 -0.2
v -0.2 1.1 -0.3
v -0.2 1.2 -0.3
v -0.1 1.1 -0.3
v -0.1 1.2 -0.3
v -0.4 -1.2 -0.5
v -0.4 0.7 -0.5
v -0.4 0.9 -0.5
v -0.4 1.1 -0.5
v 0.6 -1.2 -0.5
v 0.6 0.7 -0.5
v 0.6 0.9 -0.5
v 0.6 1.1 -0.5
v -0.6 0.7 -0.7
v -0.6 0.9 -0.7
v 0.8 0.7 -0.7
v 0.8 0.9 -0.7
v -0.4 -1.2 0.5
v 0.6 -1.2 0.5
v -0.4 -1.2 -0.5
v 0.6 -1.2 -0.5
v -0.6 0.7 0.7
v 0.8 0.7 0.7
v -0.4 0.7 0.5
v 0.6 0.7 0.5
v -0.4 0.7 -0.5
v 0.6 0.7 -0.5
v -0.6 0.7 -0.7
v 0.8 0.7 -0.7
v -0.6 0.9 0.7
v 0.8 0.9 0.7
v -0.4 0.9 0.5
v 0.6 0.9 0.5
v -0.4 0.9 -0.5
v 0.6 0.9 -0.5
v -0.6 0.9 -0.7
v 0.8 0.9 -0.7
v -0.4 1.1 0.5
v 0.6 1.1 0.5
v -0.1 1.1 0.3
v -5.96046e-008 1.1 0.3
v -0.1 1.1 0.2
v -5.96046e-008 1.1 0.2
v 0.2 1.1 -0.1
v 0.3 1.1 -0.1
v -0.2 1.1 -0.2
v -0.1 1.1 -0.2
v 0.2 1.1 -0.2
v 0.3 1.1 -0.2
v -0.2 1.1 -0.3
v -0.1 1.1 -0.3
v -0.4 1.1 -0.5
v 0.6 1.1 -0.5
v -0.1 1.2 0.3
v -5.96046e-008 1.2 0.3
v -0.1 1.2 0.2
v -5.96046e-008 1.2 0.2
v 0.2 1.2 -0.1
v 0.3 1.2 -0.1
v -0.2 1.2 -0.2
v -0.1 1.2 -0.2
v 0.2 1.2 -0.2
v 0.3 1.2 -0.2
v -0.2 1.2 -0.3
v -0.1 1.2 -0.3

# faces
f 3/1/1 2/1/1 1/1/1
f 4/1/1 2/1/1 3/1/1
f 7/1/1 6/1/1 5/1/1
f 8/1/1 6/1/1 7/1/1
f 11/3/1 10/3/1 9/3/1
f 12/3/1 10/3/1 11/3/1
f 15/2/1 14/2/1 13/2/1
f 16/2/1 14/2/1 15/2/1
f 19/2/1 18/2/1 17/2/1
f 20/2/1 18/2/1 19/2/1
f 23/2/1 22/2/1 21/2/1
f 24/2/1 22/2/1 23/2/1
f 25/2/2 26/2/2 27/2/2
f 27/2/2 26/2/2 28/2/2
f 29/2/2 30/2/2 31/2/2
f 31/2/2 30/2/2 32/2/2
f 33/2/2 34/2/2 35/2/2
f 35/2/2 34/2/2 36/2/2
f 37/1/2 38/1/2 39/1/2
f 39/1/2 38/1/2 40/1/2
f 41/3/2 42/3/2 43/3/2
f 43/3/2 42/3/2 44/3/2
f 45/1/2 46/1/2 47/1/2
f 47/1/2 46/1/2 48/1/2
f 51/1/3 50/1/3 49/1/3
f 52/1/3 50/1/3 51/1/3
f 57/1/3 54/1/3 53/1/3
f 58/1/3 54/1/3 57/1/3
f 59/3/3 56/3/3 55/3/3
f 60/3/3 56/3/3 59/3/3
f 63/2/3 62/2/3 61/2/3
f 64/2/3 62/2/3 63/2/3
f 67/2/3 66/2/3 65/2/3
f 68/2/3 66/2/3 67/2/3
f 71/2/3 70/2/3 69/2/3
f 72/2/3 70/2/3 71/2/3
f 73/2/4 74/2/4 75/2/4
f 75/2/4 74/2/4 76/2/4
f 77/2/4 78/2/4 79/2/4
f 79/2/4 78/2/4 80/2/4
f 81/2/4 82/2/4 83/2/4
f 83/2/4 82/2/4 84/2/4
f 85/1/4 86/1/4 89/1/4
f 89/1/4 86/1/4 90/1/4
f 87/3/4 88/3/4 91/3/4
f 91/3/4 88/3/4 92/3/4
f 93/1/4 94/1/4 95/1/4
f 95/1/4 94/1/4 96/1/4
f 99/1/5 98/1/5 97/1/5
f 100/1/5 98/1/5 99/1/5
f 103/1/5 102/1/5 101/1/5
f 104/1/5 102/1/5 103/1/5
f 105/1/5 103/1/5 101/1/5
f 106/1/5 102/1/5 104/1/5
f 107/1/5 105/1/5 101/1/5
f 107/1/5 106/1/5 105/1/5
f 108/1/5 102/1/5 106/1/5
f 108/1/5 106/1/5 107/1/5
f 109/1/6 110/1/6 111/1/6
f 111/1/6 110/1/6 112/1/6
f 109/1/6 111/1/6 113/1/6
f 112/1/6 110/1/6 114/1/6
f 109/1/6 113/1/6 115/1/6
f 113/1/6 114/1/6 115/1/6
f 114/1/6 110/1/6 116/1/6
f 115/1/6 114/1/6 116/1/6
f 117/3/6 118/3/6 119/3/6
f 119/3/6 118/3/6 120/3/6
f 117/3/6 119/3/6 121/3/6
f 120/3/6 118/3/6 122/3/6
f 122/3/6 118/3/6 123/3/6
f 121/3/6 122/3/6 123/3/6
f 123/3/6 118/3/6 124/3/6
f 117/3/6 121/3/6 125/3/6
f 121/3/6 123/3/6 125/3/6
f 125/3/6 123/3/6 126/3/6
f 126/3/6 123/3/6 127/3/6
f 124/3/6 118/3/6 128/3/6
f 117/3/6 125/3/6 129/3/6
f 126/3/6 127/3/6 130/3/6
f 127/3/6 128/3/6 130/3/6
f 117/3/6 129/3/6 131/3/6
f 129/3/6 130/3/6 131/3/6
f 130/3/6 128/3/6 132/3/6
f 131/3/6 130/3/6 132/3/6
f 128/3/6 118/3/6 132/3/6
f 133/2/6 134/2/6 135/2/6
f 135/2/6 134/2/6 136/2/6
f 137/2/6 138/2/6 141/2/6
f 141/2/6 138/2/6 142/2/6
f 139/2/6 140/2/6 143/2/6
f 143/2/6 140/2/6 144/2/6
