# MagicaVoxel @ Ephtracy

# group
o Entorno-31

# material
mtllib Village-35-Entorno-31.mtl
usemtl palette

# normals
vn 0 0 1
vn 0 0 -1
vn 1 0 0
vn -1 0 0
vn 0 -1 0
vn 0 1 0

# texcoords
vt 0.0214844 0.5
vt 0.158203 0.5
vt 0.162109 0.5

# verts
v 1.1 -0.2 2
v -0.9 -0.2 2
v 1.1 0 2
v -0.9 0 2
v 1 0 1.9
v -0.8 0 1.9
v 1 0.1 1.9
v -0.8 0.1 1.9
v 0 0.1 1.5
v -0.1 0.1 1.5
v 0 0.2 1.5
v -0.1 0.2 1.5
v 0.7 0.1 1.3
v 0.6 0.1 1.3
v 0.7 0.2 1.3
v 0.6 0.2 1.3
v -0.4 0.1 0.2
v -0.5 0.1 0.2
v -0.4 0.2 0.2
v -0.5 0.2 0.2
v -0.3 0.1 -1
v -0.4 0.1 -1
v -0.3 0.2 -1
v -0.4 0.2 -1
v 0.6 0.1 -1.5
v 0.5 0.1 -1.5
v 0.6 0.2 -1.5
v 0.5 0.2 -1.5
v 0 0.1 1.4
v -0.1 0.1 1.4
v 0 0.2 1.4
v -0.1 0.2 1.4
v 0.7 0.1 1.2
v 0.6 0.1 1.2
v 0.7 0.2 1.2
v 0.6 0.2 1.2
v -0.4 0.1 0.0999999
v -0.5 0.1 0.0999999
v -0.4 0.2 0.0999999
v -0.5 0.2 0.0999999
v -0.3 0.1 -1.1
v -0.4 0.1 -1.1
v -0.3 0.2 -1.1
v -0.4 0.2 -1.1
v 0.6 0.1 -1.6
v 0.5 0.1 -1.6
v 0.6 0.2 -1.6
v 0.5 0.2 -1.6
v 1 0 -1.9
v -0.8 0 -1.9
v 1 0.1 -1.9
v -0.8 0.1 -1.9
v 1.1 -0.2 -2
v -0.9 -0.2 -2
v 1.1 0 -2
v -0.9 0 -2
v 1.1 -0.2 2
v 1.1 0 2
v 1.1 -0.2 -2
v 1.1 0 -2
v 1 0 1.9
v 1 0.1 1.9
v 1 0 -1.9
v 1 0.1 -1.9
v 0.7 0.1 1.3
v 0.7 0.2 1.3
v 0.7 0.1 1.2
v 0.7 0.2 1.2
v 0.6 0.1 -1.5
v 0.6 0.2 -1.5
v 0.6 0.1 -1.6
v 0.6 0.2 -1.6
v 0 0.1 1.5
v 0 0.2 1.5
v 0 0.1 1.4
v 0 0.2 1.4
v -0.3 0.1 -1
v -0.3 0.2 -1
v -0.3 0.1 -1.1
v -0.3 0.2 -1.1
v -0.4 0.1 0.2
v -0.4 0.2 0.2
v -0.4 0.1 0.0999999
v -0.4 0.2 0.0999999
v 0.6 0.1 1.3
v 0.6 0.2 1.3
v 0.6 0.1 1.2
v 0.6 0.2 1.2
v 0.5 0.1 -1.5
v 0.5 0.2 -1.5
v 0.5 0.1 -1.6
v 0.5 0.2 -1.6
v -0.1 0.1 1.5
v -0.1 0.2 1.5
v -0.1 0.1 1.4
v -0.1 0.2 1.4
v -0.4 0.1 -1
v -0.4 0.2 -1
v -0.4 0.1 -1.1
v -0.4 0.2 -1.1
v -0.5 0.1 0.2
v -0.5 0.2 0.2
v -0.5 0.1 0.0999999
v -0.5 0.2 0.0999999
v -0.8 0 1.9
v -0.8 0.1 1.9
v -0.8 0 -1.9
v -0.8 0.1 -1.9
v -0.9 -0.2 2
v -0.9 0 2
v -0.9 -0.2 -2
v -0.9 0 -2
v 1.1 -0.2 2
v 1.1 -0.2 -2
v -0.9 -0.2 2
v -0.9 -0.2 -2
v 1.1 0 2
v 1.1 0 -2
v 1 0 1.9
v 1 0 -1.9
v -0.8 0 1.9
v -0.8 0 -1.9
v -0.9 0 2
v -0.9 0 -2
v 1 0.1 1.9
v 1 0.1 -1.9
v 0.7 0.1 1.3
v 0.7 0.1 1.2
v 0.6 0.1 1.3
v 0.6 0.1 1.2
v 0.6 0.1 -1.5
v 0.6 0.1 -1.6
v 0.5 0.1 -1.5
v 0.5 0.1 -1.6
v 0 0.1 1.5
v 0 0.1 1.4
v -0.1 0.1 1.5
v -0.1 0.1 1.4
v -0.3 0.1 -1
v -0.3 0.1 -1.1
v -0.4 0.1 0.2
v -0.4 0.1 0.0999999
v -0.4 0.1 -1
v -0.4 0.1 -1.1
v -0.5 0.1 0.2
v -0.5 0.1 0.0999999
v -0.8 0.1 1.9
v -0.8 0.1 -1.9
v 0.7 0.2 1.3
v 0.7 0.2 1.2
v 0.6 0.2 1.3
v 0.6 0.2 1.2
v 0.6 0.2 -1.5
v 0.6 0.2 -1.6
v 0.5 0.2 -1.5
v 0.5 0.2 -1.6
v 0 0.2 1.5
v 0 0.2 1.4
v -0.1 0.2 1.5
v -0.1 0.2 1.4
v -0.3 0.2 -1
v -0.3 0.2 -1.1
v -0.4 0.2 0.2
v -0.4 0.2 0.0999999
v -0.4 0.2 -1
v -0.4 0.2 -1.1
v -0.5 0.2 0.2
v -0.5 0.2 0.0999999

# faces
f 3/1/1 2/1/1 1/1/1
f 4/1/1 2/1/1 3/1/1
f 7/2/1 6/2/1 5/2/1
f 8/2/1 6/2/1 7/2/1
f 11/3/1 10/3/1 9/3/1
f 12/3/1 10/3/1 11/3/1
f 15/3/1 14/3/1 13/3/1
f 16/3/1 14/3/1 15/3/1
f 19/3/1 18/3/1 17/3/1
f 20/3/1 18/3/1 19/3/1
f 23/3/1 22/3/1 21/3/1
f 24/3/1 22/3/1 23/3/1
f 27/3/1 26/3/1 25/3/1
f 28/3/1 26/3/1 27/3/1
f 29/3/2 30/3/2 31/3/2
f 31/3/2 30/3/2 32/3/2
f 33/3/2 34/3/2 35/3/2
f 35/3/2 34/3/2 36/3/2
f 37/3/2 38/3/2 39/3/2
f 39/3/2 38/3/2 40/3/2
f 41/3/2 42/3/2 43/3/2
f 43/3/2 42/3/2 44/3/2
f 45/3/2 46/3/2 47/3/2
f 47/3/2 46/3/2 48/3/2
f 49/2/2 50/2/2 51/2/2
f 51/2/2 50/2/2 52/2/2
f 53/1/2 54/1/2 55/1/2
f 55/1/2 54/1/2 56/1/2
f 59/1/3 58/1/3 57/1/3
f 60/1/3 58/1/3 59/1/3
f 63/2/3 62/2/3 61/2/3
f 64/2/3 62/2/3 63/2/3
f 67/3/3 66/3/3 65/3/3
f 68/3/3 66/3/3 67/3/3
f 71/3/3 70/3/3 69/3/3
f 72/3/3 70/3/3 71/3/3
f 75/3/3 74/3/3 73/3/3
f 76/3/3 74/3/3 75/3/3
f 79/3/3 78/3/3 77/3/3
f 80/3/3 78/3/3 79/3/3
f 83/3/3 82/3/3 81/3/3
f 84/3/3 82/3/3 83/3/3
f 85/3/4 86/3/4 87/3/4
f 87/3/4 86/3/4 88/3/4
f 89/3/4 90/3/4 91/3/4
f 91/3/4 90/3/4 92/3/4
f 93/3/4 94/3/4 95/3/4
f 95/3/4 94/3/4 96/3/4
f 97/3/4 98/3/4 99/3/4
f 99/3/4 98/3/4 100/3/4
f 101/3/4 102/3/4 103/3/4
f 103/3/4 102/3/4 104/3/4
f 105/2/4 106/2/4 107/2/4
f 107/2/4 106/2/4 108/2/4
f 109/1/4 110/1/4 111/1/4
f 111/1/4 110/1/4 112/1/4
f 115/1/5 114/1/5 113/1/5
f 116/1/5 114/1/5 115/1/5
f 117/1/6 118/1/6 119/1/6
f 119/1/6 118/1/6 120/1/6
f 117/1/6 119/1/6 121/1/6
f 120/1/6 118/1/6 122/1/6
f 117/1/6 121/1/6 123/1/6
f 121/1/6 122/1/6 123/1/6
f 122/1/6 118/1/6 124/1/6
f 123/1/6 122/1/6 124/1/6
f 125/2/6 126/2/6 127/2/6
f 127/2/6 126/2/6 128/2/6
f 125/2/6 127/2/6 129/2/6
f 128/2/6 126/2/6 130/2/6
f 130/2/6 126/2/6 131/2/6
f 131/2/6 126/2/6 132/2/6
f 129/2/6 130/2/6 133/2/6
f 130/2/6 131/2/6 133/2/6
f 132/2/6 126/2/6 134/2/6
f 125/2/6 129/2/6 135/2/6
f 133/2/6 134/2/6 135/2/6
f 129/2/6 133/2/6 135/2/6
f 135/2/6 134/2/6 136/2/6
f 125/2/6 135/2/6 137/2/6
f 136/2/6 134/2/6 138/2/6
f 138/2/6 134/2/6 139/2/6
f 137/2/6 138/2/6 139/2/6
f 139/2/6 134/2/6 140/2/6
f 137/2/6 139/2/6 141/2/6
f 141/2/6 139/2/6 142/2/6
f 142/2/6 139/2/6 143/2/6
f 140/2/6 134/2/6 144/2/6
f 137/2/6 141/2/6 145/2/6
f 142/2/6 143/2/6 146/2/6
f 143/2/6 144/2/6 146/2/6
f 125/2/6 137/2/6 147/2/6
f 145/2/6 146/2/6 147/2/6
f 137/2/6 145/2/6 147/2/6
f 134/2/6 126/2/6 148/2/6
f 147/2/6 146/2/6 148/2/6
f 146/2/6 144/2/6 148/2/6
f 144/2/6 134/2/6 148/2/6
f 149/3/6 150/3/6 151/3/6
f 151/3/6 150/3/6 152/3/6
f 153/3/6 154/3/6 155/3/6
f 155/3/6 154/3/6 156/3/6
f 157/3/6 158/3/6 159/3/6
f 159/3/6 158/3/6 160/3/6
f 161/3/6 162/3/6 165/3/6
f 165/3/6 162/3/6 166/3/6
f 163/3/6 164/3/6 167/3/6
f 167/3/6 164/3/6 168/3/6
