# MagicaVoxel @ Ephtracy

# group
o Entorno-36-Suministros 2

# material
mtllib Village-43-Entorno-36-Suministros 2.mtl
usemtl palette

# normals
vn -1 0 0
vn 1 0 0
vn 0 0 1
vn 0 0 -1
vn 0 -1 0
vn 0 1 0

# texcoords
vt 0.0214844 0.5
vt 0.0253906 0.5
vt 0.0332031 0.5
vt 0.0371094 0.5

# verts
v -0.4 -0.3 0.3
v -0.4 -0.3 0.2
v -0.4 -0.3 -0.3
v -0.4 -0.3 -0.4
v -0.4 -0.2 0.2
v -0.4 -0.2 -0.3
v -0.4 -0.1 0.2
v -0.4 -0.1 -0.3
v -0.4 0 0.2
v -0.4 0 -0.3
v -0.4 0.1 0.2
v -0.4 0.1 -0.3
v -0.4 0.2 0.2
v -0.4 0.2 -0.3
v -0.4 0.3 0.3
v -0.4 0.3 -0.4
v -0.3 -0.1 0.2
v -0.3 -0.1 -0.3
v -0.3 0 0.2
v -0.3 0 -0.3
v -0.2 0 0.1
v -0.2 0 0
v -0.2 0 -0.1
v -0.2 0 -0.2
v -0.2 0.1 0.1
v -0.2 0.1 0
v -0.2 0.1 -0.1
v -0.2 0.1 -0.2
v 0 0 0
v 0 0 -0.1
v 0 0.1 0
v 0 0.1 -0.1
v 0.3 0 0
v 0.3 0 -0.1
v 0.3 0.1 0
v 0.3 0.1 -0.1
v 0.5 -0.3 0.3
v 0.5 -0.3 0.2
v 0.5 -0.3 -0.3
v 0.5 -0.3 -0.4
v 0.5 -0.2 0.3
v 0.5 -0.2 0.2
v 0.5 -0.2 -0.3
v 0.5 -0.2 -0.4
v 0.5 -0.1 0.3
v 0.5 -0.1 0.2
v 0.5 -0.1 -0.3
v 0.5 -0.1 -0.4
v 0.5 0 0.3
v 0.5 0 0.2
v 0.5 0 -0.3
v 0.5 0 -0.4
v 0.5 0.1 0.3
v 0.5 0.1 0.2
v 0.5 0.1 -0.3
v 0.5 0.1 -0.4
v 0.5 0.2 0.3
v 0.5 0.2 0.2
v 0.5 0.2 -0.3
v 0.5 0.2 -0.4
v 0.5 0.3 0.2
v 0.5 0.3 -0.3
v -0.3 -0.3 0.3
v -0.3 -0.3 0.2
v -0.3 -0.3 -0.3
v -0.3 -0.3 -0.4
v -0.3 -0.2 0.3
v -0.3 -0.2 0.2
v -0.3 -0.2 -0.3
v -0.3 -0.2 -0.4
v -0.3 -0.1 0.3
v -0.3 -0.1 0.2
v -0.3 -0.1 -0.3
v -0.3 -0.1 -0.4
v -0.3 0 0.3
v -0.3 0 0.2
v -0.3 0 -0.3
v -0.3 0 -0.4
v -0.3 0.1 0.3
v -0.3 0.1 0.2
v -0.3 0.1 -0.3
v -0.3 0.1 -0.4
v -0.3 0.2 0.3
v -0.3 0.2 0.2
v -0.3 0.2 -0.3
v -0.3 0.2 -0.4
v -0.3 0.3 0.2
v -0.3 0.3 -0.3
v -0.1 0 0.1
v -0.1 0 0
v -0.1 0 -0.1
v -0.1 0 -0.2
v -0.1 0.1 0.1
v -0.1 0.1 0
v -0.1 0.1 -0.1
v -0.1 0.1 -0.2
v 0.1 0 0
v 0.1 0 -0.1
v 0.1 0.1 0
v 0.1 0.1 -0.1
v 0.4 0 0
v 0.4 0 -0.1
v 0.4 0.1 0
v 0.4 0.1 -0.1
v 0.5 -0.1 0.2
v 0.5 -0.1 -0.3
v 0.5 0 0.2
v 0.5 0 -0.3
v 0.6 -0.3 0.3
v 0.6 -0.3 0.2
v 0.6 -0.3 -0.3
v 0.6 -0.3 -0.4
v 0.6 -0.2 0.2
v 0.6 -0.2 -0.3
v 0.6 -0.1 0.2
v 0.6 -0.1 -0.3
v 0.6 0 0.2
v 0.6 0 -0.3
v 0.6 0.1 0.2
v 0.6 0.1 -0.3
v 0.6 0.2 0.2
v 0.6 0.2 -0.3
v 0.6 0.3 0.3
v 0.6 0.3 -0.4
v -0.4 -0.3 0.3
v -0.4 0.3 0.3
v -0.3 -0.3 0.3
v -0.3 -0.2 0.3
v -0.3 -0.1 0.3
v -0.3 0 0.3
v -0.3 0.1 0.3
v -0.3 0.2 0.3
v 0.5 -0.3 0.3
v 0.5 -0.2 0.3
v 0.5 -0.1 0.3
v 0.5 0 0.3
v 0.5 0.1 0.3
v 0.5 0.2 0.3
v 0.6 -0.3 0.3
v 0.6 0.3 0.3
v -0.3 -0.1 0.2
v -0.3 0 0.2
v 0.5 -0.1 0.2
v 0.5 0 0.2
v -0.2 0 0.1
v -0.2 0.1 0.1
v -0.1 0 0.1
v -0.1 0.1 0.1
v 0 0 0
v 0 0.1 0
v 0.1 0 0
v 0.1 0.1 0
v 0.3 0 0
v 0.3 0.1 0
v 0.4 0 0
v 0.4 0.1 0
v -0.2 0 -0.1
v -0.2 0.1 -0.1
v -0.1 0 -0.1
v -0.1 0.1 -0.1
v -0.4 -0.3 -0.3
v -0.4 -0.2 -0.3
v -0.4 -0.1 -0.3
v -0.4 0 -0.3
v -0.4 0.1 -0.3
v -0.4 0.2 -0.3
v -0.3 -0.3 -0.3
v -0.3 -0.2 -0.3
v -0.3 -0.1 -0.3
v -0.3 0 -0.3
v -0.3 0.1 -0.3
v -0.3 0.2 -0.3
v -0.3 0.3 -0.3
v 0.5 -0.3 -0.3
v 0.5 -0.2 -0.3
v 0.5 -0.1 -0.3
v 0.5 0 -0.3
v 0.5 0.1 -0.3
v 0.5 0.2 -0.3
v 0.5 0.3 -0.3
v 0.6 -0.3 -0.3
v 0.6 -0.2 -0.3
v 0.6 -0.1 -0.3
v 0.6 0 -0.3
v 0.6 0.1 -0.3
v 0.6 0.2 -0.3
v -0.4 -0.3 0.2
v -0.4 -0.2 0.2
v -0.4 -0.1 0.2
v -0.4 0 0.2
v -0.4 0.1 0.2
v -0.4 0.2 0.2
v -0.3 -0.3 0.2
v -0.3 -0.2 0.2
v -0.3 -0.1 0.2
v -0.3 0 0.2
v -0.3 0.1 0.2
v -0.3 0.2 0.2
v -0.3 0.3 0.2
v 0.5 -0.3 0.2
v 0.5 -0.2 0.2
v 0.5 -0.1 0.2
v 0.5 0 0.2
v 0.5 0.1 0.2
v 0.5 0.2 0.2
v 0.5 0.3 0.2
v 0.6 -0.3 0.2
v 0.6 -0.2 0.2
v 0.6 -0.1 0.2
v 0.6 0 0.2
v 0.6 0.1 0.2
v 0.6 0.2 0.2
v -0.2 0 0
v -0.2 0.1 0
v -0.1 0 0
v -0.1 0.1 0
v 0 0 -0.1
v 0 0.1 -0.1
v 0.1 0 -0.1
v 0.1 0.1 -0.1
v 0.3 0 -0.1
v 0.3 0.1 -0.1
v 0.4 0 -0.1
v 0.4 0.1 -0.1
v -0.2 0 -0.2
v -0.2 0.1 -0.2
v -0.1 0 -0.2
v -0.1 0.1 -0.2
v -0.3 -0.1 -0.3
v -0.3 0 -0.3
v 0.5 -0.1 -0.3
v 0.5 0 -0.3
v -0.4 -0.3 -0.4
v -0.4 0.3 -0.4
v -0.3 -0.3 -0.4
v -0.3 -0.2 -0.4
v -0.3 -0.1 -0.4
v -0.3 0 -0.4
v -0.3 0.1 -0.4
v -0.3 0.2 -0.4
v 0.5 -0.3 -0.4
v 0.5 -0.2 -0.4
v 0.5 -0.1 -0.4
v 0.5 0 -0.4
v 0.5 0.1 -0.4
v 0.5 0.2 -0.4
v 0.6 -0.3 -0.4
v 0.6 0.3 -0.4
v -0.4 -0.3 0.3
v -0.3 -0.3 0.3
v 0.5 -0.3 0.3
v 0.6 -0.3 0.3
v -0.4 -0.3 0.2
v -0.3 -0.3 0.2
v 0.5 -0.3 0.2
v 0.6 -0.3 0.2
v -0.4 -0.3 -0.3
v -0.3 -0.3 -0.3
v 0.5 -0.3 -0.3
v 0.6 -0.3 -0.3
v -0.4 -0.3 -0.4
v -0.3 -0.3 -0.4
v 0.5 -0.3 -0.4
v 0.6 -0.3 -0.4
v -0.3 -0.2 0.3
v 0.5 -0.2 0.3
v -0.4 -0.2 0.2
v -0.3 -0.2 0.2
v 0.5 -0.2 0.2
v 0.6 -0.2 0.2
v -0.4 -0.2 -0.3
v -0.3 -0.2 -0.3
v 0.5 -0.2 -0.3
v 0.6 -0.2 -0.3
v -0.3 -0.2 -0.4
v 0.5 -0.2 -0.4
v -0.3 0 0.3
v 0.5 0 0.3
v -0.4 0 0.2
v -0.3 0 0.2
v 0.5 0 0.2
v 0.6 0 0.2
v -0.4 0 -0.3
v -0.3 0 -0.3
v 0.5 0 -0.3
v 0.6 0 -0.3
v -0.3 0 -0.4
v 0.5 0 -0.4
v -0.3 0.2 0.3
v 0.5 0.2 0.3
v -0.4 0.2 0.2
v -0.3 0.2 0.2
v 0.5 0.2 0.2
v 0.6 0.2 0.2
v -0.4 0.2 -0.3
v -0.3 0.2 -0.3
v 0.5 0.2 -0.3
v 0.6 0.2 -0.3
v -0.3 0.2 -0.4
v 0.5 0.2 -0.4
v -0.3 -0.1 0.3
v 0.5 -0.1 0.3
v -0.4 -0.1 0.2
v -0.3 -0.1 0.2
v 0.5 -0.1 0.2
v 0.6 -0.1 0.2
v -0.4 -0.1 -0.3
v -0.3 -0.1 -0.3
v 0.5 -0.1 -0.3
v 0.6 -0.1 -0.3
v -0.3 -0.1 -0.4
v 0.5 -0.1 -0.4
v -0.3 0 0.2
v 0.5 0 0.2
v -0.2 0 0.1
v -0.1 0 0.1
v -0.2 0 0
v -0.1 0 0
v 0 0 0
v 0.1 0 0
v 0.3 0 0
v 0.4 0 0
v -0.2 0 -0.1
v -0.1 0 -0.1
v 0 0 -0.1
v 0.1 0 -0.1
v 0.3 0 -0.1
v 0.4 0 -0.1
v -0.2 0 -0.2
v -0.1 0 -0.2
v -0.3 0 -0.3
v 0.5 0 -0.3
v -0.3 0.1 0.3
v 0.5 0.1 0.3
v -0.4 0.1 0.2
v -0.3 0.1 0.2
v 0.5 0.1 0.2
v 0.6 0.1 0.2
v -0.2 0.1 0.1
v -0.1 0.1 0.1
v -0.2 0.1 0
v -0.1 0.1 0
v 0 0.1 0
v 0.1 0.1 0
v 0.3 0.1 0
v 0.4 0.1 0
v -0.2 0.1 -0.1
v -0.1 0.1 -0.1
v 0 0.1 -0.1
v 0.1 0.1 -0.1
v 0.3 0.1 -0.1
v 0.4 0.1 -0.1
v -0.2 0.1 -0.2
v -0.1 0.1 -0.2
v -0.4 0.1 -0.3
v -0.3 0.1 -0.3
v 0.5 0.1 -0.3
v 0.6 0.1 -0.3
v -0.3 0.1 -0.4
v 0.5 0.1 -0.4
v -0.4 0.3 0.3
v 0.6 0.3 0.3
v -0.3 0.3 0.2
v 0.5 0.3 0.2
v -0.3 0.3 -0.3
v 0.5 0.3 -0.3
v -0.4 0.3 -0.4
v 0.6 0.3 -0.4

# faces
f 5/1/1 2/1/1 1/1/1
f 6/1/1 4/1/1 3/1/1
f 7/1/1 5/1/1 1/1/1
f 7/1/1 6/1/1 5/1/1
f 8/1/1 4/1/1 6/1/1
f 8/1/1 6/1/1 7/1/1
f 9/1/1 7/1/1 1/1/1
f 10/1/1 4/1/1 8/1/1
f 11/1/1 9/1/1 1/1/1
f 11/1/1 10/1/1 9/1/1
f 12/1/1 4/1/1 10/1/1
f 12/1/1 10/1/1 11/1/1
f 13/1/1 11/1/1 1/1/1
f 14/1/1 4/1/1 12/1/1
f 15/1/1 13/1/1 1/1/1
f 15/1/1 14/1/1 13/1/1
f 16/1/1 4/1/1 14/1/1
f 16/1/1 14/1/1 15/1/1
f 19/3/1 18/3/1 17/3/1
f 20/3/1 18/3/1 19/3/1
f 25/4/1 22/4/1 21/4/1
f 26/4/1 22/4/1 25/4/1
f 27/4/1 24/4/1 23/4/1
f 28/4/1 24/4/1 27/4/1
f 31/4/1 30/4/1 29/4/1
f 32/4/1 30/4/1 31/4/1
f 35/4/1 34/4/1 33/4/1
f 36/4/1 34/4/1 35/4/1
f 41/1/1 38/1/1 37/1/1
f 42/1/1 38/1/1 41/1/1
f 43/1/1 40/1/1 39/1/1
f 44/1/1 40/1/1 43/1/1
f 49/1/1 46/1/1 45/1/1
f 50/1/1 46/1/1 49/1/1
f 51/1/1 48/1/1 47/1/1
f 52/1/1 48/1/1 51/1/1
f 54/1/1 51/1/1 50/1/1
f 55/1/1 51/1/1 54/1/1
f 57/1/1 54/1/1 53/1/1
f 58/1/1 54/1/1 57/1/1
f 59/1/1 56/1/1 55/1/1
f 60/1/1 56/1/1 59/1/1
f 61/1/1 59/1/1 58/1/1
f 62/1/1 59/1/1 61/1/1
f 63/1/2 64/1/2 67/1/2
f 67/1/2 64/1/2 68/1/2
f 65/1/2 66/1/2 69/1/2
f 69/1/2 66/1/2 70/1/2
f 71/1/2 72/1/2 75/1/2
f 75/1/2 72/1/2 76/1/2
f 73/1/2 74/1/2 77/1/2
f 77/1/2 74/1/2 78/1/2
f 76/1/2 77/1/2 80/1/2
f 80/1/2 77/1/2 81/1/2
f 79/1/2 80/1/2 83/1/2
f 83/1/2 80/1/2 84/1/2
f 81/1/2 82/1/2 85/1/2
f 85/1/2 82/1/2 86/1/2
f 84/1/2 85/1/2 87/1/2
f 87/1/2 85/1/2 88/1/2
f 89/4/2 90/4/2 93/4/2
f 93/4/2 90/4/2 94/4/2
f 91/4/2 92/4/2 95/4/2
f 95/4/2 92/4/2 96/4/2
f 97/4/2 98/4/2 99/4/2
f 99/4/2 98/4/2 100/4/2
f 101/4/2 102/4/2 103/4/2
f 103/4/2 102/4/2 104/4/2
f 105/3/2 106/3/2 107/3/2
f 107/3/2 106/3/2 108/3/2
f 109/1/2 110/1/2 113/1/2
f 111/1/2 112/1/2 114/1/2
f 109/1/2 113/1/2 115/1/2
f 113/1/2 114/1/2 115/1/2
f 114/1/2 112/1/2 116/1/2
f 115/1/2 114/1/2 116/1/2
f 109/1/2 115/1/2 117/1/2
f 116/1/2 112/1/2 118/1/2
f 109/1/2 117/1/2 119/1/2
f 117/1/2 118/1/2 119/1/2
f 118/1/2 112/1/2 120/1/2
f 119/1/2 118/1/2 120/1/2
f 109/1/2 119/1/2 121/1/2
f 120/1/2 112/1/2 122/1/2
f 109/1/2 121/1/2 123/1/2
f 121/1/2 122/1/2 123/1/2
f 122/1/2 112/1/2 124/1/2
f 123/1/2 122/1/2 124/1/2
f 127/1/3 126/1/3 125/1/3
f 128/1/3 126/1/3 127/1/3
f 129/1/3 126/1/3 128/1/3
f 130/1/3 126/1/3 129/1/3
f 131/1/3 126/1/3 130/1/3
f 132/1/3 126/1/3 131/1/3
f 134/1/3 129/1/3 128/1/3
f 135/1/3 129/1/3 134/1/3
f 136/1/3 131/1/3 130/1/3
f 137/1/3 131/1/3 136/1/3
f 138/1/3 126/1/3 132/1/3
f 139/1/3 137/1/3 136/1/3
f 139/1/3 138/1/3 137/1/3
f 139/1/3 135/1/3 134/1/3
f 139/1/3 134/1/3 133/1/3
f 139/1/3 136/1/3 135/1/3
f 140/1/3 126/1/3 138/1/3
f 140/1/3 138/1/3 139/1/3
f 143/3/3 142/3/3 141/3/3
f 144/3/3 142/3/3 143/3/3
f 147/4/3 146/4/3 145/4/3
f 148/4/3 146/4/3 147/4/3
f 151/4/3 150/4/3 149/4/3
f 152/4/3 150/4/3 151/4/3
f 155/4/3 154/4/3 153/4/3
f 156/4/3 154/4/3 155/4/3
f 159/4/3 158/4/3 157/4/3
f 160/4/3 158/4/3 159/4/3
f 167/1/3 162/1/3 161/1/3
f 168/1/3 162/1/3 167/1/3
f 169/1/3 164/1/3 163/1/3
f 170/1/3 164/1/3 169/1/3
f 171/1/3 166/1/3 165/1/3
f 172/1/3 166/1/3 171/1/3
f 177/1/3 171/1/3 170/1/3
f 178/1/3 171/1/3 177/1/3
f 179/1/3 173/1/3 172/1/3
f 180/1/3 173/1/3 179/1/3
f 181/1/3 175/1/3 174/1/3
f 182/1/3 175/1/3 181/1/3
f 183/1/3 177/1/3 176/1/3
f 184/1/3 177/1/3 183/1/3
f 185/1/3 179/1/3 178/1/3
f 186/1/3 179/1/3 185/1/3
f 187/1/4 188/1/4 193/1/4
f 193/1/4 188/1/4 194/1/4
f 189/1/4 190/1/4 195/1/4
f 195/1/4 190/1/4 196/1/4
f 191/1/4 192/1/4 197/1/4
f 197/1/4 192/1/4 198/1/4
f 196/1/4 197/1/4 203/1/4
f 203/1/4 197/1/4 204/1/4
f 198/1/4 199/1/4 205/1/4
f 205/1/4 199/1/4 206/1/4
f 200/1/4 201/1/4 207/1/4
f 207/1/4 201/1/4 208/1/4
f 202/1/4 203/1/4 209/1/4
f 209/1/4 203/1/4 210/1/4
f 204/1/4 205/1/4 211/1/4
f 211/1/4 205/1/4 212/1/4
f 213/4/4 214/4/4 215/4/4
f 215/4/4 214/4/4 216/4/4
f 217/4/4 218/4/4 219/4/4
f 219/4/4 218/4/4 220/4/4
f 221/4/4 222/4/4 223/4/4
f 223/4/4 222/4/4 224/4/4
f 225/4/4 226/4/4 227/4/4
f 227/4/4 226/4/4 228/4/4
f 229/3/4 230/3/4 231/3/4
f 231/3/4 230/3/4 232/3/4
f 233/1/4 234/1/4 235/1/4
f 235/1/4 234/1/4 236/1/4
f 236/1/4 234/1/4 237/1/4
f 237/1/4 234/1/4 238/1/4
f 238/1/4 234/1/4 239/1/4
f 239/1/4 234/1/4 240/1/4
f 236/1/4 237/1/4 242/1/4
f 242/1/4 237/1/4 243/1/4
f 238/1/4 239/1/4 244/1/4
f 244/1/4 239/1/4 245/1/4
f 240/1/4 234/1/4 246/1/4
f 244/1/4 245/1/4 247/1/4
f 245/1/4 246/1/4 247/1/4
f 242/1/4 243/1/4 247/1/4
f 241/1/4 242/1/4 247/1/4
f 243/1/4 244/1/4 247/1/4
f 246/1/4 234/1/4 248/1/4
f 247/1/4 246/1/4 248/1/4
f 253/1/5 250/1/5 249/1/5
f 254/1/5 250/1/5 253/1/5
f 255/1/5 252/1/5 251/1/5
f 256/1/5 252/1/5 255/1/5
f 261/1/5 258/1/5 257/1/5
f 262/1/5 258/1/5 261/1/5
f 263/1/5 260/1/5 259/1/5
f 264/1/5 260/1/5 263/1/5
f 268/1/5 266/1/5 265/1/5
f 269/1/5 266/1/5 268/1/5
f 271/1/5 268/1/5 267/1/5
f 271/1/5 270/1/5 269/1/5
f 271/1/5 269/1/5 268/1/5
f 272/1/5 270/1/5 271/1/5
f 273/1/5 270/1/5 272/1/5
f 274/1/5 270/1/5 273/1/5
f 275/1/5 273/1/5 272/1/5
f 276/1/5 273/1/5 275/1/5
f 280/1/5 278/1/5 277/1/5
f 281/1/5 278/1/5 280/1/5
f 283/1/5 280/1/5 279/1/5
f 284/1/5 280/1/5 283/1/5
f 285/1/5 282/1/5 281/1/5
f 286/1/5 282/1/5 285/1/5
f 287/1/5 285/1/5 284/1/5
f 288/1/5 285/1/5 287/1/5
f 292/1/5 290/1/5 289/1/5
f 293/1/5 290/1/5 292/1/5
f 295/1/5 292/1/5 291/1/5
f 296/1/5 292/1/5 295/1/5
f 297/1/5 294/1/5 293/1/5
f 298/1/5 294/1/5 297/1/5
f 299/1/5 297/1/5 296/1/5
f 300/1/5 297/1/5 299/1/5
f 301/1/6 302/1/6 304/1/6
f 304/1/6 302/1/6 305/1/6
f 303/1/6 304/1/6 307/1/6
f 307/1/6 304/1/6 308/1/6
f 305/1/6 306/1/6 309/1/6
f 309/1/6 306/1/6 310/1/6
f 308/1/6 309/1/6 311/1/6
f 311/1/6 309/1/6 312/1/6
f 313/3/6 314/3/6 315/3/6
f 315/3/6 314/3/6 316/3/6
f 313/3/6 315/3/6 317/3/6
f 316/3/6 314/3/6 318/3/6
f 318/3/6 314/3/6 319/3/6
f 319/3/6 314/3/6 320/3/6
f 320/3/6 314/3/6 321/3/6
f 321/3/6 314/3/6 322/3/6
f 313/3/6 317/3/6 323/3/6
f 317/3/6 318/3/6 323/3/6
f 318/3/6 319/3/6 323/3/6
f 323/3/6 319/3/6 324/3/6
f 324/3/6 319/3/6 325/3/6
f 320/3/6 321/3/6 326/3/6
f 326/3/6 321/3/6 327/3/6
f 322/3/6 314/3/6 328/3/6
f 313/3/6 323/3/6 329/3/6
f 326/3/6 327/3/6 330/3/6
f 324/3/6 325/3/6 330/3/6
f 327/3/6 328/3/6 330/3/6
f 325/3/6 326/3/6 330/3/6
f 313/3/6 329/3/6 331/3/6
f 329/3/6 330/3/6 331/3/6
f 330/3/6 328/3/6 332/3/6
f 331/3/6 330/3/6 332/3/6
f 328/3/6 314/3/6 332/3/6
f 333/1/6 334/1/6 336/1/6
f 336/1/6 334/1/6 337/1/6
f 339/4/6 340/4/6 341/4/6
f 341/4/6 340/4/6 342/4/6
f 343/4/6 344/4/6 349/4/6
f 349/4/6 344/4/6 350/4/6
f 345/4/6 346/4/6 351/4/6
f 351/4/6 346/4/6 352/4/6
f 347/4/6 348/4/6 353/4/6
f 353/4/6 348/4/6 354/4/6
f 335/1/6 336/1/6 355/1/6
f 355/1/6 336/1/6 356/1/6
f 337/1/6 338/1/6 357/1/6
f 357/1/6 338/1/6 358/1/6
f 356/1/6 357/1/6 359/1/6
f 359/1/6 357/1/6 360/1/6
f 361/1/6 362/1/6 363/1/6
f 363/1/6 362/1/6 364/1/6
f 361/1/6 363/1/6 365/1/6
f 364/1/6 362/1/6 366/1/6
f 361/1/6 365/1/6 367/1/6
f 365/1/6 366/1/6 367/1/6
f 366/1/6 362/1/6 368/1/6
f 367/1/6 366/1/6 368/1/6
