# MagicaVoxel @ Ephtracy

# group
o Entorno-30

# material
mtllib Village-40-Entorno-30.mtl
usemtl palette

# normals
vn 0 0 1
vn 0 0 -1
vn 1 0 0
vn -1 0 0
vn 0 -1 0
vn 0 1 0

# texcoords
vt 0.00195313 0.5
vt 0.00585938 0.5
vt 0.0214844 0.5

# verts
v 1.1 -0.2 2
v -0.9 -0.2 2
v 1.1 0 2
v -0.9 0 2
v 1 0 1.9
v -0.8 0 1.9
v 1 0.1 1.9
v -0.8 0.1 1.9
v 0.7 0.1 1.3
v 0.6 0.1 1.3
v 0.7 0.2 1.3
v 0.6 0.2 1.3
v 0.1 0.1 0.7
v 0 0.1 0.7
v 0.1 0.2 0.7
v 0 0.2 0.7
v -0.4 0.1 0.2
v -0.5 0.1 0.2
v -0.4 0.2 0.2
v -0.5 0.2 0.2
v 0 0.1 -0.4
v -0.1 0.1 -0.4
v 0 0.2 -0.4
v -0.1 0.2 -0.4
v 0.8 0.1 -1
v 0.7 0.1 -1
v 0.8 0.2 -1
v 0.7 0.2 -1
v 0.4 0.1 -1.5
v 0.3 0.1 -1.5
v 0.4 0.2 -1.5
v 0.3 0.2 -1.5
v 0.8 0.1 -1.6
v 0.7 0.1 -1.6
v 0.8 0.2 -1.6
v 0.7 0.2 -1.6
v 0.7 0.1 1.2
v 0.6 0.1 1.2
v 0.7 0.2 1.2
v 0.6 0.2 1.2
v 0.1 0.1 0.6
v 0 0.1 0.6
v 0.1 0.2 0.6
v 0 0.2 0.6
v -0.4 0.1 0.0999999
v -0.5 0.1 0.0999999
v -0.4 0.2 0.0999999
v -0.5 0.2 0.0999999
v 0 0.1 -0.5
v -0.1 0.1 -0.5
v 0 0.2 -0.5
v -0.1 0.2 -0.5
v 0.8 0.1 -1.1
v 0.7 0.1 -1.1
v 0.8 0.2 -1.1
v 0.7 0.2 -1.1
v 0.4 0.1 -1.6
v 0.3 0.1 -1.6
v 0.4 0.2 -1.6
v 0.3 0.2 -1.6
v 0.8 0.1 -1.7
v 0.7 0.1 -1.7
v 0.8 0.2 -1.7
v 0.7 0.2 -1.7
v 1 0 -1.9
v -0.8 0 -1.9
v 1 0.1 -1.9
v -0.8 0.1 -1.9
v 1.1 -0.2 -2
v -0.9 -0.2 -2
v 1.1 0 -2
v -0.9 0 -2
v 1.1 -0.2 2
v 1.1 0 2
v 1.1 -0.2 -2
v 1.1 0 -2
v 1 0 1.9
v 1 0.1 1.9
v 1 0 -1.9
v 1 0.1 -1.9
v 0.8 0.1 -1
v 0.8 0.2 -1
v 0.8 0.1 -1.1
v 0.8 0.2 -1.1
v 0.8 0.1 -1.6
v 0.8 0.2 -1.6
v 0.8 0.1 -1.7
v 0.8 0.2 -1.7
v 0.7 0.1 1.3
v 0.7 0.2 1.3
v 0.7 0.1 1.2
v 0.7 0.2 1.2
v 0.4 0.1 -1.5
v 0.4 0.2 -1.5
v 0.4 0.1 -1.6
v 0.4 0.2 -1.6
v 0.1 0.1 0.7
v 0.1 0.2 0.7
v 0.1 0.1 0.6
v 0.1 0.2 0.6
v 0 0.1 -0.4
v 0 0.2 -0.4
v 0 0.1 -0.5
v 0 0.2 -0.5
v -0.4 0.1 0.2
v -0.4 0.2 0.2
v -0.4 0.1 0.0999999
v -0.4 0.2 0.0999999
v 0.7 0.1 -1
v 0.7 0.2 -1
v 0.7 0.1 -1.1
v 0.7 0.2 -1.1
v 0.7 0.1 -1.6
v 0.7 0.2 -1.6
v 0.7 0.1 -1.7
v 0.7 0.2 -1.7
v 0.6 0.1 1.3
v 0.6 0.2 1.3
v 0.6 0.1 1.2
v 0.6 0.2 1.2
v 0.3 0.1 -1.5
v 0.3 0.2 -1.5
v 0.3 0.1 -1.6
v 0.3 0.2 -1.6
v 0 0.1 0.7
v 0 0.2 0.7
v 0 0.1 0.6
v 0 0.2 0.6
v -0.1 0.1 -0.4
v -0.1 0.2 -0.4
v -0.1 0.1 -0.5
v -0.1 0.2 -0.5
v -0.5 0.1 0.2
v -0.5 0.2 0.2
v -0.5 0.1 0.0999999
v -0.5 0.2 0.0999999
v -0.8 0 1.9
v -0.8 0.1 1.9
v -0.8 0 -1.9
v -0.8 0.1 -1.9
v -0.9 -0.2 2
v -0.9 0 2
v -0.9 -0.2 -2
v -0.9 0 -2
v 1.1 -0.2 2
v 1.1 -0.2 -2
v -0.9 -0.2 2
v -0.9 -0.2 -2
v 1.1 0 2
v 1.1 0 -2
v 1 0 1.9
v 1 0 -1.9
v -0.8 0 1.9
v -0.8 0 -1.9
v -0.9 0 2
v -0.9 0 -2
v 1 0.1 1.9
v 1 0.1 -1.9
v 0.8 0.1 -1
v 0.8 0.1 -1.1
v 0.8 0.1 -1.6
v 0.8 0.1 -1.7
v 0.7 0.1 1.3
v 0.7 0.1 1.2
v 0.7 0.1 -1
v 0.7 0.1 -1.1
v 0.7 0.1 -1.6
v 0.7 0.1 -1.7
v 0.6 0.1 1.3
v 0.6 0.1 1.2
v 0.4 0.1 -1.5
v 0.4 0.1 -1.6
v 0.3 0.1 -1.5
v 0.3 0.1 -1.6
v 0.1 0.1 0.7
v 0.1 0.1 0.6
v 0 0.1 0.7
v 0 0.1 0.6
v 0 0.1 -0.4
v 0 0.1 -0.5
v -0.1 0.1 -0.4
v -0.1 0.1 -0.5
v -0.4 0.1 0.2
v -0.4 0.1 0.0999999
v -0.5 0.1 0.2
v -0.5 0.1 0.0999999
v -0.8 0.1 1.9
v -0.8 0.1 -1.9
v 0.8 0.2 -1
v 0.8 0.2 -1.1
v 0.8 0.2 -1.6
v 0.8 0.2 -1.7
v 0.7 0.2 1.3
v 0.7 0.2 1.2
v 0.7 0.2 -1
v 0.7 0.2 -1.1
v 0.7 0.2 -1.6
v 0.7 0.2 -1.7
v 0.6 0.2 1.3
v 0.6 0.2 1.2
v 0.4 0.2 -1.5
v 0.4 0.2 -1.6
v 0.3 0.2 -1.5
v 0.3 0.2 -1.6
v 0.1 0.2 0.7
v 0.1 0.2 0.6
v 0 0.2 0.7
v 0 0.2 0.6
v 0 0.2 -0.4
v 0 0.2 -0.5
v -0.1 0.2 -0.4
v -0.1 0.2 -0.5
v -0.4 0.2 0.2
v -0.4 0.2 0.0999999
v -0.5 0.2 0.2
v -0.5 0.2 0.0999999

# faces
f 3/3/1 2/3/1 1/3/1
f 4/3/1 2/3/1 3/3/1
f 7/1/1 6/1/1 5/1/1
f 8/1/1 6/1/1 7/1/1
f 11/2/1 10/2/1 9/2/1
f 12/2/1 10/2/1 11/2/1
f 15/2/1 14/2/1 13/2/1
f 16/2/1 14/2/1 15/2/1
f 19/2/1 18/2/1 17/2/1
f 20/2/1 18/2/1 19/2/1
f 23/2/1 22/2/1 21/2/1
f 24/2/1 22/2/1 23/2/1
f 27/2/1 26/2/1 25/2/1
f 28/2/1 26/2/1 27/2/1
f 31/2/1 30/2/1 29/2/1
f 32/2/1 30/2/1 31/2/1
f 35/2/1 34/2/1 33/2/1
f 36/2/1 34/2/1 35/2/1
f 37/2/2 38/2/2 39/2/2
f 39/2/2 38/2/2 40/2/2
f 41/2/2 42/2/2 43/2/2
f 43/2/2 42/2/2 44/2/2
f 45/2/2 46/2/2 47/2/2
f 47/2/2 46/2/2 48/2/2
f 49/2/2 50/2/2 51/2/2
f 51/2/2 50/2/2 52/2/2
f 53/2/2 54/2/2 55/2/2
f 55/2/2 54/2/2 56/2/2
f 57/2/2 58/2/2 59/2/2
f 59/2/2 58/2/2 60/2/2
f 61/2/2 62/2/2 63/2/2
f 63/2/2 62/2/2 64/2/2
f 65/1/2 66/1/2 67/1/2
f 67/1/2 66/1/2 68/1/2
f 69/3/2 70/3/2 71/3/2
f 71/3/2 70/3/2 72/3/2
f 75/3/3 74/3/3 73/3/3
f 76/3/3 74/3/3 75/3/3
f 79/1/3 78/1/3 77/1/3
f 80/1/3 78/1/3 79/1/3
f 83/2/3 82/2/3 81/2/3
f 84/2/3 82/2/3 83/2/3
f 87/2/3 86/2/3 85/2/3
f 88/2/3 86/2/3 87/2/3
f 91/2/3 90/2/3 89/2/3
f 92/2/3 90/2/3 91/2/3
f 95/2/3 94/2/3 93/2/3
f 96/2/3 94/2/3 95/2/3
f 99/2/3 98/2/3 97/2/3
f 100/2/3 98/2/3 99/2/3
f 103/2/3 102/2/3 101/2/3
f 104/2/3 102/2/3 103/2/3
f 107/2/3 106/2/3 105/2/3
f 108/2/3 106/2/3 107/2/3
f 109/2/4 110/2/4 111/2/4
f 111/2/4 110/2/4 112/2/4
f 113/2/4 114/2/4 115/2/4
f 115/2/4 114/2/4 116/2/4
f 117/2/4 118/2/4 119/2/4
f 119/2/4 118/2/4 120/2/4
f 121/2/4 122/2/4 123/2/4
f 123/2/4 122/2/4 124/2/4
f 125/2/4 126/2/4 127/2/4
f 127/2/4 126/2/4 128/2/4
f 129/2/4 130/2/4 131/2/4
f 131/2/4 130/2/4 132/2/4
f 133/2/4 134/2/4 135/2/4
f 135/2/4 134/2/4 136/2/4
f 137/1/4 138/1/4 139/1/4
f 139/1/4 138/1/4 140/1/4
f 141/3/4 142/3/4 143/3/4
f 143/3/4 142/3/4 144/3/4
f 147/3/5 146/3/5 145/3/5
f 148/3/5 146/3/5 147/3/5
f 149/3/6 150/3/6 151/3/6
f 151/3/6 150/3/6 152/3/6
f 149/3/6 151/3/6 153/3/6
f 152/3/6 150/3/6 154/3/6
f 149/3/6 153/3/6 155/3/6
f 153/3/6 154/3/6 155/3/6
f 154/3/6 150/3/6 156/3/6
f 155/3/6 154/3/6 156/3/6
f 157/1/6 158/1/6 159/1/6
f 159/1/6 158/1/6 160/1/6
f 160/1/6 158/1/6 161/1/6
f 161/1/6 158/1/6 162/1/6
f 157/1/6 159/1/6 163/1/6
f 163/1/6 159/1/6 164/1/6
f 164/1/6 159/1/6 165/1/6
f 160/1/6 161/1/6 166/1/6
f 166/1/6 161/1/6 167/1/6
f 162/1/6 158/1/6 168/1/6
f 157/1/6 163/1/6 169/1/6
f 166/1/6 167/1/6 170/1/6
f 164/1/6 165/1/6 170/1/6
f 167/1/6 168/1/6 170/1/6
f 165/1/6 166/1/6 170/1/6
f 170/1/6 168/1/6 171/1/6
f 169/1/6 170/1/6 171/1/6
f 171/1/6 168/1/6 172/1/6
f 169/1/6 171/1/6 173/1/6
f 172/1/6 168/1/6 174/1/6
f 169/1/6 173/1/6 175/1/6
f 173/1/6 174/1/6 175/1/6
f 175/1/6 174/1/6 176/1/6
f 169/1/6 175/1/6 177/1/6
f 176/1/6 174/1/6 178/1/6
f 178/1/6 174/1/6 179/1/6
f 179/1/6 174/1/6 180/1/6
f 177/1/6 178/1/6 181/1/6
f 178/1/6 179/1/6 181/1/6
f 180/1/6 174/1/6 182/1/6
f 177/1/6 181/1/6 183/1/6
f 181/1/6 182/1/6 183/1/6
f 183/1/6 182/1/6 184/1/6
f 177/1/6 183/1/6 185/1/6
f 184/1/6 182/1/6 186/1/6
f 157/1/6 169/1/6 187/1/6
f 185/1/6 186/1/6 187/1/6
f 169/1/6 177/1/6 187/1/6
f 177/1/6 185/1/6 187/1/6
f 186/1/6 182/1/6 188/1/6
f 187/1/6 186/1/6 188/1/6
f 168/1/6 158/1/6 188/1/6
f 174/1/6 168/1/6 188/1/6
f 182/1/6 174/1/6 188/1/6
f 189/2/6 190/2/6 195/2/6
f 195/2/6 190/2/6 196/2/6
f 191/2/6 192/2/6 197/2/6
f 197/2/6 192/2/6 198/2/6
f 193/2/6 194/2/6 199/2/6
f 199/2/6 194/2/6 200/2/6
f 201/2/6 202/2/6 203/2/6
f 203/2/6 202/2/6 204/2/6
f 205/2/6 206/2/6 207/2/6
f 207/2/6 206/2/6 208/2/6
f 209/2/6 210/2/6 211/2/6
f 211/2/6 210/2/6 212/2/6
f 213/2/6 214/2/6 215/2/6
f 215/2/6 214/2/6 216/2/6
