# MagicaVoxel @ Ephtracy

# group
o Entorno-37-Suministros 1

# material
mtllib Village-21-Entorno-37-Suministros 1.mtl
usemtl palette

# normals
vn -1 0 0
vn 1 0 0
vn 0 0 1
vn 0 0 -1
vn 0 -1 0
vn 0 1 0

# texcoords
vt 0.0214844 0.5
vt 0.126953 0.5
vt 0.130859 0.5

# verts
v -0.4 -0.4 0.3
v -0.4 -0.4 0.2
v -0.4 -0.4 -0.3
v -0.4 -0.4 -0.4
v -0.4 -0.3 0.2
v -0.4 -0.3 -0.3
v -0.4 -0.2 0.2
v -0.4 -0.2 -0.3
v -0.4 -0.1 0.2
v -0.4 -0.1 -0.3
v -0.4 0 0.2
v -0.4 0 -0.3
v -0.4 0.1 0.2
v -0.4 0.1 -0.3
v -0.4 0.2 0.3
v -0.4 0.2 -0.4
v -0.3 -0.2 0.2
v -0.3 -0.2 -0.3
v -0.3 -0.1 0.2
v -0.3 -0.1 -0.3
v -0.3 0 0.2
v -0.3 0 -0.3
v -0.3 0.1 0.2
v -0.3 0.1 -0.3
v -0.3 0.2 0.2
v -0.3 0.2 -0.3
v -0.3 0.3 0.2
v -0.3 0.3 -0.3
v -0.2 0.3 0.1
v -0.2 0.3 0
v -0.2 0.4 0.1
v -0.2 0.4 0
v 0 0.3 0
v 0 0.3 -0.1
v 0 0.4 0
v 0 0.4 -0.1
v 0.2 0.3 0.1
v 0.2 0.3 0
v 0.2 0.4 0.1
v 0.2 0.4 0
v 0.3 0.3 -0.1
v 0.3 0.3 -0.2
v 0.3 0.4 -0.1
v 0.3 0.4 -0.2
v 0.5 -0.4 0.3
v 0.5 -0.4 0.2
v 0.5 -0.4 -0.3
v 0.5 -0.4 -0.4
v 0.5 -0.3 0.3
v 0.5 -0.3 0.2
v 0.5 -0.3 -0.3
v 0.5 -0.3 -0.4
v 0.5 -0.2 0.3
v 0.5 -0.2 0.2
v 0.5 -0.2 -0.3
v 0.5 -0.2 -0.4
v 0.5 -0.1 0.3
v 0.5 -0.1 0.2
v 0.5 -0.1 -0.3
v 0.5 -0.1 -0.4
v 0.5 0 0.3
v 0.5 0 0.2
v 0.5 0 -0.3
v 0.5 0 -0.4
v 0.5 0.1 0.3
v 0.5 0.1 0.2
v 0.5 0.1 -0.3
v 0.5 0.1 -0.4
v -0.3 -0.4 0.3
v -0.3 -0.4 0.2
v -0.3 -0.4 -0.3
v -0.3 -0.4 -0.4
v -0.3 -0.3 0.3
v -0.3 -0.3 0.2
v -0.3 -0.3 -0.3
v -0.3 -0.3 -0.4
v -0.3 -0.2 0.3
v -0.3 -0.2 0.2
v -0.3 -0.2 -0.3
v -0.3 -0.2 -0.4
v -0.3 -0.1 0.3
v -0.3 -0.1 0.2
v -0.3 -0.1 -0.3
v -0.3 -0.1 -0.4
v -0.3 0 0.3
v -0.3 0 0.2
v -0.3 0 -0.3
v -0.3 0 -0.4
v -0.3 0.1 0.3
v -0.3 0.1 0.2
v -0.3 0.1 -0.3
v -0.3 0.1 -0.4
v -0.1 0.3 0.1
v -0.1 0.3 0
v -0.1 0.4 0.1
v -0.1 0.4 0
v 0.1 0.3 0
v 0.1 0.3 -0.1
v 0.1 0.4 0
v 0.1 0.4 -0.1
v 0.3 0.3 0.1
v 0.3 0.3 0
v 0.3 0.4 0.1
v 0.3 0.4 0
v 0.4 0.3 -0.1
v 0.4 0.3 -0.2
v 0.4 0.4 -0.1
v 0.4 0.4 -0.2
v 0.5 -0.2 0.2
v 0.5 -0.2 -0.3
v 0.5 -0.1 0.2
v 0.5 -0.1 -0.3
v 0.5 0 0.2
v 0.5 0 -0.3
v 0.5 0.1 0.2
v 0.5 0.1 -0.3
v 0.5 0.2 0.2
v 0.5 0.2 -0.3
v 0.5 0.3 0.2
v 0.5 0.3 -0.3
v 0.6 -0.4 0.3
v 0.6 -0.4 0.2
v 0.6 -0.4 -0.3
v 0.6 -0.4 -0.4
v 0.6 -0.3 0.2
v 0.6 -0.3 -0.3
v 0.6 -0.2 0.2
v 0.6 -0.2 -0.3
v 0.6 -0.1 0.2
v 0.6 -0.1 -0.3
v 0.6 0 0.2
v 0.6 0 -0.3
v 0.6 0.1 0.2
v 0.6 0.1 -0.3
v 0.6 0.2 0.3
v 0.6 0.2 -0.4
v -0.4 -0.4 0.3
v -0.4 0.2 0.3
v -0.3 -0.4 0.3
v -0.3 -0.3 0.3
v -0.3 -0.2 0.3
v -0.3 -0.1 0.3
v -0.3 0 0.3
v -0.3 0.1 0.3
v 0.5 -0.4 0.3
v 0.5 -0.3 0.3
v 0.5 -0.2 0.3
v 0.5 -0.1 0.3
v 0.5 0 0.3
v 0.5 0.1 0.3
v 0.6 -0.4 0.3
v 0.6 0.2 0.3
v -0.3 -0.2 0.2
v -0.3 -0.1 0.2
v -0.3 0 0.2
v -0.3 0.1 0.2
v -0.3 0.2 0.2
v -0.3 0.3 0.2
v 0.5 -0.2 0.2
v 0.5 -0.1 0.2
v 0.5 0 0.2
v 0.5 0.1 0.2
v 0.5 0.2 0.2
v 0.5 0.3 0.2
v -0.2 0.3 0.1
v -0.2 0.4 0.1
v -0.1 0.3 0.1
v -0.1 0.4 0.1
v 0.2 0.3 0.1
v 0.2 0.4 0.1
v 0.3 0.3 0.1
v 0.3 0.4 0.1
v 0 0.3 0
v 0 0.4 0
v 0.1 0.3 0
v 0.1 0.4 0
v 0.3 0.3 -0.1
v 0.3 0.4 -0.1
v 0.4 0.3 -0.1
v 0.4 0.4 -0.1
v -0.4 -0.4 -0.3
v -0.4 -0.3 -0.3
v -0.4 -0.2 -0.3
v -0.4 -0.1 -0.3
v -0.4 0 -0.3
v -0.4 0.1 -0.3
v -0.3 -0.4 -0.3
v -0.3 -0.3 -0.3
v -0.3 -0.2 -0.3
v -0.3 -0.1 -0.3
v -0.3 0 -0.3
v -0.3 0.1 -0.3
v 0.5 -0.4 -0.3
v 0.5 -0.3 -0.3
v 0.5 -0.2 -0.3
v 0.5 -0.1 -0.3
v 0.5 0 -0.3
v 0.5 0.1 -0.3
v 0.6 -0.4 -0.3
v 0.6 -0.3 -0.3
v 0.6 -0.2 -0.3
v 0.6 -0.1 -0.3
v 0.6 0 -0.3
v 0.6 0.1 -0.3
v -0.4 -0.4 0.2
v -0.4 -0.3 0.2
v -0.4 -0.2 0.2
v -0.4 -0.1 0.2
v -0.4 0 0.2
v -0.4 0.1 0.2
v -0.3 -0.4 0.2
v -0.3 -0.3 0.2
v -0.3 -0.2 0.2
v -0.3 -0.1 0.2
v -0.3 0 0.2
v -0.3 0.1 0.2
v 0.5 -0.4 0.2
v 0.5 -0.3 0.2
v 0.5 -0.2 0.2
v 0.5 -0.1 0.2
v 0.5 0 0.2
v 0.5 0.1 0.2
v 0.6 -0.4 0.2
v 0.6 -0.3 0.2
v 0.6 -0.2 0.2
v 0.6 -0.1 0.2
v 0.6 0 0.2
v 0.6 0.1 0.2
v -0.2 0.3 0
v -0.2 0.4 0
v -0.1 0.3 0
v -0.1 0.4 0
v 0.2 0.3 0
v 0.2 0.4 0
v 0.3 0.3 0
v 0.3 0.4 0
v 0 0.3 -0.1
v 0 0.4 -0.1
v 0.1 0.3 -0.1
v 0.1 0.4 -0.1
v 0.3 0.3 -0.2
v 0.3 0.4 -0.2
v 0.4 0.3 -0.2
v 0.4 0.4 -0.2
v -0.3 -0.2 -0.3
v -0.3 -0.1 -0.3
v -0.3 0 -0.3
v -0.3 0.1 -0.3
v -0.3 0.2 -0.3
v -0.3 0.3 -0.3
v 0.5 -0.2 -0.3
v 0.5 -0.1 -0.3
v 0.5 0 -0.3
v 0.5 0.1 -0.3
v 0.5 0.2 -0.3
v 0.5 0.3 -0.3
v -0.4 -0.4 -0.4
v -0.4 0.2 -0.4
v -0.3 -0.4 -0.4
v -0.3 -0.3 -0.4
v -0.3 -0.2 -0.4
v -0.3 -0.1 -0.4
v -0.3 0 -0.4
v -0.3 0.1 -0.4
v 0.5 -0.4 -0.4
v 0.5 -0.3 -0.4
v 0.5 -0.2 -0.4
v 0.5 -0.1 -0.4
v 0.5 0 -0.4
v 0.5 0.1 -0.4
v 0.6 -0.4 -0.4
v 0.6 0.2 -0.4
v -0.4 -0.4 0.3
v -0.3 -0.4 0.3
v 0.5 -0.4 0.3
v 0.6 -0.4 0.3
v -0.4 -0.4 0.2
v -0.3 -0.4 0.2
v 0.5 -0.4 0.2
v 0.6 -0.4 0.2
v -0.4 -0.4 -0.3
v -0.3 -0.4 -0.3
v 0.5 -0.4 -0.3
v 0.6 -0.4 -0.3
v -0.4 -0.4 -0.4
v -0.3 -0.4 -0.4
v 0.5 -0.4 -0.4
v 0.6 -0.4 -0.4
v -0.3 -0.3 0.3
v 0.5 -0.3 0.3
v -0.4 -0.3 0.2
v -0.3 -0.3 0.2
v 0.5 -0.3 0.2
v 0.6 -0.3 0.2
v -0.4 -0.3 -0.3
v -0.3 -0.3 -0.3
v 0.5 -0.3 -0.3
v 0.6 -0.3 -0.3
v -0.3 -0.3 -0.4
v 0.5 -0.3 -0.4
v -0.3 -0.1 0.3
v 0.5 -0.1 0.3
v -0.4 -0.1 0.2
v -0.3 -0.1 0.2
v 0.5 -0.1 0.2
v 0.6 -0.1 0.2
v -0.4 -0.1 -0.3
v -0.3 -0.1 -0.3
v 0.5 -0.1 -0.3
v 0.6 -0.1 -0.3
v -0.3 -0.1 -0.4
v 0.5 -0.1 -0.4
v -0.3 0.1 0.3
v 0.5 0.1 0.3
v -0.4 0.1 0.2
v -0.3 0.1 0.2
v 0.5 0.1 0.2
v 0.6 0.1 0.2
v -0.4 0.1 -0.3
v -0.3 0.1 -0.3
v 0.5 0.1 -0.3
v 0.6 0.1 -0.3
v -0.3 0.1 -0.4
v 0.5 0.1 -0.4
v -0.3 -0.2 0.3
v 0.5 -0.2 0.3
v -0.4 -0.2 0.2
v -0.3 -0.2 0.2
v 0.5 -0.2 0.2
v 0.6 -0.2 0.2
v -0.4 -0.2 -0.3
v -0.3 -0.2 -0.3
v 0.5 -0.2 -0.3
v 0.6 -0.2 -0.3
v -0.3 -0.2 -0.4
v 0.5 -0.2 -0.4
v -0.3 0 0.3
v 0.5 0 0.3
v -0.4 0 0.2
v -0.3 0 0.2
v 0.5 0 0.2
v 0.6 0 0.2
v -0.4 0 -0.3
v -0.3 0 -0.3
v 0.5 0 -0.3
v 0.6 0 -0.3
v -0.3 0 -0.4
v 0.5 0 -0.4
v -0.4 0.2 0.3
v 0.6 0.2 0.3
v -0.3 0.2 0.2
v 0.5 0.2 0.2
v -0.3 0.2 -0.3
v 0.5 0.2 -0.3
v -0.4 0.2 -0.4
v 0.6 0.2 -0.4
v -0.3 0.3 0.2
v 0.5 0.3 0.2
v -0.2 0.3 0.1
v -0.1 0.3 0.1
v 0.2 0.3 0.1
v 0.3 0.3 0.1
v -0.2 0.3 0
v -0.1 0.3 0
v 0 0.3 0
v 0.1 0.3 0
v 0.2 0.3 0
v 0.3 0.3 0
v 0 0.3 -0.1
v 0.1 0.3 -0.1
v 0.3 0.3 -0.1
v 0.4 0.3 -0.1
v 0.3 0.3 -0.2
v 0.4 0.3 -0.2
v -0.3 0.3 -0.3
v 0.5 0.3 -0.3
v -0.2 0.4 0.1
v -0.1 0.4 0.1
v 0.2 0.4 0.1
v 0.3 0.4 0.1
v -0.2 0.4 0
v -0.1 0.4 0
v 0 0.4 0
v 0.1 0.4 0
v 0.2 0.4 0
v 0.3 0.4 0
v 0 0.4 -0.1
v 0.1 0.4 -0.1
v 0.3 0.4 -0.1
v 0.4 0.4 -0.1
v 0.3 0.4 -0.2
v 0.4 0.4 -0.2

# faces
f 5/1/1 2/1/1 1/1/1
f 6/1/1 4/1/1 3/1/1
f 7/1/1 5/1/1 1/1/1
f 7/1/1 6/1/1 5/1/1
f 8/1/1 4/1/1 6/1/1
f 8/1/1 6/1/1 7/1/1
f 9/1/1 7/1/1 1/1/1
f 10/1/1 4/1/1 8/1/1
f 11/1/1 9/1/1 1/1/1
f 11/1/1 10/1/1 9/1/1
f 12/1/1 4/1/1 10/1/1
f 12/1/1 10/1/1 11/1/1
f 13/1/1 11/1/1 1/1/1
f 14/1/1 4/1/1 12/1/1
f 15/1/1 13/1/1 1/1/1
f 15/1/1 14/1/1 13/1/1
f 16/1/1 4/1/1 14/1/1
f 16/1/1 14/1/1 15/1/1
f 19/2/1 18/2/1 17/2/1
f 20/2/1 18/2/1 19/2/1
f 23/2/1 22/2/1 21/2/1
f 24/2/1 22/2/1 23/2/1
f 27/2/1 26/2/1 25/2/1
f 28/2/1 26/2/1 27/2/1
f 31/3/1 30/3/1 29/3/1
f 32/3/1 30/3/1 31/3/1
f 35/3/1 34/3/1 33/3/1
f 36/3/1 34/3/1 35/3/1
f 39/3/1 38/3/1 37/3/1
f 40/3/1 38/3/1 39/3/1
f 43/3/1 42/3/1 41/3/1
f 44/3/1 42/3/1 43/3/1
f 49/1/1 46/1/1 45/1/1
f 50/1/1 46/1/1 49/1/1
f 51/1/1 48/1/1 47/1/1
f 52/1/1 48/1/1 51/1/1
f 57/1/1 54/1/1 53/1/1
f 58/1/1 54/1/1 57/1/1
f 59/1/1 56/1/1 55/1/1
f 60/1/1 56/1/1 59/1/1
f 65/1/1 62/1/1 61/1/1
f 66/1/1 62/1/1 65/1/1
f 67/1/1 64/1/1 63/1/1
f 68/1/1 64/1/1 67/1/1
f 69/1/2 70/1/2 73/1/2
f 73/1/2 70/1/2 74/1/2
f 71/1/2 72/1/2 75/1/2
f 75/1/2 72/1/2 76/1/2
f 77/1/2 78/1/2 81/1/2
f 81/1/2 78/1/2 82/1/2
f 79/1/2 80/1/2 83/1/2
f 83/1/2 80/1/2 84/1/2
f 85/1/2 86/1/2 89/1/2
f 89/1/2 86/1/2 90/1/2
f 87/1/2 88/1/2 91/1/2
f 91/1/2 88/1/2 92/1/2
f 93/3/2 94/3/2 95/3/2
f 95/3/2 94/3/2 96/3/2
f 97/3/2 98/3/2 99/3/2
f 99/3/2 98/3/2 100/3/2
f 101/3/2 102/3/2 103/3/2
f 103/3/2 102/3/2 104/3/2
f 105/3/2 106/3/2 107/3/2
f 107/3/2 106/3/2 108/3/2
f 109/2/2 110/2/2 111/2/2
f 111/2/2 110/2/2 112/2/2
f 113/2/2 114/2/2 115/2/2
f 115/2/2 114/2/2 116/2/2
f 117/2/2 118/2/2 119/2/2
f 119/2/2 118/2/2 120/2/2
f 121/1/2 122/1/2 125/1/2
f 123/1/2 124/1/2 126/1/2
f 121/1/2 125/1/2 127/1/2
f 125/1/2 126/1/2 127/1/2
f 126/1/2 124/1/2 128/1/2
f 127/1/2 126/1/2 128/1/2
f 121/1/2 127/1/2 129/1/2
f 128/1/2 124/1/2 130/1/2
f 121/1/2 129/1/2 131/1/2
f 129/1/2 130/1/2 131/1/2
f 130/1/2 124/1/2 132/1/2
f 131/1/2 130/1/2 132/1/2
f 121/1/2 131/1/2 133/1/2
f 132/1/2 124/1/2 134/1/2
f 121/1/2 133/1/2 135/1/2
f 133/1/2 134/1/2 135/1/2
f 134/1/2 124/1/2 136/1/2
f 135/1/2 134/1/2 136/1/2
f 139/1/3 138/1/3 137/1/3
f 140/1/3 138/1/3 139/1/3
f 141/1/3 138/1/3 140/1/3
f 142/1/3 138/1/3 141/1/3
f 143/1/3 138/1/3 142/1/3
f 144/1/3 138/1/3 143/1/3
f 146/1/3 141/1/3 140/1/3
f 147/1/3 141/1/3 146/1/3
f 148/1/3 143/1/3 142/1/3
f 149/1/3 143/1/3 148/1/3
f 150/1/3 138/1/3 144/1/3
f 151/1/3 149/1/3 148/1/3
f 151/1/3 150/1/3 149/1/3
f 151/1/3 147/1/3 146/1/3
f 151/1/3 146/1/3 145/1/3
f 151/1/3 148/1/3 147/1/3
f 152/1/3 138/1/3 150/1/3
f 152/1/3 150/1/3 151/1/3
f 159/2/3 154/2/3 153/2/3
f 160/2/3 154/2/3 159/2/3
f 161/2/3 156/2/3 155/2/3
f 162/2/3 156/2/3 161/2/3
f 163/2/3 158/2/3 157/2/3
f 164/2/3 158/2/3 163/2/3
f 167/3/3 166/3/3 165/3/3
f 168/3/3 166/3/3 167/3/3
f 171/3/3 170/3/3 169/3/3
f 172/3/3 170/3/3 171/3/3
f 175/3/3 174/3/3 173/3/3
f 176/3/3 174/3/3 175/3/3
f 179/3/3 178/3/3 177/3/3
f 180/3/3 178/3/3 179/3/3
f 187/1/3 182/1/3 181/1/3
f 188/1/3 182/1/3 187/1/3
f 189/1/3 184/1/3 183/1/3
f 190/1/3 184/1/3 189/1/3
f 191/1/3 186/1/3 185/1/3
f 192/1/3 186/1/3 191/1/3
f 199/1/3 194/1/3 193/1/3
f 200/1/3 194/1/3 199/1/3
f 201/1/3 196/1/3 195/1/3
f 202/1/3 196/1/3 201/1/3
f 203/1/3 198/1/3 197/1/3
f 204/1/3 198/1/3 203/1/3
f 205/1/4 206/1/4 211/1/4
f 211/1/4 206/1/4 212/1/4
f 207/1/4 208/1/4 213/1/4
f 213/1/4 208/1/4 214/1/4
f 209/1/4 210/1/4 215/1/4
f 215/1/4 210/1/4 216/1/4
f 217/1/4 218/1/4 223/1/4
f 223/1/4 218/1/4 224/1/4
f 219/1/4 220/1/4 225/1/4
f 225/1/4 220/1/4 226/1/4
f 221/1/4 222/1/4 227/1/4
f 227/1/4 222/1/4 228/1/4
f 229/3/4 230/3/4 231/3/4
f 231/3/4 230/3/4 232/3/4
f 233/3/4 234/3/4 235/3/4
f 235/3/4 234/3/4 236/3/4
f 237/3/4 238/3/4 239/3/4
f 239/3/4 238/3/4 240/3/4
f 241/3/4 242/3/4 243/3/4
f 243/3/4 242/3/4 244/3/4
f 245/2/4 246/2/4 251/2/4
f 251/2/4 246/2/4 252/2/4
f 247/2/4 248/2/4 253/2/4
f 253/2/4 248/2/4 254/2/4
f 249/2/4 250/2/4 255/2/4
f 255/2/4 250/2/4 256/2/4
f 257/1/4 258/1/4 259/1/4
f 259/1/4 258/1/4 260/1/4
f 260/1/4 258/1/4 261/1/4
f 261/1/4 258/1/4 262/1/4
f 262/1/4 258/1/4 263/1/4
f 263/1/4 258/1/4 264/1/4
f 260/1/4 261/1/4 266/1/4
f 266/1/4 261/1/4 267/1/4
f 262/1/4 263/1/4 268/1/4
f 268/1/4 263/1/4 269/1/4
f 264/1/4 258/1/4 270/1/4
f 268/1/4 269/1/4 271/1/4
f 269/1/4 270/1/4 271/1/4
f 266/1/4 267/1/4 271/1/4
f 265/1/4 266/1/4 271/1/4
f 267/1/4 268/1/4 271/1/4
f 270/1/4 258/1/4 272/1/4
f 271/1/4 270/1/4 272/1/4
f 277/1/5 274/1/5 273/1/5
f 278/1/5 274/1/5 277/1/5
f 279/1/5 276/1/5 275/1/5
f 280/1/5 276/1/5 279/1/5
f 285/1/5 282/1/5 281/1/5
f 286/1/5 282/1/5 285/1/5
f 287/1/5 284/1/5 283/1/5
f 288/1/5 284/1/5 287/1/5
f 292/1/5 290/1/5 289/1/5
f 293/1/5 290/1/5 292/1/5
f 295/1/5 292/1/5 291/1/5
f 295/1/5 294/1/5 293/1/5
f 295/1/5 293/1/5 292/1/5
f 296/1/5 294/1/5 295/1/5
f 297/1/5 294/1/5 296/1/5
f 298/1/5 294/1/5 297/1/5
f 299/1/5 297/1/5 296/1/5
f 300/1/5 297/1/5 299/1/5
f 304/1/5 302/1/5 301/1/5
f 305/1/5 302/1/5 304/1/5
f 307/1/5 304/1/5 303/1/5
f 308/1/5 304/1/5 307/1/5
f 309/1/5 306/1/5 305/1/5
f 310/1/5 306/1/5 309/1/5
f 311/1/5 309/1/5 308/1/5
f 312/1/5 309/1/5 311/1/5
f 316/1/5 314/1/5 313/1/5
f 317/1/5 314/1/5 316/1/5
f 319/1/5 316/1/5 315/1/5
f 320/1/5 316/1/5 319/1/5
f 321/1/5 318/1/5 317/1/5
f 322/1/5 318/1/5 321/1/5
f 323/1/5 321/1/5 320/1/5
f 324/1/5 321/1/5 323/1/5
f 325/1/6 326/1/6 328/1/6
f 328/1/6 326/1/6 329/1/6
f 327/1/6 328/1/6 331/1/6
f 331/1/6 328/1/6 332/1/6
f 329/1/6 330/1/6 333/1/6
f 333/1/6 330/1/6 334/1/6
f 332/1/6 333/1/6 335/1/6
f 335/1/6 333/1/6 336/1/6
f 337/1/6 338/1/6 340/1/6
f 340/1/6 338/1/6 341/1/6
f 339/1/6 340/1/6 343/1/6
f 343/1/6 340/1/6 344/1/6
f 341/1/6 342/1/6 345/1/6
f 345/1/6 342/1/6 346/1/6
f 344/1/6 345/1/6 347/1/6
f 347/1/6 345/1/6 348/1/6
f 349/1/6 350/1/6 351/1/6
f 351/1/6 350/1/6 352/1/6
f 349/1/6 351/1/6 353/1/6
f 352/1/6 350/1/6 354/1/6
f 349/1/6 353/1/6 355/1/6
f 353/1/6 354/1/6 355/1/6
f 354/1/6 350/1/6 356/1/6
f 355/1/6 354/1/6 356/1/6
f 357/2/6 358/2/6 359/2/6
f 359/2/6 358/2/6 360/2/6
f 360/2/6 358/2/6 361/2/6
f 361/2/6 358/2/6 362/2/6
f 357/2/6 359/2/6 363/2/6
f 360/2/6 361/2/6 364/2/6
f 364/2/6 361/2/6 365/2/6
f 365/2/6 361/2/6 366/2/6
f 366/2/6 361/2/6 367/2/6
f 362/2/6 358/2/6 368/2/6
f 363/2/6 364/2/6 369/2/6
f 364/2/6 365/2/6 369/2/6
f 366/2/6 367/2/6 370/2/6
f 367/2/6 368/2/6 370/2/6
f 368/2/6 358/2/6 371/2/6
f 370/2/6 368/2/6 371/2/6
f 371/2/6 358/2/6 372/2/6
f 369/2/6 370/2/6 373/2/6
f 370/2/6 371/2/6 373/2/6
f 372/2/6 358/2/6 374/2/6
f 363/2/6 369/2/6 375/2/6
f 373/2/6 374/2/6 375/2/6
f 357/2/6 363/2/6 375/2/6
f 369/2/6 373/2/6 375/2/6
f 374/2/6 358/2/6 376/2/6
f 375/2/6 374/2/6 376/2/6
f 377/3/6 378/3/6 381/3/6
f 381/3/6 378/3/6 382/3/6
f 379/3/6 380/3/6 385/3/6
f 385/3/6 380/3/6 386/3/6
f 383/3/6 384/3/6 387/3/6
f 387/3/6 384/3/6 388/3/6
f 389/3/6 390/3/6 391/3/6
f 391/3/6 390/3/6 392/3/6
