# MagicaVoxel @ Ephtracy

# group
o 

# material
mtllib Village-34.mtl
usemtl palette

# normals
vn 1 0 0
vn -1 0 0
vn 0 0 -1
vn 0 0 1
vn 0 -1 0
vn 0 1 0

# texcoords
vt 0.00976563 0.5
vt 0.0214844 0.5
vt 0.0292969 0.5

# verts
v 0.8 0.6 -0.7
v 0.8 0.6 0.7
v 0.8 0.8 -0.7
v 0.8 0.8 0.7
v 0.6 -1.3 -0.5
v 0.6 -1.3 0.5
v 0.6 0.6 -0.5
v 0.6 0.6 0.5
v 0.6 0.8 -0.2
v 0.6 0.8 0.7
v 0.6 0.9 -0.2
v 0.6 0.9 0.2
v 0.6 0.9 0.6
v 0.6 0.9 0.7
v 0.6 1 0.2
v 0.6 1 0.4
v 0.6 1.1 0.4
v 0.6 1.1 0.6
v 0.5 0.8 -0.3
v 0.5 0.8 -0.2
v 0.5 0.9 -0.3
v 0.5 0.9 -0.2
v 0.5 0.9 0.1
v 0.5 0.9 0.2
v 0.5 0.9 0.6
v 0.5 0.9 0.7
v 0.5 1 0.1
v 0.5 1 0.2
v 0.5 1 0.4
v 0.5 1.1 0.2
v 0.5 1.1 0.4
v 0.5 1.1 0.6
v 0.5 1.1 0.7
v 0.5 1.2 0.4
v 0.5 1.2 0.6
v 0.4 0.9 0
v 0.4 0.9 0.1
v 0.4 1 0
v 0.4 1 0.1
v 0.4 1 0.2
v 0.4 1.1 0.1
v 0.4 1.1 0.2
v 0.4 1.1 0.6
v 0.4 1.1 0.7
v 0.4 1.2 0.1
v 0.4 1.2 0.2
v 0.4 1.2 0.5
v 0.4 1.2 0.6
v 0.4 1.3 0.5
v 0.4 1.3 0.7
v 0.3 1.2 0.4
v 0.3 1.2 0.5
v 0.3 1.3 0.4
v 0.3 1.3 0.5
v 0.2 0.9 -0.1
v 0.2 0.9 0
v 0.2 1 -0.1
v 0.2 1 0
v 0.2 1 0.1
v 0.2 1.1 0
v 0.2 1.1 0.1
v 0.1 0.8 -0.4
v 0.1 0.8 -0.3
v 0.1 0.9 -0.4
v 0.1 0.9 -0.3
v 0.1 1.1 0.3
v 0.1 1.1 0.4
v 0.1 1.2 0.3
v 0.1 1.2 0.4
v 0 0.8 -0.5
v 0 0.8 -0.4
v 0 0.9 -0.5
v 0 0.9 -0.4
v 0 0.9 -0.3
v 0 1 -0.4
v 0 1 -0.3
v -0.1 0.9 -0.2
v -0.1 0.9 -0.1
v -0.1 1 -0.2
v -0.1 1 -0.1
v -0.1 1 0
v -0.1 1.1 -0.1
v -0.1 1.1 0
v -0.1 1.1 0.2
v -0.1 1.1 0.3
v -0.1 1.2 0.2
v -0.1 1.2 0.3
v -0.1 1.3 0.2
v -0.1 1.3 0.3
v 0.3 1.1 0.1
v 0.3 1.1 0.2
v 0.3 1.2 0.1
v 0.3 1.2 0.2
v 0 1.2 0.4
v 0 1.2 0.5
v 0 1.3 0.4
v 0 1.3 0.5
v -0.1 0.9 -0.4
v -0.1 0.9 -0.3
v -0.1 1 -0.4
v -0.1 1 -0.3
v -0.1 1.1 0.4
v -0.1 1.1 0.5
v -0.1 1.2 0.4
v -0.1 1.2 0.5
v -0.1 1.2 0.7
v -0.1 1.3 0.5
v -0.1 1.3 0.7
v -0.2 0.8 -0.5
v -0.2 0.8 -0.4
v -0.2 0.9 -0.5
v -0.2 0.9 -0.4
v -0.2 1.1 0.5
v -0.2 1.1 0.6
v -0.2 1.2 0.2
v -0.2 1.2 0.3
v -0.2 1.2 0.5
v -0.2 1.2 0.6
v -0.2 1.3 0.2
v -0.2 1.3 0.3
v -0.3 0.9 -0.2
v -0.3 0.9 -0.1
v -0.3 1 -0.2
v -0.3 1 -0.1
v -0.3 1 0.2
v -0.3 1 0.4
v -0.3 1 0.6
v -0.3 1.1 -0.1
v -0.3 1.1 0.2
v -0.3 1.1 0.4
v -0.3 1.1 0.6
v -0.3 1.1 0.7
v -0.3 1.2 0.2
v -0.3 1.2 0.4
v -0.3 1.2 0.6
v -0.3 1.2 0.7
v -0.4 -1.3 -0.5
v -0.4 -1.3 0.5
v -0.4 0.6 -0.5
v -0.4 0.6 0.5
v -0.4 0.8 -0.4
v -0.4 0.8 0.7
v -0.4 0.9 -0.4
v -0.4 0.9 -0.1
v -0.4 1 -0.1
v -0.4 1 0.2
v -0.4 1 0.4
v -0.4 1 0.6
v -0.4 1.1 0.2
v -0.4 1.1 0.4
v -0.4 1.1 0.6
v -0.4 1.1 0.7
v -0.6 0.6 -0.7
v -0.6 0.6 0.7
v -0.6 0.8 -0.7
v -0.6 0.8 0.7
v 0.8 0.6 -0.7
v 0.8 0.8 -0.7
v -0.6 0.6 -0.7
v -0.6 0.8 -0.7
v 0.6 -1.3 -0.5
v 0.6 0.6 -0.5
v 0 0.8 -0.5
v 0 0.9 -0.5
v -0.2 0.8 -0.5
v -0.2 0.9 -0.5
v -0.4 -1.3 -0.5
v -0.4 0.6 -0.5
v 0.1 0.8 -0.4
v 0.1 0.9 -0.4
v 0 0.8 -0.4
v 0 0.9 -0.4
v 0 1 -0.4
v -0.1 0.9 -0.4
v -0.1 1 -0.4
v -0.2 0.8 -0.4
v -0.2 0.9 -0.4
v -0.4 0.8 -0.4
v -0.4 0.9 -0.4
v 0.5 0.8 -0.3
v 0.5 0.9 -0.3
v 0.1 0.8 -0.3
v 0.1 0.9 -0.3
v 0.6 0.8 -0.2
v 0.6 0.9 -0.2
v 0.5 0.8 -0.2
v 0.5 0.9 -0.2
v -0.1 0.9 -0.2
v -0.1 1 -0.2
v -0.3 0.9 -0.2
v -0.3 1 -0.2
v 0.2 0.9 -0.1
v 0.2 1 -0.1
v -0.1 0.9 -0.1
v -0.1 1 -0.1
v -0.1 1.1 -0.1
v -0.3 0.9 -0.1
v -0.3 1 -0.1
v -0.3 1.1 -0.1
v -0.4 0.9 -0.1
v -0.4 1 -0.1
v 0.4 0.9 0
v 0.4 1 0
v 0.2 0.9 0
v 0.2 1 0
v 0.2 1.1 0
v -0.1 1 0
v -0.1 1.1 0
v 0.5 0.9 0.1
v 0.5 1 0.1
v 0.4 0.9 0.1
v 0.4 1 0.1
v 0.4 1.1 0.1
v 0.4 1.2 0.1
v 0.3 1.1 0.1
v 0.3 1.2 0.1
v 0.2 1 0.1
v 0.2 1.1 0.1
v 0.6 0.9 0.2
v 0.6 1 0.2
v 0.5 0.9 0.2
v 0.5 1 0.2
v 0.5 1.1 0.2
v 0.4 1 0.2
v 0.4 1.1 0.2
v -0.1 1.1 0.2
v -0.1 1.2 0.2
v -0.1 1.3 0.2
v -0.2 1.2 0.2
v -0.2 1.3 0.2
v -0.3 1 0.2
v -0.3 1.1 0.2
v -0.3 1.2 0.2
v -0.4 1 0.2
v -0.4 1.1 0.2
v 0.1 1.1 0.3
v 0.1 1.2 0.3
v -0.1 1.1 0.3
v -0.1 1.2 0.3
v 0.6 1 0.4
v 0.6 1.1 0.4
v 0.5 1 0.4
v 0.5 1.1 0.4
v 0.5 1.2 0.4
v 0.3 1.2 0.4
v 0.3 1.3 0.4
v 0.1 1.1 0.4
v 0.1 1.2 0.4
v 0.1 1.3 0.4
v 0 1.2 0.4
v 0 1.3 0.4
v 0.4 1.2 0.5
v 0.4 1.3 0.5
v 0.3 1.2 0.5
v 0.3 1.3 0.5
v 0 1.2 0.5
v 0 1.3 0.5
v -0.1 1.1 0.5
v -0.1 1.2 0.5
v -0.1 1.3 0.5
v -0.2 1.1 0.5
v -0.2 1.2 0.5
v -0.2 1.1 0.6
v -0.2 1.2 0.6
v -0.3 1 0.6
v -0.3 1.1 0.6
v -0.3 1.2 0.6
v -0.4 1 0.6
v -0.4 1.1 0.6
v 0 0.9 -0.3
v 0 1 -0.3
v -0.1 0.9 -0.3
v -0.1 1 -0.3
v 0.4 1.1 0.2
v 0.4 1.2 0.2
v 0.3 1.1 0.2
v 0.3 1.2 0.2
v -0.1 1.2 0.3
v -0.1 1.3 0.3
v -0.2 1.2 0.3
v -0.2 1.3 0.3
v -0.1 1.1 0.4
v -0.1 1.2 0.4
v -0.3 1 0.4
v -0.3 1.1 0.4
v -0.3 1.2 0.4
v -0.4 1 0.4
v -0.4 1.1 0.4
v 0.6 -1.3 0.5
v 0.6 0.6 0.5
v -0.4 -1.3 0.5
v -0.4 0.6 0.5
v 0.6 0.9 0.6
v 0.6 1.1 0.6
v 0.5 0.9 0.6
v 0.5 1.1 0.6
v 0.5 1.2 0.6
v 0.4 1.1 0.6
v 0.4 1.2 0.6
v 0.8 0.6 0.7
v 0.8 0.8 0.7
v 0.6 0.8 0.7
v 0.6 0.9 0.7
v 0.5 0.9 0.7
v 0.5 1.1 0.7
v 0.4 1.1 0.7
v 0.4 1.3 0.7
v -0.1 1.2 0.7
v -0.1 1.3 0.7
v -0.3 1.1 0.7
v -0.3 1.2 0.7
v -0.4 0.8 0.7
v -0.4 1.1 0.7
v -0.6 0.6 0.7
v -0.6 0.8 0.7
v 0.6 -1.3 -0.5
v -0.4 -1.3 -0.5
v 0.6 -1.3 0.5
v -0.4 -1.3 0.5
v 0.8 0.6 -0.7
v -0.6 0.6 -0.7
v 0.6 0.6 -0.5
v -0.4 0.6 -0.5
v 0.6 0.6 0.5
v -0.4 0.6 0.5
v 0.8 0.6 0.7
v -0.6 0.6 0.7
v 0.8 0.8 -0.7
v -0.6 0.8 -0.7
v 0 0.8 -0.5
v -0.2 0.8 -0.5
v 0.1 0.8 -0.4
v 0 0.8 -0.4
v -0.2 0.8 -0.4
v -0.4 0.8 -0.4
v 0.5 0.8 -0.3
v 0.1 0.8 -0.3
v 0.6 0.8 -0.2
v 0.5 0.8 -0.2
v 0.8 0.8 0.7
v 0.6 0.8 0.7
v -0.4 0.8 0.7
v -0.6 0.8 0.7
v 0 0.9 -0.5
v -0.2 0.9 -0.5
v 0.1 0.9 -0.4
v 0 0.9 -0.4
v -0.1 0.9 -0.4
v -0.2 0.9 -0.4
v -0.4 0.9 -0.4
v 0.5 0.9 -0.3
v 0.1 0.9 -0.3
v 0 0.9 -0.3
v -0.1 0.9 -0.3
v 0.6 0.9 -0.2
v 0.5 0.9 -0.2
v -0.1 0.9 -0.2
v -0.3 0.9 -0.2
v 0.2 0.9 -0.1
v -0.1 0.9 -0.1
v -0.3 0.9 -0.1
v -0.4 0.9 -0.1
v 0.4 0.9 0
v 0.2 0.9 0
v 0.5 0.9 0.1
v 0.4 0.9 0.1
v 0.6 0.9 0.2
v 0.5 0.9 0.2
v 0.6 0.9 0.6
v 0.5 0.9 0.6
v 0.6 0.9 0.7
v 0.5 0.9 0.7
v 0 1 -0.4
v -0.1 1 -0.4
v 0 1 -0.3
v -0.1 1 -0.3
v -0.1 1 -0.2
v -0.3 1 -0.2
v 0.2 1 -0.1
v -0.1 1 -0.1
v -0.3 1 -0.1
v -0.4 1 -0.1
v 0.4 1 0
v 0.2 1 0
v -0.1 1 0
v 0.5 1 0.1
v 0.4 1 0.1
v 0.2 1 0.1
v 0.6 1 0.2
v 0.5 1 0.2
v 0.4 1 0.2
v -0.3 1 0.2
v -0.4 1 0.2
v 0.6 1 0.4
v 0.5 1 0.4
v -0.3 1 0.4
v -0.4 1 0.4
v -0.3 1 0.6
v -0.4 1 0.6
v -0.1 1.1 -0.1
v -0.3 1.1 -0.1
v 0.2 1.1 0
v -0.1 1.1 0
v 0.3 1.1 0.1
v 0.2 1.1 0.1
v 0.5 1.1 0.2
v 0.4 1.1 0.2
v 0.3 1.1 0.2
v -0.1 1.1 0.2
v -0.3 1.1 0.2
v -0.4 1.1 0.2
v 0.1 1.1 0.3
v -0.1 1.1 0.3
v 0.6 1.1 0.4
v 0.5 1.1 0.4
v 0.1 1.1 0.4
v -0.1 1.1 0.4
v -0.3 1.1 0.4
v -0.4 1.1 0.4
v -0.1 1.1 0.5
v -0.2 1.1 0.5
v 0.6 1.1 0.6
v 0.5 1.1 0.6
v 0.4 1.1 0.6
v -0.2 1.1 0.6
v -0.3 1.1 0.6
v -0.4 1.1 0.6
v 0.5 1.1 0.7
v 0.4 1.1 0.7
v -0.3 1.1 0.7
v -0.4 1.1 0.7
v 0.4 1.2 0.1
v 0.3 1.2 0.1
v 0.4 1.2 0.2
v 0.3 1.2 0.2
v -0.2 1.2 0.2
v -0.3 1.2 0.2
v 0.1 1.2 0.3
v -0.1 1.2 0.3
v -0.2 1.2 0.3
v 0.5 1.2 0.4
v 0.3 1.2 0.4
v 0.1 1.2 0.4
v 0 1.2 0.4
v -0.1 1.2 0.4
v -0.3 1.2 0.4
v 0.4 1.2 0.5
v 0.3 1.2 0.5
v 0 1.2 0.5
v -0.1 1.2 0.5
v -0.2 1.2 0.5
v 0.5 1.2 0.6
v 0.4 1.2 0.6
v -0.2 1.2 0.6
v -0.3 1.2 0.6
v -0.1 1.2 0.7
v -0.3 1.2 0.7
v -0.1 1.3 0.2
v -0.2 1.3 0.2
v -0.1 1.3 0.3
v -0.2 1.3 0.3
v 0.3 1.3 0.4
v 0.1 1.3 0.4
v 0 1.3 0.4
v 0.4 1.3 0.5
v 0.3 1.3 0.5
v 0.1 1.3 0.5
v 0 1.3 0.5
v -0.1 1.3 0.5
v 0.4 1.3 0.7
v -0.1 1.3 0.7

# faces
f 3/1/1 2/1/1 1/1/1
f 4/1/1 2/1/1 3/1/1
f 7/1/1 6/1/1 5/1/1
f 8/1/1 6/1/1 7/1/1
f 11/3/1 10/3/1 9/3/1
f 12/3/1 10/3/1 11/3/1
f 13/3/1 10/3/1 12/3/1
f 14/3/1 10/3/1 13/3/1
f 15/3/1 13/3/1 12/3/1
f 16/3/1 13/3/1 15/3/1
f 17/3/1 13/3/1 16/3/1
f 18/3/1 13/3/1 17/3/1
f 21/3/1 20/3/1 19/3/1
f 22/3/1 20/3/1 21/3/1
f 27/3/1 24/3/1 23/3/1
f 28/3/1 24/3/1 27/3/1
f 30/3/1 29/3/1 28/3/1
f 31/3/1 29/3/1 30/3/1
f 32/3/1 26/3/1 25/3/1
f 33/3/1 26/3/1 32/3/1
f 34/3/1 32/3/1 31/3/1
f 35/3/1 32/3/1 34/3/1
f 38/3/1 37/3/1 36/3/1
f 39/3/1 37/3/1 38/3/1
f 41/3/1 40/3/1 39/3/1
f 42/3/1 40/3/1 41/3/1
f 45/2/1 42/2/1 41/2/1
f 46/2/1 42/2/1 45/2/1
f 48/3/1 44/3/1 43/3/1
f 49/3/1 48/3/1 47/3/1
f 50/3/1 44/3/1 48/3/1
f 50/3/1 48/3/1 49/3/1
f 53/3/1 52/3/1 51/3/1
f 54/3/1 52/3/1 53/3/1
f 57/3/1 56/3/1 55/3/1
f 58/3/1 56/3/1 57/3/1
f 60/3/1 59/3/1 58/3/1
f 61/3/1 59/3/1 60/3/1
f 64/3/1 63/3/1 62/3/1
f 65/3/1 63/3/1 64/3/1
f 68/3/1 67/3/1 66/3/1
f 69/3/1 67/3/1 68/3/1
f 72/3/1 71/3/1 70/3/1
f 73/3/1 71/3/1 72/3/1
f 75/2/1 74/2/1 73/2/1
f 76/2/1 74/2/1 75/2/1
f 79/3/1 78/3/1 77/3/1
f 80/3/1 78/3/1 79/3/1
f 82/3/1 81/3/1 80/3/1
f 83/3/1 81/3/1 82/3/1
f 86/3/1 85/3/1 84/3/1
f 87/3/1 85/3/1 86/3/1
f 88/2/1 87/2/1 86/2/1
f 89/2/1 87/2/1 88/2/1
f 90/2/2 91/2/2 92/2/2
f 92/2/2 91/2/2 93/2/2
f 94/2/2 95/2/2 96/2/2
f 96/2/2 95/2/2 97/2/2
f 98/2/2 99/2/2 100/2/2
f 100/2/2 99/2/2 101/2/2
f 102/3/2 103/3/2 104/3/2
f 104/3/2 103/3/2 105/3/2
f 105/3/2 106/3/2 107/3/2
f 107/3/2 106/3/2 108/3/2
f 109/3/2 110/3/2 111/3/2
f 111/3/2 110/3/2 112/3/2
f 113/3/2 114/3/2 117/3/2
f 117/3/2 114/3/2 118/3/2
f 115/2/2 116/2/2 119/2/2
f 119/2/2 116/2/2 120/2/2
f 121/3/2 122/3/2 123/3/2
f 123/3/2 122/3/2 124/3/2
f 124/3/2 125/3/2 128/3/2
f 128/3/2 125/3/2 129/3/2
f 126/3/2 127/3/2 130/3/2
f 130/3/2 127/3/2 131/3/2
f 129/3/2 130/3/2 133/3/2
f 133/3/2 130/3/2 134/3/2
f 131/3/2 132/3/2 135/3/2
f 135/3/2 132/3/2 136/3/2
f 137/1/2 138/1/2 139/1/2
f 139/1/2 138/1/2 140/1/2
f 141/3/2 142/3/2 143/3/2
f 143/3/2 142/3/2 144/3/2
f 144/3/2 142/3/2 145/3/2
f 145/3/2 142/3/2 146/3/2
f 146/3/2 142/3/2 147/3/2
f 147/3/2 142/3/2 148/3/2
f 146/3/2 147/3/2 149/3/2
f 149/3/2 147/3/2 150/3/2
f 148/3/2 142/3/2 151/3/2
f 151/3/2 142/3/2 152/3/2
f 153/1/2 154/1/2 155/1/2
f 155/1/2 154/1/2 156/1/2
f 159/1/3 158/1/3 157/1/3
f 160/1/3 158/1/3 159/1/3
f 165/3/3 164/3/3 163/3/3
f 166/3/3 164/3/3 165/3/3
f 167/1/3 162/1/3 161/1/3
f 168/1/3 162/1/3 167/1/3
f 171/3/3 170/3/3 169/3/3
f 172/3/3 170/3/3 171/3/3
f 174/2/3 173/2/3 172/2/3
f 175/2/3 173/2/3 174/2/3
f 178/3/3 177/3/3 176/3/3
f 179/3/3 177/3/3 178/3/3
f 182/3/3 181/3/3 180/3/3
f 183/3/3 181/3/3 182/3/3
f 186/3/3 185/3/3 184/3/3
f 187/3/3 185/3/3 186/3/3
f 190/3/3 189/3/3 188/3/3
f 191/3/3 189/3/3 190/3/3
f 194/3/3 193/3/3 192/3/3
f 195/3/3 193/3/3 194/3/3
f 198/3/3 196/3/3 195/3/3
f 199/3/3 196/3/3 198/3/3
f 200/3/3 198/3/3 197/3/3
f 201/3/3 198/3/3 200/3/3
f 204/3/3 203/3/3 202/3/3
f 205/3/3 203/3/3 204/3/3
f 207/3/3 206/3/3 205/3/3
f 208/3/3 206/3/3 207/3/3
f 211/3/3 210/3/3 209/3/3
f 212/3/3 210/3/3 211/3/3
f 215/2/3 214/2/3 213/2/3
f 215/3/3 213/3/3 212/3/3
f 216/2/3 214/2/3 215/2/3
f 217/3/3 215/3/3 212/3/3
f 218/3/3 215/3/3 217/3/3
f 221/3/3 220/3/3 219/3/3
f 222/3/3 220/3/3 221/3/3
f 224/3/3 223/3/3 222/3/3
f 225/3/3 223/3/3 224/3/3
f 229/3/3 227/3/3 226/3/3
f 229/2/3 228/2/3 227/2/3
f 230/2/3 228/2/3 229/2/3
f 232/3/3 229/3/3 226/3/3
f 233/3/3 229/3/3 232/3/3
f 234/3/3 232/3/3 231/3/3
f 235/3/3 232/3/3 234/3/3
f 238/3/3 237/3/3 236/3/3
f 239/3/3 237/3/3 238/3/3
f 242/3/3 241/3/3 240/3/3
f 243/3/3 241/3/3 242/3/3
f 245/3/3 244/3/3 243/3/3
f 247/3/3 245/3/3 243/3/3
f 247/3/3 246/3/3 245/3/3
f 248/3/3 246/3/3 247/3/3
f 249/3/3 246/3/3 248/3/3
f 250/2/3 249/2/3 248/2/3
f 251/2/3 249/2/3 250/2/3
f 254/3/3 253/3/3 252/3/3
f 255/3/3 253/3/3 254/3/3
f 259/3/3 257/3/3 256/3/3
f 260/3/3 257/3/3 259/3/3
f 261/3/3 259/3/3 258/3/3
f 262/3/3 259/3/3 261/3/3
f 266/3/3 264/3/3 263/3/3
f 267/3/3 264/3/3 266/3/3
f 268/3/3 266/3/3 265/3/3
f 269/3/3 266/3/3 268/3/3
f 270/2/4 271/2/4 272/2/4
f 272/2/4 271/2/4 273/2/4
f 274/2/4 275/2/4 276/2/4
f 276/2/4 275/2/4 277/2/4
f 278/2/4 279/2/4 280/2/4
f 280/2/4 279/2/4 281/2/4
f 282/3/4 283/3/4 285/3/4
f 285/3/4 283/3/4 286/3/4
f 284/3/4 285/3/4 287/3/4
f 287/3/4 285/3/4 288/3/4
f 289/1/4 290/1/4 291/1/4
f 291/1/4 290/1/4 292/1/4
f 293/3/4 294/3/4 295/3/4
f 295/3/4 294/3/4 296/3/4
f 296/3/4 297/3/4 298/3/4
f 298/3/4 297/3/4 299/3/4
f 300/1/4 301/1/4 302/1/4
f 302/3/4 303/3/4 304/3/4
f 304/3/4 305/3/4 306/3/4
f 306/3/4 307/3/4 308/3/4
f 308/3/4 307/3/4 309/3/4
f 304/3/4 306/3/4 310/3/4
f 306/3/4 308/3/4 310/3/4
f 310/3/4 308/3/4 311/3/4
f 300/1/4 302/1/4 312/1/4
f 302/3/4 304/3/4 312/3/4
f 304/3/4 310/3/4 312/3/4
f 312/3/4 310/3/4 313/3/4
f 300/1/4 312/1/4 314/1/4
f 314/1/4 312/1/4 315/1/4
f 318/1/5 317/1/5 316/1/5
f 319/1/5 317/1/5 318/1/5
f 322/1/5 321/1/5 320/1/5
f 323/1/5 321/1/5 322/1/5
f 324/1/5 322/1/5 320/1/5
f 325/1/5 321/1/5 323/1/5
f 326/1/5 324/1/5 320/1/5
f 326/1/5 325/1/5 324/1/5
f 327/1/5 321/1/5 325/1/5
f 327/1/5 325/1/5 326/1/5
f 328/1/6 329/1/6 330/1/6
f 330/1/6 329/1/6 331/1/6
f 328/1/6 330/1/6 332/1/6
f 332/1/6 330/1/6 333/1/6
f 331/1/6 329/1/6 334/1/6
f 334/1/6 329/1/6 335/1/6
f 328/1/6 332/1/6 336/1/6
f 336/1/6 332/1/6 337/1/6
f 328/1/6 336/1/6 338/1/6
f 338/1/6 336/1/6 339/1/6
f 328/1/6 338/1/6 340/1/6
f 340/1/6 338/1/6 341/1/6
f 335/1/6 329/1/6 342/1/6
f 342/1/6 329/1/6 343/1/6
f 344/3/6 345/3/6 347/3/6
f 347/3/6 345/3/6 348/3/6
f 348/3/6 345/3/6 349/3/6
f 346/3/6 347/3/6 352/3/6
f 352/3/6 347/3/6 353/3/6
f 348/3/6 349/3/6 354/3/6
f 349/3/6 350/3/6 354/3/6
f 352/3/6 353/3/6 356/3/6
f 353/3/6 354/3/6 356/3/6
f 351/3/6 352/3/6 356/3/6
f 354/3/6 350/3/6 357/3/6
f 356/3/6 354/3/6 357/3/6
f 357/3/6 350/3/6 358/3/6
f 355/3/6 356/3/6 359/3/6
f 356/3/6 357/3/6 359/3/6
f 359/3/6 357/3/6 360/3/6
f 358/3/6 350/3/6 361/3/6
f 361/3/6 350/3/6 362/3/6
f 355/3/6 359/3/6 363/3/6
f 363/3/6 359/3/6 364/3/6
f 355/3/6 363/3/6 365/3/6
f 365/3/6 363/3/6 366/3/6
f 355/3/6 365/3/6 367/3/6
f 367/3/6 365/3/6 368/3/6
f 369/3/6 370/3/6 371/3/6
f 371/3/6 370/3/6 372/3/6
f 373/2/6 374/2/6 375/2/6
f 375/2/6 374/2/6 376/2/6
f 377/3/6 378/3/6 380/3/6
f 380/3/6 378/3/6 381/3/6
f 379/3/6 380/3/6 384/3/6
f 384/3/6 380/3/6 385/3/6
f 383/3/6 384/3/6 387/3/6
f 387/3/6 384/3/6 388/3/6
f 386/3/6 387/3/6 390/3/6
f 390/3/6 387/3/6 391/3/6
f 381/3/6 382/3/6 392/3/6
f 392/3/6 382/3/6 393/3/6
f 389/3/6 390/3/6 394/3/6
f 394/3/6 390/3/6 395/3/6
f 396/3/6 397/3/6 398/3/6
f 398/3/6 397/3/6 399/3/6
f 400/3/6 401/3/6 403/3/6
f 402/3/6 403/3/6 405/3/6
f 404/3/6 405/3/6 408/3/6
f 403/3/6 401/3/6 409/3/6
f 405/3/6 403/3/6 409/3/6
f 408/3/6 405/3/6 409/3/6
f 409/3/6 401/3/6 410/3/6
f 407/3/6 408/3/6 412/3/6
f 406/3/6 407/3/6 412/3/6
f 408/3/6 409/3/6 412/3/6
f 412/3/6 409/3/6 413/3/6
f 406/3/6 412/3/6 415/3/6
f 415/3/6 412/3/6 416/3/6
f 410/3/6 411/3/6 418/3/6
f 418/3/6 411/3/6 419/3/6
f 417/3/6 418/3/6 420/3/6
f 420/3/6 418/3/6 421/3/6
f 414/3/6 415/3/6 422/3/6
f 422/3/6 415/3/6 423/3/6
f 421/3/6 418/3/6 425/3/6
f 425/3/6 418/3/6 426/3/6
f 423/3/6 424/3/6 428/3/6
f 428/3/6 424/3/6 429/3/6
f 426/3/6 427/3/6 430/3/6
f 430/3/6 427/3/6 431/3/6
f 432/2/6 433/2/6 434/2/6
f 434/2/6 433/2/6 435/2/6
f 436/3/6 437/3/6 440/3/6
f 438/3/6 439/3/6 443/3/6
f 439/3/6 440/3/6 443/3/6
f 443/3/6 440/3/6 444/3/6
f 444/3/6 440/3/6 445/3/6
f 440/3/6 437/3/6 446/3/6
f 445/3/6 440/3/6 446/3/6
f 441/3/6 442/3/6 447/3/6
f 447/3/6 442/3/6 448/3/6
f 444/3/6 445/3/6 449/3/6
f 449/3/6 445/3/6 450/3/6
f 441/3/6 447/3/6 452/3/6
f 452/3/6 447/3/6 453/3/6
f 450/3/6 451/3/6 454/3/6
f 454/3/6 455/3/6 456/3/6
f 450/3/6 454/3/6 456/3/6
f 456/3/6 455/3/6 457/3/6
f 458/2/6 459/2/6 460/2/6
f 460/2/6 459/2/6 461/2/6
f 462/3/6 463/3/6 466/3/6
f 463/2/6 464/2/6 467/2/6
f 466/3/6 463/3/6 467/3/6
f 467/2/6 464/2/6 468/2/6
f 465/3/6 466/3/6 470/3/6
f 468/3/6 469/3/6 470/3/6
f 467/3/6 468/3/6 470/3/6
f 466/3/6 467/3/6 470/3/6
f 470/3/6 469/3/6 471/3/6
