# MagicaVoxel @ Ephtracy

# group
o 

# material
mtllib Village-69.mtl
usemtl palette

# normals
vn -1 0 0
vn 1 0 0
vn 0 0 1
vn 0 0 -1
vn 0 -1 0
vn 0 1 0

# texcoords
vt 0.0175781 0.5
vt 0.0605469 0.5

# verts
v -0.5 -1 0.6
v -0.5 -1 -0.7
v -0.5 -0.8 0.6
v -0.5 -0.8 -0.7
v -0.4 1 0.5
v -0.4 1 -0.6
v -0.4 1.1 0.5
v -0.4 1.1 -0.6
v -0.3 -0.8 0.4
v -0.3 -0.8 -0.5
v -0.3 1 0.4
v -0.3 1 -0.5
v 0.4 -0.5 -0.4
v 0.4 -0.5 -0.5
v 0.4 -0.4 -0.4
v 0.4 -0.4 -0.5
v 0.2 -0.5 -0.4
v 0.2 -0.5 -0.5
v 0.2 -0.4 -0.4
v 0.2 -0.4 -0.5
v 0.3 -0.4 -0.4
v 0.3 -0.4 -0.5
v 0.3 -0.1 -0.4
v 0.3 -0.1 -0.5
v 0.4 -0.1 -0.4
v 0.4 -0.1 -0.5
v 0.4 0 -0.4
v 0.4 0.1 -0.4
v 0.4 0.1 -0.5
v 0.5 -0.3 -0.3
v 0.5 -0.3 -0.4
v 0.5 0 -0.3
v 0.5 0 -0.4
v 0.6 -0.8 0.4
v 0.6 -0.8 -0.5
v 0.6 -0.4 -0.4
v 0.6 -0.4 -0.5
v 0.6 -0.3 -0.3
v 0.6 -0.3 -0.4
v 0.6 0 -0.3
v 0.6 0 -0.4
v 0.6 0.1 -0.4
v 0.6 0.1 -0.5
v 0.6 1 0.4
v 0.6 1 -0.5
v 0.7 1 0.5
v 0.7 1 -0.6
v 0.7 1.1 0.5
v 0.7 1.1 -0.6
v 0.8 -1 0.6
v 0.8 -1 -0.7
v 0.8 -0.8 0.6
v 0.8 -0.8 -0.7
v -0.5 -1 0.6
v -0.5 -0.8 0.6
v 0.8 -1 0.6
v 0.8 -0.8 0.6
v -0.4 1 0.5
v -0.4 1.1 0.5
v 0.7 1 0.5
v 0.7 1.1 0.5
v -0.3 -0.8 0.4
v -0.3 1 0.4
v 0.6 -0.8 0.4
v 0.6 1 0.4
v 0.5 -0.3 -0.3
v 0.5 0 -0.3
v 0.6 -0.3 -0.3
v 0.6 0 -0.3
v 0.2 -0.5 -0.4
v 0.2 -0.4 -0.4
v 0.3 -0.4 -0.4
v 0.3 -0.1 -0.4
v 0.4 -0.5 -0.4
v 0.4 -0.4 -0.4
v 0.4 -0.1 -0.4
v 0.4 0 -0.4
v 0.4 0.1 -0.4
v 0.5 -0.4 -0.4
v 0.5 -0.3 -0.4
v 0.5 0 -0.4
v 0.6 -0.4 -0.4
v 0.6 -0.3 -0.4
v 0.6 0 -0.4
v 0.6 0.1 -0.4
v -0.3 -0.8 -0.5
v -0.3 1 -0.5
v 0.2 -0.5 -0.5
v 0.2 -0.4 -0.5
v 0.3 -0.4 -0.5
v 0.3 -0.1 -0.5
v 0.4 -0.5 -0.5
v 0.4 -0.4 -0.5
v 0.4 -0.1 -0.5
v 0.4 0.1 -0.5
v 0.6 -0.8 -0.5
v 0.6 -0.4 -0.5
v 0.6 0.1 -0.5
v 0.6 1 -0.5
v -0.4 1 -0.6
v -0.4 1.1 -0.6
v 0.7 1 -0.6
v 0.7 1.1 -0.6
v -0.5 -1 -0.7
v -0.5 -0.8 -0.7
v 0.8 -1 -0.7
v 0.8 -0.8 -0.7
v -0.5 -1 0.6
v 0.8 -1 0.6
v -0.5 -1 -0.7
v 0.8 -1 -0.7
v 0.2 -0.4 -0.4
v 0.3 -0.4 -0.4
v 0.2 -0.4 -0.5
v 0.3 -0.4 -0.5
v 0.3 -0.1 -0.4
v 0.4 -0.1 -0.4
v 0.3 -0.1 -0.5
v 0.4 -0.1 -0.5
v 0.5 0 -0.3
v 0.6 0 -0.3
v 0.5 0 -0.4
v 0.6 0 -0.4
v 0.4 0.1 -0.4
v 0.6 0.1 -0.4
v 0.4 0.1 -0.5
v 0.6 0.1 -0.5
v -0.4 1 0.5
v 0.7 1 0.5
v -0.3 1 0.4
v 0.6 1 0.4
v -0.3 1 -0.5
v 0.6 1 -0.5
v -0.4 1 -0.6
v 0.7 1 -0.6
v -0.5 -0.8 0.6
v 0.8 -0.8 0.6
v -0.3 -0.8 0.4
v 0.6 -0.8 0.4
v -0.3 -0.8 -0.5
v 0.6 -0.8 -0.5
v -0.5 -0.8 -0.7
v 0.8 -0.8 -0.7
v 0.2 -0.5 -0.4
v 0.4 -0.5 -0.4
v 0.2 -0.5 -0.5
v 0.4 -0.5 -0.5
v 0.4 -0.4 -0.4
v 0.5 -0.4 -0.4
v 0.6 -0.4 -0.4
v 0.4 -0.4 -0.5
v 0.6 -0.4 -0.5
v 0.5 -0.3 -0.3
v 0.6 -0.3 -0.3
v 0.5 -0.3 -0.4
v 0.6 -0.3 -0.4
v -0.4 1.1 0.5
v 0.7 1.1 0.5
v -0.4 1.1 -0.6
v 0.7 1.1 -0.6

# faces
f 3/2/1 2/2/1 1/2/1
f 4/2/1 2/2/1 3/2/1
f 7/2/1 6/2/1 5/2/1
f 8/2/1 6/2/1 7/2/1
f 11/2/1 10/2/1 9/2/1
f 12/2/1 10/2/1 11/2/1
f 15/2/1 14/2/1 13/2/1
f 16/2/1 14/2/1 15/2/1
f 17/2/2 18/2/2 19/2/2
f 19/2/2 18/2/2 20/2/2
f 21/2/2 22/2/2 23/2/2
f 23/2/2 22/2/2 24/2/2
f 25/2/2 26/2/2 27/2/2
f 27/2/2 26/2/2 28/2/2
f 28/2/2 26/2/2 29/2/2
f 30/1/2 31/1/2 32/1/2
f 32/1/2 31/1/2 33/1/2
f 34/2/2 35/2/2 36/2/2
f 36/2/2 35/2/2 37/2/2
f 34/2/2 36/2/2 38/2/2
f 38/2/2 36/2/2 39/2/2
f 34/2/2 38/2/2 40/2/2
f 40/2/2 41/2/2 42/2/2
f 40/2/2 42/2/2 44/2/2
f 42/2/2 43/2/2 44/2/2
f 34/2/2 40/2/2 44/2/2
f 44/2/2 43/2/2 45/2/2
f 46/2/2 47/2/2 48/2/2
f 48/2/2 47/2/2 49/2/2
f 50/2/2 51/2/2 52/2/2
f 52/2/2 51/2/2 53/2/2
f 56/2/3 55/2/3 54/2/3
f 57/2/3 55/2/3 56/2/3
f 60/2/3 59/2/3 58/2/3
f 61/2/3 59/2/3 60/2/3
f 64/2/3 63/2/3 62/2/3
f 65/2/3 63/2/3 64/2/3
f 66/2/4 67/2/4 68/2/4
f 68/2/4 67/2/4 69/2/4
f 70/1/4 71/1/4 72/1/4
f 70/1/4 72/1/4 74/1/4
f 72/1/4 73/1/4 74/1/4
f 74/1/4 73/1/4 75/1/4
f 75/1/4 73/1/4 76/1/4
f 75/1/4 76/1/4 79/1/4
f 76/1/4 77/1/4 79/1/4
f 79/1/4 77/1/4 80/1/4
f 77/2/4 78/2/4 81/2/4
f 80/1/4 77/1/4 81/1/4
f 79/2/4 80/2/4 82/2/4
f 82/2/4 80/2/4 83/2/4
f 81/2/4 78/2/4 84/2/4
f 84/2/4 78/2/4 85/2/4
f 86/2/4 87/2/4 88/2/4
f 88/2/4 87/2/4 89/2/4
f 89/2/4 87/2/4 90/2/4
f 90/2/4 87/2/4 91/2/4
f 86/2/4 88/2/4 92/2/4
f 91/2/4 87/2/4 94/2/4
f 94/2/4 87/2/4 95/2/4
f 92/2/4 93/2/4 96/2/4
f 86/2/4 92/2/4 96/2/4
f 96/2/4 93/2/4 97/2/4
f 95/2/4 87/2/4 98/2/4
f 98/2/4 87/2/4 99/2/4
f 100/2/4 101/2/4 102/2/4
f 102/2/4 101/2/4 103/2/4
f 104/2/4 105/2/4 106/2/4
f 106/2/4 105/2/4 107/2/4
f 110/2/5 109/2/5 108/2/5
f 111/2/5 109/2/5 110/2/5
f 114/2/5 113/2/5 112/2/5
f 115/2/5 113/2/5 114/2/5
f 118/2/5 117/2/5 116/2/5
f 119/2/5 117/2/5 118/2/5
f 122/2/5 121/2/5 120/2/5
f 123/2/5 121/2/5 122/2/5
f 126/2/5 125/2/5 124/2/5
f 127/2/5 125/2/5 126/2/5
f 130/2/5 129/2/5 128/2/5
f 131/2/5 129/2/5 130/2/5
f 132/2/5 130/2/5 128/2/5
f 133/2/5 129/2/5 131/2/5
f 134/2/5 132/2/5 128/2/5
f 134/2/5 133/2/5 132/2/5
f 135/2/5 129/2/5 133/2/5
f 135/2/5 133/2/5 134/2/5
f 136/2/6 137/2/6 138/2/6
f 138/2/6 137/2/6 139/2/6
f 136/2/6 138/2/6 140/2/6
f 139/2/6 137/2/6 141/2/6
f 136/2/6 140/2/6 142/2/6
f 140/2/6 141/2/6 142/2/6
f 141/2/6 137/2/6 143/2/6
f 142/2/6 141/2/6 143/2/6
f 144/2/6 145/2/6 146/2/6
f 146/2/6 145/2/6 147/2/6
f 148/2/6 149/2/6 151/2/6
f 149/2/6 150/2/6 151/2/6
f 151/2/6 150/2/6 152/2/6
f 153/2/6 154/2/6 155/2/6
f 155/2/6 154/2/6 156/2/6
f 157/2/6 158/2/6 159/2/6
f 159/2/6 158/2/6 160/2/6
