# MagicaVoxel @ Ephtracy

# group
o Entorno-30

# material
mtllib Village-24-Entorno-30.mtl
usemtl palette

# normals
vn 0 0 1
vn 0 0 -1
vn 1 0 0
vn -1 0 0
vn 0 -1 0
vn 0 1 0

# texcoords
vt 0.0214844 0.5
vt 0.0644531 0.5
vt 0.0683594 0.5

# verts
v 1.1 -0.2 2
v -0.9 -0.2 2
v 1.1 0 2
v -0.9 0 2
v 1 0 1.9
v -0.8 0 1.9
v 1 0.1 1.9
v -0.8 0.1 1.9
v 0 0.1 1.5
v -0.1 0.1 1.5
v 0 0.2 1.5
v -0.1 0.2 1.5
v 0.7 0.1 1.3
v 0.6 0.1 1.3
v 0.7 0.2 1.3
v 0.6 0.2 1.3
v 0.1 0.1 0.7
v 0 0.1 0.7
v 0.1 0.2 0.7
v 0 0.2 0.7
v -0.4 0.1 0.2
v -0.5 0.1 0.2
v -0.4 0.2 0.2
v -0.5 0.2 0.2
v 0.3 0.1 0.0999999
v 0.2 0.1 0.0999999
v 0.3 0.2 0.0999999
v 0.2 0.2 0.0999999
v -0.3 0.1 -1
v -0.4 0.1 -1
v -0.3 0.2 -1
v -0.4 0.2 -1
v 0.6 0.1 -1.5
v 0.5 0.1 -1.5
v 0.6 0.2 -1.5
v 0.5 0.2 -1.5
v 0 0.1 1.4
v -0.1 0.1 1.4
v 0 0.2 1.4
v -0.1 0.2 1.4
v 0.7 0.1 1.2
v 0.6 0.1 1.2
v 0.7 0.2 1.2
v 0.6 0.2 1.2
v 0.1 0.1 0.6
v 0 0.1 0.6
v 0.1 0.2 0.6
v 0 0.2 0.6
v -0.4 0.1 0.0999999
v -0.5 0.1 0.0999999
v -0.4 0.2 0.0999999
v -0.5 0.2 0.0999999
v 0.3 0.1 -2.38419e-007
v 0.2 0.1 -2.38419e-007
v 0.3 0.2 -2.38419e-007
v 0.2 0.2 -2.38419e-007
v -0.3 0.1 -1.1
v -0.4 0.1 -1.1
v -0.3 0.2 -1.1
v -0.4 0.2 -1.1
v 0.6 0.1 -1.6
v 0.5 0.1 -1.6
v 0.6 0.2 -1.6
v 0.5 0.2 -1.6
v 1 0 -1.9
v -0.8 0 -1.9
v 1 0.1 -1.9
v -0.8 0.1 -1.9
v 1.1 -0.2 -2
v -0.9 -0.2 -2
v 1.1 0 -2
v -0.9 0 -2
v 1.1 -0.2 2
v 1.1 0 2
v 1.1 -0.2 -2
v 1.1 0 -2
v 1 0 1.9
v 1 0.1 1.9
v 1 0 -1.9
v 1 0.1 -1.9
v 0.7 0.1 1.3
v 0.7 0.2 1.3
v 0.7 0.1 1.2
v 0.7 0.2 1.2
v 0.6 0.1 -1.5
v 0.6 0.2 -1.5
v 0.6 0.1 -1.6
v 0.6 0.2 -1.6
v 0.3 0.1 0.0999999
v 0.3 0.2 0.0999999
v 0.3 0.1 -2.38419e-007
v 0.3 0.2 -2.38419e-007
v 0.1 0.1 0.7
v 0.1 0.2 0.7
v 0.1 0.1 0.6
v 0.1 0.2 0.6
v 0 0.1 1.5
v 0 0.2 1.5
v 0 0.1 1.4
v 0 0.2 1.4
v -0.3 0.1 -1
v -0.3 0.2 -1
v -0.3 0.1 -1.1
v -0.3 0.2 -1.1
v -0.4 0.1 0.2
v -0.4 0.2 0.2
v -0.4 0.1 0.0999999
v -0.4 0.2 0.0999999
v 0.6 0.1 1.3
v 0.6 0.2 1.3
v 0.6 0.1 1.2
v 0.6 0.2 1.2
v 0.5 0.1 -1.5
v 0.5 0.2 -1.5
v 0.5 0.1 -1.6
v 0.5 0.2 -1.6
v 0.2 0.1 0.0999999
v 0.2 0.2 0.0999999
v 0.2 0.1 -2.38419e-007
v 0.2 0.2 -2.38419e-007
v 0 0.1 0.7
v 0 0.2 0.7
v 0 0.1 0.6
v 0 0.2 0.6
v -0.1 0.1 1.5
v -0.1 0.2 1.5
v -0.1 0.1 1.4
v -0.1 0.2 1.4
v -0.4 0.1 -1
v -0.4 0.2 -1
v -0.4 0.1 -1.1
v -0.4 0.2 -1.1
v -0.5 0.1 0.2
v -0.5 0.2 0.2
v -0.5 0.1 0.0999999
v -0.5 0.2 0.0999999
v -0.8 0 1.9
v -0.8 0.1 1.9
v -0.8 0 -1.9
v -0.8 0.1 -1.9
v -0.9 -0.2 2
v -0.9 0 2
v -0.9 -0.2 -2
v -0.9 0 -2
v 1.1 -0.2 2
v 1.1 -0.2 -2
v -0.9 -0.2 2
v -0.9 -0.2 -2
v 1.1 0 2
v 1.1 0 -2
v 1 0 1.9
v 1 0 -1.9
v -0.8 0 1.9
v -0.8 0 -1.9
v -0.9 0 2
v -0.9 0 -2
v 1 0.1 1.9
v 1 0.1 -1.9
v 0.7 0.1 1.3
v 0.7 0.1 1.2
v 0.6 0.1 1.3
v 0.6 0.1 1.2
v 0.6 0.1 -1.5
v 0.6 0.1 -1.6
v 0.5 0.1 -1.5
v 0.5 0.1 -1.6
v 0.3 0.1 0.0999999
v 0.3 0.1 -2.38419e-007
v 0.2 0.1 0.0999999
v 0.2 0.1 -2.38419e-007
v 0.1 0.1 0.7
v 0.1 0.1 0.6
v 0 0.1 1.5
v 0 0.1 1.4
v 0 0.1 0.7
v 0 0.1 0.6
v -0.1 0.1 1.5
v -0.1 0.1 1.4
v -0.3 0.1 -1
v -0.3 0.1 -1.1
v -0.4 0.1 0.2
v -0.4 0.1 0.0999999
v -0.4 0.1 -1
v -0.4 0.1 -1.1
v -0.5 0.1 0.2
v -0.5 0.1 0.0999999
v -0.8 0.1 1.9
v -0.8 0.1 -1.9
v 0.7 0.2 1.3
v 0.7 0.2 1.2
v 0.6 0.2 1.3
v 0.6 0.2 1.2
v 0.6 0.2 -1.5
v 0.6 0.2 -1.6
v 0.5 0.2 -1.5
v 0.5 0.2 -1.6
v 0.3 0.2 0.0999999
v 0.3 0.2 -2.38419e-007
v 0.2 0.2 0.0999999
v 0.2 0.2 -2.38419e-007
v 0.1 0.2 0.7
v 0.1 0.2 0.6
v 0 0.2 1.5
v 0 0.2 1.4
v 0 0.2 0.7
v 0 0.2 0.6
v -0.1 0.2 1.5
v -0.1 0.2 1.4
v -0.3 0.2 -1
v -0.3 0.2 -1.1
v -0.4 0.2 0.2
v -0.4 0.2 0.0999999
v -0.4 0.2 -1
v -0.4 0.2 -1.1
v -0.5 0.2 0.2
v -0.5 0.2 0.0999999

# faces
f 3/1/1 2/1/1 1/1/1
f 4/1/1 2/1/1 3/1/1
f 7/2/1 6/2/1 5/2/1
f 8/2/1 6/2/1 7/2/1
f 11/3/1 10/3/1 9/3/1
f 12/3/1 10/3/1 11/3/1
f 15/3/1 14/3/1 13/3/1
f 16/3/1 14/3/1 15/3/1
f 19/3/1 18/3/1 17/3/1
f 20/3/1 18/3/1 19/3/1
f 23/3/1 22/3/1 21/3/1
f 24/3/1 22/3/1 23/3/1
f 27/3/1 26/3/1 25/3/1
f 28/3/1 26/3/1 27/3/1
f 31/3/1 30/3/1 29/3/1
f 32/3/1 30/3/1 31/3/1
f 35/3/1 34/3/1 33/3/1
f 36/3/1 34/3/1 35/3/1
f 37/3/2 38/3/2 39/3/2
f 39/3/2 38/3/2 40/3/2
f 41/3/2 42/3/2 43/3/2
f 43/3/2 42/3/2 44/3/2
f 45/3/2 46/3/2 47/3/2
f 47/3/2 46/3/2 48/3/2
f 49/3/2 50/3/2 51/3/2
f 51/3/2 50/3/2 52/3/2
f 53/3/2 54/3/2 55/3/2
f 55/3/2 54/3/2 56/3/2
f 57/3/2 58/3/2 59/3/2
f 59/3/2 58/3/2 60/3/2
f 61/3/2 62/3/2 63/3/2
f 63/3/2 62/3/2 64/3/2
f 65/2/2 66/2/2 67/2/2
f 67/2/2 66/2/2 68/2/2
f 69/1/2 70/1/2 71/1/2
f 71/1/2 70/1/2 72/1/2
f 75/1/3 74/1/3 73/1/3
f 76/1/3 74/1/3 75/1/3
f 79/2/3 78/2/3 77/2/3
f 80/2/3 78/2/3 79/2/3
f 83/3/3 82/3/3 81/3/3
f 84/3/3 82/3/3 83/3/3
f 87/3/3 86/3/3 85/3/3
f 88/3/3 86/3/3 87/3/3
f 91/3/3 90/3/3 89/3/3
f 92/3/3 90/3/3 91/3/3
f 95/3/3 94/3/3 93/3/3
f 96/3/3 94/3/3 95/3/3
f 99/3/3 98/3/3 97/3/3
f 100/3/3 98/3/3 99/3/3
f 103/3/3 102/3/3 101/3/3
f 104/3/3 102/3/3 103/3/3
f 107/3/3 106/3/3 105/3/3
f 108/3/3 106/3/3 107/3/3
f 109/3/4 110/3/4 111/3/4
f 111/3/4 110/3/4 112/3/4
f 113/3/4 114/3/4 115/3/4
f 115/3/4 114/3/4 116/3/4
f 117/3/4 118/3/4 119/3/4
f 119/3/4 118/3/4 120/3/4
f 121/3/4 122/3/4 123/3/4
f 123/3/4 122/3/4 124/3/4
f 125/3/4 126/3/4 127/3/4
f 127/3/4 126/3/4 128/3/4
f 129/3/4 130/3/4 131/3/4
f 131/3/4 130/3/4 132/3/4
f 133/3/4 134/3/4 135/3/4
f 135/3/4 134/3/4 136/3/4
f 137/2/4 138/2/4 139/2/4
f 139/2/4 138/2/4 140/2/4
f 141/1/4 142/1/4 143/1/4
f 143/1/4 142/1/4 144/1/4
f 147/1/5 146/1/5 145/1/5
f 148/1/5 146/1/5 147/1/5
f 149/1/6 150/1/6 151/1/6
f 151/1/6 150/1/6 152/1/6
f 149/1/6 151/1/6 153/1/6
f 152/1/6 150/1/6 154/1/6
f 149/1/6 153/1/6 155/1/6
f 153/1/6 154/1/6 155/1/6
f 154/1/6 150/1/6 156/1/6
f 155/1/6 154/1/6 156/1/6
f 157/2/6 158/2/6 159/2/6
f 159/2/6 158/2/6 160/2/6
f 157/2/6 159/2/6 161/2/6
f 160/2/6 158/2/6 162/2/6
f 162/2/6 158/2/6 163/2/6
f 163/2/6 158/2/6 164/2/6
f 161/2/6 162/2/6 165/2/6
f 162/2/6 163/2/6 165/2/6
f 164/2/6 158/2/6 166/2/6
f 161/2/6 165/2/6 167/2/6
f 165/2/6 166/2/6 167/2/6
f 167/2/6 166/2/6 168/2/6
f 161/2/6 167/2/6 169/2/6
f 168/2/6 166/2/6 170/2/6
f 161/2/6 169/2/6 171/2/6
f 169/2/6 170/2/6 171/2/6
f 171/2/6 170/2/6 172/2/6
f 157/2/6 161/2/6 173/2/6
f 161/2/6 171/2/6 173/2/6
f 173/2/6 171/2/6 174/2/6
f 174/2/6 171/2/6 175/2/6
f 172/2/6 170/2/6 176/2/6
f 157/2/6 173/2/6 177/2/6
f 174/2/6 175/2/6 178/2/6
f 175/2/6 176/2/6 178/2/6
f 170/2/6 166/2/6 179/2/6
f 177/2/6 178/2/6 179/2/6
f 178/2/6 176/2/6 179/2/6
f 176/2/6 170/2/6 179/2/6
f 179/2/6 166/2/6 180/2/6
f 177/2/6 179/2/6 181/2/6
f 181/2/6 179/2/6 182/2/6
f 182/2/6 179/2/6 183/2/6
f 180/2/6 166/2/6 184/2/6
f 177/2/6 181/2/6 185/2/6
f 182/2/6 183/2/6 186/2/6
f 183/2/6 184/2/6 186/2/6
f 157/2/6 177/2/6 187/2/6
f 185/2/6 186/2/6 187/2/6
f 177/2/6 185/2/6 187/2/6
f 186/2/6 184/2/6 188/2/6
f 187/2/6 186/2/6 188/2/6
f 166/2/6 158/2/6 188/2/6
f 184/2/6 166/2/6 188/2/6
f 189/3/6 190/3/6 191/3/6
f 191/3/6 190/3/6 192/3/6
f 193/3/6 194/3/6 195/3/6
f 195/3/6 194/3/6 196/3/6
f 197/3/6 198/3/6 199/3/6
f 199/3/6 198/3/6 200/3/6
f 201/3/6 202/3/6 205/3/6
f 205/3/6 202/3/6 206/3/6
f 203/3/6 204/3/6 207/3/6
f 207/3/6 204/3/6 208/3/6
f 209/3/6 210/3/6 213/3/6
f 213/3/6 210/3/6 214/3/6
f 211/3/6 212/3/6 215/3/6
f 215/3/6 212/3/6 216/3/6
