# MagicaVoxel @ Ephtracy

# group
o 

# material
mtllib Entorno-80.mtl
usemtl palette

# normals
vn -1 0 0
vn 1 0 0
vn 0 0 1
vn 0 0 -1
vn 0 -1 0
vn 0 1 0

# texcoords
vt 0.0136719 0.5
vt 0.0175781 0.5
vt 0.0214844 0.5

# verts
v -2 0 2
v -2 0 -2
v -2 0.1 2
v -2 0.1 -2
v -1.8 0.1 1.2
v -1.8 0.1 1.1
v -1.8 0.2 1.2
v -1.8 0.2 1.1
v -1.7 0.1 -0.7
v -1.7 0.1 -0.8
v -1.7 0.2 -0.7
v -1.7 0.2 -0.8
v -1.5 0.1 1.8
v -1.5 0.1 1.7
v -1.5 0.2 1.8
v -1.5 0.2 1.7
v -1 0.1 -0.7
v -1 0.1 -0.8
v -1 0.2 -0.7
v -1 0.2 -0.8
v -0.9 0.1 0.7
v -0.9 0.1 0.6
v -0.9 0.2 0.7
v -0.9 0.2 0.6
v 0.7 0.1 1.6
v 0.7 0.1 1.5
v 0.7 0.2 1.6
v 0.7 0.2 1.5
v 0.8 0.1 -1.1
v 0.8 0.1 -1.2
v 0.8 0.2 -1.1
v 0.8 0.2 -1.2
v 1.2 0.1 0.3
v 1.2 0.1 0.2
v 1.2 0.2 0.3
v 1.2 0.2 0.2
v 1.6 0.1 -1.3
v 1.6 0.1 -1.4
v 1.6 0.2 -1.3
v 1.6 0.2 -1.4
v 1.7 0.1 1.4
v 1.7 0.1 1.3
v 1.7 0.2 1.4
v 1.7 0.2 1.3
v -1.7 0.1 1.2
v -1.7 0.1 1.1
v -1.7 0.2 1.2
v -1.7 0.2 1.1
v -1.6 0.1 -0.7
v -1.6 0.1 -0.8
v -1.6 0.2 -0.7
v -1.6 0.2 -0.8
v -1.4 0.1 1.8
v -1.4 0.1 1.7
v -1.4 0.2 1.8
v -1.4 0.2 1.7
v -0.9 0.1 -0.7
v -0.9 0.1 -0.8
v -0.9 0.2 -0.7
v -0.9 0.2 -0.8
v -0.8 0.1 0.7
v -0.8 0.1 0.6
v -0.8 0.2 0.7
v -0.8 0.2 0.6
v 0.8 0.1 1.6
v 0.8 0.1 1.5
v 0.8 0.2 1.6
v 0.8 0.2 1.5
v 0.9 0.1 -1.1
v 0.9 0.1 -1.2
v 0.9 0.2 -1.1
v 0.9 0.2 -1.2
v 1.3 0.1 0.3
v 1.3 0.1 0.2
v 1.3 0.2 0.3
v 1.3 0.2 0.2
v 1.7 0.1 -1.3
v 1.7 0.1 -1.4
v 1.7 0.2 -1.3
v 1.7 0.2 -1.4
v 1.8 0.1 1.4
v 1.8 0.1 1.3
v 1.8 0.2 1.4
v 1.8 0.2 1.3
v 2 0 2
v 2 0 -2
v 2 0.1 2
v 2 0.1 -2
v -2 0 2
v -2 0.1 2
v -0.5 0 2
v -0.5 0.1 2
v 0.5 0 2
v 0.5 0.1 2
v 2 0 2
v 2 0.1 2
v -1.5 0.1 1.8
v -1.5 0.2 1.8
v -1.4 0.1 1.8
v -1.4 0.2 1.8
v 0.7 0.1 1.6
v 0.7 0.2 1.6
v 0.8 0.1 1.6
v 0.8 0.2 1.6
v 1.7 0.1 1.4
v 1.7 0.2 1.4
v 1.8 0.1 1.4
v 1.8 0.2 1.4
v -1.8 0.1 1.2
v -1.8 0.2 1.2
v -1.7 0.1 1.2
v -1.7 0.2 1.2
v -0.9 0.1 0.7
v -0.9 0.2 0.7
v -0.8 0.1 0.7
v -0.8 0.2 0.7
v 1.2 0.1 0.3
v 1.2 0.2 0.3
v 1.3 0.1 0.3
v 1.3 0.2 0.3
v -1.7 0.1 -0.7
v -1.7 0.2 -0.7
v -1.6 0.1 -0.7
v -1.6 0.2 -0.7
v -1 0.1 -0.7
v -1 0.2 -0.7
v -0.9 0.1 -0.7
v -0.9 0.2 -0.7
v 0.8 0.1 -1.1
v 0.8 0.2 -1.1
v 0.9 0.1 -1.1
v 0.9 0.2 -1.1
v 1.6 0.1 -1.3
v 1.6 0.2 -1.3
v 1.7 0.1 -1.3
v 1.7 0.2 -1.3
v -1.5 0.1 1.7
v -1.5 0.2 1.7
v -1.4 0.1 1.7
v -1.4 0.2 1.7
v 0.7 0.1 1.5
v 0.7 0.2 1.5
v 0.8 0.1 1.5
v 0.8 0.2 1.5
v 1.7 0.1 1.3
v 1.7 0.2 1.3
v 1.8 0.1 1.3
v 1.8 0.2 1.3
v -1.8 0.1 1.1
v -1.8 0.2 1.1
v -1.7 0.1 1.1
v -1.7 0.2 1.1
v -0.9 0.1 0.6
v -0.9 0.2 0.6
v -0.8 0.1 0.6
v -0.8 0.2 0.6
v 1.2 0.1 0.2
v 1.2 0.2 0.2
v 1.3 0.1 0.2
v 1.3 0.2 0.2
v -1.7 0.1 -0.8
v -1.7 0.2 -0.8
v -1.6 0.1 -0.8
v -1.6 0.2 -0.8
v -1 0.1 -0.8
v -1 0.2 -0.8
v -0.9 0.1 -0.8
v -0.9 0.2 -0.8
v 0.8 0.1 -1.2
v 0.8 0.2 -1.2
v 0.9 0.1 -1.2
v 0.9 0.2 -1.2
v 1.6 0.1 -1.4
v 1.6 0.2 -1.4
v 1.7 0.1 -1.4
v 1.7 0.2 -1.4
v -2 0 -2
v -2 0.1 -2
v -0.5 0 -2
v -0.5 0.1 -2
v 0.5 0 -2
v 0.5 0.1 -2
v 2 0 -2
v 2 0.1 -2
v -2 0 2
v -0.5 0 2
v 0.5 0 2
v 2 0 2
v -0.5 0 1.8
v -0.4 0 1.8
v 0.4 0 1.7
v 0.5 0 1.7
v -0.4 0 1.4
v -0.3 0 1.4
v -0.4 0 1.2
v -0.3 0 1.2
v 0.3 0 1.1
v 0.4 0 1.1
v -0.5 0 0.9
v -0.4 0 0.9
v 0.3 0 0.9
v 0.4 0 0.9
v 0.4 0 0.8
v 0.5 0 0.8
v -0.6 0 0.6
v -0.5 0 0.6
v 0.5 0 0.6
v 0.6 0 0.6
v -0.7 0 0.4
v -0.6 0 0.4
v 0.6 0 0.3
v 0.7 0 0.3
v 0.6 0 0.2
v 0.7 0 0.2
v 0.6 0 0.0999999
v 0.7 0 0.0999999
v -0.8 0 -0.2
v -0.7 0 -0.2
v 0.6 0 -0.4
v 0.7 0 -0.4
v 0.5 0 -1
v 0.6 0 -1
v -0.8 0 -1.2
v -0.7 0 -1.2
v 0.4 0 -1.3
v 0.5 0 -1.3
v -0.7 0 -1.6
v -0.6 0 -1.6
v 0.4 0 -1.6
v 0.5 0 -1.6
v -0.6 0 -1.8
v -0.5 0 -1.8
v -2 0 -2
v -0.5 0 -2
v 0.5 0 -2
v 2 0 -2
v -2 0.1 2
v -0.5 0.1 2
v 0.5 0.1 2
v 2 0.1 2
v -1.5 0.1 1.8
v -1.4 0.1 1.8
v -0.5 0.1 1.8
v -0.4 0.1 1.8
v -1.5 0.1 1.7
v -1.4 0.1 1.7
v 0.4 0.1 1.7
v 0.5 0.1 1.7
v 0.7 0.1 1.6
v 0.8 0.1 1.6
v 0.7 0.1 1.5
v 0.8 0.1 1.5
v -0.4 0.1 1.4
v -0.3 0.1 1.4
v 1.7 0.1 1.4
v 1.8 0.1 1.4
v 1.7 0.1 1.3
v 1.8 0.1 1.3
v -1.8 0.1 1.2
v -1.7 0.1 1.2
v -0.4 0.1 1.2
v -0.3 0.1 1.2
v -1.8 0.1 1.1
v -1.7 0.1 1.1
v 0.3 0.1 1.1
v 0.4 0.1 1.1
v -0.5 0.1 0.9
v -0.4 0.1 0.9
v 0.3 0.1 0.9
v 0.4 0.1 0.9
v 0.4 0.1 0.8
v 0.5 0.1 0.8
v -0.9 0.1 0.7
v -0.8 0.1 0.7
v -0.9 0.1 0.6
v -0.8 0.1 0.6
v -0.6 0.1 0.6
v -0.5 0.1 0.6
v 0.5 0.1 0.6
v 0.6 0.1 0.6
v -0.7 0.1 0.4
v -0.6 0.1 0.4
v 0.6 0.1 0.3
v 0.7 0.1 0.3
v 1.2 0.1 0.3
v 1.3 0.1 0.3
v 0.6 0.1 0.2
v 0.7 0.1 0.2
v 1.2 0.1 0.2
v 1.3 0.1 0.2
v 0.6 0.1 0.0999999
v 0.7 0.1 0.0999999
v -0.8 0.1 -0.2
v -0.7 0.1 -0.2
v 0.6 0.1 -0.4
v 0.7 0.1 -0.4
v -1.7 0.1 -0.7
v -1.6 0.1 -0.7
v -1 0.1 -0.7
v -0.9 0.1 -0.7
v -1.7 0.1 -0.8
v -1.6 0.1 -0.8
v -1 0.1 -0.8
v -0.9 0.1 -0.8
v 0.5 0.1 -1
v 0.6 0.1 -1
v 0.8 0.1 -1.1
v 0.9 0.1 -1.1
v -0.8 0.1 -1.2
v -0.7 0.1 -1.2
v 0.8 0.1 -1.2
v 0.9 0.1 -1.2
v 0.4 0.1 -1.3
v 0.5 0.1 -1.3
v 1.6 0.1 -1.3
v 1.7 0.1 -1.3
v 1.6 0.1 -1.4
v 1.7 0.1 -1.4
v -0.7 0.1 -1.6
v -0.6 0.1 -1.6
v 0.4 0.1 -1.6
v 0.5 0.1 -1.6
v -0.6 0.1 -1.8
v -0.5 0.1 -1.8
v -2 0.1 -2
v -0.5 0.1 -2
v 0.5 0.1 -2
v 2 0.1 -2
v -1.5 0.2 1.8
v -1.4 0.2 1.8
v -1.5 0.2 1.7
v -1.4 0.2 1.7
v 0.7 0.2 1.6
v 0.8 0.2 1.6
v 0.7 0.2 1.5
v 0.8 0.2 1.5
v 1.7 0.2 1.4
v 1.8 0.2 1.4
v 1.7 0.2 1.3
v 1.8 0.2 1.3
v -1.8 0.2 1.2
v -1.7 0.2 1.2
v -1.8 0.2 1.1
v -1.7 0.2 1.1
v -0.9 0.2 0.7
v -0.8 0.2 0.7
v -0.9 0.2 0.6
v -0.8 0.2 0.6
v 1.2 0.2 0.3
v 1.3 0.2 0.3
v 1.2 0.2 0.2
v 1.3 0.2 0.2
v -1.7 0.2 -0.7
v -1.6 0.2 -0.7
v -1 0.2 -0.7
v -0.9 0.2 -0.7
v -1.7 0.2 -0.8
v -1.6 0.2 -0.8
v -1 0.2 -0.8
v -0.9 0.2 -0.8
v 0.8 0.2 -1.1
v 0.9 0.2 -1.1
v 0.8 0.2 -1.2
v 0.9 0.2 -1.2
v 1.6 0.2 -1.3
v 1.7 0.2 -1.3
v 1.6 0.2 -1.4
v 1.7 0.2 -1.4

# faces
f 3/1/1 2/1/1 1/1/1
f 4/1/1 2/1/1 3/1/1
f 7/3/1 6/3/1 5/3/1
f 8/3/1 6/3/1 7/3/1
f 11/2/1 10/2/1 9/2/1
f 12/2/1 10/2/1 11/2/1
f 15/2/1 14/2/1 13/2/1
f 16/2/1 14/2/1 15/2/1
f 19/2/1 18/2/1 17/2/1
f 20/2/1 18/2/1 19/2/1
f 23/3/1 22/3/1 21/3/1
f 24/3/1 22/3/1 23/3/1
f 27/2/1 26/2/1 25/2/1
f 28/2/1 26/2/1 27/2/1
f 31/3/1 30/3/1 29/3/1
f 32/3/1 30/3/1 31/3/1
f 35/2/1 34/2/1 33/2/1
f 36/2/1 34/2/1 35/2/1
f 39/3/1 38/3/1 37/3/1
f 40/3/1 38/3/1 39/3/1
f 43/3/1 42/3/1 41/3/1
f 44/3/1 42/3/1 43/3/1
f 45/3/2 46/3/2 47/3/2
f 47/3/2 46/3/2 48/3/2
f 49/2/2 50/2/2 51/2/2
f 51/2/2 50/2/2 52/2/2
f 53/2/2 54/2/2 55/2/2
f 55/2/2 54/2/2 56/2/2
f 57/2/2 58/2/2 59/2/2
f 59/2/2 58/2/2 60/2/2
f 61/3/2 62/3/2 63/3/2
f 63/3/2 62/3/2 64/3/2
f 65/2/2 66/2/2 67/2/2
f 67/2/2 66/2/2 68/2/2
f 69/3/2 70/3/2 71/3/2
f 71/3/2 70/3/2 72/3/2
f 73/2/2 74/2/2 75/2/2
f 75/2/2 74/2/2 76/2/2
f 77/3/2 78/3/2 79/3/2
f 79/3/2 78/3/2 80/3/2
f 81/3/2 82/3/2 83/3/2
f 83/3/2 82/3/2 84/3/2
f 85/1/2 86/1/2 87/1/2
f 87/1/2 86/1/2 88/1/2
f 91/1/3 90/1/3 89/1/3
f 92/1/3 90/1/3 91/1/3
f 93/2/3 92/2/3 91/2/3
f 94/2/3 92/2/3 93/2/3
f 95/1/3 94/1/3 93/1/3
f 96/1/3 94/1/3 95/1/3
f 99/2/3 98/2/3 97/2/3
f 100/2/3 98/2/3 99/2/3
f 103/2/3 102/2/3 101/2/3
f 104/2/3 102/2/3 103/2/3
f 107/3/3 106/3/3 105/3/3
f 108/3/3 106/3/3 107/3/3
f 111/3/3 110/3/3 109/3/3
f 112/3/3 110/3/3 111/3/3
f 115/3/3 114/3/3 113/3/3
f 116/3/3 114/3/3 115/3/3
f 119/2/3 118/2/3 117/2/3
f 120/2/3 118/2/3 119/2/3
f 123/2/3 122/2/3 121/2/3
f 124/2/3 122/2/3 123/2/3
f 127/2/3 126/2/3 125/2/3
f 128/2/3 126/2/3 127/2/3
f 131/3/3 130/3/3 129/3/3
f 132/3/3 130/3/3 131/3/3
f 135/3/3 134/3/3 133/3/3
f 136/3/3 134/3/3 135/3/3
f 137/2/4 138/2/4 139/2/4
f 139/2/4 138/2/4 140/2/4
f 141/2/4 142/2/4 143/2/4
f 143/2/4 142/2/4 144/2/4
f 145/3/4 146/3/4 147/3/4
f 147/3/4 146/3/4 148/3/4
f 149/3/4 150/3/4 151/3/4
f 151/3/4 150/3/4 152/3/4
f 153/3/4 154/3/4 155/3/4
f 155/3/4 154/3/4 156/3/4
f 157/2/4 158/2/4 159/2/4
f 159/2/4 158/2/4 160/2/4
f 161/2/4 162/2/4 163/2/4
f 163/2/4 162/2/4 164/2/4
f 165/2/4 166/2/4 167/2/4
f 167/2/4 166/2/4 168/2/4
f 169/3/4 170/3/4 171/3/4
f 171/3/4 170/3/4 172/3/4
f 173/3/4 174/3/4 175/3/4
f 175/3/4 174/3/4 176/3/4
f 177/1/4 178/1/4 179/1/4
f 179/1/4 178/1/4 180/1/4
f 179/2/4 180/2/4 181/2/4
f 181/2/4 180/2/4 182/2/4
f 181/1/4 182/1/4 183/1/4
f 183/1/4 182/1/4 184/1/4
f 189/1/5 186/1/5 185/1/5
f 189/2/5 187/2/5 186/2/5
f 190/2/5 187/2/5 189/2/5
f 191/2/5 187/2/5 190/2/5
f 192/1/5 188/1/5 187/1/5
f 192/2/5 187/2/5 191/2/5
f 193/2/5 191/2/5 190/2/5
f 193/1/5 190/1/5 189/1/5
f 194/2/5 191/2/5 193/2/5
f 195/1/5 193/1/5 189/1/5
f 195/1/5 194/1/5 193/1/5
f 196/2/5 191/2/5 194/2/5
f 196/1/5 194/1/5 195/1/5
f 197/2/5 196/2/5 195/2/5
f 197/2/5 191/2/5 196/2/5
f 198/1/5 192/1/5 191/1/5
f 198/2/5 191/2/5 197/2/5
f 199/1/5 189/1/5 185/1/5
f 199/1/5 195/1/5 189/1/5
f 200/2/5 197/2/5 195/2/5
f 200/1/5 195/1/5 199/1/5
f 201/1/5 198/1/5 197/1/5
f 201/2/5 197/2/5 200/2/5
f 202/1/5 192/1/5 198/1/5
f 202/1/5 198/1/5 201/1/5
f 203/2/5 201/2/5 200/2/5
f 203/1/5 192/1/5 202/1/5
f 203/2/5 202/2/5 201/2/5
f 203/2/5 200/2/5 199/2/5
f 204/1/5 188/1/5 192/1/5
f 204/1/5 192/1/5 203/1/5
f 205/1/5 199/1/5 185/1/5
f 206/2/5 203/2/5 199/2/5
f 206/1/5 199/1/5 205/1/5
f 206/2/5 204/2/5 203/2/5
f 207/1/5 188/1/5 204/1/5
f 207/2/5 204/2/5 206/2/5
f 208/1/5 188/1/5 207/1/5
f 209/1/5 205/1/5 185/1/5
f 210/2/5 206/2/5 205/2/5
f 210/1/5 205/1/5 209/1/5
f 210/2/5 207/2/5 206/2/5
f 210/2/5 208/2/5 207/2/5
f 211/1/5 188/1/5 208/1/5
f 211/2/5 208/2/5 210/2/5
f 211/2/5 210/2/5 209/2/5
f 212/1/5 188/1/5 211/1/5
f 213/2/5 211/2/5 209/2/5
f 213/2/5 212/2/5 211/2/5
f 214/1/5 188/1/5 212/1/5
f 214/2/5 212/2/5 213/2/5
f 215/2/5 213/2/5 209/2/5
f 215/1/5 214/1/5 213/1/5
f 216/1/5 188/1/5 214/1/5
f 216/1/5 214/1/5 215/1/5
f 217/1/5 209/1/5 185/1/5
f 218/2/5 215/2/5 209/2/5
f 218/1/5 209/1/5 217/1/5
f 218/2/5 216/2/5 215/2/5
f 219/2/5 218/2/5 217/2/5
f 219/2/5 216/2/5 218/2/5
f 220/1/5 188/1/5 216/1/5
f 220/2/5 216/2/5 219/2/5
f 221/2/5 219/2/5 217/2/5
f 222/1/5 220/1/5 219/1/5
f 222/2/5 219/2/5 221/2/5
f 223/1/5 217/1/5 185/1/5
f 223/2/5 221/2/5 217/2/5
f 224/2/5 221/2/5 223/2/5
f 225/2/5 221/2/5 224/2/5
f 226/1/5 222/1/5 221/1/5
f 226/2/5 221/2/5 225/2/5
f 227/2/5 225/2/5 224/2/5
f 227/1/5 224/1/5 223/1/5
f 228/2/5 225/2/5 227/2/5
f 229/1/5 226/1/5 225/1/5
f 229/2/5 225/2/5 228/2/5
f 230/1/5 222/1/5 226/1/5
f 230/1/5 226/1/5 229/1/5
f 231/2/5 229/2/5 228/2/5
f 231/1/5 228/1/5 227/1/5
f 231/2/5 230/2/5 229/2/5
f 232/2/5 230/2/5 231/2/5
f 233/1/5 223/1/5 185/1/5
f 233/1/5 227/1/5 223/1/5
f 233/1/5 232/1/5 231/1/5
f 233/1/5 231/1/5 227/1/5
f 234/2/5 230/2/5 232/2/5
f 234/1/5 232/1/5 233/1/5
f 235/1/5 222/1/5 230/1/5
f 235/2/5 230/2/5 234/2/5
f 236/1/5 188/1/5 220/1/5
f 236/1/5 222/1/5 235/1/5
f 236/1/5 220/1/5 222/1/5
f 237/1/6 238/1/6 241/1/6
f 241/1/6 238/1/6 242/1/6
f 238/2/6 239/2/6 243/2/6
f 242/1/6 238/1/6 243/1/6
f 243/2/6 239/2/6 244/2/6
f 237/1/6 241/1/6 245/1/6
f 243/1/6 244/1/6 246/1/6
f 242/1/6 243/1/6 246/1/6
f 244/2/6 239/2/6 247/2/6
f 239/1/6 240/1/6 248/1/6
f 247/2/6 239/2/6 248/2/6
f 247/1/6 248/1/6 249/1/6
f 248/1/6 240/1/6 249/1/6
f 249/1/6 240/1/6 250/1/6
f 247/1/6 249/1/6 251/1/6
f 250/1/6 240/1/6 252/1/6
f 244/2/6 247/2/6 253/2/6
f 245/1/6 246/1/6 253/1/6
f 246/1/6 244/1/6 253/1/6
f 253/2/6 247/2/6 254/2/6
f 251/1/6 252/1/6 255/1/6
f 252/1/6 240/1/6 255/1/6
f 255/1/6 240/1/6 256/1/6
f 251/1/6 255/1/6 257/1/6
f 256/1/6 240/1/6 258/1/6
f 253/1/6 254/1/6 259/1/6
f 237/1/6 245/1/6 259/1/6
f 245/1/6 253/1/6 259/1/6
f 259/1/6 254/1/6 260/1/6
f 260/1/6 254/1/6 261/1/6
f 254/2/6 247/2/6 262/2/6
f 261/1/6 254/1/6 262/1/6
f 237/1/6 259/1/6 263/1/6
f 260/1/6 261/1/6 264/1/6
f 262/2/6 247/2/6 265/2/6
f 261/2/6 262/2/6 265/2/6
f 257/1/6 258/1/6 266/1/6
f 265/2/6 247/2/6 266/2/6
f 247/1/6 251/1/6 266/1/6
f 251/1/6 257/1/6 266/1/6
f 264/1/6 261/1/6 267/1/6
f 263/1/6 264/1/6 267/1/6
f 261/2/6 265/2/6 268/2/6
f 267/1/6 261/1/6 268/1/6
f 265/1/6 266/1/6 269/1/6
f 268/2/6 265/2/6 269/2/6
f 266/1/6 258/1/6 270/1/6
f 269/1/6 266/1/6 270/1/6
f 268/2/6 269/2/6 271/2/6
f 270/1/6 258/1/6 271/1/6
f 269/2/6 270/2/6 271/2/6
f 267/2/6 268/2/6 271/2/6
f 271/1/6 258/1/6 272/1/6
f 263/1/6 267/1/6 273/1/6
f 273/1/6 267/1/6 274/1/6
f 263/1/6 273/1/6 275/1/6
f 274/1/6 267/1/6 276/1/6
f 276/1/6 267/1/6 277/1/6
f 267/2/6 271/2/6 278/2/6
f 277/1/6 267/1/6 278/1/6
f 271/2/6 272/2/6 278/2/6
f 272/1/6 258/1/6 279/1/6
f 278/2/6 272/2/6 279/2/6
f 279/1/6 258/1/6 280/1/6
f 276/1/6 277/1/6 281/1/6
f 275/1/6 276/1/6 281/1/6
f 277/2/6 278/2/6 282/2/6
f 281/1/6 277/1/6 282/1/6
f 279/2/6 280/2/6 282/2/6
f 278/2/6 279/2/6 282/2/6
f 280/1/6 258/1/6 283/1/6
f 282/2/6 280/2/6 283/2/6
f 281/2/6 282/2/6 283/2/6
f 283/1/6 258/1/6 284/1/6
f 284/1/6 258/1/6 285/1/6
f 285/1/6 258/1/6 286/1/6
f 281/2/6 283/2/6 287/2/6
f 283/2/6 284/2/6 287/2/6
f 284/1/6 285/1/6 288/1/6
f 287/2/6 284/2/6 288/2/6
f 288/1/6 285/1/6 289/1/6
f 286/1/6 258/1/6 290/1/6
f 288/1/6 289/1/6 291/1/6
f 289/1/6 290/1/6 291/1/6
f 281/2/6 287/2/6 291/2/6
f 287/1/6 288/1/6 291/1/6
f 291/1/6 290/1/6 292/1/6
f 275/1/6 281/1/6 293/1/6
f 281/2/6 291/2/6 294/2/6
f 293/1/6 281/1/6 294/1/6
f 291/2/6 292/2/6 294/2/6
f 293/2/6 294/2/6 295/2/6
f 294/2/6 292/2/6 295/2/6
f 292/1/6 290/1/6 296/1/6
f 295/2/6 292/2/6 296/2/6
f 263/1/6 275/1/6 297/1/6
f 275/1/6 293/1/6 297/1/6
f 297/1/6 293/1/6 298/1/6
f 298/1/6 293/1/6 299/1/6
f 299/1/6 293/1/6 300/1/6
f 263/1/6 297/1/6 301/1/6
f 298/1/6 299/1/6 302/1/6
f 302/1/6 299/1/6 303/1/6
f 300/1/6 293/1/6 304/1/6
f 293/2/6 295/2/6 305/2/6
f 295/1/6 296/1/6 306/1/6
f 305/2/6 295/2/6 306/2/6
f 296/1/6 290/1/6 307/1/6
f 306/1/6 296/1/6 307/1/6
f 305/1/6 306/1/6 307/1/6
f 307/1/6 290/1/6 308/1/6
f 303/1/6 304/1/6 309/1/6
f 304/1/6 293/1/6 309/1/6
f 293/2/6 305/2/6 309/2/6
f 302/1/6 303/1/6 309/1/6
f 301/1/6 302/1/6 309/1/6
f 309/2/6 305/2/6 310/2/6
f 305/1/6 307/1/6 311/1/6
f 308/1/6 290/1/6 312/1/6
f 310/2/6 305/2/6 313/2/6
f 305/1/6 311/1/6 314/1/6
f 313/2/6 305/2/6 314/2/6
f 311/1/6 312/1/6 314/1/6
f 312/1/6 290/1/6 315/1/6
f 314/1/6 312/1/6 315/1/6
f 290/1/6 258/1/6 315/1/6
f 315/1/6 258/1/6 316/1/6
f 313/1/6 314/1/6 317/1/6
f 314/1/6 315/1/6 317/1/6
f 316/1/6 258/1/6 318/1/6
f 310/2/6 313/2/6 319/2/6
f 309/1/6 310/1/6 319/1/6
f 319/2/6 313/2/6 320/2/6
f 317/1/6 318/1/6 321/1/6
f 320/2/6 313/2/6 321/2/6
f 313/1/6 317/1/6 321/1/6
f 321/1/6 318/1/6 322/1/6
f 319/1/6 320/1/6 323/1/6
f 320/2/6 321/2/6 323/2/6
f 321/2/6 322/2/6 323/2/6
f 323/2/6 322/2/6 324/2/6
f 237/1/6 263/1/6 325/1/6
f 309/1/6 319/1/6 325/1/6
f 323/1/6 324/1/6 325/1/6
f 319/1/6 323/1/6 325/1/6
f 263/1/6 301/1/6 325/1/6
f 301/1/6 309/1/6 325/1/6
f 324/2/6 322/2/6 326/2/6
f 325/1/6 324/1/6 326/1/6
f 322/1/6 318/1/6 327/1/6
f 326/2/6 322/2/6 327/2/6
f 258/1/6 240/1/6 328/1/6
f 327/1/6 318/1/6 328/1/6
f 318/1/6 258/1/6 328/1/6
f 329/2/6 330/2/6 331/2/6
f 331/2/6 330/2/6 332/2/6
f 333/2/6 334/2/6 335/2/6
f 335/2/6 334/2/6 336/2/6
f 337/3/6 338/3/6 339/3/6
f 339/3/6 338/3/6 340/3/6
f 341/3/6 342/3/6 343/3/6
f 343/3/6 342/3/6 344/3/6
f 345/3/6 346/3/6 347/3/6
f 347/3/6 346/3/6 348/3/6
f 349/2/6 350/2/6 351/2/6
f 351/2/6 350/2/6 352/2/6
f 353/2/6 354/2/6 357/2/6
f 357/2/6 354/2/6 358/2/6
f 355/2/6 356/2/6 359/2/6
f 359/2/6 356/2/6 360/2/6
f 361/3/6 362/3/6 363/3/6
f 363/3/6 362/3/6 364/3/6
f 365/3/6 366/3/6 367/3/6
f 367/3/6 366/3/6 368/3/6
