# MagicaVoxel @ Ephtracy

# group
o 

# material
mtllib Entorno-28.mtl
usemtl palette

# normals
vn -1 0 0
vn 1 0 0
vn 0 0 1
vn 0 0 -1
vn 0 -1 0
vn 0 1 0

# texcoords
vt 0.0136719 0.5
vt 0.0214844 0.5
vt 0.0410156 0.5

# verts
v -2.1 0.2 -1.7
v -2.1 0.2 -2
v -2.1 0.6 -1.7
v -2.1 0.6 -2
v -2 -1.9 -1.8
v -2 -1.9 -1.9
v -2 0.2 -1.8
v -2 0.2 -1.9
v -2 0.6 -1.8
v -2 0.6 -1.9
v -2 2.1 -1.8
v -2 2.1 -1.9
v -1.6 -1.4 -1.7
v -1.6 -1.4 -1.8
v -1.6 -1.1 -1.7
v -1.6 -1.1 -1.8
v -1.6 -0.1 -1.7
v -1.6 -0.1 -1.8
v -1.6 0.2 -1.7
v -1.6 0.2 -1.8
v -1.6 1.1 2
v -1.6 1.1 -1.7
v -1.6 1.4 -1.9
v -1.6 1.4 -2
v -1.6 1.5 -1.7
v -1.6 1.5 -1.8
v -1.6 1.7 -1.9
v -1.6 1.7 -2
v -1.6 1.8 2
v -1.6 1.8 -1.7
v -1.6 1.8 -1.8
v -1.5 -1.3 0.0999999
v -1.5 -1.3 -1.7
v -1.5 -1.2 0.0999999
v -1.5 -1.2 -1.7
v -1.5 0 0.0999999
v -1.5 0 -1.7
v -1.5 0.1 0.0999999
v -1.5 0.1 -1.7
v -1.1 -0.1 -1.9
v -1.1 -0.1 -2
v -1.1 0 -1.9
v -1.1 0 -2
v -1 -0.8 -1.7
v -1 -0.8 -1.8
v -1 -0.7 -1.7
v -1 -0.7 -1.8
v -0.8 1.1 -1.7
v -0.8 1.1 -1.8
v -0.8 1.2 -1.7
v -0.8 1.2 -1.8
v -0.4 0.4 -1.7
v -0.4 0.4 -1.8
v -0.4 0.7 -1.7
v -0.4 0.7 -1.8
v 0 -1.2 -1.9
v 0 -1.2 -2
v 0 -1.1 -1.9
v 0 -1.1 -2
v 0.8 -1.5 -1.7
v 0.8 -1.5 -1.8
v 0.8 -1.4 -1.7
v 0.8 -1.4 -1.8
v 0.8 -0.1 -1.9
v 0.8 -0.1 -2
v 0.8 0.2 -1.9
v 0.8 0.2 -2
v 1.2 1.5 -1.9
v 1.2 1.5 -2
v 1.2 1.6 -1.9
v 1.2 1.6 -2
v 1.3 -1.4 -1.7
v 1.3 -1.4 -1.8
v 1.3 -1.1 -1.7
v 1.3 -1.1 -1.8
v 1.3 -0.1 -1.7
v 1.3 -0.1 -1.8
v 1.3 0.2 -1.7
v 1.3 0.2 -1.8
v 1.3 1.5 -1.7
v 1.3 1.5 -1.8
v 1.3 1.7 -1.7
v 1.3 1.8 -1.7
v 1.3 1.8 -1.8
v 1.4 -1.3 0.0999999
v 1.4 -1.3 -1.7
v 1.4 -1.2 0.0999999
v 1.4 -1.2 -1.7
v 1.4 0 0.0999999
v 1.4 0 -1.7
v 1.4 0.1 0.0999999
v 1.4 0.1 -1.7
v 1.4 1.6 1.9
v 1.4 1.6 -1.7
v 1.4 1.7 1.9
v 1.4 1.7 -1.7
v 1.5 1.1 2
v 1.5 1.1 -1.7
v 1.5 1.5 -1.7
v 1.5 1.6 1.9
v 1.5 1.6 -1.7
v 1.5 1.7 2
v 1.5 1.7 1.9
v 1.8 -1.4 -1.7
v 1.8 -1.4 -1.8
v 1.8 -1.4 -1.9
v 1.8 -1.4 -2
v 1.8 -1.1 -1.7
v 1.8 -1.1 -1.8
v 1.8 -1.1 -1.9
v 1.8 -1.1 -2
v -1.8 0.2 -1.9
v -1.8 0.2 -2
v -1.8 0.6 -1.9
v -1.8 0.6 -2
v -1.7 0.2 -1.7
v -1.7 0.2 -1.8
v -1.7 0.6 -1.7
v -1.7 0.6 -1.8
v -1.5 1.1 2
v -1.5 1.1 -1.7
v -1.5 1.5 -1.7
v -1.5 1.6 1.9
v -1.5 1.6 -1.7
v -1.5 1.7 2
v -1.5 1.7 1.9
v -1.4 -1.3 0.0999999
v -1.4 -1.3 -1.7
v -1.4 -1.2 0.0999999
v -1.4 -1.2 -1.7
v -1.4 0 0.0999999
v -1.4 0 -1.7
v -1.4 0.1 0.0999999
v -1.4 0.1 -1.7
v -1.4 1.6 1.9
v -1.4 1.6 -1.7
v -1.4 1.7 1.9
v -1.4 1.7 -1.7
v -1.3 -1.4 -1.7
v -1.3 -1.4 -1.8
v -1.3 -1.1 -1.7
v -1.3 -1.1 -1.8
v -1.3 -0.1 -1.7
v -1.3 -0.1 -1.8
v -1.3 0.2 -1.7
v -1.3 0.2 -1.8
v -1.3 1.5 -1.7
v -1.3 1.5 -1.8
v -1.3 1.7 -1.7
v -1.3 1.8 -1.7
v -1.3 1.8 -1.8
v -1 -0.1 -1.9
v -1 -0.1 -2
v -1 0 -1.9
v -1 0 -2
v -0.9 -0.8 -1.7
v -0.9 -0.8 -1.8
v -0.9 -0.7 -1.7
v -0.9 -0.7 -1.8
v -0.9 1.4 -1.9
v -0.9 1.4 -2
v -0.9 1.7 -1.9
v -0.9 1.7 -2
v -0.7 1.1 -1.7
v -0.7 1.1 -1.8
v -0.7 1.2 -1.7
v -0.7 1.2 -1.8
v 0.0999999 -1.2 -1.9
v 0.0999999 -1.2 -2
v 0.0999999 -1.1 -1.9
v 0.0999999 -1.1 -2
v 0.7 0.4 -1.7
v 0.7 0.4 -1.8
v 0.7 0.7 -1.7
v 0.7 0.7 -1.8
v 0.9 -1.5 -1.7
v 0.9 -1.5 -1.8
v 0.9 -1.4 -1.7
v 0.9 -1.4 -1.8
v 1.3 -0.1 -1.9
v 1.3 -0.1 -2
v 1.3 0.2 -1.9
v 1.3 0.2 -2
v 1.3 1.5 -1.9
v 1.3 1.5 -2
v 1.3 1.6 -1.9
v 1.3 1.6 -2
v 1.5 -1.3 0.0999999
v 1.5 -1.3 -1.7
v 1.5 -1.2 0.0999999
v 1.5 -1.2 -1.7
v 1.5 0 0.0999999
v 1.5 0 -1.7
v 1.5 0.1 0.0999999
v 1.5 0.1 -1.7
v 1.6 -1.4 -1.7
v 1.6 -1.4 -1.8
v 1.6 -1.1 -1.7
v 1.6 -1.1 -1.8
v 1.6 -0.1 -1.7
v 1.6 -0.1 -1.8
v 1.6 0.2 -1.7
v 1.6 0.2 -1.8
v 1.6 1.1 2
v 1.6 1.1 -1.7
v 1.6 1.5 -1.7
v 1.6 1.5 -1.8
v 1.6 1.8 2
v 1.6 1.8 -1.7
v 1.6 1.8 -1.8
v 2 -1.9 -1.8
v 2 -1.9 -1.9
v 2 -1.4 -1.8
v 2 -1.4 -1.9
v 2 -1.1 -1.8
v 2 -1.1 -1.9
v 2 2.1 -1.8
v 2 2.1 -1.9
v 2.1 -1.4 -1.7
v 2.1 -1.4 -2
v 2.1 -1.1 -1.7
v 2.1 -1.1 -2
v -1.6 1.1 2
v -1.6 1.8 2
v -1.5 1.1 2
v -1.5 1.7 2
v 1.5 1.1 2
v 1.5 1.7 2
v 1.6 1.1 2
v 1.6 1.8 2
v -1.5 1.6 1.9
v -1.5 1.7 1.9
v -1.4 1.6 1.9
v -1.4 1.7 1.9
v 1.4 1.6 1.9
v 1.4 1.7 1.9
v 1.5 1.6 1.9
v 1.5 1.7 1.9
v -1.5 -1.3 0.0999999
v -1.5 -1.2 0.0999999
v -1.5 0 0.0999999
v -1.5 0.1 0.0999999
v -1.4 -1.3 0.0999999
v -1.4 -1.2 0.0999999
v -1.4 0 0.0999999
v -1.4 0.1 0.0999999
v 1.4 -1.3 0.0999999
v 1.4 -1.2 0.0999999
v 1.4 0 0.0999999
v 1.4 0.1 0.0999999
v 1.5 -1.3 0.0999999
v 1.5 -1.2 0.0999999
v 1.5 0 0.0999999
v 1.5 0.1 0.0999999
v -2.1 0.2 -1.7
v -2.1 0.6 -1.7
v -1.7 0.2 -1.7
v -1.7 0.6 -1.7
v -1.6 -1.4 -1.7
v -1.6 -1.1 -1.7
v -1.6 -0.1 -1.7
v -1.6 0.2 -1.7
v -1.5 -1.3 -1.7
v -1.5 -1.2 -1.7
v -1.5 0 -1.7
v -1.5 0.1 -1.7
v -1.5 1.5 -1.7
v -1.5 1.6 -1.7
v -1.4 -1.3 -1.7
v -1.4 -1.2 -1.7
v -1.4 0 -1.7
v -1.4 0.1 -1.7
v -1.4 1.6 -1.7
v -1.4 1.7 -1.7
v -1.3 -1.4 -1.7
v -1.3 -1.1 -1.7
v -1.3 -0.1 -1.7
v -1.3 0.2 -1.7
v -1.3 1.5 -1.7
v -1.3 1.7 -1.7
v -1 -0.8 -1.7
v -1 -0.7 -1.7
v -0.9 -0.8 -1.7
v -0.9 -0.7 -1.7
v -0.8 1.1 -1.7
v -0.8 1.2 -1.7
v -0.7 1.1 -1.7
v -0.7 1.2 -1.7
v -0.4 0.4 -1.7
v -0.4 0.7 -1.7
v 0.7 0.4 -1.7
v 0.7 0.7 -1.7
v 0.8 -1.5 -1.7
v 0.8 -1.4 -1.7
v 0.9 -1.5 -1.7
v 0.9 -1.4 -1.7
v 1.3 -1.4 -1.7
v 1.3 -1.1 -1.7
v 1.3 -0.1 -1.7
v 1.3 0.2 -1.7
v 1.3 1.5 -1.7
v 1.3 1.7 -1.7
v 1.4 -1.3 -1.7
v 1.4 -1.2 -1.7
v 1.4 0 -1.7
v 1.4 0.1 -1.7
v 1.4 1.6 -1.7
v 1.4 1.7 -1.7
v 1.5 -1.3 -1.7
v 1.5 -1.2 -1.7
v 1.5 0 -1.7
v 1.5 0.1 -1.7
v 1.5 1.5 -1.7
v 1.5 1.6 -1.7
v 1.6 -1.4 -1.7
v 1.6 -1.1 -1.7
v 1.6 -0.1 -1.7
v 1.6 0.2 -1.7
v 1.8 -1.4 -1.7
v 1.8 -1.1 -1.7
v 2.1 -1.4 -1.7
v 2.1 -1.1 -1.7
v -2 -1.9 -1.8
v -2 0.2 -1.8
v -2 0.6 -1.8
v -2 2.1 -1.8
v -1.7 0.2 -1.8
v -1.7 0.6 -1.8
v -1.6 -1.4 -1.8
v -1.6 -1.1 -1.8
v -1.6 -0.1 -1.8
v -1.6 0.2 -1.8
v -1.6 1.5 -1.8
v -1.6 1.8 -1.8
v -1.3 -1.4 -1.8
v -1.3 -1.1 -1.8
v -1.3 -0.1 -1.8
v -1.3 0.2 -1.8
v -1.3 1.5 -1.8
v -1.3 1.8 -1.8
v -1 -0.8 -1.8
v -1 -0.7 -1.8
v -0.9 -0.8 -1.8
v -0.9 -0.7 -1.8
v -0.8 1.1 -1.8
v -0.8 1.2 -1.8
v -0.7 1.1 -1.8
v -0.7 1.2 -1.8
v -0.4 0.4 -1.8
v -0.4 0.7 -1.8
v 0.7 0.4 -1.8
v 0.7 0.7 -1.8
v 0.8 -1.5 -1.8
v 0.8 -1.4 -1.8
v 0.9 -1.5 -1.8
v 0.9 -1.4 -1.8
v 1.3 -1.4 -1.8
v 1.3 -1.1 -1.8
v 1.3 -0.1 -1.8
v 1.3 0.2 -1.8
v 1.3 1.5 -1.8
v 1.3 1.8 -1.8
v 1.6 -1.4 -1.8
v 1.6 -1.1 -1.8
v 1.6 -0.1 -1.8
v 1.6 0.2 -1.8
v 1.6 1.5 -1.8
v 1.6 1.8 -1.8
v 1.8 -1.4 -1.8
v 1.8 -1.1 -1.8
v 2 -1.9 -1.8
v 2 -1.4 -1.8
v 2 -1.1 -1.8
v 2 2.1 -1.8
v -1.6 1.1 -1.7
v -1.6 1.5 -1.7
v -1.5 1.1 -1.7
v -1.5 1.5 -1.7
v -1.3 1.7 -1.7
v -1.3 1.8 -1.7
v 1.3 1.7 -1.7
v 1.3 1.8 -1.7
v 1.5 1.1 -1.7
v 1.5 1.5 -1.7
v 1.6 1.1 -1.7
v 1.6 1.5 -1.7
v -2 -1.9 -1.9
v -2 0.2 -1.9
v -2 0.6 -1.9
v -2 2.1 -1.9
v -1.8 0.2 -1.9
v -1.8 0.6 -1.9
v -1.6 1.4 -1.9
v -1.6 1.7 -1.9
v -1.1 -0.1 -1.9
v -1.1 0 -1.9
v -1 -0.1 -1.9
v -1 0 -1.9
v -0.9 1.4 -1.9
v -0.9 1.7 -1.9
v 0 -1.2 -1.9
v 0 -1.1 -1.9
v 0.0999999 -1.2 -1.9
v 0.0999999 -1.1 -1.9
v 0.8 -0.1 -1.9
v 0.8 0.2 -1.9
v 1.2 1.5 -1.9
v 1.2 1.6 -1.9
v 1.3 -0.1 -1.9
v 1.3 0.2 -1.9
v 1.3 1.5 -1.9
v 1.3 1.6 -1.9
v 1.8 -1.4 -1.9
v 1.8 -1.1 -1.9
v 2 -1.9 -1.9
v 2 -1.4 -1.9
v 2 -1.1 -1.9
v 2 2.1 -1.9
v -2.1 0.2 -2
v -2.1 0.6 -2
v -1.8 0.2 -2
v -1.8 0.6 -2
v -1.6 1.4 -2
v -1.6 1.7 -2
v -1.1 -0.1 -2
v -1.1 0 -2
v -1 -0.1 -2
v -1 0 -2
v -0.9 1.4 -2
v -0.9 1.7 -2
v 0 -1.2 -2
v 0 -1.1 -2
v 0.0999999 -1.2 -2
v 0.0999999 -1.1 -2
v 0.8 -0.1 -2
v 0.8 0.2 -2
v 1.2 1.5 -2
v 1.2 1.6 -2
v 1.3 -0.1 -2
v 1.3 0.2 -2
v 1.3 1.5 -2
v 1.3 1.6 -2
v 1.8 -1.4 -2
v 1.8 -1.1 -2
v 2.1 -1.4 -2
v 2.1 -1.1 -2
v -2 -1.9 -1.8
v 2 -1.9 -1.8
v -2 -1.9 -1.9
v 2 -1.9 -1.9
v 0.8 -1.5 -1.7
v 0.9 -1.5 -1.7
v 0.8 -1.5 -1.8
v 0.9 -1.5 -1.8
v -1.6 -1.4 -1.7
v -1.3 -1.4 -1.7
v 1.3 -1.4 -1.7
v 1.6 -1.4 -1.7
v 1.8 -1.4 -1.7
v 2.1 -1.4 -1.7
v -1.6 -1.4 -1.8
v -1.3 -1.4 -1.8
v 1.3 -1.4 -1.8
v 1.6 -1.4 -1.8
v 1.8 -1.4 -1.8
v 2 -1.4 -1.8
v 1.8 -1.4 -1.9
v 2 -1.4 -1.9
v 1.8 -1.4 -2
v 2.1 -1.4 -2
v -1.5 -1.3 0.0999999
v -1.4 -1.3 0.0999999
v 1.4 -1.3 0.0999999
v 1.5 -1.3 0.0999999
v -1.5 -1.3 -1.7
v -1.4 -1.3 -1.7
v 1.4 -1.3 -1.7
v 1.5 -1.3 -1.7
v 0 -1.2 -1.9
v 0.0999999 -1.2 -1.9
v 0 -1.2 -2
v 0.0999999 -1.2 -2
v -1 -0.8 -1.7
v -0.9 -0.8 -1.7
v -1 -0.8 -1.8
v -0.9 -0.8 -1.8
v -1.6 -0.1 -1.7
v -1.3 -0.1 -1.7
v 1.3 -0.1 -1.7
v 1.6 -0.1 -1.7
v -1.6 -0.1 -1.8
v -1.3 -0.1 -1.8
v 1.3 -0.1 -1.8
v 1.6 -0.1 -1.8
v -1.1 -0.1 -1.9
v -1 -0.1 -1.9
v 0.8 -0.1 -1.9
v 1.3 -0.1 -1.9
v -1.1 -0.1 -2
v -1 -0.1 -2
v 0.8 -0.1 -2
v 1.3 -0.1 -2
v -1.5 0 0.0999999
v -1.4 0 0.0999999
v 1.4 0 0.0999999
v 1.5 0 0.0999999
v -1.5 0 -1.7
v -1.4 0 -1.7
v 1.4 0 -1.7
v 1.5 0 -1.7
v -2.1 0.2 -1.7
v -1.7 0.2 -1.7
v -2 0.2 -1.8
v -1.7 0.2 -1.8
v -2 0.2 -1.9
v -1.8 0.2 -1.9
v -2.1 0.2 -2
v -1.8 0.2 -2
v -0.4 0.4 -1.7
v 0.7 0.4 -1.7
v -0.4 0.4 -1.8
v 0.7 0.4 -1.8
v -1.6 1.1 2
v -1.5 1.1 2
v 1.5 1.1 2
v 1.6 1.1 2
v -1.6 1.1 -1.7
v -1.5 1.1 -1.7
v -0.8 1.1 -1.7
v -0.7 1.1 -1.7
v 1.5 1.1 -1.7
v 1.6 1.1 -1.7
v -0.8 1.1 -1.8
v -0.7 1.1 -1.8
v -1.6 1.4 -1.9
v -0.9 1.4 -1.9
v -1.6 1.4 -2
v -0.9 1.4 -2
v -1.6 1.5 -1.7
v -1.5 1.5 -1.7
v -1.3 1.5 -1.7
v 1.3 1.5 -1.7
v 1.5 1.5 -1.7
v 1.6 1.5 -1.7
v -1.6 1.5 -1.8
v -1.3 1.5 -1.8
v 1.3 1.5 -1.8
v 1.6 1.5 -1.8
v 1.2 1.5 -1.9
v 1.3 1.5 -1.9
v 1.2 1.5 -2
v 1.3 1.5 -2
v -1.5 1.6 1.9
v -1.4 1.6 1.9
v 1.4 1.6 1.9
v 1.5 1.6 1.9
v -1.5 1.6 -1.7
v -1.4 1.6 -1.7
v 1.4 1.6 -1.7
v 1.5 1.6 -1.7
v -1.5 1.7 2
v 1.5 1.7 2
v -1.5 1.7 1.9
v -1.4 1.7 1.9
v 1.4 1.7 1.9
v 1.5 1.7 1.9
v -1.4 1.7 -1.7
v -1.3 1.7 -1.7
v 1.3 1.7 -1.7
v 1.4 1.7 -1.7
v 0.8 -1.4 -1.7
v 0.9 -1.4 -1.7
v 0.8 -1.4 -1.8
v 0.9 -1.4 -1.8
v -1.5 -1.2 0.0999999
v -1.4 -1.2 0.0999999
v 1.4 -1.2 0.0999999
v 1.5 -1.2 0.0999999
v -1.5 -1.2 -1.7
v -1.4 -1.2 -1.7
v 1.4 -1.2 -1.7
v 1.5 -1.2 -1.7
v -1.6 -1.1 -1.7
v -1.3 -1.1 -1.7
v 1.3 -1.1 -1.7
v 1.6 -1.1 -1.7
v 1.8 -1.1 -1.7
v 2.1 -1.1 -1.7
v -1.6 -1.1 -1.8
v -1.3 -1.1 -1.8
v 1.3 -1.1 -1.8
v 1.6 -1.1 -1.8
v 1.8 -1.1 -1.8
v 2 -1.1 -1.8
v 0 -1.1 -1.9
v 0.0999999 -1.1 -1.9
v 1.8 -1.1 -1.9
v 2 -1.1 -1.9
v 0 -1.1 -2
v 0.0999999 -1.1 -2
v 1.8 -1.1 -2
v 2.1 -1.1 -2
v -1 -0.7 -1.7
v -0.9 -0.7 -1.7
v -1 -0.7 -1.8
v -0.9 -0.7 -1.8
v -1.1 0 -1.9
v -1 0 -1.9
v -1.1 0 -2
v -1 0 -2
v -1.5 0.1 0.0999999
v -1.4 0.1 0.0999999
v 1.4 0.1 0.0999999
v 1.5 0.1 0.0999999
v -1.5 0.1 -1.7
v -1.4 0.1 -1.7
v 1.4 0.1 -1.7
v 1.5 0.1 -1.7
v -1.6 0.2 -1.7
v -1.3 0.2 -1.7
v 1.3 0.2 -1.7
v 1.6 0.2 -1.7
v -1.6 0.2 -1.8
v -1.3 0.2 -1.8
v 1.3 0.2 -1.8
v 1.6 0.2 -1.8
v 0.8 0.2 -1.9
v 1.3 0.2 -1.9
v 0.8 0.2 -2
v 1.3 0.2 -2
v -2.1 0.6 -1.7
v -1.7 0.6 -1.7
v -2 0.6 -1.8
v -1.7 0.6 -1.8
v -2 0.6 -1.9
v -1.8 0.6 -1.9
v -2.1 0.6 -2
v -1.8 0.6 -2
v -0.4 0.7 -1.7
v 0.7 0.7 -1.7
v -0.4 0.7 -1.8
v 0.7 0.7 -1.8
v -0.8 1.2 -1.7
v -0.7 1.2 -1.7
v -0.8 1.2 -1.8
v -0.7 1.2 -1.8
v 1.2 1.6 -1.9
v 1.3 1.6 -1.9
v 1.2 1.6 -2
v 1.3 1.6 -2
v -1.6 1.7 -1.9
v -0.9 1.7 -1.9
v -1.6 1.7 -2
v -0.9 1.7 -2
v -1.6 1.8 2
v 1.6 1.8 2
v -1.6 1.8 -1.7
v -1.3 1.8 -1.7
v 1.3 1.8 -1.7
v 1.6 1.8 -1.7
v -1.6 1.8 -1.8
v -1.3 1.8 -1.8
v 1.3 1.8 -1.8
v 1.6 1.8 -1.8
v -2 2.1 -1.8
v 2 2.1 -1.8
v -2 2.1 -1.9
v 2 2.1 -1.9

# faces
f 3/2/1 2/2/1 1/2/1
f 4/2/1 2/2/1 3/2/1
f 7/1/1 6/1/1 5/1/1
f 8/1/1 6/1/1 7/1/1
f 11/1/1 10/1/1 9/1/1
f 12/1/1 10/1/1 11/1/1
f 15/2/1 14/2/1 13/2/1
f 16/2/1 14/2/1 15/2/1
f 19/2/1 18/2/1 17/2/1
f 20/2/1 18/2/1 19/2/1
f 25/3/1 22/3/1 21/3/1
f 27/2/1 24/2/1 23/2/1
f 28/2/1 24/2/1 27/2/1
f 29/3/1 25/3/1 21/3/1
f 30/2/1 26/2/1 25/2/1
f 30/3/1 25/3/1 29/3/1
f 31/2/1 26/2/1 30/2/1
f 34/2/1 33/2/1 32/2/1
f 35/2/1 33/2/1 34/2/1
f 38/2/1 37/2/1 36/2/1
f 39/2/1 37/2/1 38/2/1
f 42/2/1 41/2/1 40/2/1
f 43/2/1 41/2/1 42/2/1
f 46/2/1 45/2/1 44/2/1
f 47/2/1 45/2/1 46/2/1
f 50/2/1 49/2/1 48/2/1
f 51/2/1 49/2/1 50/2/1
f 54/2/1 53/2/1 52/2/1
f 55/2/1 53/2/1 54/2/1
f 58/2/1 57/2/1 56/2/1
f 59/2/1 57/2/1 58/2/1
f 62/2/1 61/2/1 60/2/1
f 63/2/1 61/2/1 62/2/1
f 66/2/1 65/2/1 64/2/1
f 67/2/1 65/2/1 66/2/1
f 70/2/1 69/2/1 68/2/1
f 71/2/1 69/2/1 70/2/1
f 74/2/1 73/2/1 72/2/1
f 75/2/1 73/2/1 74/2/1
f 78/2/1 77/2/1 76/2/1
f 79/2/1 77/2/1 78/2/1
f 82/2/1 81/2/1 80/2/1
f 83/2/1 81/2/1 82/2/1
f 84/2/1 81/2/1 83/2/1
f 87/2/1 86/2/1 85/2/1
f 88/2/1 86/2/1 87/2/1
f 91/2/1 90/2/1 89/2/1
f 92/2/1 90/2/1 91/2/1
f 95/2/1 94/2/1 93/2/1
f 96/2/1 94/2/1 95/2/1
f 99/3/1 98/3/1 97/3/1
f 100/3/1 99/3/1 97/3/1
f 101/3/1 99/3/1 100/3/1
f 102/3/1 100/3/1 97/3/1
f 103/3/1 100/3/1 102/3/1
f 108/2/1 105/2/1 104/2/1
f 109/2/1 105/2/1 108/2/1
f 110/2/1 107/2/1 106/2/1
f 111/2/1 107/2/1 110/2/1
f 112/2/2 113/2/2 114/2/2
f 114/2/2 113/2/2 115/2/2
f 116/2/2 117/2/2 118/2/2
f 118/2/2 117/2/2 119/2/2
f 120/3/2 121/3/2 122/3/2
f 120/3/2 122/3/2 123/3/2
f 123/3/2 122/3/2 124/3/2
f 120/3/2 123/3/2 125/3/2
f 125/3/2 123/3/2 126/3/2
f 127/2/2 128/2/2 129/2/2
f 129/2/2 128/2/2 130/2/2
f 131/2/2 132/2/2 133/2/2
f 133/2/2 132/2/2 134/2/2
f 135/2/2 136/2/2 137/2/2
f 137/2/2 136/2/2 138/2/2
f 139/2/2 140/2/2 141/2/2
f 141/2/2 140/2/2 142/2/2
f 143/2/2 144/2/2 145/2/2
f 145/2/2 144/2/2 146/2/2
f 147/2/2 148/2/2 149/2/2
f 149/2/2 148/2/2 150/2/2
f 150/2/2 148/2/2 151/2/2
f 152/2/2 153/2/2 154/2/2
f 154/2/2 153/2/2 155/2/2
f 156/2/2 157/2/2 158/2/2
f 158/2/2 157/2/2 159/2/2
f 160/2/2 161/2/2 162/2/2
f 162/2/2 161/2/2 163/2/2
f 164/2/2 165/2/2 166/2/2
f 166/2/2 165/2/2 167/2/2
f 168/2/2 169/2/2 170/2/2
f 170/2/2 169/2/2 171/2/2
f 172/2/2 173/2/2 174/2/2
f 174/2/2 173/2/2 175/2/2
f 176/2/2 177/2/2 178/2/2
f 178/2/2 177/2/2 179/2/2
f 180/2/2 181/2/2 182/2/2
f 182/2/2 181/2/2 183/2/2
f 184/2/2 185/2/2 186/2/2
f 186/2/2 185/2/2 187/2/2
f 188/2/2 189/2/2 190/2/2
f 190/2/2 189/2/2 191/2/2
f 192/2/2 193/2/2 194/2/2
f 194/2/2 193/2/2 195/2/2
f 196/2/2 197/2/2 198/2/2
f 198/2/2 197/2/2 199/2/2
f 200/2/2 201/2/2 202/2/2
f 202/2/2 201/2/2 203/2/2
f 204/3/2 205/3/2 206/3/2
f 204/3/2 206/3/2 208/3/2
f 206/2/2 207/2/2 209/2/2
f 208/3/2 206/3/2 209/3/2
f 209/2/2 207/2/2 210/2/2
f 211/1/2 212/1/2 213/1/2
f 213/1/2 212/1/2 214/1/2
f 215/1/2 216/1/2 217/1/2
f 217/1/2 216/1/2 218/1/2
f 219/2/2 220/2/2 221/2/2
f 221/2/2 220/2/2 222/2/2
f 225/3/3 224/3/3 223/3/3
f 226/3/3 224/3/3 225/3/3
f 228/3/3 224/3/3 226/3/3
f 229/3/3 228/3/3 227/3/3
f 230/3/3 224/3/3 228/3/3
f 230/3/3 228/3/3 229/3/3
f 233/2/3 232/2/3 231/2/3
f 234/2/3 232/2/3 233/2/3
f 237/2/3 236/2/3 235/2/3
f 238/2/3 236/2/3 237/2/3
f 243/2/3 240/2/3 239/2/3
f 244/2/3 240/2/3 243/2/3
f 245/2/3 242/2/3 241/2/3
f 246/2/3 242/2/3 245/2/3
f 251/2/3 248/2/3 247/2/3
f 252/2/3 248/2/3 251/2/3
f 253/2/3 250/2/3 249/2/3
f 254/2/3 250/2/3 253/2/3
f 257/2/3 256/2/3 255/2/3
f 258/2/3 256/2/3 257/2/3
f 263/2/3 260/2/3 259/2/3
f 264/2/3 260/2/3 263/2/3
f 265/2/3 262/2/3 261/2/3
f 266/2/3 262/2/3 265/2/3
f 269/2/3 263/2/3 259/2/3
f 270/2/3 260/2/3 264/2/3
f 271/2/3 265/2/3 261/2/3
f 272/2/3 262/2/3 266/2/3
f 273/2/3 268/2/3 267/2/3
f 275/2/3 269/2/3 259/2/3
f 275/2/3 270/2/3 269/2/3
f 276/2/3 260/2/3 270/2/3
f 276/2/3 270/2/3 275/2/3
f 277/2/3 271/2/3 261/2/3
f 277/2/3 272/2/3 271/2/3
f 278/2/3 262/2/3 272/2/3
f 278/2/3 272/2/3 277/2/3
f 279/2/3 274/2/3 273/2/3
f 279/2/3 273/2/3 267/2/3
f 280/2/3 274/2/3 279/2/3
f 283/2/3 282/2/3 281/2/3
f 284/2/3 282/2/3 283/2/3
f 287/2/3 286/2/3 285/2/3
f 288/2/3 286/2/3 287/2/3
f 291/2/3 290/2/3 289/2/3
f 292/2/3 290/2/3 291/2/3
f 295/2/3 294/2/3 293/2/3
f 296/2/3 294/2/3 295/2/3
f 303/2/3 298/2/3 297/2/3
f 304/2/3 298/2/3 303/2/3
f 305/2/3 300/2/3 299/2/3
f 306/2/3 300/2/3 305/2/3
f 307/2/3 302/2/3 301/2/3
f 308/2/3 302/2/3 307/2/3
f 309/2/3 303/2/3 297/2/3
f 310/2/3 298/2/3 304/2/3
f 311/2/3 305/2/3 299/2/3
f 312/2/3 300/2/3 306/2/3
f 313/2/3 307/2/3 301/2/3
f 314/2/3 307/2/3 313/2/3
f 315/2/3 309/2/3 297/2/3
f 315/2/3 310/2/3 309/2/3
f 316/2/3 298/2/3 310/2/3
f 316/2/3 310/2/3 315/2/3
f 317/2/3 311/2/3 299/2/3
f 317/2/3 312/2/3 311/2/3
f 318/2/3 300/2/3 312/2/3
f 318/2/3 312/2/3 317/2/3
f 321/2/3 320/2/3 319/2/3
f 322/2/3 320/2/3 321/2/3
f 327/1/3 324/1/3 323/1/3
f 328/1/3 326/1/3 325/1/3
f 329/1/3 327/1/3 323/1/3
f 329/1/3 328/1/3 327/1/3
f 330/1/3 328/1/3 329/1/3
f 331/1/3 328/1/3 330/1/3
f 332/1/3 328/1/3 331/1/3
f 333/1/3 326/1/3 328/1/3
f 333/1/3 328/1/3 332/1/3
f 334/1/3 326/1/3 333/1/3
f 335/1/3 329/1/3 323/1/3
f 336/1/3 331/1/3 330/1/3
f 337/1/3 331/1/3 336/1/3
f 338/1/3 333/1/3 332/1/3
f 339/1/3 333/1/3 338/1/3
f 340/1/3 326/1/3 334/1/3
f 341/1/3 339/1/3 338/1/3
f 341/1/3 340/1/3 339/1/3
f 341/1/3 337/1/3 336/1/3
f 341/1/3 336/1/3 335/1/3
f 341/1/3 338/1/3 337/1/3
f 342/1/3 340/1/3 341/1/3
f 343/1/3 341/1/3 335/1/3
f 344/1/3 340/1/3 342/1/3
f 345/1/3 340/1/3 344/1/3
f 345/1/3 344/1/3 343/1/3
f 346/1/3 340/1/3 345/1/3
f 347/1/3 345/1/3 343/1/3
f 348/1/3 340/1/3 346/1/3
f 349/1/3 347/1/3 343/1/3
f 349/1/3 348/1/3 347/1/3
f 350/1/3 348/1/3 349/1/3
f 351/1/3 349/1/3 343/1/3
f 352/1/3 348/1/3 350/1/3
f 353/1/3 335/1/3 323/1/3
f 353/1/3 352/1/3 351/1/3
f 353/1/3 343/1/3 335/1/3
f 353/1/3 351/1/3 343/1/3
f 354/1/3 352/1/3 353/1/3
f 355/1/3 353/1/3 323/1/3
f 356/1/3 352/1/3 354/1/3
f 357/1/3 352/1/3 356/1/3
f 357/1/3 356/1/3 355/1/3
f 358/1/3 352/1/3 357/1/3
f 359/1/3 352/1/3 358/1/3
f 360/1/3 352/1/3 359/1/3
f 361/1/3 348/1/3 352/1/3
f 361/1/3 352/1/3 360/1/3
f 361/1/3 340/1/3 348/1/3
f 362/1/3 326/1/3 340/1/3
f 362/1/3 340/1/3 361/1/3
f 363/1/3 357/1/3 355/1/3
f 364/1/3 359/1/3 358/1/3
f 365/1/3 359/1/3 364/1/3
f 366/1/3 361/1/3 360/1/3
f 367/1/3 361/1/3 366/1/3
f 368/1/3 326/1/3 362/1/3
f 369/1/3 365/1/3 364/1/3
f 369/1/3 368/1/3 367/1/3
f 369/1/3 367/1/3 366/1/3
f 369/1/3 363/1/3 355/1/3
f 369/1/3 366/1/3 365/1/3
f 369/1/3 364/1/3 363/1/3
f 370/1/3 368/1/3 369/1/3
f 371/1/3 355/1/3 323/1/3
f 371/1/3 369/1/3 355/1/3
f 372/1/3 369/1/3 371/1/3
f 373/1/3 368/1/3 370/1/3
f 374/1/3 326/1/3 368/1/3
f 374/1/3 368/1/3 373/1/3
f 375/3/4 376/3/4 377/3/4
f 377/3/4 376/3/4 378/3/4
f 379/3/4 380/3/4 381/3/4
f 381/3/4 380/3/4 382/3/4
f 383/3/4 384/3/4 385/3/4
f 385/3/4 384/3/4 386/3/4
f 387/1/4 388/1/4 391/1/4
f 389/1/4 390/1/4 392/1/4
f 392/1/4 390/1/4 393/1/4
f 391/1/4 392/1/4 393/1/4
f 393/1/4 390/1/4 394/1/4
f 387/1/4 391/1/4 395/1/4
f 391/1/4 393/1/4 395/1/4
f 395/1/4 393/1/4 396/1/4
f 387/1/4 395/1/4 397/1/4
f 396/1/4 393/1/4 398/1/4
f 398/1/4 393/1/4 399/1/4
f 397/1/4 398/1/4 399/1/4
f 394/1/4 390/1/4 400/1/4
f 397/1/4 399/1/4 401/1/4
f 399/1/4 400/1/4 401/1/4
f 387/1/4 397/1/4 401/1/4
f 401/1/4 400/1/4 402/1/4
f 387/1/4 401/1/4 403/1/4
f 402/1/4 400/1/4 404/1/4
f 404/1/4 400/1/4 405/1/4
f 403/1/4 404/1/4 405/1/4
f 405/1/4 400/1/4 406/1/4
f 406/1/4 400/1/4 407/1/4
f 407/1/4 400/1/4 408/1/4
f 403/1/4 405/1/4 409/1/4
f 406/1/4 407/1/4 410/1/4
f 410/1/4 407/1/4 411/1/4
f 408/1/4 400/1/4 412/1/4
f 387/1/4 403/1/4 413/1/4
f 411/1/4 412/1/4 413/1/4
f 410/1/4 411/1/4 413/1/4
f 403/1/4 409/1/4 413/1/4
f 409/1/4 410/1/4 413/1/4
f 413/1/4 412/1/4 414/1/4
f 387/1/4 413/1/4 415/1/4
f 415/1/4 413/1/4 416/1/4
f 414/1/4 412/1/4 417/1/4
f 400/1/4 390/1/4 418/1/4
f 417/1/4 412/1/4 418/1/4
f 412/1/4 400/1/4 418/1/4
f 419/2/4 420/2/4 421/2/4
f 421/2/4 420/2/4 422/2/4
f 425/2/4 426/2/4 427/2/4
f 427/2/4 426/2/4 428/2/4
f 423/2/4 424/2/4 429/2/4
f 429/2/4 424/2/4 430/2/4
f 431/2/4 432/2/4 433/2/4
f 433/2/4 432/2/4 434/2/4
f 435/2/4 436/2/4 439/2/4
f 439/2/4 436/2/4 440/2/4
f 437/2/4 438/2/4 441/2/4
f 441/2/4 438/2/4 442/2/4
f 443/2/4 444/2/4 445/2/4
f 445/2/4 444/2/4 446/2/4
f 449/1/5 448/1/5 447/1/5
f 450/1/5 448/1/5 449/1/5
f 453/2/5 452/2/5 451/2/5
f 454/2/5 452/2/5 453/2/5
f 461/2/5 456/2/5 455/2/5
f 462/2/5 456/2/5 461/2/5
f 463/2/5 458/2/5 457/2/5
f 464/2/5 458/2/5 463/2/5
f 465/2/5 460/2/5 459/2/5
f 466/2/5 460/2/5 465/2/5
f 468/2/5 460/2/5 466/2/5
f 469/2/5 468/2/5 467/2/5
f 470/2/5 460/2/5 468/2/5
f 470/2/5 468/2/5 469/2/5
f 475/2/5 472/2/5 471/2/5
f 476/2/5 472/2/5 475/2/5
f 477/2/5 474/2/5 473/2/5
f 478/2/5 474/2/5 477/2/5
f 481/2/5 480/2/5 479/2/5
f 482/2/5 480/2/5 481/2/5
f 485/2/5 484/2/5 483/2/5
f 486/2/5 484/2/5 485/2/5
f 491/2/5 488/2/5 487/2/5
f 492/2/5 488/2/5 491/2/5
f 493/2/5 490/2/5 489/2/5
f 494/2/5 490/2/5 493/2/5
f 499/2/5 496/2/5 495/2/5
f 500/2/5 496/2/5 499/2/5
f 501/2/5 498/2/5 497/2/5
f 502/2/5 498/2/5 501/2/5
f 507/2/5 504/2/5 503/2/5
f 508/2/5 504/2/5 507/2/5
f 509/2/5 506/2/5 505/2/5
f 510/2/5 506/2/5 509/2/5
f 513/2/5 512/2/5 511/2/5
f 514/2/5 512/2/5 513/2/5
f 515/2/5 513/2/5 511/2/5
f 517/2/5 515/2/5 511/2/5
f 517/2/5 516/2/5 515/2/5
f 518/2/5 516/2/5 517/2/5
f 521/2/5 520/2/5 519/2/5
f 522/2/5 520/2/5 521/2/5
f 527/3/5 524/3/5 523/3/5
f 528/3/5 524/3/5 527/3/5
f 531/3/5 526/3/5 525/3/5
f 532/3/5 526/3/5 531/3/5
f 533/2/5 530/2/5 529/2/5
f 534/2/5 530/2/5 533/2/5
f 537/2/5 536/2/5 535/2/5
f 538/2/5 536/2/5 537/2/5
f 545/2/5 540/2/5 539/2/5
f 545/2/5 541/2/5 540/2/5
f 546/2/5 541/2/5 545/2/5
f 547/2/5 544/2/5 543/2/5
f 547/2/5 543/2/5 542/2/5
f 548/2/5 544/2/5 547/2/5
f 551/2/5 550/2/5 549/2/5
f 552/2/5 550/2/5 551/2/5
f 557/2/5 554/2/5 553/2/5
f 558/2/5 554/2/5 557/2/5
f 559/2/5 556/2/5 555/2/5
f 560/2/5 556/2/5 559/2/5
f 563/3/5 562/3/5 561/3/5
f 564/3/5 562/3/5 563/3/5
f 565/3/5 562/3/5 564/3/5
f 566/3/5 562/3/5 565/3/5
f 567/3/5 565/3/5 564/3/5
f 568/3/5 565/3/5 567/3/5
f 569/3/5 565/3/5 568/3/5
f 570/3/5 565/3/5 569/3/5
f 571/2/6 572/2/6 573/2/6
f 573/2/6 572/2/6 574/2/6
f 575/2/6 576/2/6 579/2/6
f 579/2/6 576/2/6 580/2/6
f 577/2/6 578/2/6 581/2/6
f 581/2/6 578/2/6 582/2/6
f 583/2/6 584/2/6 589/2/6
f 589/2/6 584/2/6 590/2/6
f 585/2/6 586/2/6 591/2/6
f 591/2/6 586/2/6 592/2/6
f 587/2/6 588/2/6 593/2/6
f 593/2/6 588/2/6 594/2/6
f 594/2/6 588/2/6 598/2/6
f 595/2/6 596/2/6 599/2/6
f 599/2/6 596/2/6 600/2/6
f 597/2/6 598/2/6 601/2/6
f 598/2/6 588/2/6 602/2/6
f 601/2/6 598/2/6 602/2/6
f 603/2/6 604/2/6 605/2/6
f 605/2/6 604/2/6 606/2/6
f 607/2/6 608/2/6 609/2/6
f 609/2/6 608/2/6 610/2/6
f 611/2/6 612/2/6 615/2/6
f 615/2/6 612/2/6 616/2/6
f 613/2/6 614/2/6 617/2/6
f 617/2/6 614/2/6 618/2/6
f 619/2/6 620/2/6 623/2/6
f 623/2/6 620/2/6 624/2/6
f 621/2/6 622/2/6 625/2/6
f 625/2/6 622/2/6 626/2/6
f 627/2/6 628/2/6 629/2/6
f 629/2/6 628/2/6 630/2/6
f 631/2/6 632/2/6 633/2/6
f 633/2/6 632/2/6 634/2/6
f 631/2/6 633/2/6 635/2/6
f 631/2/6 635/2/6 637/2/6
f 635/2/6 636/2/6 637/2/6
f 637/2/6 636/2/6 638/2/6
f 639/2/6 640/2/6 641/2/6
f 641/2/6 640/2/6 642/2/6
f 643/2/6 644/2/6 645/2/6
f 645/2/6 644/2/6 646/2/6
f 647/2/6 648/2/6 649/2/6
f 649/2/6 648/2/6 650/2/6
f 651/2/6 652/2/6 653/2/6
f 653/2/6 652/2/6 654/2/6
f 655/3/6 656/3/6 657/3/6
f 657/3/6 656/3/6 658/3/6
f 658/3/6 656/3/6 659/3/6
f 659/3/6 656/3/6 660/3/6
f 657/2/6 658/2/6 661/2/6
f 661/2/6 658/2/6 662/2/6
f 659/2/6 660/2/6 663/2/6
f 663/2/6 660/2/6 664/2/6
f 665/1/6 666/1/6 667/1/6
f 667/1/6 666/1/6 668/1/6
