# MagicaVoxel @ Ephtracy

# group
o Suministros 1

# material
mtllib Entorno-21-Suministros 1.mtl
usemtl palette

# normals
vn -1 0 0
vn 1 0 0
vn 0 0 1
vn 0 0 -1
vn 0 -1 0
vn 0 1 0

# texcoords
vt 0.00195313 0.5
vt 0.0253906 0.5
vt 0.0292969 0.5
vt 0.0332031 0.5

# verts
v -0.5 -0.3 0.3
v -0.5 -0.3 0.2
v -0.5 -0.3 -0.3
v -0.5 -0.3 -0.4
v -0.5 -0.2 0.2
v -0.5 -0.2 -0.3
v -0.5 -0.1 0.2
v -0.5 -0.1 -0.3
v -0.5 0 0.2
v -0.5 0 -0.3
v -0.5 0.1 0.2
v -0.5 0.1 -0.3
v -0.5 0.2 0.2
v -0.5 0.2 -0.3
v -0.5 0.3 0.3
v -0.5 0.3 -0.4
v -0.4 -0.1 0.2
v -0.4 -0.1 -0.3
v -0.4 0 0.2
v -0.4 0 -0.3
v -0.4 0.1 0.2
v -0.4 0.1 -0.3
v -0.4 0.2 0.2
v -0.4 0.2 -0.3
v -0.4 0.3 0.2
v -0.4 0.3 -0.3
v -0.4 0.4 0.2
v -0.4 0.4 -0.3
v -0.3 0.4 -0.1
v -0.3 0.4 -0.2
v -0.3 0.5 -0.1
v -0.3 0.5 -0.2
v -0.2 0.4 0.1
v -0.2 0.4 0
v -0.2 0.5 0.1
v -0.2 0.5 0
v 0.2 0.4 -0.1
v 0.2 0.4 -0.2
v 0.2 0.5 -0.1
v 0.2 0.5 -0.2
v 0.4 -0.3 0.3
v 0.4 -0.3 0.2
v 0.4 -0.3 -0.3
v 0.4 -0.3 -0.4
v 0.4 -0.2 0.3
v 0.4 -0.2 0.2
v 0.4 -0.2 -0.3
v 0.4 -0.2 -0.4
v 0.4 -0.1 0.3
v 0.4 -0.1 0.2
v 0.4 -0.1 -0.3
v 0.4 -0.1 -0.4
v 0.4 0 0.3
v 0.4 0 0.2
v 0.4 0 -0.3
v 0.4 0 -0.4
v 0.4 0.1 0.3
v 0.4 0.1 0.2
v 0.4 0.1 -0.3
v 0.4 0.1 -0.4
v 0.4 0.2 0.3
v 0.4 0.2 0.2
v 0.4 0.2 -0.3
v 0.4 0.2 -0.4
v -0.4 -0.3 0.3
v -0.4 -0.3 0.2
v -0.4 -0.3 -0.3
v -0.4 -0.3 -0.4
v -0.4 -0.2 0.3
v -0.4 -0.2 0.2
v -0.4 -0.2 -0.3
v -0.4 -0.2 -0.4
v -0.4 -0.1 0.3
v -0.4 -0.1 0.2
v -0.4 -0.1 -0.3
v -0.4 -0.1 -0.4
v -0.4 0 0.3
v -0.4 0 0.2
v -0.4 0 -0.3
v -0.4 0 -0.4
v -0.4 0.1 0.3
v -0.4 0.1 0.2
v -0.4 0.1 -0.3
v -0.4 0.1 -0.4
v -0.4 0.2 0.3
v -0.4 0.2 0.2
v -0.4 0.2 -0.3
v -0.4 0.2 -0.4
v -0.2 0.4 -0.1
v -0.2 0.4 -0.2
v -0.2 0.5 -0.1
v -0.2 0.5 -0.2
v -0.1 0.4 0.1
v -0.1 0.4 0
v -0.1 0.5 0.1
v -0.1 0.5 0
v 0.3 0.4 -0.1
v 0.3 0.4 -0.2
v 0.3 0.5 -0.1
v 0.3 0.5 -0.2
v 0.4 -0.1 0.2
v 0.4 -0.1 -0.3
v 0.4 0 0.2
v 0.4 0 -0.3
v 0.4 0.1 0.2
v 0.4 0.1 -0.3
v 0.4 0.2 0.2
v 0.4 0.2 -0.3
v 0.4 0.3 0.2
v 0.4 0.3 -0.3
v 0.4 0.4 0.2
v 0.4 0.4 -0.3
v 0.5 -0.3 0.3
v 0.5 -0.3 0.2
v 0.5 -0.3 -0.3
v 0.5 -0.3 -0.4
v 0.5 -0.2 0.2
v 0.5 -0.2 -0.3
v 0.5 -0.1 0.2
v 0.5 -0.1 -0.3
v 0.5 0 0.2
v 0.5 0 -0.3
v 0.5 0.1 0.2
v 0.5 0.1 -0.3
v 0.5 0.2 0.2
v 0.5 0.2 -0.3
v 0.5 0.3 0.3
v 0.5 0.3 -0.4
v -0.5 -0.3 0.3
v -0.5 0.3 0.3
v -0.4 -0.3 0.3
v -0.4 -0.2 0.3
v -0.4 -0.1 0.3
v -0.4 0 0.3
v -0.4 0.1 0.3
v -0.4 0.2 0.3
v 0.4 -0.3 0.3
v 0.4 -0.2 0.3
v 0.4 -0.1 0.3
v 0.4 0 0.3
v 0.4 0.1 0.3
v 0.4 0.2 0.3
v 0.5 -0.3 0.3
v 0.5 0.3 0.3
v -0.4 -0.1 0.2
v -0.4 0 0.2
v -0.4 0.1 0.2
v -0.4 0.2 0.2
v -0.4 0.3 0.2
v -0.4 0.4 0.2
v 0.4 -0.1 0.2
v 0.4 0 0.2
v 0.4 0.1 0.2
v 0.4 0.2 0.2
v 0.4 0.3 0.2
v 0.4 0.4 0.2
v -0.2 0.4 0.1
v -0.2 0.5 0.1
v -0.1 0.4 0.1
v -0.1 0.5 0.1
v -0.3 0.4 -0.1
v -0.3 0.5 -0.1
v -0.2 0.4 -0.1
v -0.2 0.5 -0.1
v 0.2 0.4 -0.1
v 0.2 0.5 -0.1
v 0.3 0.4 -0.1
v 0.3 0.5 -0.1
v -0.5 -0.3 -0.3
v -0.5 -0.2 -0.3
v -0.5 -0.1 -0.3
v -0.5 0 -0.3
v -0.5 0.1 -0.3
v -0.5 0.2 -0.3
v -0.4 -0.3 -0.3
v -0.4 -0.2 -0.3
v -0.4 -0.1 -0.3
v -0.4 0 -0.3
v -0.4 0.1 -0.3
v -0.4 0.2 -0.3
v 0.4 -0.3 -0.3
v 0.4 -0.2 -0.3
v 0.4 -0.1 -0.3
v 0.4 0 -0.3
v 0.4 0.1 -0.3
v 0.4 0.2 -0.3
v 0.5 -0.3 -0.3
v 0.5 -0.2 -0.3
v 0.5 -0.1 -0.3
v 0.5 0 -0.3
v 0.5 0.1 -0.3
v 0.5 0.2 -0.3
v -0.5 -0.3 0.2
v -0.5 -0.2 0.2
v -0.5 -0.1 0.2
v -0.5 0 0.2
v -0.5 0.1 0.2
v -0.5 0.2 0.2
v -0.4 -0.3 0.2
v -0.4 -0.2 0.2
v -0.4 -0.1 0.2
v -0.4 0 0.2
v -0.4 0.1 0.2
v -0.4 0.2 0.2
v 0.4 -0.3 0.2
v 0.4 -0.2 0.2
v 0.4 -0.1 0.2
v 0.4 0 0.2
v 0.4 0.1 0.2
v 0.4 0.2 0.2
v 0.5 -0.3 0.2
v 0.5 -0.2 0.2
v 0.5 -0.1 0.2
v 0.5 0 0.2
v 0.5 0.1 0.2
v 0.5 0.2 0.2
v -0.2 0.4 0
v -0.2 0.5 0
v -0.1 0.4 0
v -0.1 0.5 0
v -0.3 0.4 -0.2
v -0.3 0.5 -0.2
v -0.2 0.4 -0.2
v -0.2 0.5 -0.2
v 0.2 0.4 -0.2
v 0.2 0.5 -0.2
v 0.3 0.4 -0.2
v 0.3 0.5 -0.2
v -0.4 -0.1 -0.3
v -0.4 0 -0.3
v -0.4 0.1 -0.3
v -0.4 0.2 -0.3
v -0.4 0.3 -0.3
v -0.4 0.4 -0.3
v 0.4 -0.1 -0.3
v 0.4 0 -0.3
v 0.4 0.1 -0.3
v 0.4 0.2 -0.3
v 0.4 0.3 -0.3
v 0.4 0.4 -0.3
v -0.5 -0.3 -0.4
v -0.5 0.3 -0.4
v -0.4 -0.3 -0.4
v -0.4 -0.2 -0.4
v -0.4 -0.1 -0.4
v -0.4 0 -0.4
v -0.4 0.1 -0.4
v -0.4 0.2 -0.4
v 0.4 -0.3 -0.4
v 0.4 -0.2 -0.4
v 0.4 -0.1 -0.4
v 0.4 0 -0.4
v 0.4 0.1 -0.4
v 0.4 0.2 -0.4
v 0.5 -0.3 -0.4
v 0.5 0.3 -0.4
v -0.5 -0.3 0.3
v -0.4 -0.3 0.3
v 0.4 -0.3 0.3
v 0.5 -0.3 0.3
v -0.5 -0.3 0.2
v -0.4 -0.3 0.2
v 0.4 -0.3 0.2
v 0.5 -0.3 0.2
v -0.5 -0.3 -0.3
v -0.4 -0.3 -0.3
v 0.4 -0.3 -0.3
v 0.5 -0.3 -0.3
v -0.5 -0.3 -0.4
v -0.4 -0.3 -0.4
v 0.4 -0.3 -0.4
v 0.5 -0.3 -0.4
v -0.4 -0.2 0.3
v 0.4 -0.2 0.3
v -0.5 -0.2 0.2
v -0.4 -0.2 0.2
v 0.4 -0.2 0.2
v 0.5 -0.2 0.2
v -0.5 -0.2 -0.3
v -0.4 -0.2 -0.3
v 0.4 -0.2 -0.3
v 0.5 -0.2 -0.3
v -0.4 -0.2 -0.4
v 0.4 -0.2 -0.4
v -0.4 0 0.3
v 0.4 0 0.3
v -0.5 0 0.2
v -0.4 0 0.2
v 0.4 0 0.2
v 0.5 0 0.2
v -0.5 0 -0.3
v -0.4 0 -0.3
v 0.4 0 -0.3
v 0.5 0 -0.3
v -0.4 0 -0.4
v 0.4 0 -0.4
v -0.4 0.2 0.3
v 0.4 0.2 0.3
v -0.5 0.2 0.2
v -0.4 0.2 0.2
v 0.4 0.2 0.2
v 0.5 0.2 0.2
v -0.5 0.2 -0.3
v -0.4 0.2 -0.3
v 0.4 0.2 -0.3
v 0.5 0.2 -0.3
v -0.4 0.2 -0.4
v 0.4 0.2 -0.4
v -0.4 -0.1 0.3
v 0.4 -0.1 0.3
v -0.5 -0.1 0.2
v -0.4 -0.1 0.2
v 0.4 -0.1 0.2
v 0.5 -0.1 0.2
v -0.5 -0.1 -0.3
v -0.4 -0.1 -0.3
v 0.4 -0.1 -0.3
v 0.5 -0.1 -0.3
v -0.4 -0.1 -0.4
v 0.4 -0.1 -0.4
v -0.4 0.1 0.3
v 0.4 0.1 0.3
v -0.5 0.1 0.2
v -0.4 0.1 0.2
v 0.4 0.1 0.2
v 0.5 0.1 0.2
v -0.5 0.1 -0.3
v -0.4 0.1 -0.3
v 0.4 0.1 -0.3
v 0.5 0.1 -0.3
v -0.4 0.1 -0.4
v 0.4 0.1 -0.4
v -0.5 0.3 0.3
v 0.5 0.3 0.3
v -0.4 0.3 0.2
v 0.4 0.3 0.2
v -0.4 0.3 -0.3
v 0.4 0.3 -0.3
v -0.5 0.3 -0.4
v 0.5 0.3 -0.4
v -0.4 0.4 0.2
v 0.4 0.4 0.2
v -0.2 0.4 0.1
v -0.1 0.4 0.1
v -0.2 0.4 0
v -0.1 0.4 0
v -0.3 0.4 -0.1
v -0.2 0.4 -0.1
v 0.2 0.4 -0.1
v 0.3 0.4 -0.1
v -0.3 0.4 -0.2
v -0.2 0.4 -0.2
v 0.2 0.4 -0.2
v 0.3 0.4 -0.2
v -0.4 0.4 -0.3
v 0.4 0.4 -0.3
v -0.2 0.5 0.1
v -0.1 0.5 0.1
v -0.2 0.5 0
v -0.1 0.5 0
v -0.3 0.5 -0.1
v -0.2 0.5 -0.1
v 0.2 0.5 -0.1
v 0.3 0.5 -0.1
v -0.3 0.5 -0.2
v -0.2 0.5 -0.2
v 0.2 0.5 -0.2
v 0.3 0.5 -0.2

# faces
f 5/3/1 2/3/1 1/3/1
f 6/3/1 4/3/1 3/3/1
f 7/3/1 5/3/1 1/3/1
f 7/3/1 6/3/1 5/3/1
f 8/3/1 4/3/1 6/3/1
f 8/3/1 6/3/1 7/3/1
f 9/3/1 7/3/1 1/3/1
f 10/3/1 4/3/1 8/3/1
f 11/3/1 9/3/1 1/3/1
f 11/3/1 10/3/1 9/3/1
f 12/3/1 4/3/1 10/3/1
f 12/3/1 10/3/1 11/3/1
f 13/3/1 11/3/1 1/3/1
f 14/3/1 4/3/1 12/3/1
f 15/3/1 13/3/1 1/3/1
f 15/3/1 14/3/1 13/3/1
f 16/3/1 4/3/1 14/3/1
f 16/3/1 14/3/1 15/3/1
f 19/1/1 18/1/1 17/1/1
f 20/1/1 18/1/1 19/1/1
f 23/1/1 22/1/1 21/1/1
f 24/1/1 22/1/1 23/1/1
f 27/1/1 26/1/1 25/1/1
f 28/1/1 26/1/1 27/1/1
f 31/4/1 30/4/1 29/4/1
f 32/4/1 30/4/1 31/4/1
f 35/4/1 34/4/1 33/4/1
f 36/4/1 34/4/1 35/4/1
f 39/4/1 38/4/1 37/4/1
f 40/4/1 38/4/1 39/4/1
f 45/3/1 42/3/1 41/3/1
f 46/3/1 42/3/1 45/3/1
f 47/3/1 44/3/1 43/3/1
f 48/3/1 44/3/1 47/3/1
f 53/3/1 50/3/1 49/3/1
f 54/3/1 50/3/1 53/3/1
f 55/3/1 52/3/1 51/3/1
f 56/3/1 52/3/1 55/3/1
f 61/3/1 58/3/1 57/3/1
f 62/3/1 58/3/1 61/3/1
f 63/3/1 60/3/1 59/3/1
f 64/3/1 60/3/1 63/3/1
f 65/3/2 66/3/2 69/3/2
f 69/3/2 66/3/2 70/3/2
f 67/3/2 68/3/2 71/3/2
f 71/3/2 68/3/2 72/3/2
f 73/3/2 74/3/2 77/3/2
f 77/3/2 74/3/2 78/3/2
f 75/3/2 76/3/2 79/3/2
f 79/3/2 76/3/2 80/3/2
f 81/3/2 82/3/2 85/3/2
f 85/3/2 82/3/2 86/3/2
f 83/3/2 84/3/2 87/3/2
f 87/3/2 84/3/2 88/3/2
f 89/4/2 90/4/2 91/4/2
f 91/4/2 90/4/2 92/4/2
f 93/4/2 94/4/2 95/4/2
f 95/4/2 94/4/2 96/4/2
f 97/4/2 98/4/2 99/4/2
f 99/4/2 98/4/2 100/4/2
f 101/1/2 102/1/2 103/1/2
f 103/1/2 102/1/2 104/1/2
f 105/1/2 106/1/2 107/1/2
f 107/1/2 106/1/2 108/1/2
f 109/1/2 110/1/2 111/1/2
f 111/1/2 110/1/2 112/1/2
f 113/3/2 114/3/2 117/3/2
f 115/3/2 116/3/2 118/3/2
f 113/3/2 117/3/2 119/3/2
f 117/3/2 118/3/2 119/3/2
f 118/3/2 116/3/2 120/3/2
f 119/3/2 118/3/2 120/3/2
f 113/3/2 119/3/2 121/3/2
f 120/3/2 116/3/2 122/3/2
f 113/3/2 121/3/2 123/3/2
f 121/3/2 122/3/2 123/3/2
f 122/3/2 116/3/2 124/3/2
f 123/3/2 122/3/2 124/3/2
f 113/3/2 123/3/2 125/3/2
f 124/3/2 116/3/2 126/3/2
f 113/3/2 125/3/2 127/3/2
f 125/3/2 126/3/2 127/3/2
f 126/3/2 116/3/2 128/3/2
f 127/3/2 126/3/2 128/3/2
f 131/3/3 130/3/3 129/3/3
f 132/3/3 130/3/3 131/3/3
f 133/3/3 130/3/3 132/3/3
f 134/3/3 130/3/3 133/3/3
f 135/3/3 130/3/3 134/3/3
f 136/3/3 130/3/3 135/3/3
f 138/3/3 133/3/3 132/3/3
f 139/3/3 133/3/3 138/3/3
f 140/3/3 135/3/3 134/3/3
f 141/3/3 135/3/3 140/3/3
f 142/3/3 130/3/3 136/3/3
f 143/3/3 141/3/3 140/3/3
f 143/3/3 142/3/3 141/3/3
f 143/3/3 139/3/3 138/3/3
f 143/3/3 138/3/3 137/3/3
f 143/3/3 140/3/3 139/3/3
f 144/3/3 130/3/3 142/3/3
f 144/3/3 142/3/3 143/3/3
f 151/1/3 146/1/3 145/1/3
f 152/1/3 146/1/3 151/1/3
f 153/1/3 148/1/3 147/1/3
f 154/1/3 148/1/3 153/1/3
f 155/1/3 150/1/3 149/1/3
f 156/1/3 150/1/3 155/1/3
f 159/4/3 158/4/3 157/4/3
f 160/4/3 158/4/3 159/4/3
f 163/4/3 162/4/3 161/4/3
f 164/4/3 162/4/3 163/4/3
f 167/4/3 166/4/3 165/4/3
f 168/4/3 166/4/3 167/4/3
f 175/3/3 170/3/3 169/3/3
f 176/3/3 170/3/3 175/3/3
f 177/3/3 172/3/3 171/3/3
f 178/3/3 172/3/3 177/3/3
f 179/3/3 174/3/3 173/3/3
f 180/3/3 174/3/3 179/3/3
f 187/3/3 182/3/3 181/3/3
f 188/3/3 182/3/3 187/3/3
f 189/3/3 184/3/3 183/3/3
f 190/3/3 184/3/3 189/3/3
f 191/3/3 186/3/3 185/3/3
f 192/3/3 186/3/3 191/3/3
f 193/3/4 194/3/4 199/3/4
f 199/3/4 194/3/4 200/3/4
f 195/3/4 196/3/4 201/3/4
f 201/3/4 196/3/4 202/3/4
f 197/3/4 198/3/4 203/3/4
f 203/3/4 198/3/4 204/3/4
f 205/3/4 206/3/4 211/3/4
f 211/3/4 206/3/4 212/3/4
f 207/3/4 208/3/4 213/3/4
f 213/3/4 208/3/4 214/3/4
f 209/3/4 210/3/4 215/3/4
f 215/3/4 210/3/4 216/3/4
f 217/4/4 218/4/4 219/4/4
f 219/4/4 218/4/4 220/4/4
f 221/4/4 222/4/4 223/4/4
f 223/4/4 222/4/4 224/4/4
f 225/4/4 226/4/4 227/4/4
f 227/4/4 226/4/4 228/4/4
f 229/1/4 230/1/4 235/1/4
f 235/1/4 230/1/4 236/1/4
f 231/1/4 232/1/4 237/1/4
f 237/1/4 232/1/4 238/1/4
f 233/1/4 234/1/4 239/1/4
f 239/1/4 234/1/4 240/1/4
f 241/3/4 242/3/4 243/3/4
f 243/3/4 242/3/4 244/3/4
f 244/3/4 242/3/4 245/3/4
f 245/3/4 242/3/4 246/3/4
f 246/3/4 242/3/4 247/3/4
f 247/3/4 242/3/4 248/3/4
f 244/3/4 245/3/4 250/3/4
f 250/3/4 245/3/4 251/3/4
f 246/3/4 247/3/4 252/3/4
f 252/3/4 247/3/4 253/3/4
f 248/3/4 242/3/4 254/3/4
f 252/3/4 253/3/4 255/3/4
f 253/3/4 254/3/4 255/3/4
f 250/3/4 251/3/4 255/3/4
f 249/3/4 250/3/4 255/3/4
f 251/3/4 252/3/4 255/3/4
f 254/3/4 242/3/4 256/3/4
f 255/3/4 254/3/4 256/3/4
f 261/3/5 258/3/5 257/3/5
f 262/3/5 258/3/5 261/3/5
f 263/3/5 260/3/5 259/3/5
f 264/3/5 260/3/5 263/3/5
f 269/3/5 266/3/5 265/3/5
f 270/3/5 266/3/5 269/3/5
f 271/3/5 268/3/5 267/3/5
f 272/3/5 268/3/5 271/3/5
f 276/3/5 274/3/5 273/3/5
f 277/3/5 274/3/5 276/3/5
f 279/3/5 276/3/5 275/3/5
f 279/3/5 278/3/5 277/3/5
f 279/3/5 277/3/5 276/3/5
f 280/3/5 278/3/5 279/3/5
f 281/3/5 278/3/5 280/3/5
f 282/3/5 278/3/5 281/3/5
f 283/3/5 281/3/5 280/3/5
f 284/3/5 281/3/5 283/3/5
f 288/3/5 286/3/5 285/3/5
f 289/3/5 286/3/5 288/3/5
f 291/3/5 288/3/5 287/3/5
f 292/3/5 288/3/5 291/3/5
f 293/3/5 290/3/5 289/3/5
f 294/3/5 290/3/5 293/3/5
f 295/3/5 293/3/5 292/3/5
f 296/3/5 293/3/5 295/3/5
f 300/3/5 298/3/5 297/3/5
f 301/3/5 298/3/5 300/3/5
f 303/3/5 300/3/5 299/3/5
f 304/3/5 300/3/5 303/3/5
f 305/3/5 302/3/5 301/3/5
f 306/3/5 302/3/5 305/3/5
f 307/3/5 305/3/5 304/3/5
f 308/3/5 305/3/5 307/3/5
f 309/3/6 310/3/6 312/3/6
f 312/3/6 310/3/6 313/3/6
f 311/3/6 312/3/6 315/3/6
f 315/3/6 312/3/6 316/3/6
f 313/3/6 314/3/6 317/3/6
f 317/3/6 314/3/6 318/3/6
f 316/3/6 317/3/6 319/3/6
f 319/3/6 317/3/6 320/3/6
f 321/3/6 322/3/6 324/3/6
f 324/3/6 322/3/6 325/3/6
f 323/3/6 324/3/6 327/3/6
f 327/3/6 324/3/6 328/3/6
f 325/3/6 326/3/6 329/3/6
f 329/3/6 326/3/6 330/3/6
f 328/3/6 329/3/6 331/3/6
f 331/3/6 329/3/6 332/3/6
f 333/3/6 334/3/6 335/3/6
f 335/3/6 334/3/6 336/3/6
f 333/3/6 335/3/6 337/3/6
f 336/3/6 334/3/6 338/3/6
f 333/3/6 337/3/6 339/3/6
f 337/3/6 338/3/6 339/3/6
f 338/3/6 334/3/6 340/3/6
f 339/3/6 338/3/6 340/3/6
f 341/1/6 342/1/6 343/1/6
f 343/1/6 342/1/6 344/1/6
f 341/1/6 343/1/6 345/1/6
f 344/1/6 342/1/6 346/1/6
f 341/1/6 345/1/6 347/1/6
f 345/1/6 346/1/6 347/1/6
f 347/1/6 346/1/6 348/1/6
f 346/1/6 342/1/6 349/1/6
f 348/1/6 346/1/6 349/1/6
f 349/1/6 342/1/6 350/1/6
f 341/1/6 347/1/6 351/1/6
f 348/1/6 349/1/6 352/1/6
f 352/1/6 349/1/6 353/1/6
f 350/1/6 342/1/6 354/1/6
f 352/1/6 353/1/6 355/1/6
f 353/1/6 354/1/6 355/1/6
f 341/1/6 351/1/6 355/1/6
f 351/1/6 352/1/6 355/1/6
f 354/1/6 342/1/6 356/1/6
f 355/1/6 354/1/6 356/1/6
f 357/4/6 358/4/6 359/4/6
f 359/4/6 358/4/6 360/4/6
f 361/4/6 362/4/6 365/4/6
f 365/4/6 362/4/6 366/4/6
f 363/4/6 364/4/6 367/4/6
f 367/4/6 364/4/6 368/4/6
