# MagicaVoxel @ Ephtracy

# group
o 

# material
mtllib Drawer 2.mtl
usemtl palette

# normals
vn -1 0 0
vn 1 0 0
vn 0 0 1
vn 0 0 -1
vn 0 -1 0
vn 0 1 0

# texcoords
vt 0.0214844 0.5
vt 0.0253906 0.5
vt 0.0292969 0.5

# verts
v -0.5 -0.4 0.3
v -0.5 -0.4 0.2
v -0.5 -0.4 -0.3
v -0.5 -0.4 -0.4
v -0.5 -0.3 0.2
v -0.5 -0.3 -0.3
v -0.5 -0.2 0.2
v -0.5 -0.2 -0.3
v -0.5 -0.1 0.2
v -0.5 -0.1 -0.3
v -0.5 0 0.2
v -0.5 0 -0.3
v -0.5 0.1 0.2
v -0.5 0.1 -0.3
v -0.5 0.2 0.3
v -0.5 0.2 -0.4
v -0.4 -0.2 0.2
v -0.4 -0.2 -0.3
v -0.4 -0.1 0.2
v -0.4 -0.1 -0.3
v -0.4 0 0.2
v -0.4 0 -0.3
v -0.4 0.1 0.2
v -0.4 0.1 -0.3
v -0.4 0.2 0.2
v -0.4 0.2 -0.3
v -0.4 0.3 0.2
v -0.4 0.3 -0.3
v -0.3 0.3 -0.1
v -0.3 0.3 -0.2
v -0.3 0.4 -0.1
v -0.3 0.4 -0.2
v -0.2 0.3 0.1
v -0.2 0.3 0
v -0.2 0.4 0.1
v -0.2 0.4 0
v 0.2 0.3 -0.1
v 0.2 0.3 -0.2
v 0.2 0.4 -0.1
v 0.2 0.4 -0.2
v 0.4 -0.4 0.3
v 0.4 -0.4 0.2
v 0.4 -0.4 -0.3
v 0.4 -0.4 -0.4
v 0.4 -0.3 0.3
v 0.4 -0.3 0.2
v 0.4 -0.3 -0.3
v 0.4 -0.3 -0.4
v 0.4 -0.2 0.3
v 0.4 -0.2 0.2
v 0.4 -0.2 -0.3
v 0.4 -0.2 -0.4
v 0.4 -0.1 0.3
v 0.4 -0.1 0.2
v 0.4 -0.1 -0.3
v 0.4 -0.1 -0.4
v 0.4 0 0.3
v 0.4 0 0.2
v 0.4 0 -0.3
v 0.4 0 -0.4
v 0.4 0.1 0.3
v 0.4 0.1 0.2
v 0.4 0.1 -0.3
v 0.4 0.1 -0.4
v -0.4 -0.4 0.3
v -0.4 -0.4 0.2
v -0.4 -0.4 -0.3
v -0.4 -0.4 -0.4
v -0.4 -0.3 0.3
v -0.4 -0.3 0.2
v -0.4 -0.3 -0.3
v -0.4 -0.3 -0.4
v -0.4 -0.2 0.3
v -0.4 -0.2 0.2
v -0.4 -0.2 -0.3
v -0.4 -0.2 -0.4
v -0.4 -0.1 0.3
v -0.4 -0.1 0.2
v -0.4 -0.1 -0.3
v -0.4 -0.1 -0.4
v -0.4 0 0.3
v -0.4 0 0.2
v -0.4 0 -0.3
v -0.4 0 -0.4
v -0.4 0.1 0.3
v -0.4 0.1 0.2
v -0.4 0.1 -0.3
v -0.4 0.1 -0.4
v -0.2 0.3 -0.1
v -0.2 0.3 -0.2
v -0.2 0.4 -0.1
v -0.2 0.4 -0.2
v -0.1 0.3 0.1
v -0.1 0.3 0
v -0.1 0.4 0.1
v -0.1 0.4 0
v 0.3 0.3 -0.1
v 0.3 0.3 -0.2
v 0.3 0.4 -0.1
v 0.3 0.4 -0.2
v 0.4 -0.2 0.2
v 0.4 -0.2 -0.3
v 0.4 -0.1 0.2
v 0.4 -0.1 -0.3
v 0.4 0 0.2
v 0.4 0 -0.3
v 0.4 0.1 0.2
v 0.4 0.1 -0.3
v 0.4 0.2 0.2
v 0.4 0.2 -0.3
v 0.4 0.3 0.2
v 0.4 0.3 -0.3
v 0.5 -0.4 0.3
v 0.5 -0.4 0.2
v 0.5 -0.4 -0.3
v 0.5 -0.4 -0.4
v 0.5 -0.3 0.2
v 0.5 -0.3 -0.3
v 0.5 -0.2 0.2
v 0.5 -0.2 -0.3
v 0.5 -0.1 0.2
v 0.5 -0.1 -0.3
v 0.5 0 0.2
v 0.5 0 -0.3
v 0.5 0.1 0.2
v 0.5 0.1 -0.3
v 0.5 0.2 0.3
v 0.5 0.2 -0.4
v -0.5 -0.4 0.3
v -0.5 0.2 0.3
v -0.4 -0.4 0.3
v -0.4 -0.3 0.3
v -0.4 -0.2 0.3
v -0.4 -0.1 0.3
v -0.4 0 0.3
v -0.4 0.1 0.3
v 0.4 -0.4 0.3
v 0.4 -0.3 0.3
v 0.4 -0.2 0.3
v 0.4 -0.1 0.3
v 0.4 0 0.3
v 0.4 0.1 0.3
v 0.5 -0.4 0.3
v 0.5 0.2 0.3
v -0.4 -0.2 0.2
v -0.4 -0.1 0.2
v -0.4 0 0.2
v -0.4 0.1 0.2
v -0.4 0.2 0.2
v -0.4 0.3 0.2
v 0.4 -0.2 0.2
v 0.4 -0.1 0.2
v 0.4 0 0.2
v 0.4 0.1 0.2
v 0.4 0.2 0.2
v 0.4 0.3 0.2
v -0.2 0.3 0.1
v -0.2 0.4 0.1
v -0.1 0.3 0.1
v -0.1 0.4 0.1
v -0.3 0.3 -0.1
v -0.3 0.4 -0.1
v -0.2 0.3 -0.1
v -0.2 0.4 -0.1
v 0.2 0.3 -0.1
v 0.2 0.4 -0.1
v 0.3 0.3 -0.1
v 0.3 0.4 -0.1
v -0.5 -0.4 -0.3
v -0.5 -0.3 -0.3
v -0.5 -0.2 -0.3
v -0.5 -0.1 -0.3
v -0.5 0 -0.3
v -0.5 0.1 -0.3
v -0.4 -0.4 -0.3
v -0.4 -0.3 -0.3
v -0.4 -0.2 -0.3
v -0.4 -0.1 -0.3
v -0.4 0 -0.3
v -0.4 0.1 -0.3
v 0.4 -0.4 -0.3
v 0.4 -0.3 -0.3
v 0.4 -0.2 -0.3
v 0.4 -0.1 -0.3
v 0.4 0 -0.3
v 0.4 0.1 -0.3
v 0.5 -0.4 -0.3
v 0.5 -0.3 -0.3
v 0.5 -0.2 -0.3
v 0.5 -0.1 -0.3
v 0.5 0 -0.3
v 0.5 0.1 -0.3
v -0.5 -0.4 0.2
v -0.5 -0.3 0.2
v -0.5 -0.2 0.2
v -0.5 -0.1 0.2
v -0.5 0 0.2
v -0.5 0.1 0.2
v -0.4 -0.4 0.2
v -0.4 -0.3 0.2
v -0.4 -0.2 0.2
v -0.4 -0.1 0.2
v -0.4 0 0.2
v -0.4 0.1 0.2
v 0.4 -0.4 0.2
v 0.4 -0.3 0.2
v 0.4 -0.2 0.2
v 0.4 -0.1 0.2
v 0.4 0 0.2
v 0.4 0.1 0.2
v 0.5 -0.4 0.2
v 0.5 -0.3 0.2
v 0.5 -0.2 0.2
v 0.5 -0.1 0.2
v 0.5 0 0.2
v 0.5 0.1 0.2
v -0.2 0.3 0
v -0.2 0.4 0
v -0.1 0.3 0
v -0.1 0.4 0
v -0.3 0.3 -0.2
v -0.3 0.4 -0.2
v -0.2 0.3 -0.2
v -0.2 0.4 -0.2
v 0.2 0.3 -0.2
v 0.2 0.4 -0.2
v 0.3 0.3 -0.2
v 0.3 0.4 -0.2
v -0.4 -0.2 -0.3
v -0.4 -0.1 -0.3
v -0.4 0 -0.3
v -0.4 0.1 -0.3
v -0.4 0.2 -0.3
v -0.4 0.3 -0.3
v 0.4 -0.2 -0.3
v 0.4 -0.1 -0.3
v 0.4 0 -0.3
v 0.4 0.1 -0.3
v 0.4 0.2 -0.3
v 0.4 0.3 -0.3
v -0.5 -0.4 -0.4
v -0.5 0.2 -0.4
v -0.4 -0.4 -0.4
v -0.4 -0.3 -0.4
v -0.4 -0.2 -0.4
v -0.4 -0.1 -0.4
v -0.4 0 -0.4
v -0.4 0.1 -0.4
v 0.4 -0.4 -0.4
v 0.4 -0.3 -0.4
v 0.4 -0.2 -0.4
v 0.4 -0.1 -0.4
v 0.4 0 -0.4
v 0.4 0.1 -0.4
v 0.5 -0.4 -0.4
v 0.5 0.2 -0.4
v -0.5 -0.4 0.3
v -0.4 -0.4 0.3
v 0.4 -0.4 0.3
v 0.5 -0.4 0.3
v -0.5 -0.4 0.2
v -0.4 -0.4 0.2
v 0.4 -0.4 0.2
v 0.5 -0.4 0.2
v -0.5 -0.4 -0.3
v -0.4 -0.4 -0.3
v 0.4 -0.4 -0.3
v 0.5 -0.4 -0.3
v -0.5 -0.4 -0.4
v -0.4 -0.4 -0.4
v 0.4 -0.4 -0.4
v 0.5 -0.4 -0.4
v -0.4 -0.3 0.3
v 0.4 -0.3 0.3
v -0.5 -0.3 0.2
v -0.4 -0.3 0.2
v 0.4 -0.3 0.2
v 0.5 -0.3 0.2
v -0.5 -0.3 -0.3
v -0.4 -0.3 -0.3
v 0.4 -0.3 -0.3
v 0.5 -0.3 -0.3
v -0.4 -0.3 -0.4
v 0.4 -0.3 -0.4
v -0.4 -0.1 0.3
v 0.4 -0.1 0.3
v -0.5 -0.1 0.2
v -0.4 -0.1 0.2
v 0.4 -0.1 0.2
v 0.5 -0.1 0.2
v -0.5 -0.1 -0.3
v -0.4 -0.1 -0.3
v 0.4 -0.1 -0.3
v 0.5 -0.1 -0.3
v -0.4 -0.1 -0.4
v 0.4 -0.1 -0.4
v -0.4 0.1 0.3
v 0.4 0.1 0.3
v -0.5 0.1 0.2
v -0.4 0.1 0.2
v 0.4 0.1 0.2
v 0.5 0.1 0.2
v -0.5 0.1 -0.3
v -0.4 0.1 -0.3
v 0.4 0.1 -0.3
v 0.5 0.1 -0.3
v -0.4 0.1 -0.4
v 0.4 0.1 -0.4
v -0.4 -0.2 0.3
v 0.4 -0.2 0.3
v -0.5 -0.2 0.2
v -0.4 -0.2 0.2
v 0.4 -0.2 0.2
v 0.5 -0.2 0.2
v -0.5 -0.2 -0.3
v -0.4 -0.2 -0.3
v 0.4 -0.2 -0.3
v 0.5 -0.2 -0.3
v -0.4 -0.2 -0.4
v 0.4 -0.2 -0.4
v -0.4 0 0.3
v 0.4 0 0.3
v -0.5 0 0.2
v -0.4 0 0.2
v 0.4 0 0.2
v 0.5 0 0.2
v -0.5 0 -0.3
v -0.4 0 -0.3
v 0.4 0 -0.3
v 0.5 0 -0.3
v -0.4 0 -0.4
v 0.4 0 -0.4
v -0.5 0.2 0.3
v 0.5 0.2 0.3
v -0.4 0.2 0.2
v 0.4 0.2 0.2
v -0.4 0.2 -0.3
v 0.4 0.2 -0.3
v -0.5 0.2 -0.4
v 0.5 0.2 -0.4
v -0.4 0.3 0.2
v 0.4 0.3 0.2
v -0.2 0.3 0.1
v -0.1 0.3 0.1
v -0.2 0.3 0
v -0.1 0.3 0
v -0.3 0.3 -0.1
v -0.2 0.3 -0.1
v 0.2 0.3 -0.1
v 0.3 0.3 -0.1
v -0.3 0.3 -0.2
v -0.2 0.3 -0.2
v 0.2 0.3 -0.2
v 0.3 0.3 -0.2
v -0.4 0.3 -0.3
v 0.4 0.3 -0.3
v -0.2 0.4 0.1
v -0.1 0.4 0.1
v -0.2 0.4 0
v -0.1 0.4 0
v -0.3 0.4 -0.1
v -0.2 0.4 -0.1
v 0.2 0.4 -0.1
v 0.3 0.4 -0.1
v -0.3 0.4 -0.2
v -0.2 0.4 -0.2
v 0.2 0.4 -0.2
v 0.3 0.4 -0.2

# faces
f 5/3/1 2/3/1 1/3/1
f 6/3/1 4/3/1 3/3/1
f 7/3/1 5/3/1 1/3/1
f 7/3/1 6/3/1 5/3/1
f 8/3/1 4/3/1 6/3/1
f 8/3/1 6/3/1 7/3/1
f 9/3/1 7/3/1 1/3/1
f 10/3/1 4/3/1 8/3/1
f 11/3/1 9/3/1 1/3/1
f 11/3/1 10/3/1 9/3/1
f 12/3/1 4/3/1 10/3/1
f 12/3/1 10/3/1 11/3/1
f 13/3/1 11/3/1 1/3/1
f 14/3/1 4/3/1 12/3/1
f 15/3/1 13/3/1 1/3/1
f 15/3/1 14/3/1 13/3/1
f 16/3/1 4/3/1 14/3/1
f 16/3/1 14/3/1 15/3/1
f 19/2/1 18/2/1 17/2/1
f 20/2/1 18/2/1 19/2/1
f 23/2/1 22/2/1 21/2/1
f 24/2/1 22/2/1 23/2/1
f 27/2/1 26/2/1 25/2/1
f 28/2/1 26/2/1 27/2/1
f 31/1/1 30/1/1 29/1/1
f 32/1/1 30/1/1 31/1/1
f 35/1/1 34/1/1 33/1/1
f 36/1/1 34/1/1 35/1/1
f 39/1/1 38/1/1 37/1/1
f 40/1/1 38/1/1 39/1/1
f 45/3/1 42/3/1 41/3/1
f 46/3/1 42/3/1 45/3/1
f 47/3/1 44/3/1 43/3/1
f 48/3/1 44/3/1 47/3/1
f 53/3/1 50/3/1 49/3/1
f 54/3/1 50/3/1 53/3/1
f 55/3/1 52/3/1 51/3/1
f 56/3/1 52/3/1 55/3/1
f 61/3/1 58/3/1 57/3/1
f 62/3/1 58/3/1 61/3/1
f 63/3/1 60/3/1 59/3/1
f 64/3/1 60/3/1 63/3/1
f 65/3/2 66/3/2 69/3/2
f 69/3/2 66/3/2 70/3/2
f 67/3/2 68/3/2 71/3/2
f 71/3/2 68/3/2 72/3/2
f 73/3/2 74/3/2 77/3/2
f 77/3/2 74/3/2 78/3/2
f 75/3/2 76/3/2 79/3/2
f 79/3/2 76/3/2 80/3/2
f 81/3/2 82/3/2 85/3/2
f 85/3/2 82/3/2 86/3/2
f 83/3/2 84/3/2 87/3/2
f 87/3/2 84/3/2 88/3/2
f 89/1/2 90/1/2 91/1/2
f 91/1/2 90/1/2 92/1/2
f 93/1/2 94/1/2 95/1/2
f 95/1/2 94/1/2 96/1/2
f 97/1/2 98/1/2 99/1/2
f 99/1/2 98/1/2 100/1/2
f 101/2/2 102/2/2 103/2/2
f 103/2/2 102/2/2 104/2/2
f 105/2/2 106/2/2 107/2/2
f 107/2/2 106/2/2 108/2/2
f 109/2/2 110/2/2 111/2/2
f 111/2/2 110/2/2 112/2/2
f 113/3/2 114/3/2 117/3/2
f 115/3/2 116/3/2 118/3/2
f 113/3/2 117/3/2 119/3/2
f 117/3/2 118/3/2 119/3/2
f 118/3/2 116/3/2 120/3/2
f 119/3/2 118/3/2 120/3/2
f 113/3/2 119/3/2 121/3/2
f 120/3/2 116/3/2 122/3/2
f 113/3/2 121/3/2 123/3/2
f 121/3/2 122/3/2 123/3/2
f 122/3/2 116/3/2 124/3/2
f 123/3/2 122/3/2 124/3/2
f 113/3/2 123/3/2 125/3/2
f 124/3/2 116/3/2 126/3/2
f 113/3/2 125/3/2 127/3/2
f 125/3/2 126/3/2 127/3/2
f 126/3/2 116/3/2 128/3/2
f 127/3/2 126/3/2 128/3/2
f 131/3/3 130/3/3 129/3/3
f 132/3/3 130/3/3 131/3/3
f 133/3/3 130/3/3 132/3/3
f 134/3/3 130/3/3 133/3/3
f 135/3/3 130/3/3 134/3/3
f 136/3/3 130/3/3 135/3/3
f 138/3/3 133/3/3 132/3/3
f 139/3/3 133/3/3 138/3/3
f 140/3/3 135/3/3 134/3/3
f 141/3/3 135/3/3 140/3/3
f 142/3/3 130/3/3 136/3/3
f 143/3/3 141/3/3 140/3/3
f 143/3/3 142/3/3 141/3/3
f 143/3/3 139/3/3 138/3/3
f 143/3/3 138/3/3 137/3/3
f 143/3/3 140/3/3 139/3/3
f 144/3/3 130/3/3 142/3/3
f 144/3/3 142/3/3 143/3/3
f 151/2/3 146/2/3 145/2/3
f 152/2/3 146/2/3 151/2/3
f 153/2/3 148/2/3 147/2/3
f 154/2/3 148/2/3 153/2/3
f 155/2/3 150/2/3 149/2/3
f 156/2/3 150/2/3 155/2/3
f 159/1/3 158/1/3 157/1/3
f 160/1/3 158/1/3 159/1/3
f 163/1/3 162/1/3 161/1/3
f 164/1/3 162/1/3 163/1/3
f 167/1/3 166/1/3 165/1/3
f 168/1/3 166/1/3 167/1/3
f 175/3/3 170/3/3 169/3/3
f 176/3/3 170/3/3 175/3/3
f 177/3/3 172/3/3 171/3/3
f 178/3/3 172/3/3 177/3/3
f 179/3/3 174/3/3 173/3/3
f 180/3/3 174/3/3 179/3/3
f 187/3/3 182/3/3 181/3/3
f 188/3/3 182/3/3 187/3/3
f 189/3/3 184/3/3 183/3/3
f 190/3/3 184/3/3 189/3/3
f 191/3/3 186/3/3 185/3/3
f 192/3/3 186/3/3 191/3/3
f 193/3/4 194/3/4 199/3/4
f 199/3/4 194/3/4 200/3/4
f 195/3/4 196/3/4 201/3/4
f 201/3/4 196/3/4 202/3/4
f 197/3/4 198/3/4 203/3/4
f 203/3/4 198/3/4 204/3/4
f 205/3/4 206/3/4 211/3/4
f 211/3/4 206/3/4 212/3/4
f 207/3/4 208/3/4 213/3/4
f 213/3/4 208/3/4 214/3/4
f 209/3/4 210/3/4 215/3/4
f 215/3/4 210/3/4 216/3/4
f 217/1/4 218/1/4 219/1/4
f 219/1/4 218/1/4 220/1/4
f 221/1/4 222/1/4 223/1/4
f 223/1/4 222/1/4 224/1/4
f 225/1/4 226/1/4 227/1/4
f 227/1/4 226/1/4 228/1/4
f 229/2/4 230/2/4 235/2/4
f 235/2/4 230/2/4 236/2/4
f 231/2/4 232/2/4 237/2/4
f 237/2/4 232/2/4 238/2/4
f 233/2/4 234/2/4 239/2/4
f 239/2/4 234/2/4 240/2/4
f 241/3/4 242/3/4 243/3/4
f 243/3/4 242/3/4 244/3/4
f 244/3/4 242/3/4 245/3/4
f 245/3/4 242/3/4 246/3/4
f 246/3/4 242/3/4 247/3/4
f 247/3/4 242/3/4 248/3/4
f 244/3/4 245/3/4 250/3/4
f 250/3/4 245/3/4 251/3/4
f 246/3/4 247/3/4 252/3/4
f 252/3/4 247/3/4 253/3/4
f 248/3/4 242/3/4 254/3/4
f 252/3/4 253/3/4 255/3/4
f 253/3/4 254/3/4 255/3/4
f 250/3/4 251/3/4 255/3/4
f 249/3/4 250/3/4 255/3/4
f 251/3/4 252/3/4 255/3/4
f 254/3/4 242/3/4 256/3/4
f 255/3/4 254/3/4 256/3/4
f 261/3/5 258/3/5 257/3/5
f 262/3/5 258/3/5 261/3/5
f 263/3/5 260/3/5 259/3/5
f 264/3/5 260/3/5 263/3/5
f 269/3/5 266/3/5 265/3/5
f 270/3/5 266/3/5 269/3/5
f 271/3/5 268/3/5 267/3/5
f 272/3/5 268/3/5 271/3/5
f 276/3/5 274/3/5 273/3/5
f 277/3/5 274/3/5 276/3/5
f 279/3/5 276/3/5 275/3/5
f 279/3/5 278/3/5 277/3/5
f 279/3/5 277/3/5 276/3/5
f 280/3/5 278/3/5 279/3/5
f 281/3/5 278/3/5 280/3/5
f 282/3/5 278/3/5 281/3/5
f 283/3/5 281/3/5 280/3/5
f 284/3/5 281/3/5 283/3/5
f 288/3/5 286/3/5 285/3/5
f 289/3/5 286/3/5 288/3/5
f 291/3/5 288/3/5 287/3/5
f 292/3/5 288/3/5 291/3/5
f 293/3/5 290/3/5 289/3/5
f 294/3/5 290/3/5 293/3/5
f 295/3/5 293/3/5 292/3/5
f 296/3/5 293/3/5 295/3/5
f 300/3/5 298/3/5 297/3/5
f 301/3/5 298/3/5 300/3/5
f 303/3/5 300/3/5 299/3/5
f 304/3/5 300/3/5 303/3/5
f 305/3/5 302/3/5 301/3/5
f 306/3/5 302/3/5 305/3/5
f 307/3/5 305/3/5 304/3/5
f 308/3/5 305/3/5 307/3/5
f 309/3/6 310/3/6 312/3/6
f 312/3/6 310/3/6 313/3/6
f 311/3/6 312/3/6 315/3/6
f 315/3/6 312/3/6 316/3/6
f 313/3/6 314/3/6 317/3/6
f 317/3/6 314/3/6 318/3/6
f 316/3/6 317/3/6 319/3/6
f 319/3/6 317/3/6 320/3/6
f 321/3/6 322/3/6 324/3/6
f 324/3/6 322/3/6 325/3/6
f 323/3/6 324/3/6 327/3/6
f 327/3/6 324/3/6 328/3/6
f 325/3/6 326/3/6 329/3/6
f 329/3/6 326/3/6 330/3/6
f 328/3/6 329/3/6 331/3/6
f 331/3/6 329/3/6 332/3/6
f 333/3/6 334/3/6 335/3/6
f 335/3/6 334/3/6 336/3/6
f 333/3/6 335/3/6 337/3/6
f 336/3/6 334/3/6 338/3/6
f 333/3/6 337/3/6 339/3/6
f 337/3/6 338/3/6 339/3/6
f 338/3/6 334/3/6 340/3/6
f 339/3/6 338/3/6 340/3/6
f 341/2/6 342/2/6 343/2/6
f 343/2/6 342/2/6 344/2/6
f 341/2/6 343/2/6 345/2/6
f 344/2/6 342/2/6 346/2/6
f 341/2/6 345/2/6 347/2/6
f 345/2/6 346/2/6 347/2/6
f 347/2/6 346/2/6 348/2/6
f 346/2/6 342/2/6 349/2/6
f 348/2/6 346/2/6 349/2/6
f 349/2/6 342/2/6 350/2/6
f 341/2/6 347/2/6 351/2/6
f 348/2/6 349/2/6 352/2/6
f 352/2/6 349/2/6 353/2/6
f 350/2/6 342/2/6 354/2/6
f 352/2/6 353/2/6 355/2/6
f 353/2/6 354/2/6 355/2/6
f 341/2/6 351/2/6 355/2/6
f 351/2/6 352/2/6 355/2/6
f 354/2/6 342/2/6 356/2/6
f 355/2/6 354/2/6 356/2/6
f 357/1/6 358/1/6 359/1/6
f 359/1/6 358/1/6 360/1/6
f 361/1/6 362/1/6 365/1/6
f 365/1/6 362/1/6 366/1/6
f 363/1/6 364/1/6 367/1/6
f 367/1/6 364/1/6 368/1/6
